<?xml version="1.0" encoding="UTF-8" standalone="no"?>
<svg
   xmlns:dc="http://purl.org/dc/elements/1.1/"
   xmlns:cc="http://creativecommons.org/ns#"
   xmlns:rdf="http://www.w3.org/1999/02/22-rdf-syntax-ns#"
   xmlns:svg="http://www.w3.org/2000/svg"
   xmlns="http://www.w3.org/2000/svg"
   xmlns:xlink="http://www.w3.org/1999/xlink"
   xmlns:sodipodi="http://sodipodi.sourceforge.net/DTD/sodipodi-0.dtd"
   xmlns:inkscape="http://www.inkscape.org/namespaces/inkscape"
   version="1.0"
   id="Layer_1"
   x="0px"
   y="0px"
   width="300.08853"
   height="75.231514"
   viewBox="0 0 300.08852 75.231512"
   enable-background="new 0 0 841.89 595.28"
   xml:space="preserve"
   inkscape:version="0.92.4 (5da689c313, 2019-01-14)"
   sodipodi:docname="logo-caeplex-only-text.svg"><metadata
     id="metadata6016"><rdf:RDF><cc:Work
         rdf:about=""><dc:format>image/svg+xml</dc:format><dc:type
           rdf:resource="http://purl.org/dc/dcmitype/StillImage" /><dc:title></dc:title></cc:Work></rdf:RDF></metadata><defs
     id="defs6014"><linearGradient
       inkscape:collect="always"
       xlink:href="#SVGID_2_"
       id="linearGradient12003"
       gradientUnits="userSpaceOnUse"
       x1="351.66599"
       y1="196.7305"
       x2="489.0791"
       y2="196.7305" /><linearGradient
       inkscape:collect="always"
       xlink:href="#SVGID_6_"
       id="linearGradient12007"
       gradientUnits="userSpaceOnUse"
       x1="300.56741"
       y1="233.31351"
       x2="437.8418"
       y2="233.31351" /><linearGradient
       inkscape:collect="always"
       xlink:href="#SVGID_11_"
       id="linearGradient12013"
       gradientUnits="userSpaceOnUse"
       x1="334.99609"
       y1="214.6436"
       x2="541.32129"
       y2="214.6436" /><linearGradient
       inkscape:collect="always"
       xlink:href="#SVGID_2_"
       id="linearGradient15025"
       gradientUnits="userSpaceOnUse"
       x1="351.66599"
       y1="196.7305"
       x2="489.0791"
       y2="196.7305" /><linearGradient
       inkscape:collect="always"
       xlink:href="#SVGID_6_"
       id="linearGradient15027"
       gradientUnits="userSpaceOnUse"
       x1="300.56741"
       y1="233.31351"
       x2="437.8418"
       y2="233.31351" /><linearGradient
       inkscape:collect="always"
       xlink:href="#SVGID_11_"
       id="linearGradient15029"
       gradientUnits="userSpaceOnUse"
       x1="334.99609"
       y1="214.6436"
       x2="541.32129"
       y2="214.6436" /></defs><sodipodi:namedview
     pagecolor="#ffffff"
     bordercolor="#666666"
     borderopacity="1"
     objecttolerance="10"
     gridtolerance="10"
     guidetolerance="10"
     inkscape:pageopacity="0"
     inkscape:pageshadow="2"
     inkscape:window-width="1920"
     inkscape:window-height="1015"
     id="namedview6012"
     showgrid="false"
     inkscape:zoom="2.2426716"
     inkscape:cx="70.024035"
     inkscape:cy="116.37976"
     inkscape:window-x="0"
     inkscape:window-y="0"
     inkscape:window-maximized="1"
     inkscape:current-layer="Layer_1"
     fit-margin-top="0"
     fit-margin-left="0"
     fit-margin-right="0"
     fit-margin-bottom="0"
     showguides="true"
     inkscape:guide-bbox="true"
     units="px"><sodipodi:guide
       position="300.08851,114.14958"
       orientation="1,0"
       id="guide3835"
       inkscape:locked="false" /></sodipodi:namedview><g
     id="g11"
     transform="matrix(0.50301893,0,0,0.50301893,-61.698793,-159.8066)"><g
       id="g13"><path
         style="fill:#00b3e3"
         inkscape:connector-curvature="0"
         id="path15"
         d="M 392.694,462.072 V 358.615 c 0,-24.055 15.134,-40.018 37.525,-40.018 23.221,0 38.978,15.963 38.978,40.018 v 18.863 c 0,24.053 -15.341,40.016 -38.354,40.016 h -7.673 v 44.578 c 0,2.695 -1.451,4.146 -4.145,4.146 H 396.84 c -2.694,10e-4 -4.146,-1.45 -4.146,-4.146 z m 36.076,-72.566 c 6.842,0 9.744,-3.316 9.744,-10.988 v -22.393 c 0,-5.596 -2.902,-8.914 -7.878,-8.914 -4.563,0 -7.465,3.318 -7.465,8.914 v 33.381 z" /><path
         style="fill:#00b3e3"
         inkscape:connector-curvature="0"
         id="path17"
         d="m 546.945,439.264 c 2.695,0 4.146,1.453 4.146,4.148 v 19.695 c 0,2.695 -1.451,4.146 -4.146,4.146 h -25.502 c -23.221,0 -36.074,-16.17 -36.074,-38.148 V 325.234 c 0,-2.697 1.45,-4.148 4.147,-4.148 h 22.598 c 2.694,0 4.146,1.451 4.146,4.148 V 427.24 c 0,8.707 4.147,12.023 8.293,12.023 h 22.392 z" /><path
         style="fill:#00b3e3"
         inkscape:connector-curvature="0"
         id="path19"
         d="m 560.625,427.24 v -67.176 c 0,-24.051 15.344,-40.014 38.357,-40.014 h 21.977 c 2.695,0 4.146,1.451 4.146,4.145 v 19.697 c 0,2.695 -1.45,4.146 -4.146,4.146 H 603.13 c -7.465,0 -11.819,4.768 -11.819,13.062 v 18.66 h 24.464 c 2.695,0 4.146,1.449 4.146,4.145 v 18.66 c 0,2.699 -1.451,4.15 -4.146,4.15 h -24.464 v 19.488 c 0,8.293 4.354,13.059 11.819,13.059 h 17.829 c 2.695,0 4.146,1.453 4.146,4.148 v 19.695 c 0,2.695 -1.45,4.146 -4.146,4.146 h -21.977 c -23.013,0.003 -38.357,-15.96 -38.357,-40.011 z" /><path
         style="fill:#00b3e3"
         inkscape:connector-curvature="0"
         id="path21"
         d="m 719.232,367.113 c 0,10.158 -3.525,19.076 -10.159,25.709 6.634,6.635 10.159,15.553 10.159,25.711 v 43.539 c 0,2.695 -1.451,4.146 -4.148,4.146 h -22.182 c -2.698,0 -4.148,-1.451 -4.148,-4.146 v -46.029 c 0,-5.598 -2.694,-8.914 -7.257,-8.914 -4.561,0 -7.255,3.316 -7.255,8.914 v 46.029 c 0,2.695 -1.452,4.146 -4.148,4.146 H 647.91 c -2.696,0 -4.148,-1.451 -4.148,-4.146 v -43.539 c 0,-10.158 3.525,-19.076 10.161,-25.711 -6.636,-6.633 -10.161,-15.551 -10.161,-25.709 v -41.879 c 0,-2.697 1.452,-4.148 4.148,-4.148 h 22.184 c 2.696,0 4.148,1.451 4.148,4.148 v 44.367 c 0,5.598 2.694,8.916 7.255,8.916 4.563,0 7.257,-3.318 7.257,-8.916 v -44.367 c 0,-2.697 1.45,-4.148 4.148,-4.148 h 22.182 c 2.698,0 4.148,1.451 4.148,4.148 z" /></g><g
       id="g23"><g
         id="g25"><path
           style="fill:#66c1bf"
           inkscape:connector-curvature="0"
           id="path27"
           d="m 122.657,427.387 v -69.824 c 0,-23.963 15.286,-39.867 38.217,-39.867 21.69,0 35.943,15.492 36.771,41.934 0,2.891 -1.24,4.34 -3.926,4.34 h -22.31 c -2.479,0 -4.132,-1.449 -4.132,-4.133 -0.207,-9.504 -2.893,-13.637 -7.229,-13.637 -4.132,0 -6.817,3.307 -6.817,8.887 v 74.781 c 0,5.574 2.686,8.879 6.817,8.879 4.751,0 7.643,-4.957 8.056,-15.699 0.208,-2.686 1.653,-4.131 4.132,-4.131 h 22.31 c 2.685,0 4.131,1.652 3.924,4.752 -1.033,27.475 -14.872,43.586 -37.596,43.586 -22.931,-10e-4 -38.217,-15.907 -38.217,-39.868 z" /><path
           style="fill:#66c1bf"
           inkscape:connector-curvature="0"
           id="path29"
           d="M 216.088,460.645 V 357.562 c 0,-23.963 15.287,-39.867 38.011,-39.867 22.722,0 38.009,15.904 38.009,39.867 v 103.082 c 0,2.686 -1.446,4.133 -4.131,4.133 h -22.104 c -2.686,0 -4.132,-1.447 -4.132,-4.133 v -37.598 h -15.287 v 37.598 c 0,2.686 -1.445,4.133 -4.131,4.133 H 220.22 c -2.686,0 -4.132,-1.447 -4.132,-4.132 z m 45.653,-65.485 v -40.074 c 0,-5.58 -2.892,-8.887 -7.643,-8.887 -4.751,0 -7.645,3.307 -7.645,8.887 v 40.074 z" /><path
           style="fill:#66c1bf"
           inkscape:connector-curvature="0"
           id="path31"
           d="m 310.454,425.939 v -66.93 c 0,-23.963 15.286,-39.869 38.215,-39.869 h 21.897 c 2.686,0 4.132,1.445 4.132,4.133 v 19.623 c 0,2.688 -1.446,4.133 -4.132,4.133 h -17.765 c -7.437,0 -11.774,4.748 -11.774,13.016 v 18.59 h 24.375 c 2.686,0 4.132,1.445 4.132,4.133 v 18.59 c 0,2.686 -1.446,4.133 -4.132,4.133 h -24.375 v 19.416 c 0,8.264 4.337,13.014 11.774,13.014 h 17.765 c 2.686,0 4.132,1.447 4.132,4.133 v 19.623 c 0,2.688 -1.446,4.135 -4.132,4.135 h -21.897 c -22.93,-0.001 -38.215,-15.908 -38.215,-39.873 z" /></g></g></g></svg>