<?xml version="1.0" encoding="UTF-8" standalone="no"?>
<svg
   xmlns:dc="http://purl.org/dc/elements/1.1/"
   xmlns:cc="http://creativecommons.org/ns#"
   xmlns:rdf="http://www.w3.org/1999/02/22-rdf-syntax-ns#"
   xmlns:svg="http://www.w3.org/2000/svg"
   xmlns="http://www.w3.org/2000/svg"
   xmlns:sodipodi="http://sodipodi.sourceforge.net/DTD/sodipodi-0.dtd"
   xmlns:inkscape="http://www.inkscape.org/namespaces/inkscape"
   version="1.1"
   id="svg2"
   width="988.12756"
   height="421.36368"
   viewBox="0 0 988.12756 421.36368"
   sodipodi:docname="3bars.svg"
   inkscape:version="1.0.2 (e86c870879, 2021-01-15)">
  <metadata
     id="metadata8">
    <rdf:RDF>
      <cc:Work
         rdf:about="">
        <dc:format>image/svg+xml</dc:format>
        <dc:type
           rdf:resource="http://purl.org/dc/dcmitype/StillImage" />
        <dc:title></dc:title>
      </cc:Work>
    </rdf:RDF>
  </metadata>
  <defs
     id="defs6" />
  <sodipodi:namedview
     pagecolor="#ffffff"
     bordercolor="#666666"
     borderopacity="1"
     objecttolerance="10"
     gridtolerance="10"
     guidetolerance="10"
     inkscape:pageopacity="0"
     inkscape:pageshadow="2"
     inkscape:window-width="1920"
     inkscape:window-height="1015"
     id="namedview4"
     showgrid="false"
     fit-margin-top="0"
     fit-margin-left="0"
     fit-margin-right="0"
     fit-margin-bottom="0"
     inkscape:zoom="1.1921569"
     inkscape:cx="494.88452"
     inkscape:cy="209.63429"
     inkscape:window-x="0"
     inkscape:window-y="0"
     inkscape:window-maximized="1"
     inkscape:current-layer="g10" />
  <g
     inkscape:groupmode="layer"
     inkscape:label="Image"
     id="g10"
     transform="translate(-15.115481,-17.365715)">
    <path
       style="fill:#000000"
       d="m 261.76975,437.11906 c -1.8383,-3.5087 -2.15855,-7.84836 -0.89838,-12.17399 2.14127,-7.3501 3.24488,-5.84603 3.24488,4.42231 0,9.36957 -0.54887,11.18276 -2.3465,7.75168 z m 16.3465,-7.75 c 0,-5.225 0.29348,-9.5 0.65217,-9.5 2.30515,0 3.64621,11.76991 1.87258,16.4349 -1.78446,4.69348 -2.52475,2.66007 -2.52475,-6.9349 z m -11.5,4 c -1.55758,-1.87676 0.26262,-4.5 3.12244,-4.5 1.03266,0 1.87756,-0.68357 1.87756,-1.51905 0,-1.15653 -0.6563,-1.35559 -2.75,-0.83413 -2.47914,0.61747 -2.61482,0.52085 -1.37756,-0.98095 3.24992,-3.94475 7.12756,-1.20601 7.12756,5.03413 0,4.21793 -0.0645,4.3 -3.37756,4.3 -1.85765,0 -3.93775,-0.675 -4.62244,-1.5 z m 5,-1.5 c 0,-0.55 -0.675,-1 -1.5,-1 -0.825,0 -1.5,0.45 -1.5,1 0,0.55 0.675,1 1.5,1 0.825,0 1.5,-0.45 1.5,-1 z m 502.1535,-1.75 c -2.73176,-5.214 -1.69612,-17.25 1.48427,-17.25 1.04666,0 1.20688,0.69455 0.63437,2.75 -0.96375,3.46009 -0.98224,8.78751 -0.0451,13 0.77683,3.49204 -0.53328,4.43979 -2.07351,1.5 z m 17.55444,-5.5713 c 0.35515,-4.69588 0.13558,-8.10257 -0.6123,-9.5 -0.93505,-1.74715 -0.89371,-2.1787 0.20866,-2.1787 1.98314,0 3.6957,4.40224 3.6957,9.5 0,4.41216 -1.65135,9.5 -3.0834,9.5 -0.4193,0 -0.5132,-3.29458 -0.20866,-7.3213 z m -12.04127,2.65463 c -1.15745,-1.15745 -0.76498,-14.33333 0.42695,-14.33333 0.60149,0 1.31635,0.85172 1.58858,1.89272 0.28693,1.09722 1.70738,2.1352 3.37971,2.46966 5.94889,1.18978 4.24515,10.63762 -1.9183,10.63762 -1.54565,0 -3.11028,-0.3 -3.47694,-0.66667 z m 6.13159,-5.74582 c -0.16404,-1.14813 -0.9671,-2.08751 -1.78456,-2.08751 -1.65294,0 -2.505,2.77731 -1.58644,5.17104 0.87619,2.28332 3.7608,-0.3553 3.371,-3.08353 z m 0.76287,-135.08751 c 0.38143,-83.97598 0.36329,-84.95181 -1.50568,-81 -3.83299,8.10458 -7.97806,17.55546 -17.98224,41 -5.63266,13.2 -10.65448,24.675 -11.15959,25.5 -0.50512,0.825 -1.37661,2.625 -1.93664,4 -0.56004,1.375 -1.43439,3.4 -1.94301,4.5 -0.50862,1.1 -1.87391,4.25 -3.03397,7 -2.43882,5.78138 -2.69426,6.36113 -7.44206,16.89083 -1.95687,4.33996 -3.55794,8.57953 -3.55794,9.42126 0,0.84174 -0.60339,2.24086 -1.34086,3.10917 -1.12071,1.31954 -17.11243,37.78768 -19.00018,43.32874 -0.55972,1.64296 -4.63152,1.75 -66.56856,1.75 -42.90289,0 -66.18848,-0.34968 -66.5904,-1 -0.40964,-0.66281 21.65628,-1 65.44098,-1 45.66319,0 66.05902,-0.32569 66.05902,-1.05486 0,-0.58018 0.97578,-3.16768 2.16841,-5.75 1.19262,-2.58233 5.18065,-11.67014 8.86227,-20.19514 l 6.69387,-15.5 -64.36227,-0.25729 c -41.75344,-0.16692 -64.36228,-0.60601 -64.36228,-1.25 0,-0.64649 22.40835,-0.99805 64.25,-1.00802 35.3375,-0.008 64.72345,-0.34592 65.3021,-0.75 1.00451,-0.70146 4.4479,-7.3849 4.4479,-8.63315 0,-0.52179 3.11574,-7.63396 7.49193,-17.10154 1.87076,-4.04727 5.07152,-11.5971 5.82932,-13.75 0.58252,-1.65494 -2.88596,-1.75 -63.85263,-1.75 -42.31241,0 -64.46862,-0.34367 -64.46862,-1 0,-0.65641 22.33001,-1 64.99004,-1 h 64.99005 l 3.06837,-6.75 c 1.6876,-3.7125 7.77437,-17.62512 13.52616,-30.91693 5.75178,-13.2918 11.12272,-25.4418 11.93542,-27 0.8127,-1.55819 1.48041,-3.39557 1.4838,-4.08307 0.005,-0.99104 -19.15722,-1.25 -92.49384,-1.25 -61,0 -92.5,-0.34054 -92.5,-1 0,-0.65953 31.81823,-1 93.45469,-1 h 93.45468 l 0.52727,-3.25 c 0.44468,-2.74097 2.58238,-144.835564 2.56804,-170.699992 -0.003,-4.6475 0.36246,-8.0225 0.81119,-7.5 0.44872,0.5225 0.49199,23.675 0.0961,51.45 -0.39585,27.774995 -0.75228,66.474992 -0.79207,85.999992 l -0.0724,35.5 3.4762,-7.32821 c 1.91191,-4.03052 3.4762,-7.54271 3.4762,-7.80487 0,-0.26215 0.93931,-2.53857 2.08736,-5.05869 1.14805,-2.52012 5.82246,-13.18293 10.38759,-23.69513 4.56512,-10.51221 9.50146,-21.8131 10.96964,-25.1131 1.46818,-3.3 3.06521,-6.9 3.54896,-8 0.48374,-1.1 2.25809,-5.0689 3.94299,-8.81977 1.6849,-3.75087 3.06346,-7.000027 3.06346,-7.220357 0,-0.22033 1.15858,-3.00143 2.57463,-6.18023 1.41605,-3.178799 3.25272,-7.354635 4.0815,-9.279635 0.82877,-1.925 2.64429,-5.975 4.03449,-9 1.3902,-3.025 5.33392,-12.025 8.76382,-20 l 6.2362,-14.5 61.65468,-0.257628 c 40.60591,-0.169674 61.65476,0.08375 61.65476,0.742314 0,0.652858 -21.19514,1.089385 -61.0629,1.257627 l -61.06292,0.257687 -8.37409,19.263859 c -4.60575,10.595122 -8.65776,20.157622 -9.00447,21.25 -0.62443,1.967414 -0.0263,1.986141 63.43701,1.986141 42.04493,0 64.06739,0.343739 64.06739,1 0,0.656311 -22.12585,1 -64.37756,1 -50.3263,0 -64.58589,0.272829 -65.33207,1.25 -0.52498,0.6875 -2.62337,5.195617 -4.66309,10.018035 -2.03971,4.822417 -5.07671,11.797417 -6.74889,15.499997 -1.67218,3.70258 -3.67889,8.14997 -4.45936,9.88309 -0.78047,1.73312 -1.41903,3.64562 -1.41903,4.25 0,0.78705 18.16107,1.09887 64,1.09887 42,0 64,0.34375 64,1 0,0.65638 -22.26413,1 -64.79238,1 h -64.79238 l -3.8688,8.75 c -2.12785,4.8125 -4.76268,10.775 -5.85519,13.25 -10.42063,23.60712 -19.69125,45.57719 -19.69125,46.66552 0,1.10392 17.62284,1.33448 102,1.33448 67.33333,0 101.99998,0.33987 101.99998,1 0,0.66012 -34.61364,1 -101.84096,1 H 788.9343 l -0.65903,21.16124 c -0.36246,11.63868 -0.71032,44.15118 -0.77302,72.25 -0.0627,28.09882 -0.47332,56.93876 -0.91248,64.08876 -0.45133,7.34818 -0.63062,-23.9542 -0.41239,-72 z M 67.619955,367.373 c -1.289708,-1.37283 -2.073926,-2.76705 -1.742707,-3.09827 0.729967,-0.72997 5.45037,2.59633 6.16512,4.34433 0.88482,2.16395 -1.97619,1.35783 -4.422413,-1.24606 z m 4.023393,-3.9766 c -3.52831,-3.55996 -6.086003,-6.80177 -5.683751,-7.20402 0.402251,-0.40225 3.973181,2.51044 7.935391,6.47266 3.96221,3.96221 6.5199,7.20402 5.68375,7.20402 -0.83614,0 -4.40707,-2.9127 -7.93539,-6.47266 z m 4.44072,-3.50954 c -9.612128,-9.63747 -11.57146,-12.03659 -9.80115,-12.00109 1.54324,0.0309 22.767733,21.98329 21.254413,21.98329 -0.82352,0 -5.977483,-4.49199 -11.453263,-9.9822 z m 6.532183,-1.5178 c -6.307053,-6.325 -10.792373,-11.5 -9.967373,-11.5 0.825,0 6.66032,5.175 12.967373,11.5 6.30706,6.325 10.79238,11.5 9.96738,11.5 -0.825,0 -6.66032,-5.175 -12.96738,-11.5 z m 7.72131,0.17127 c -5.92828,-6.13368 -10.291903,-11.31441 -9.696933,-11.51273 0.59497,-0.19832 6.326473,4.85987 12.736673,11.24044 7.940439,7.90372 11.030899,11.57288 9.696929,11.51273 -1.11199,-0.0502 -6.615159,-4.90684 -12.736669,-11.24044 z m 12.141599,3.92191 C 89.149011,349.05258 87.195801,346.86906 88.530671,346.86906 c 0.72618,0 6.53384,5.175 12.905919,11.5 6.37208,6.325 10.87007,11.5 9.99553,11.5 -0.87453,0 -4.90337,-3.33307 -8.95296,-7.40682 z m 3.88709,-3.66228 c -5.9125,-5.96208 -10.749999,-11.08557 -10.749999,-11.38553 0,-2.13095 4.0272,1.03913 13.951059,10.98183 7.7119,7.72655 10.81397,11.43542 9.5,11.35833 -1.07308,-0.063 -6.78856,-4.99254 -12.70106,-10.95463 z m 8.70317,0.78775 c -10.65466,-10.83687 -12.20976,-12.71865 -10.51067,-12.71865 1.28904,0 14.77932,12.86282 19.66465,18.75 6.61042,7.96606 0.92519,4.22018 -9.15398,-6.03135 z m 13.04683,5.56897 c -2.2,-2.47816 -6.8125,-7.37334 -10.25,-10.87817 -3.4375,-3.50483 -6.25,-6.60575 -6.25,-6.89093 0,-1.86434 3.25938,0.30778 7.85947,5.23771 2.94771,3.15907 7.87901,8.33127 10.95845,11.49377 4.22024,4.33406 5.11672,5.72456 3.64053,5.64668 -1.07715,-0.0568 -3.75845,-2.13091 -5.95845,-4.60906 z m 4.93719,-3.20683 c -13.89112,-13.85965 -15.16033,-15.32577 -12.92627,-14.93167 2.48887,0.43904 24.42775,22.85088 22.36866,22.85088 -0.82786,0 -5.07693,-3.56364 -9.44239,-7.91921 z m 4.22039,-3.37133 c -5.96334,-6.13132 -10.31973,-11.32208 -9.68087,-11.53503 0.63885,-0.21295 6.38926,4.83569 12.77869,11.21919 7.89799,7.89068 10.99725,11.58354 9.68087,11.53503 -1.09322,-0.0403 -6.65708,-4.92514 -12.77869,-11.21919 z m 8.34242,0.24905 c -12.34105,-12.75802 -11.66918,-11.95851 -10.0493,-11.95851 0.70622,0 6.49756,5.175 12.86964,11.5 7.84594,7.78797 10.95521,11.46986 9.63263,11.40664 -1.09705,-0.0524 -6.55474,-4.85062 -12.45297,-10.94813 z m 7.75,0.0892 c -5.9125,-5.95969 -10.75,-11.10848 -10.75,-11.44176 0,-2.11501 3.65156,0.7635 13.81974,10.89405 7.86796,7.83884 10.92789,11.48146 9.61149,11.44176 -1.07978,-0.0326 -6.67071,-4.83555 -12.68123,-10.89405 z m 8.68495,0.62188 c -10.68628,-10.79727 -12.22749,-12.66959 -10.42908,-12.66959 1.1763,0 22.99413,21.20006 22.99413,22.34306 0,2.14249 -3.65715,-0.67304 -12.56505,-9.67347 z m 6.615,-1.22558 c -7.38024,-7.37635 -10.81548,-11.44401 -9.66473,-11.44401 0.98192,0 6.98919,5.175 13.34948,11.5 7.74113,7.69819 10.93622,11.48149 9.66473,11.44401 -1.04469,-0.0308 -7.05195,-5.2058 -13.34948,-11.5 z m 8.93956,0.72216 c -6.04423,-5.9586 -10.98951,-11.1336 -10.98951,-11.5 0,-1.89189 2.7961,0.3413 13.56467,10.83383 7.00959,6.82991 11.11457,11.5 10.10844,11.5 -0.93175,0 -6.63938,-4.87522 -12.6836,-10.83383 z m 191.26049,8.19296 c -2.24264,-2.42173 -2.92409,-4.38767 -1.5,-4.32738 0.4125,0.0175 2.30334,1.59246 4.20186,3.5 2.85541,2.86896 3.1146,3.45 1.5,3.36266 -1.07352,-0.0581 -2.96436,-1.19895 -4.20186,-2.53528 z m 4,-3.7835 c -5.69873,-5.80808 -7.4884,-8.59477 -5.5,-8.56404 0.4125,0.006 2.77903,2.14388 5.25897,4.75 8.12763,8.54121 9.44479,10.24042 7.91534,10.21119 -0.78337,-0.015 -4.23681,-2.89368 -7.67431,-6.39715 z m 9.25,1.72994 c -2.2,-2.46828 -6.5875,-7.17218 -9.75,-10.4531 -5.35998,-5.56069 -6.81787,-7.85247 -4.99525,-7.85247 0.41511,0 3.13872,2.5875 6.05248,5.75 2.91375,3.1625 7.84292,8.3375 10.95371,11.5 4.24125,4.31176 5.1661,5.72416 3.69751,5.64668 -1.07715,-0.0568 -3.75845,-2.12282 -5.95845,-4.59111 z m 4.93719,-3.22478 c -13.89112,-13.85965 -15.16033,-15.32577 -12.92627,-14.93167 2.48887,0.43904 24.42775,22.85088 22.36866,22.85088 -0.82786,0 -5.07693,-3.56364 -9.44239,-7.91921 z m 4.31281,-3.20546 c -5.9125,-6.02489 -10.75,-11.16157 -10.75,-11.41484 0,-2.05532 4.16681,1.25311 13.92843,11.05911 7.71635,7.75145 10.80205,11.45274 9.5,11.39524 -1.06241,-0.0469 -6.75606,-5.00457 -12.67843,-11.03951 z m 8.25,0.0832 c -12.34105,-12.75804 -11.66918,-11.95853 -10.0493,-11.95853 0.70622,0 6.49756,5.175 12.86964,11.5 7.84594,7.78797 10.95521,11.46986 9.63263,11.40664 -1.09705,-0.0524 -6.55474,-4.85062 -12.45297,-10.94813 z m 7.75,0.0892 c -5.9125,-5.95971 -10.75,-11.1085 -10.75,-11.44178 0,-2.11501 3.65156,0.7635 13.81974,10.89405 7.86796,7.83884 10.92789,11.48146 9.61149,11.44176 -1.07978,-0.0326 -6.67071,-4.83555 -12.68123,-10.89405 z m 8.68495,0.62188 c -10.68628,-10.79729 -12.22749,-12.66961 -10.42908,-12.66961 1.1763,0 22.99413,21.20006 22.99413,22.34306 0,2.14249 -3.65715,-0.67304 -12.56505,-9.67347 z m 6.615,-1.22558 c -7.47988,-7.47595 -10.82372,-11.44403 -9.64369,-11.44403 0.9935,0 6.97177,5.175 13.28505,11.5 7.41761,7.43137 10.82948,11.48019 9.64369,11.44401 -1.00925,-0.0308 -6.98752,-5.2058 -13.28505,-11.5 z m 8.93956,0.72216 c -6.04423,-5.95862 -10.98951,-11.13362 -10.98951,-11.50002 0,-1.89189 2.7961,0.3413 13.56467,10.83383 7.00959,6.82991 11.11457,11.5 10.10844,11.5 -0.93175,0 -6.63938,-4.87522 -12.6836,-10.83383 z m 7.51049,-0.67334 c -7.4301,-7.09992 -11.33167,-11.47171 -10.24506,-11.47979 0.96522,-0.007 3.95808,2.23694 6.65081,4.98694 2.69273,2.75 5.39051,5 5.99506,5 0.60456,0 1.09919,0.35171 1.09919,0.78158 0,0.42987 2.55288,3.35487 5.67306,6.5 10.45586,10.53946 2.97229,5.8169 -9.17306,-5.78873 z m 8.21175,-0.0301 c -6.48353,-6.30449 -11.08645,-11.46275 -10.22871,-11.46275 0.85775,0 6.83746,5.16081 13.28825,11.46847 6.45079,6.30766 11.05371,11.46591 10.22871,11.46279 -0.825,-0.003 -6.80471,-5.16393 -13.28825,-11.46847 z m 8.48891,0.29341 c -6.18083,-6.18409 -10.74301,-11.40875 -10.13818,-11.61036 0.60483,-0.20161 6.33404,4.8581 12.73158,11.2438 6.39755,6.3857 10.95973,11.61036 10.13818,11.61036 -0.82154,0 -6.55076,-5.05971 -12.73158,-11.2438 z m 7.79934,-0.25616 c -6.30706,-6.325 -10.79238,-11.5 -9.96738,-11.5 0.825,0 6.66032,5.175 12.96738,11.5 6.30706,6.325 10.79238,11.5 9.96738,11.5 -0.825,0 -6.66032,-5.175 -12.96738,-11.5 z m 7.72131,0.17127 c -5.92828,-6.13368 -10.2919,-11.31441 -9.69693,-11.51273 0.59497,-0.19832 6.32647,4.85987 12.73667,11.24044 7.94044,7.90372 11.03089,11.57288 9.69693,11.51273 -1.11199,-0.0502 -6.61517,-4.90684 -12.73667,-11.24044 z m 10.14971,1.97843 c -12.1873,-12.16035 -13.48668,-13.6497 -11.90864,-13.6497 0.69979,0 6.48588,5.175 12.85796,11.5 6.37208,6.325 10.87372,11.5 10.00365,11.5 -0.87008,0 -5.79891,-4.20763 -10.95297,-9.3503 z m -296.86003,-2.66101 c -7.03181,-6.7256 -10.81243,-10.98869 -9.74505,-10.98869 0.95917,0 3.94708,2.25 6.63981,5 2.69273,2.75 5.39051,5 5.99506,5 0.60456,0 1.09919,0.3435 1.09919,0.76334 0,0.41984 2.01027,2.78234 4.46727,5.25 4.30742,4.32612 5.3666,5.99924 3.78273,5.97535 -0.4125,-0.006 -5.92005,-4.95623 -12.23901,-11 z m 302.05599,0.0776 c -5.53684,-5.48286 -10.06698,-10.21579 -10.06698,-10.51758 0,-0.30179 0.5625,-0.53887 1.25,-0.52685 1.88068,0.0329 21.03661,19.68297 19.88302,20.39593 -0.54948,0.3396 -5.5292,-3.86856 -11.06604,-9.35146 z m 66.93302,6.93371 c 0,-0.55 0.45,-1 1,-1 1.45917,0 1.22629,-6.75717 -0.25,-7.25405 -1.84235,-0.62008 0.97184,-3.74595 3.37244,-3.74595 1.60057,0 1.87756,0.78188 1.87756,5.3 0,2.915 0.54,5.84 1.2,6.5 0.93333,0.93333 0.26667,1.2 -3,1.2 -2.31,0 -4.2,-0.45 -4.2,-1 z M 188.70009,353.82654 c -4.07888,-3.82662 -6.73146,-6.95748 -5.89462,-6.95748 1.66578,0 14.81078,11.61651 14.81078,13.08859 0,1.82305 -1.63879,0.69615 -8.91616,-6.13111 z m 302.37159,0.76914 c -5.70443,-5.91029 -7.01568,-7.72662 -5.57802,-7.72662 1.22343,0 13.12259,11.04678 13.12259,12.18257 0,2.06031 -2.91957,0.33597 -7.54457,-4.45595 z m -297.95543,-4.72662 c -1.5808,-1.65 -2.29092,-3 -1.57804,-3 1.39657,0 6.03233,4.01562 6.06076,5.25 0.0353,1.53073 -1.69037,0.66458 -4.48272,-2.25 z m 301.75,0.32558 c -2.48519,-1.73358 -2.95061,-3.32558 -0.97224,-3.32558 1.17762,0 4.72224,3.38638 4.72224,4.51143 0,0.87537 -1.45448,0.41542 -3.75,-1.18585 z M 61.616251,344.86906 c 0,-0.62404 6.109428,-1.01472 16.249997,-1.03914 14.747863,-0.0355 15.972683,-0.16939 13.250003,-1.44817 -4.28167,-2.01099 -5.90394,-3.55025 -7.81635,-7.41633 -3.148683,-6.36533 -1.357273,-14.84813 4.03068,-19.08629 l 2.46063,-1.93554 -9.837483,-0.28726 -9.83748,-0.28727 -0.25969,-47.75 -0.2597,-47.75 H 55.713543 c -15.148938,0 -15.097292,-0.0208 -15.097292,6.08179 0,1.60501 -0.352996,2.91821 -0.784435,2.91821 -0.431439,0 -4.143939,-2.32067 -8.25,-5.15704 -18.813889,-12.99619 -17.450689,-11.76256 -15.203247,-13.75814 3.247405,-2.88348 22.521721,-16.08183 23.487682,-16.08351 0.4125,-7.2e-4 0.75,1.08689 0.75,2.4169 0,5.53384 0.129693,5.58179 15.096587,5.58179 h 13.88261 l 0.2604,-44.25 0.2604,-44.25 8.91236,-0.5 c 7.878203,-0.44198 8.712753,-0.66482 7.192223,-1.92039 -2.22446,-1.83685 -4.604583,-7.56393 -4.604583,-11.079607 0,-4.70494 2.851193,-9.879647 7.165533,-13.004941 l 4.13455,-2.995054 H 73.207268 c -12.884722,0 -19.495055,-0.346253 -19.091017,-1 0.837269,-1.35473 141.147089,-1.380041 141.984169,-0.02561 0.37859,0.612577 -5.26213,1.076728 -15.19098,1.25 -15.57645,0.27183 -15.74991,0.299295 -12.63973,2.001368 8.71653,4.770195 10.14902,19.342374 2.50911,25.524234 -1.26745,1.02556 -0.16384,1.25 6.1463,1.25 h 7.69113 v 14.5 14.5 h 94 94 v -14.5 -14.5 h 8.05089 8.05089 l -2.44138,-3.25 c -5.34873,-7.12029 -4.59024,-14.949007 2.07604,-21.427894 l 4.44711,-4.322098 h -18.09177 c -11.39452,0 -18.09178,-0.370182 -18.09178,-1 0,-1.357498 140.64567,-1.382331 141.48456,-0.02498 0.37949,0.614026 -5.42998,1.076829 -15.69098,1.25 l -16.29358,0.27498 3.29422,1.798549 c 7.35852,4.017535 9.76681,15.648466 4.76599,23.017583 l -2.43979,3.59523 6.68979,0.29431 6.68979,0.29432 0.2604,44.25 0.2604,44.25 h 14.4896 14.4896 v -4.07332 c 0,-2.76444 0.40167,-3.96943 1.25,-3.75 2.28106,0.59001 24.66766,16.30515 24.67749,17.32332 0.0106,1.09315 -0.031,1.12479 -14.21014,10.81465 -5.38045,3.67694 -10.19208,6.68535 -10.6925,6.68535 -0.50042,0 -1.04823,-1.9125 -1.21735,-4.25 l -0.3075,-4.25 -14.24029,-0.2774 -14.24028,-0.27739 -0.25972,47.77739 -0.25971,47.7774 -8.5,0.5 c -5.8906,0.34651 -7.82452,0.74609 -6.29965,1.30163 5.50994,2.00738 8.29111,13.94664 4.81474,20.66919 -1.60115,3.09628 -5.79423,6.48998 -9.01509,7.29642 -1.1,0.27541 6.8875,0.55296 17.75,0.61676 12.42267,0.073 19.75,0.487 19.75,1.116 0,0.6572 -24.14699,1 -70.44098,1 -45.88197,0 -70.65646,-0.34865 -71.05902,-1 -0.40206,-0.65055 5.43067,-1.03483 16.69098,-1.09968 9.51996,-0.0548 16.40902,-0.40788 15.30902,-0.78456 -5.04654,-1.72813 -7.40451,-3.6344 -9.37431,-7.57854 -3.3684,-6.74456 -2.56244,-12.87142 2.38296,-18.11506 l 3.2275,-3.42216 h -8.86807 -8.86808 v -15.5 -15.5 H 278.6423 184.66834 l -0.27604,15.25 -0.27605,15.25 -8.5,0.5 c -5.8906,0.34651 -7.82452,0.74609 -6.29965,1.30163 3.65931,1.33316 6.29965,6.74673 6.29965,12.91637 0,4.49679 -0.53592,6.22174 -2.98222,9.59876 -1.86312,2.57195 -4.2085,4.47072 -6.25,5.05985 -2.33303,0.67326 2.52476,0.96881 16.98222,1.0332 12.77321,0.0569 20.25,0.45941 20.25,1.09019 0,0.65728 -24.33333,1 -71,1 -46.666659,0 -70.999999,-0.34272 -70.999999,-1 z m 64.541679,-1.72944 c -6.06029,-1.53941 -10.54168,-7.73477 -10.54168,-14.57349 0,-5.766 1.2689,-9.11501 4.63584,-12.23538 l 2.65621,-2.46169 -10.89603,0.0222 c -10.45499,0.0213 -10.81246,0.0922 -8.8316,1.75 3.74751,3.13638 5.43558,6.96388 5.43558,12.32454 0,7.46538 -4.24387,13.57404 -10.541679,15.17378 -1.07707,0.27363 5.241679,0.49748 14.041679,0.49748 8.8,0 15.11876,-0.22385 14.04168,-0.49744 z m 32.45883,-0.39401 c -3.22629,-1.2865 -6.81897,-4.6624 -8.59552,-8.07689 -2.91653,-5.60547 -0.8687,-14.71654 4.20469,-18.70727 l 2.66004,-2.09239 h -11.26972 -11.26972 l 2.70954,2.13132 c 3.33034,2.61965 4.77195,5.99095 5.07521,11.86868 0.34223,6.63309 -3.36074,12.42229 -9.51554,14.87655 -1.82288,0.72687 1.69638,0.99668 13.00051,0.99668 11.30413,0 14.82339,-0.26981 13.00051,-0.99668 z m 268.24654,0.41733 c -3.69733,-0.71184 -8.99905,-6.45502 -9.77447,-10.58835 -1.15311,-6.14658 0.24136,-12.03327 3.68483,-15.55532 l 3.0799,-3.15021 H 413.15798 402.4624 l 3.04134,3.04133 c 6.28225,6.28226 6.29966,15.77152 0.0404,22.03077 -2.0723,2.0723 -4.81634,3.96756 -6.09786,4.21168 -1.28152,0.24412 4.86996,0.44386 13.66996,0.44386 8.8,0 14.98617,-0.19519 13.74705,-0.43376 z m 31.9756,-0.9548 c -9.81719,-4.83881 -12.17778,-17.00301 -4.81468,-24.81017 l 3.32818,-3.52891 h -10.76807 -10.76808 l 3.2739,3.2739 c 3.87667,3.87667 5.18338,9.57145 3.57057,15.56096 -1.22453,4.54754 -5.89947,9.80419 -9.30295,10.46052 -1.23284,0.23774 4.73348,0.48329 13.25848,0.54567 14.91717,0.10915 15.37677,0.0527 12.22265,-1.50197 z m -21.27612,-4.28913 c 5.56031,-5.19411 5.3124,-14.85939 -0.51231,-19.97356 -6.25861,-5.49514 -13.77355,-3.45548 -17.78556,4.82725 -2.12654,4.39021 -2.07711,6.33621 0.27825,10.9531 2.28907,4.48693 3.98213,6.02446 7.74082,7.02969 4.01094,1.07269 6.96738,0.25684 10.2788,-2.83648 z m -334.34653,-0.44995 c 3.11941,-3.11941 3.4,-3.90065 3.4,-9.46667 0,-5.6109 -0.26545,-6.33211 -3.53333,-9.6 -2.72198,-2.72198 -4.351359,-3.53333 -7.095709,-3.53333 -12.26086,0 -16.924853,16.81592 -6.79072,24.48382 1.05587,0.79892 3.87726,1.46688 6.26976,1.48438 3.63579,0.0266 4.908239,-0.52644 7.749999,-3.3682 z m 32.04204,1.62776 c 1.17812,-0.95027 2.86562,-3.16791 3.75,-4.9281 5.73406,-11.41256 -6.48376,-24.35498 -16.3556,-17.32561 -3.83155,2.72831 -5.38722,7.02353 -4.79103,13.22814 0.40432,4.20784 1.08726,5.70586 3.64189,7.98842 3.74744,3.34833 10.27882,3.84082 13.75474,1.03715 z m 35.36092,-1.88391 c 3.04171,-3.46432 3.18842,-3.99728 2.79617,-10.15755 -0.37865,-5.94656 -0.70455,-6.74397 -3.81878,-9.34385 -4.19982,-3.50616 -9.48755,-3.80452 -13.36547,-0.75415 -10.06097,7.91395 -5.71815,23.79072 6.53153,23.87843 4.11511,0.0295 5.01347,-0.38479 7.85655,-3.62288 z m 232.90143,1.08315 c 6.04663,-5.0879 6.23544,-14.2205 0.41436,-20.04158 -2.68682,-2.68683 -4.18812,-3.38542 -7.27536,-3.38542 -10.79455,0 -15.91742,14.99742 -7.82532,22.90894 4.19964,4.10593 10.172,4.3166 14.68632,0.51806 z m 67.42821,-0.25228 c 5.66292,-5.91081 5.6649,-14.11055 0.005,-19.77068 -2.68779,-2.68757 -4.21077,-3.40404 -7.23607,-3.40404 -9.07487,0 -14.85195,10.62514 -10.49357,19.29966 2.42845,4.83336 5.277,6.65287 10.45495,6.6781 3.71811,0.0181 5.06406,-0.50085 7.26969,-2.80304 z M 182.61625,212.36906 v -99.5 h -55 -55.000002 v 43.47461 43.4746 l 15.750003,0.2754 15.749999,0.27539 v 8.89339 8.89338 l -15.749999,-0.20644 -15.750003,-0.20644 v 47.06306 47.06305 h 55.000002 55 z m 300.77759,54.5 c 0.15267,-24.475 0.0316,-45.5125 -0.26906,-46.75 -0.53769,-2.2132 -0.80046,-2.25 -16.06651,-2.25 h -15.51989 l 0.28894,-8.75 0.28893,-8.75 15.5,-0.5 15.5,-0.5 v -43 -43 l -54.25,-0.25861 -54.25,-0.25861 v 99.51722 99.51722 l 54.25,-0.25861 54.25,-0.25861 z m -110.77759,5.5 v -8.5 h -94 -94 v 8.5 8.5 h 94 94 z m 0,-31.5 v -21 h -94 -94 v 21 21 h 94 94 z m -137.8863,5.637 c -0.91558,-1.10321 -0.65302,-1.27159 1.37756,-0.88342 2.03919,0.38981 2.50874,0.0834 2.50874,-1.637 0,-1.44991 -0.62995,-2.11658 -2,-2.11658 -1.1,0 -2,-0.39752 -2,-0.88337 0,-0.48585 0.9,-1.11872 2,-1.40638 1.1,-0.28766 2,-1.28892 2,-2.22504 0,-1.34578 -0.55981,-1.56152 -2.67463,-1.03074 -2.34358,0.5882 -2.51409,0.47785 -1.37756,-0.89159 2.9823,-3.59344 9.18634,-0.34088 6.95502,3.64627 -0.58839,1.0514 -0.55738,1.88631 0.0848,2.2832 1.57802,0.97527 1.19227,3.65061 -0.73762,5.1156 -2.27385,1.7261 -4.71827,1.73767 -6.1363,0.0291 z M 39.616251,220.38331 v -3.48576 l 31.249997,-0.26424 31.250002,-0.26425 v -7 -7 l -31.250002,-0.26425 -31.249997,-0.26424 v -3.48576 c 0,-1.91716 -0.24913,-3.48575 -0.553622,-3.48575 -1.407795,0 -20.423798,13.63426 -20.434389,14.65122 -0.0066,0.63318 1.450511,2.05391 3.238011,3.15719 1.7875,1.10328 6.175,4.05821 9.75,6.56652 3.575,2.50831 6.8375,4.57507 7.25,4.59281 0.4125,0.0177 0.75,-1.53633 0.75,-3.45349 z m 486.645509,-2.61605 c 4.79683,-3.35599 9.31393,-6.32914 10.038,-6.60699 2.304,-0.88413 1.45518,-2.07646 -4.25802,-5.98123 -3.06599,-2.09549 -7.53899,-5.27248 -9.94001,-7.05998 -2.40102,-1.7875 -4.58898,-3.25 -4.86213,-3.25 -0.27315,0 -0.63764,1.4625 -0.80999,3.25 l -0.31336,3.25 -31.5,0.5 -31.5,0.5 v 7 7 l 31.5,0.5 31.5,0.5 0.31336,3.25 c 0.17235,1.7875 0.49275,3.25 0.712,3.25 0.21926,0 4.32332,-2.74581 9.12015,-6.1018 z m -153.64551,-8.3982 v -8.5 h -94 -94 v 8.5 8.5 h 94 94 z m -0.22793,-29.25 -0.27207,-18.75 -93.75,-0.25513 -93.75,-0.25512 v 19.00512 19.00513 h 94.02207 94.02206 z m -138.77207,7.42431 c 0,-0.72912 1.125,-2.38256 2.5,-3.67431 3.90954,-3.67282 3.23819,-6.68147 -1.35035,-6.0516 -2.07969,0.28548 -0.45187,-1.63611 1.90898,-2.25348 2.69655,-0.70516 6.13628,2.57969 5.26968,5.0324 -0.34449,0.97497 -1.53772,2.78518 -2.65164,4.02268 l -2.0253,2.25 h 2.67432 c 1.47087,0 2.67431,0.45 2.67431,1 0,0.55 -2.025,1 -4.5,1 -3.07035,0 -4.5,-0.42117 -4.5,-1.32569 z m 138.79044,-36.92431 -0.29044,-8.25 -93.75,-0.25513 -93.75,-0.25512 v 8.50512 8.50513 h 94.04044 94.04044 z m -269.19044,-43.15 c 3.11941,-3.11941 3.4,-3.90065 3.4,-9.466667 0,-5.61089 -0.26545,-6.3321 -3.53333,-9.599992 -2.94637,-2.946368 -4.233819,-3.527806 -7.749999,-3.500064 -4.74825,0.03746 -7.6249,1.954809 -10.09268,6.726966 -4.555443,8.809237 1.21599,19.147417 10.72601,19.213147 3.06462,0.0212 4.543589,-0.66698 7.249999,-3.37339 z m 14.93605,-0.33213 c -5.0511,-7.433357 -2.64417,-18.962481 4.81049,-23.042106 l 3.15346,-1.725756 -7.29375,-0.294693 c -4.01156,-0.162081 -10.31156,-0.162081 -14,0 l -6.706249,0.294693 3.153459,1.725756 c 8.71653,4.770195 10.14902,19.342376 2.50911,25.524236 -1.26219,1.0213 0.14337,1.25 7.68235,1.25 h 9.22718 z m 16.44495,2.08428 c 3.11277,-1.83876 6.019,-7.11052 6.019,-10.918197 0,-3.59133 -2.5889,-9.271494 -5.22953,-11.473807 -5.56282,-4.639456 -15.58465,-0.767817 -17.44127,6.737917 -2.96108,11.970667 7.01348,21.347587 16.6518,15.654087 z m 18.44331,-0.60215 c -6.77316,-7.9195 -5.64701,-17.678541 2.74122,-23.754938 l 4.13455,-2.995054 h -14.30008 -14.30008 l 4.09806,2.96862 c 5.08026,3.680115 6.24947,5.810005 6.7296,12.258945 0.39617,5.321147 -0.42179,7.783977 -3.82686,11.522427 l -2.04935,2.25 h 9.34863 9.34863 z m 17.2912,-1.26551 c 3.43703,-3.43703 3.50607,-3.66377 3.09257,-10.157537 -0.38862,-6.103151 -0.69917,-6.872654 -3.82773,-9.484491 -7.90248,-6.597279 -18.98035,-0.668832 -18.98035,10.157541 0,7.426377 5.23365,12.924207 12.35,12.973387 3.08908,0.0213 4.54481,-0.6682 7.36551,-3.4889 z m 233.77584,0.0934 c 5.63936,-5.97945 5.5722,-13.447617 -0.1726,-19.192415 -2.79023,-2.790279 -4.13621,-3.385467 -7.65592,-3.385467 -3.5723,0 -4.82824,0.57545 -7.68193,3.519708 -3.10642,3.205007 -3.41454,4.061077 -3.44617,9.574687 -0.0329,5.733137 0.16381,6.237047 3.70058,9.480287 2.99799,2.74917 4.55384,3.42531 7.88193,3.42531 3.4256,0 4.7078,-0.59504 7.37411,-3.42216 z m 16.46872,1.38223 c -3.75879,-3.75879 -5.17512,-11.666137 -3.07094,-17.144967 0.98433,-2.562983 4.68837,-6.668039 7.67532,-8.506288 1.55507,-0.957036 -0.81648,-1.191192 -12.06445,-1.191192 -11.26237,0 -13.61648,0.232932 -12.03873,1.191192 9.47154,5.752613 11.89722,16.880545 5.46276,25.060635 l -2.06919,2.6305 h 9.07258 9.07258 l -2.03993,-2.03993 z m 15.58345,0.013 c 9.78886,-6.04987 5.43873,-23.973112 -5.81848,-23.973112 -2.08748,0 -4.9305,0.74374 -6.31783,1.652755 -2.83308,1.856308 -6.40721,8.18613 -6.40721,11.34724 0,2.987667 3.59075,9.599937 6.20912,11.433917 3.08317,2.15953 8.41701,1.96026 12.3344,-0.46081 z m 16.88381,-1.47949 c -5.55775,-7.28659 -3.89056,-16.972318 3.8918,-22.609827 l 3.98095,-2.883795 h -13.78888 -13.78887 l 4.52651,4.25 c 3.44417,3.233779 4.68939,5.239292 5.2077,8.387375 0.82449,5.00769 -0.68716,11.159667 -3.47829,14.155587 l -2.05616,2.20703 h 9.08985 9.08984 l -2.67445,-3.50638 z m 17.47706,0.93338 c 3.50574,-2.94989 5.39977,-8.656187 4.44978,-13.406167 -0.98089,-4.90443 -6.58866,-10.020835 -10.98321,-10.020835 -9.27426,0 -15.28482,10.464525 -10.89094,18.961352 3.71878,7.19133 11.74151,9.24745 17.42437,4.46564 z m 97.09561,199.46735 c 0,-0.60811 1.125,-2.44263 2.5,-4.07673 3.49793,-4.15705 3.19447,-6.55886 -0.75,-5.93605 -0.4125,0.0651 -0.75,-0.36009 -0.75,-0.94494 0,-0.5973 1.42444,-0.92601 3.25,-0.75 4.11422,0.39669 4.88504,3.78687 1.80746,7.94952 -2.07031,2.80023 -2.07356,2.86384 -0.14641,2.86384 1.084,0 2.24903,0.45 2.58895,1 0.3775,0.61081 -1.15628,1 -3.94098,1 -2.66309,0 -4.55902,-0.4598 -4.55902,-1.10564 z m 23.69828,-51.23824 c -0.36936,-0.96255 0.16777,-1.21322 1.89302,-0.88342 3.04325,0.58176 3.42759,-2.69349 0.4087,-3.48295 -1.1,-0.28766 -2,-0.86804 -2,-1.28975 0,-0.42171 0.9,-1.00209 2,-1.28975 2.66652,-0.69731 2.53817,-2.56718 -0.25,-3.64231 -2.10709,-0.81252 -2.13022,-0.91585 -0.36408,-1.62693 3.27061,-1.3168 5.09648,0.8259 5.25479,6.16662 0.0798,2.6908 -0.31186,5.45487 -0.87029,6.14237 -1.34975,1.66175 -5.4226,1.59878 -6.07214,-0.0939 z m 373.54144,-9.90612 c -0.55284,-0.6875 -1.00517,-3.275 -1.00517,-5.75 0,-2.475 0.45233,-5.0625 1.00517,-5.75 1.43022,-1.77858 8.40756,-1.61163 9.10966,0.21797 0.777,2.02499 -0.9092,2.83796 -3.268,1.57557 -1.3014,-0.69646 -2.1682,-0.712 -2.5797,-0.0462 -0.83849,1.35669 0.2893,3.0027 2.0573,3.0027 2.1515,0 1.7392,1.68876 -0.559,2.28975 -2.32422,0.6078 -2.71209,2.71025 -0.5,2.71025 0.825,0 1.5,-0.45 1.5,-1 0,-0.55 0.9,-1 2,-1 2.2276,0 2.6402,1.95981 0.8,3.8 -1.5757,1.57572 -7.27975,1.54241 -8.56026,-0.05 z m 11.45856,-100.09388 c -0.3694,-0.96255 0.1678,-1.21322 1.893,-0.88342 3.1842,0.60871 3.3143,-2.46818 0.1587,-3.75386 l -2.25,-0.91672 2.25,-0.66769 c 2.5079,-0.74421 3.0954,-3.43443 0.75,-3.43443 -0.825,0 -1.5,-0.45 -1.5,-1 0,-0.55 1.1092,-1 2.4648,-1 2.8206,0 5.0459,3.08931 3.4063,4.72891 -0.7137,0.71373 -0.6402,1.6679 0.2367,3.07199 1.0336,1.65512 1.026,2.33293 -0.04,3.6179 -1.6006,1.92856 -6.6577,2.09142 -7.3692,0.23732 z M 230.61625,123.86906 c 0,-0.55 0.675,-1 1.5,-1 1.04762,0 1.5,-1.05556 1.5,-3.5 0,-2.44444 -0.45238,-3.5 -1.5,-3.5 -2.03211,0 -1.89494,-1.97972 0.25,-3.60795 3.41716,-2.594 4.25,-1.69102 4.25,4.60795 0,4.76761 0.32022,6 1.55902,6 0.85746,0 1.2809,0.45 0.94098,1 -0.33992,0.55 -2.39148,1 -4.55902,1 -2.16754,0 -3.94098,-0.45 -3.94098,-1 z M 989.61623,90.302346 c 0,-0.311697 1.1621,-2.090328 2.5825,-3.952513 2.8152,-3.69094 2.8617,-7.065346 0.094,-6.836029 -1.385,0.114758 -1.507,-0.144147 -0.5892,-1.25 1.6496,-1.987707 3.567,-1.726247 5.2805,0.720066 1.6779,2.395671 1.2383,4.380683 -1.6912,7.635198 l -2.0253,2.25 h 2.6743 c 1.4709,0 2.6743,0.45 2.6743,1 0,0.55 -2.025,1 -4.5,1 -2.475,0 -4.5,-0.255025 -4.5,-0.566722 z M 62.697828,75.309198 c -4.457882,-5.077247 -2.855628,-6.072723 1.924853,-1.195906 4.456617,4.546423 4.570937,4.755776 2.597162,4.755776 -0.768024,0 -2.802931,-1.601942 -4.522015,-3.55987 z m 5.35337,-2.712668 c -7.073133,-7.26253 -9.037597,-9.727462 -7.752446,-9.727462 0.883375,0 16.317496,14.751601 16.317496,15.595911 0,1.742695 -3.46372,-0.630515 -8.56505,-5.868449 z m 2.56505,-5.227462 c -6.535078,-6.553673 -10.770197,-11.5 -9.84647,-11.5 1.30409,0 23.846473,21.415083 23.846473,22.653958 0,1.975454 -4.416633,-1.543331 -14.000003,-11.153958 z m 8.08643,0 c -6.24809,-6.325 -10.72874,-11.5 -9.95699,-11.5 0.77175,0 6.56351,5.175 12.87056,11.5 6.307063,6.325 10.787703,11.5 9.956993,11.5 -0.83071,0 -6.62246,-5.175 -12.870563,-11.5 z m 7.913573,0 c -6.307053,-6.325 -10.784543,-11.5 -9.949973,-11.5 1.24625,0 23.949972,21.46148 23.949972,22.639537 0,1.990448 -4.391909,-1.504111 -13.999999,-11.139537 z m 8.19285,0.25 c -6.14617,-6.1875 -10.67444,-11.418152 -10.06284,-11.62367 0.61161,-0.205519 6.34267,4.856981 12.73568,11.25 6.393019,6.393018 10.921299,11.62367 10.062839,11.62367 -0.85846,0 -6.58952,-5.0625 -12.735679,-11.25 z m 7.195019,-0.381633 C 95.532141,60.616218 91.571991,55.869068 92.520431,55.869068 c 0.89565,0 6.78877,5.175 13.095819,11.5 7.80672,7.828929 10.83414,11.45798 9.48369,11.368367 -1.10252,-0.07316 -6.91978,-5.181542 -13.09582,-11.5 z m 8.70542,0.41421 c -6.20881,-6.169583 -10.744159,-11.398954 -10.07855,-11.620824 1.17934,-0.393111 22.98526,20.545649 22.98526,22.071193 0,1.935946 -2.38503,0.0048 -12.90671,-10.450369 z m 7.40671,-0.300835 c -6.05,-6.316275 -10.31374,-11.483597 -9.47497,-11.482939 1.36435,0.0011 7.92443,6.328418 19.44092,18.751197 2.36339,2.549374 3.35855,4.243173 2.487,4.232939 -0.79912,-0.0094 -6.40295,-5.184923 -12.45295,-11.501197 z m 12.22394,4.768258 C 119.37015,60.943029 115.50848,56.643501 115.99956,56.152421 c 0.91243,-0.912423 3.482,1.349973 13.59143,11.966647 5.63,5.9125 9.59252,10.75 8.80558,10.75 -0.78694,0 -4.41231,-3.0375 -8.05638,-6.75 z m 3.27606,-4.75 c -6.30706,-6.325 -10.79238,-11.5 -9.96738,-11.5 0.825,0 6.66032,5.175 12.96738,11.5 6.30706,6.325 10.79238,11.5 9.96738,11.5 -0.825,0 -6.66032,-5.175 -12.96738,-11.5 z m 7.66946,0.150156 c -5.9568,-6.103054 -10.28984,-11.276695 -9.62899,-11.496979 0.66085,-0.220285 6.4322,4.830134 12.82522,11.223153 7.95858,7.958581 10.99472,11.583723 9.62899,11.496979 -1.11928,-0.07109 -6.74785,-4.996567 -12.82522,-11.223153 z m 7.73646,-0.260661 c -6.22572,-6.391494 -10.39456,-11.384339 -9.5,-11.377745 0.87674,0.0065 6.76537,5.181463 13.08583,11.5 7.92138,7.918972 10.87293,11.453917 9.5,11.377745 -1.13436,-0.06294 -6.76745,-5.01337 -13.08583,-11.5 z m 7.88203,-0.01136 c -7.01998,-7.123972 -10.56583,-11.378135 -9.48368,-11.378135 0.95059,0 6.88867,5.175 13.19573,11.5 7.84236,7.864669 10.8403,11.461475 9.48369,11.378131 -1.10471,-0.06787 -6.95182,-5.16359 -13.19574,-11.5 z m 7.92794,0.06356 c -7.32652,-7.428833 -10.65838,-11.44156 -9.5,-11.441314 0.98126,2.08e-4 6.94009,5.175208 13.24185,11.5 7.95452,7.983607 10.85915,11.481793 9.5,11.441314 -1.12507,-0.03351 -6.75711,-4.924706 -13.24185,-11.5 z m 8.08308,-0.01552 c -6.9775,-7.117758 -10.55348,-11.426175 -9.48369,-11.426175 0.94454,0 6.87766,5.175 13.18472,11.5 8.01241,8.035203 10.86972,11.477755 9.48369,11.426168 -1.15014,-0.04281 -6.69041,-4.875161 -13.18472,-11.5 z m 190.95103,7.862058 c -3.16819,-3.370259 -4.05975,-5.288233 -2.45821,-5.288233 0.43549,0 2.77918,2.025 5.20821,4.5 3.4507,3.516008 3.98822,4.472177 2.45821,4.372759 -1.07702,-0.06998 -3.42071,-1.683019 -5.20821,-3.584526 z m 4.43206,-3.833748 c -4.25911,-4.150033 -7.44946,-8.021825 -7.08967,-8.603982 0.63187,-1.022383 16.40761,13.761512 16.40761,15.376037 0,1.809233 -2.01126,0.347499 -9.31794,-6.772055 z m 3.79617,-3.965763 c -6.06197,-6.318797 -10.3257,-11.488722 -9.47497,-11.488722 1.38336,0 7.90545,6.283258 19.46269,18.75 2.37165,2.558288 3.3616,4.245511 2.487,4.238722 -0.79912,-0.0062 -6.41274,-5.181203 -12.47472,-11.5 z m 12.02177,4.846814 c -3.3,-3.551394 -8.13528,-8.679732 -10.74506,-11.396308 -2.65788,-2.766641 -4.11196,-4.939228 -3.30576,-4.939228 1.69273,0 3.28212,1.451441 15.05678,13.75 6.20778,6.483981 8.27856,9.218993 6.92501,9.146307 -1.06203,-0.05703 -4.63097,-3.009378 -7.93097,-6.560771 z m 3.5,-4.835536 c -6.30706,-6.325 -10.79238,-11.5 -9.96738,-11.5 0.825,0 6.66032,5.175 12.96738,11.5 6.30706,6.325 10.79238,11.5 9.96738,11.5 -0.825,0 -6.66032,-5.175 -12.96738,-11.5 z m 7.66946,0.150156 c -5.9568,-6.103054 -10.28984,-11.276695 -9.62899,-11.496979 0.66085,-0.220285 6.4322,4.830134 12.82522,11.223153 7.95858,7.958581 10.99472,11.583723 9.62899,11.496979 -1.11928,-0.07109 -6.74785,-4.996567 -12.82522,-11.223153 z m 7.66284,-0.256698 c -6.65125,-6.785708 -10.49324,-11.388706 -9.5,-11.381708 0.91724,0.0065 6.83899,5.181463 13.15945,11.5 7.93554,7.933128 10.87539,11.45528 9.5,11.381708 -1.13292,-0.0606 -6.80717,-5.019305 -13.15945,-11.5 z m 7.95565,-0.01533 c -7.01998,-7.123965 -10.56583,-11.378128 -9.48368,-11.378128 0.95059,0 6.88867,5.175 13.19573,11.5 7.84236,7.864669 10.8403,11.461475 9.48369,11.378131 -1.10471,-0.06787 -6.95182,-5.16359 -13.19574,-11.5 z m 7.92794,0.06356 c -7.32652,-7.428833 -10.65838,-11.44156 -9.5,-11.441314 0.98126,2.08e-4 6.94009,5.175208 13.24185,11.5 7.95452,7.983607 10.85915,11.481793 9.5,11.441314 -1.12507,-0.03351 -6.75711,-4.924706 -13.24185,-11.5 z m 8.02394,-0.02116 c -6.77483,-6.87131 -10.59264,-11.420528 -9.58436,-11.420528 0.9217,0 6.88878,5.17 13.26018,11.488888 8.134,8.066975 10.98866,11.468528 9.58435,11.420529 -1.17157,-0.04004 -6.66413,-4.798914 -13.26017,-11.488889 z m 8.23846,0.07947 c -8.32638,-8.000913 -11.3727,-11.5 -10.01193,-11.5 1.10904,0 4.89202,3.030786 8.73731,7 3.72979,3.85 6.97515,7 7.2119,7 0.50171,0 8.58443,8.153061 8.58443,8.659137 0,1.928294 -4.50282,-1.531878 -14.52171,-11.159137 z m 13.15737,4.498031 c -3.77538,-3.848917 -7.04973,-6.998031 -7.27631,-6.998031 -0.22659,0 -2.43698,-2.025 -4.91198,-4.5 -6.113,-6.113001 -2.90593,-5.89286 3.64208,0.25 7.48488,7.021769 17.91055,17.419976 17.91055,17.863369 0,1.799528 -3.61573,-0.754763 -9.36434,-6.615338 z m 3.27999,-4.509143 c -6.74743,-6.691819 -10.89325,-11.488888 -9.92918,-11.488888 1.34355,0 24.01353,21.365775 24.01353,22.632034 0,1.954365 -4.34114,-1.48022 -14.08435,-11.143146 z m 8.17078,0.01111 c -6.2481,-6.325 -10.72874,-11.5 -9.95699,-11.5 0.77175,0 6.5635,5.175 12.87056,11.5 6.30706,6.325 10.7877,11.5 9.95699,11.5 -0.83072,0 -6.62247,-5.175 -12.87056,-11.5 z m 7.91357,0 c -6.30706,-6.325 -10.78454,-11.5 -9.94997,-11.5 1.24625,0 23.94997,21.46148 23.94997,22.639537 0,1.990448 -4.39191,-1.504111 -14,-11.139537 z m 8.19285,0.25 c -6.14617,-6.1875 -10.67444,-11.418152 -10.06284,-11.62367 0.61161,-0.205519 6.34266,4.856981 12.73568,11.25 6.39302,6.393018 10.9213,11.62367 10.06284,11.62367 -0.85846,0 -6.58952,-5.0625 -12.73568,-11.25 z m -296.82307,-2.25 c -6.97554,-6.763435 -9.23215,-9.497956 -7.83385,-9.492905 1.10295,0.004 4.98024,3.07305 8.84341,7 3.78364,3.846098 7.10903,6.992905 7.38976,6.992905 0.67734,0 3.15866,3.296439 3.1991,4.25 0.0849,2.001569 -2.59412,-0.0195 -11.59842,-8.75 z m 301.98664,-0.413851 c -5.38687,-5.386867 -8.41913,-9.086149 -7.44782,-9.086149 2.1044,0 17.45916,15.39673 16.93198,16.978269 -0.21891,0.656716 -4.48678,-2.894739 -9.48416,-7.89212 z m -292.35642,0.972868 c 0,-0.582459 -0.46184,-1.059017 -1.02632,-1.059017 -0.56447,0 -3.05131,-2.025 -5.52631,-4.5 -6.22046,-6.220454 -2.81033,-5.881103 3.70783,0.368977 3.16553,3.035336 4.65734,5.128843 3.96131,5.559017 -0.61408,0.379522 -1.11651,0.213482 -1.11651,-0.368977 z m 296.63158,-4.690596 c -2.74722,-2.747223 -4.29351,-4.981112 -3.60643,-5.210139 1.56745,-0.522482 9.33905,7.249118 8.81657,8.816563 -0.22903,0.687082 -2.46292,-0.859201 -5.21014,-3.606424 z M 187.11625,57.258572 c -1.95876,-1.514989 -1.95006,-1.540108 0.42167,-1.218197 1.33192,0.180779 2.60692,0.891189 2.83334,1.578689 0.55267,1.678174 -0.81502,1.526703 -3.25501,-0.360492 z m 301.5,-0.389508 c -1.2819,-0.828426 -1.24555,-0.971601 0.25,-0.984687 0.9625,-0.0084 1.75,0.434687 1.75,0.984687 0,1.21961 -0.11279,1.21961 -2,0 z M 735.93162,40.883618 c -4.35514,-1.797657 -5.7659,-8.391865 -2.4394,-11.40231 3.6224,-3.278222 14.12403,-3.347513 14.12403,-0.09319 0,0.822815 -0.90443,1.480948 -2.03518,1.480948 -1.70225,0 -1.86584,0.316424 -1,1.934259 1.39992,2.615779 1.30415,5.597623 -0.22041,6.862902 -1.95503,1.622525 -6.02384,2.210178 -8.42904,1.217393 z m 5.48519,-5.177269 c 0.39442,-3.291841 -2.1848,-5.593212 -4.30056,-3.837285 -2.02214,1.678228 -1.89574,4.670539 0.25,5.918071 2.48047,1.442149 3.70374,0.813751 4.05056,-2.080786 z m 254.19942,4.162715 c 0,-0.55 0.45,-1 1,-1 1.4592,0 1.2263,-6.757171 -0.25,-7.254045 -0.9745,-0.327991 -0.9475,-0.787141 0.1225,-2.083334 2.6662,-3.229933 4.12747,-1.99887 4.12747,3.477136 0,3.722269 0.4827,5.506127 1.75,6.468197 1.5435,1.171635 1.2484,1.332193 -2.49997,1.360243 -2.3375,0.01749 -4.25,-0.418197 -4.25,-0.968197 z"
       id="path837" />
  </g>
</svg>
