<?xml version="1.0" encoding="UTF-8" standalone="no"?>
<svg xmlns="http://www.w3.org/2000/svg"
     xmlns:xlink="http://www.w3.org/1999/xlink"
     width="1555pt" height="965pt" viewBox="0 0 1555 965">
<title>cantilever</title>
<desc>
Creator: GL2PS 1.4.3, (C) 1999-2020 C. Geuzaine
For: Gmsh
CreationDate: Mon Aug 16 10:32:32 2021
</desc>
<defs>
</defs>
<g>
<circle fill="#5a5a5a" cx="1303.29" cy="254.899" r="2"/>
<circle fill="#5a5a5a" cx="1307.02" cy="198.058" r="2"/>
<polyline fill="none" stroke="#0000ff" stroke-width="2" stroke-linecap="butt" stroke-linejoin="miter" points="1303.29,254.899 1307.02,198.058"/>
<polyline fill="none" stroke="#0000ff" stroke-width="2" stroke-linecap="butt" stroke-linejoin="miter" points="1413.5,314.735 1303.29,254.899"/>
<circle fill="#5a5a5a" cx="1413.5" cy="314.735" r="2"/>
<polyline fill="none" stroke="#0000ff" stroke-width="2" stroke-linecap="butt" stroke-linejoin="miter" points="1417.23,257.894 1307.02,198.058"/>
<circle fill="#5a5a5a" cx="1417.23" cy="257.894" r="2"/>
<polyline fill="none" stroke="#0000ff" stroke-width="2" stroke-linecap="butt" stroke-linejoin="miter" points="1413.5,314.735 1417.23,257.894"/>
<polyline fill="none" stroke="#0000ff" stroke-width="2" stroke-linecap="butt" stroke-linejoin="miter" points="137.77,707.106 1303.29,254.899"/>
<polyline fill="none" stroke="#0000ff" stroke-width="2" stroke-linecap="butt" stroke-linejoin="miter" points="141.498,650.265 1307.02,198.058"/>
<text fill="#000000" x="1519.76" y="913.557" font-size="15" text-anchor="start" dy="0" font-family="Helvetica">X</text>
<text fill="#000000" x="1477.42" y="910.828" font-size="15" text-anchor="start" dy="0" font-family="Helvetica">Y</text>
<text fill="#000000" x="1499.74" y="895.469" font-size="15" text-anchor="start" dy="0" font-family="Helvetica">Z</text>
<polyline fill="none" stroke="#000000" stroke-width="1" stroke-linecap="butt" stroke-linejoin="miter" points="1495,925 1516.76,916.557"/>
<polyline fill="none" stroke="#000000" stroke-width="1" stroke-linecap="butt" stroke-linejoin="miter" points="1495,925 1474.42,913.828"/>
<polyline fill="none" stroke="#000000" stroke-width="1" stroke-linecap="butt" stroke-linejoin="miter" points="1495,925 1496.74,898.469"/>
<polyline fill="none" stroke="#0000ff" stroke-width="2" stroke-linecap="butt" stroke-linejoin="miter" points="247.983,766.942 1413.5,314.735"/>
<polyline fill="none" stroke="#0000ff" stroke-width="2" stroke-linecap="butt" stroke-linejoin="miter" points="251.711,710.101 1417.23,257.894"/>
<circle fill="#5a5a5a" cx="137.77" cy="707.106" r="2"/>
<circle fill="#5a5a5a" cx="141.498" cy="650.265" r="2"/>
<polyline fill="none" stroke="#0000ff" stroke-width="2" stroke-linecap="butt" stroke-linejoin="miter" points="137.77,707.106 141.498,650.265"/>
<polyline fill="none" stroke="#0000ff" stroke-width="2" stroke-linecap="butt" stroke-linejoin="miter" points="247.983,766.942 137.77,707.106"/>
<circle fill="#5a5a5a" cx="247.983" cy="766.942" r="2"/>
<polyline fill="none" stroke="#0000ff" stroke-width="2" stroke-linecap="butt" stroke-linejoin="miter" points="251.711,710.101 141.498,650.265"/>
<circle fill="#5a5a5a" cx="251.711" cy="710.101" r="2"/>
<polyline fill="none" stroke="#0000ff" stroke-width="2" stroke-linecap="butt" stroke-linejoin="miter" points="247.983,766.942 251.711,710.101"/>
</g>
</svg>
