999
"DXF R12 Output" (www.mydxf.blogspot.com)
 0 
SECTION
 2 
HEADER
 9 
$ACADVER
 1 
AC1009
 9 
$EXTMIN
 10 
 0 
 20 
 0 
 9 
$EXTMAX
 10 
 8.5 
 20 
 11 
 0 
ENDSEC
 0 
SECTION
 2 
ENTITIES
0
LINE
8
Layer 1
10
412.044000
20
-815.057000
11
412.044000
21
-812.234780
0
LINE
8
Layer 1
10
412.044000
20
-812.234780
11
366.888500
21
-812.234780
0
LINE
8
Layer 1
10
366.888500
20
-812.234780
11
321.733000
21
-812.234780
0
LINE
8
Layer 1
10
321.733000
20
-812.234780
11
321.733000
21
-792.479280
0
LINE
8
Layer 1
10
321.733000
20
-792.479280
11
321.733000
21
-772.723780
0
LINE
8
Layer 1
10
321.733000
20
-772.723780
11
412.044000
21
-772.723780
0
LINE
8
Layer 1
10
412.044000
20
-772.723780
11
502.355000
21
-772.723780
0
LINE
8
Layer 1
10
502.355000
20
-772.723780
11
502.355000
21
-750.145980
0
LINE
8
Layer 1
10
502.355000
20
-750.145980
11
502.355000
21
-727.568180
0
LINE
8
Layer 1
10
502.355000
20
-727.568180
11
524.932800
21
-727.568180
0
LINE
8
Layer 1
10
524.932800
20
-727.568180
11
547.510600
21
-727.568180
0
LINE
8
Layer 1
10
547.510600
20
-727.568180
11
547.510600
21
-724.745960
0
LINE
8
Layer 1
10
547.510600
20
-724.745960
11
547.510600
21
-721.923740
0
LINE
8
Layer 1
10
547.510600
20
-721.923740
11
524.932800
21
-721.923740
0
LINE
8
Layer 1
10
524.932800
20
-721.923740
11
502.355000
21
-721.923740
0
LINE
8
Layer 1
10
502.355000
20
-721.923740
11
502.355000
21
-699.345940
0
LINE
8
Layer 1
10
502.355000
20
-699.345940
11
502.355000
21
-676.768140
0
LINE
8
Layer 1
10
502.355000
20
-676.768140
11
499.532780
21
-676.768140
0
LINE
8
Layer 1
10
499.532780
20
-676.768140
11
496.710560
21
-676.768140
0
LINE
8
Layer 1
10
496.710560
20
-676.768140
11
496.710560
21
-721.923640
0
LINE
8
Layer 1
10
496.710560
20
-721.923640
11
496.710560
21
-767.079140
0
LINE
8
Layer 1
10
496.710560
20
-767.079140
11
409.221760
21
-767.079140
0
LINE
8
Layer 1
10
409.221760
20
-767.079140
11
321.732960
21
-767.079140
0
LINE
8
Layer 1
10
321.732960
20
-767.079140
11
321.732960
21
-744.501340
0
LINE
8
Layer 1
10
321.732960
20
-744.501340
11
321.732960
21
-721.923540
0
LINE
8
Layer 1
10
321.732960
20
-721.923540
11
276.577460
21
-721.923540
0
LINE
8
Layer 1
10
276.577460
20
-721.923540
11
231.421960
21
-721.923540
0
LINE
8
Layer 1
10
231.421960
20
-721.923540
11
231.421960
21
-676.768040
0
LINE
8
Layer 1
10
231.421960
20
-676.768040
11
231.421960
21
-631.612540
0
LINE
8
Layer 1
10
231.421960
20
-631.612540
11
228.599740
21
-631.612540
0
LINE
8
Layer 1
10
228.599740
20
-631.612540
11
225.777520
21
-631.612540
0
LINE
8
Layer 1
10
225.777520
20
-631.612540
11
225.777520
21
-702.168040
0
LINE
8
Layer 1
10
225.777520
20
-702.168040
11
225.777520
21
-772.723540
0
LINE
8
Layer 1
10
225.777520
20
-772.723540
11
251.177520
21
-772.723540
0
LINE
8
Layer 1
10
251.177520
20
-772.723540
11
276.577520
21
-772.723540
0
LINE
8
Layer 1
10
276.577520
20
-772.723540
11
276.577520
21
-769.901320
0
LINE
8
Layer 1
10
276.577520
20
-769.901320
11
276.577520
21
-767.079100
0
LINE
8
Layer 1
10
276.577520
20
-767.079100
11
253.999720
21
-767.079100
0
LINE
8
Layer 1
10
253.999720
20
-767.079100
11
231.421920
21
-767.079100
0
LINE
8
Layer 1
10
231.421920
20
-767.079100
11
231.421920
21
-747.323600
0
LINE
8
Layer 1
10
231.421920
20
-747.323600
11
231.421920
21
-727.568100
0
LINE
8
Layer 1
10
231.421920
20
-727.568100
11
273.755220
21
-727.568100
0
LINE
8
Layer 1
10
273.755220
20
-727.568100
11
316.088520
21
-727.568100
0
LINE
8
Layer 1
10
316.088520
20
-727.568100
11
316.088520
21
-769.901400
0
LINE
8
Layer 1
10
316.088520
20
-769.901400
11
316.088520
21
-812.234700
0
LINE
8
Layer 1
10
316.088520
20
-812.234700
11
251.177420
21
-812.234700
0
LINE
8
Layer 1
10
251.177420
20
-812.234700
11
186.266320
21
-812.234700
0
LINE
8
Layer 1
10
186.266320
20
-812.234700
11
186.266320
21
-721.923700
0
LINE
8
Layer 1
10
186.266320
20
-721.923700
11
186.266320
21
-631.612700
0
LINE
8
Layer 1
10
186.266320
20
-631.612700
11
183.444100
21
-631.612700
0
LINE
8
Layer 1
10
183.444100
20
-631.612700
11
180.621880
21
-631.612700
0
LINE
8
Layer 1
10
180.621880
20
-631.612700
11
180.621880
21
-654.190500
0
LINE
8
Layer 1
10
180.621880
20
-654.190500
11
180.621880
21
-676.768300
0
LINE
8
Layer 1
10
180.621880
20
-676.768300
11
160.866380
21
-676.768300
0
LINE
8
Layer 1
10
160.866380
20
-676.768300
11
141.110880
21
-676.768300
0
LINE
8
Layer 1
10
141.110880
20
-676.768300
11
141.110880
21
-654.190500
0
LINE
8
Layer 1
10
141.110880
20
-654.190500
11
141.110880
21
-631.612700
0
LINE
8
Layer 1
10
141.110880
20
-631.612700
11
138.288660
21
-631.612700
0
LINE
8
Layer 1
10
138.288660
20
-631.612700
11
135.466440
21
-631.612700
0
LINE
8
Layer 1
10
135.466440
20
-631.612700
11
135.466440
21
-654.190500
0
LINE
8
Layer 1
10
135.466440
20
-654.190500
11
135.466440
21
-676.768300
0
LINE
8
Layer 1
10
135.466440
20
-676.768300
11
90.310940
21
-676.768300
0
LINE
8
Layer 1
10
90.310940
20
-676.768300
11
45.155440
21
-676.768300
0
LINE
8
Layer 1
10
45.155440
20
-676.768300
11
45.155440
21
-724.746000
0
LINE
8
Layer 1
10
45.155440
20
-724.746000
11
45.155440
21
-772.723700
0
LINE
8
Layer 1
10
45.155440
20
-772.723700
11
93.133140
21
-772.723700
0
LINE
8
Layer 1
10
93.133140
20
-772.723700
11
141.110840
21
-772.723700
0
LINE
8
Layer 1
10
141.110840
20
-772.723700
11
141.110840
21
-747.323700
0
LINE
8
Layer 1
10
141.110840
20
-747.323700
11
141.110840
21
-721.923700
0
LINE
8
Layer 1
10
141.110840
20
-721.923700
11
115.710840
21
-721.923700
0
LINE
8
Layer 1
10
115.710840
20
-721.923700
11
90.310840
21
-721.923700
0
LINE
8
Layer 1
10
90.310840
20
-721.923700
11
90.310840
21
-724.745920
0
LINE
8
Layer 1
10
90.310840
20
-724.745920
11
90.310840
21
-727.568140
0
LINE
8
Layer 1
10
90.310840
20
-727.568140
11
112.888640
21
-727.568140
0
LINE
8
Layer 1
10
112.888640
20
-727.568140
11
135.466440
21
-727.568140
0
LINE
8
Layer 1
10
135.466440
20
-727.568140
11
135.466440
21
-747.323640
0
LINE
8
Layer 1
10
135.466440
20
-747.323640
11
135.466440
21
-767.079140
0
LINE
8
Layer 1
10
135.466440
20
-767.079140
11
93.133140
21
-767.079140
0
LINE
8
Layer 1
10
93.133140
20
-767.079140
11
50.799840
21
-767.079140
0
LINE
8
Layer 1
10
50.799840
20
-767.079140
11
50.799840
21
-724.745840
0
LINE
8
Layer 1
10
50.799840
20
-724.745840
11
50.799840
21
-682.412540
0
LINE
8
Layer 1
10
50.799840
20
-682.412540
11
115.710940
21
-682.412540
0
LINE
8
Layer 1
10
115.710940
20
-682.412540
11
180.622040
21
-682.412540
0
LINE
8
Layer 1
10
180.622040
20
-682.412540
11
180.622040
21
-747.323640
0
LINE
8
Layer 1
10
180.622040
20
-747.323640
11
180.622040
21
-812.234740
0
LINE
8
Layer 1
10
180.622040
20
-812.234740
11
93.133240
21
-812.234740
0
LINE
8
Layer 1
10
93.133240
20
-812.234740
11
5.644440
21
-812.234740
0
LINE
8
Layer 1
10
5.644440
20
-812.234740
11
5.644440
21
-724.745940
0
LINE
8
Layer 1
10
5.644440
20
-724.745940
11
5.644440
21
-637.257140
0
LINE
8
Layer 1
10
5.644440
20
-637.257140
11
50.799940
21
-637.257140
0
LINE
8
Layer 1
10
50.799940
20
-637.257140
11
95.955440
21
-637.257140
0
LINE
8
Layer 1
10
95.955440
20
-637.257140
11
95.955440
21
-614.679340
0
LINE
8
Layer 1
10
95.955440
20
-614.679340
11
95.955440
21
-592.101540
0
LINE
8
Layer 1
10
95.955440
20
-592.101540
11
183.444240
21
-592.101540
0
LINE
8
Layer 1
10
183.444240
20
-592.101540
11
270.933040
21
-592.101540
0
LINE
8
Layer 1
10
270.933040
20
-592.101540
11
270.933040
21
-637.257040
0
LINE
8
Layer 1
10
270.933040
20
-637.257040
11
270.933040
21
-682.412540
0
LINE
8
Layer 1
10
270.933040
20
-682.412540
11
316.088540
21
-682.412540
0
LINE
8
Layer 1
10
316.088540
20
-682.412540
11
361.244040
21
-682.412540
0
LINE
8
Layer 1
10
361.244040
20
-682.412540
11
361.244040
21
-704.990340
0
LINE
8
Layer 1
10
361.244040
20
-704.990340
11
361.244040
21
-727.568140
0
LINE
8
Layer 1
10
361.244040
20
-727.568140
11
386.644040
21
-727.568140
0
LINE
8
Layer 1
10
386.644040
20
-727.568140
11
412.044040
21
-727.568140
0
LINE
8
Layer 1
10
412.044040
20
-727.568140
11
412.044040
21
-724.745920
0
LINE
8
Layer 1
10
412.044040
20
-724.745920
11
412.044040
21
-721.923700
0
LINE
8
Layer 1
10
412.044040
20
-721.923700
11
389.466240
21
-721.923700
0
LINE
8
Layer 1
10
389.466240
20
-721.923700
11
366.888440
21
-721.923700
0
LINE
8
Layer 1
10
366.888440
20
-721.923700
11
366.888440
21
-699.345900
0
LINE
8
Layer 1
10
366.888440
20
-699.345900
11
366.888440
21
-676.768100
0
LINE
8
Layer 1
10
366.888440
20
-676.768100
11
321.732940
21
-676.768100
0
LINE
8
Layer 1
10
321.732940
20
-676.768100
11
276.577440
21
-676.768100
0
LINE
8
Layer 1
10
276.577440
20
-676.768100
11
276.577440
21
-566.701100
0
LINE
8
Layer 1
10
276.577440
20
-566.701100
11
276.577440
21
-456.634100
0
LINE
8
Layer 1
10
276.577440
20
-456.634100
11
296.332940
21
-456.634100
0
LINE
8
Layer 1
10
296.332940
20
-456.634100
11
316.088440
21
-456.634100
0
LINE
8
Layer 1
10
316.088440
20
-456.634100
11
316.088440
21
-546.945100
0
LINE
8
Layer 1
10
316.088440
20
-546.945100
11
316.088440
21
-637.256100
0
LINE
8
Layer 1
10
316.088440
20
-637.256100
11
318.910660
21
-637.256100
0
LINE
8
Layer 1
10
318.910660
20
-637.256100
11
321.732880
21
-637.256100
0
LINE
8
Layer 1
10
321.732880
20
-637.256100
11
321.732880
21
-592.100600
0
LINE
8
Layer 1
10
321.732880
20
-592.100600
11
321.732880
21
-546.945100
0
LINE
8
Layer 1
10
321.732880
20
-546.945100
11
366.888380
21
-546.945100
0
LINE
8
Layer 1
10
366.888380
20
-546.945100
11
412.043880
21
-546.945100
0
LINE
8
Layer 1
10
412.043880
20
-546.945100
11
412.043880
21
-498.967400
0
LINE
8
Layer 1
10
412.043880
20
-498.967400
11
412.043880
21
-450.989700
0
LINE
8
Layer 1
10
412.043880
20
-450.989700
11
409.221660
21
-450.989700
0
LINE
8
Layer 1
10
409.221660
20
-450.989700
11
406.399440
21
-450.989700
0
LINE
8
Layer 1
10
406.399440
20
-450.989700
11
406.399440
21
-473.567500
0
LINE
8
Layer 1
10
406.399440
20
-473.567500
11
406.399440
21
-496.145300
0
LINE
8
Layer 1
10
406.399440
20
-496.145300
11
383.821640
21
-496.145300
0
LINE
8
Layer 1
10
383.821640
20
-496.145300
11
361.243840
21
-496.145300
0
LINE
8
Layer 1
10
361.243840
20
-496.145300
11
361.243840
21
-498.967520
0
LINE
8
Layer 1
10
361.243840
20
-498.967520
11
361.243840
21
-501.789740
0
LINE
8
Layer 1
10
361.243840
20
-501.789740
11
383.821640
21
-501.789740
0
LINE
8
Layer 1
10
383.821640
20
-501.789740
11
406.399440
21
-501.789740
0
LINE
8
Layer 1
10
406.399440
20
-501.789740
11
406.399440
21
-521.545240
0
LINE
8
Layer 1
10
406.399440
20
-521.545240
11
406.399440
21
-541.300740
0
LINE
8
Layer 1
10
406.399440
20
-541.300740
11
364.066140
21
-541.300740
0
LINE
8
Layer 1
10
364.066140
20
-541.300740
11
321.732840
21
-541.300740
0
LINE
8
Layer 1
10
321.732840
20
-541.300740
11
321.732840
21
-498.967440
0
LINE
8
Layer 1
10
321.732840
20
-498.967440
11
321.732840
21
-456.634140
0
LINE
8
Layer 1
10
321.732840
20
-456.634140
11
344.310640
21
-456.634140
0
LINE
8
Layer 1
10
344.310640
20
-456.634140
11
366.888440
21
-456.634140
0
LINE
8
Layer 1
10
366.888440
20
-456.634140
11
366.888440
21
-434.056340
0
LINE
8
Layer 1
10
366.888440
20
-434.056340
11
366.888440
21
-411.478540
0
LINE
8
Layer 1
10
366.888440
20
-411.478540
11
412.043940
21
-411.478540
0
LINE
8
Layer 1
10
412.043940
20
-411.478540
11
457.199440
21
-411.478540
0
LINE
8
Layer 1
10
457.199440
20
-411.478540
11
457.199440
21
-408.656320
0
LINE
8
Layer 1
10
457.199440
20
-408.656320
11
457.199440
21
-405.834100
0
LINE
8
Layer 1
10
457.199440
20
-405.834100
11
412.043940
21
-405.834100
0
LINE
8
Layer 1
10
412.043940
20
-405.834100
11
366.888440
21
-405.834100
0
LINE
8
Layer 1
10
366.888440
20
-405.834100
11
366.888440
21
-383.256300
0
LINE
8
Layer 1
10
366.888440
20
-383.256300
11
366.888440
21
-360.678500
0
LINE
8
Layer 1
10
366.888440
20
-360.678500
11
344.310640
21
-360.678500
0
LINE
8
Layer 1
10
344.310640
20
-360.678500
11
321.732840
21
-360.678500
0
LINE
8
Layer 1
10
321.732840
20
-360.678500
11
321.732840
21
-315.523000
0
LINE
8
Layer 1
10
321.732840
20
-315.523000
11
321.732840
21
-270.367500
0
LINE
8
Layer 1
10
321.732840
20
-270.367500
11
296.332840
21
-270.367500
0
LINE
8
Layer 1
10
296.332840
20
-270.367500
11
270.932840
21
-270.367500
0
LINE
8
Layer 1
10
270.932840
20
-270.367500
11
270.932840
21
-273.189720
0
LINE
8
Layer 1
10
270.932840
20
-273.189720
11
270.932840
21
-276.011940
0
LINE
8
Layer 1
10
270.932840
20
-276.011940
11
293.510640
21
-276.011940
0
LINE
8
Layer 1
10
293.510640
20
-276.011940
11
316.088440
21
-276.011940
0
LINE
8
Layer 1
10
316.088440
20
-276.011940
11
316.088440
21
-343.745240
0
LINE
8
Layer 1
10
316.088440
20
-343.745240
11
316.088440
21
-411.478540
0
LINE
8
Layer 1
10
316.088440
20
-411.478540
11
318.910660
21
-411.478540
0
LINE
8
Layer 1
10
318.910660
20
-411.478540
11
321.732880
21
-411.478540
0
LINE
8
Layer 1
10
321.732880
20
-411.478540
11
321.732880
21
-388.900740
0
LINE
8
Layer 1
10
321.732880
20
-388.900740
11
321.732880
21
-366.322940
0
LINE
8
Layer 1
10
321.732880
20
-366.322940
11
341.488380
21
-366.322940
0
LINE
8
Layer 1
10
341.488380
20
-366.322940
11
361.243880
21
-366.322940
0
LINE
8
Layer 1
10
361.243880
20
-366.322940
11
361.243880
21
-408.656240
0
LINE
8
Layer 1
10
361.243880
20
-408.656240
11
361.243880
21
-450.989540
0
LINE
8
Layer 1
10
361.243880
20
-450.989540
11
318.910580
21
-450.989540
0
LINE
8
Layer 1
10
318.910580
20
-450.989540
11
276.577280
21
-450.989540
0
LINE
8
Layer 1
10
276.577280
20
-450.989540
11
276.577280
21
-383.256240
0
LINE
8
Layer 1
10
276.577280
20
-383.256240
11
276.577280
21
-315.522940
0
LINE
8
Layer 1
10
276.577280
20
-315.522940
11
253.999480
21
-315.522940
0
LINE
8
Layer 1
10
253.999480
20
-315.522940
11
231.421680
21
-315.522940
0
LINE
8
Layer 1
10
231.421680
20
-315.522940
11
231.421680
21
-273.189640
0
LINE
8
Layer 1
10
231.421680
20
-273.189640
11
231.421680
21
-230.856340
0
LINE
8
Layer 1
10
231.421680
20
-230.856340
11
296.332780
21
-230.856340
0
LINE
8
Layer 1
10
296.332780
20
-230.856340
11
361.243880
21
-230.856340
0
LINE
8
Layer 1
10
361.243880
20
-230.856340
11
361.243880
21
-276.011840
0
LINE
8
Layer 1
10
361.243880
20
-276.011840
11
361.243880
21
-321.167340
0
LINE
8
Layer 1
10
361.243880
20
-321.167340
11
383.821680
21
-321.167340
0
LINE
8
Layer 1
10
383.821680
20
-321.167340
11
406.399480
21
-321.167340
0
LINE
8
Layer 1
10
406.399480
20
-321.167340
11
406.399480
21
-343.745140
0
LINE
8
Layer 1
10
406.399480
20
-343.745140
11
406.399480
21
-366.322940
0
LINE
8
Layer 1
10
406.399480
20
-366.322940
11
409.221700
21
-366.322940
0
LINE
8
Layer 1
10
409.221700
20
-366.322940
11
412.043920
21
-366.322940
0
LINE
8
Layer 1
10
412.043920
20
-366.322940
11
412.043920
21
-343.745140
0
LINE
8
Layer 1
10
412.043920
20
-343.745140
11
412.043920
21
-321.167340
0
LINE
8
Layer 1
10
412.043920
20
-321.167340
11
434.621720
21
-321.167340
0
LINE
8
Layer 1
10
434.621720
20
-321.167340
11
457.199520
21
-321.167340
0
LINE
8
Layer 1
10
457.199520
20
-321.167340
11
457.199520
21
-318.345120
0
LINE
8
Layer 1
10
457.199520
20
-318.345120
11
457.199520
21
-315.522900
0
LINE
8
Layer 1
10
457.199520
20
-315.522900
11
412.044020
21
-315.522900
0
LINE
8
Layer 1
10
412.044020
20
-315.522900
11
366.888520
21
-315.522900
0
LINE
8
Layer 1
10
366.888520
20
-315.522900
11
366.888520
21
-273.189600
0
LINE
8
Layer 1
10
366.888520
20
-273.189600
11
366.888520
21
-230.856300
0
LINE
8
Layer 1
10
366.888520
20
-230.856300
11
389.466320
21
-230.856300
0
LINE
8
Layer 1
10
389.466320
20
-230.856300
11
412.044120
21
-230.856300
0
LINE
8
Layer 1
10
412.044120
20
-230.856300
11
412.044120
21
-228.034080
0
LINE
8
Layer 1
10
412.044120
20
-228.034080
11
412.044120
21
-225.211860
0
LINE
8
Layer 1
10
412.044120
20
-225.211860
11
389.466320
21
-225.211860
0
LINE
8
Layer 1
10
389.466320
20
-225.211860
11
366.888520
21
-225.211860
0
LINE
8
Layer 1
10
366.888520
20
-225.211860
11
366.888520
21
-202.634060
0
LINE
8
Layer 1
10
366.888520
20
-202.634060
11
366.888520
21
-180.056260
0
LINE
8
Layer 1
10
366.888520
20
-180.056260
11
364.066300
21
-180.056260
0
LINE
8
Layer 1
10
364.066300
20
-180.056260
11
361.244080
21
-180.056260
0
LINE
8
Layer 1
10
361.244080
20
-180.056260
11
361.244080
21
-202.634060
0
LINE
8
Layer 1
10
361.244080
20
-202.634060
11
361.244080
21
-225.211860
0
LINE
8
Layer 1
10
361.244080
20
-225.211860
11
296.332980
21
-225.211860
0
LINE
8
Layer 1
10
296.332980
20
-225.211860
11
231.421880
21
-225.211860
0
LINE
8
Layer 1
10
231.421880
20
-225.211860
11
231.421880
21
-205.456360
0
LINE
8
Layer 1
10
231.421880
20
-205.456360
11
231.421880
21
-185.700860
0
LINE
8
Layer 1
10
231.421880
20
-185.700860
11
253.999680
21
-185.700860
0
LINE
8
Layer 1
10
253.999680
20
-185.700860
11
276.577480
21
-185.700860
0
LINE
8
Layer 1
10
276.577480
20
-185.700860
11
276.577480
21
-182.878640
0
LINE
8
Layer 1
10
276.577480
20
-182.878640
11
276.577480
21
-180.056420
0
LINE
8
Layer 1
10
276.577480
20
-180.056420
11
231.421980
21
-180.056420
0
LINE
8
Layer 1
10
231.421980
20
-180.056420
11
186.266480
21
-180.056420
0
LINE
8
Layer 1
10
186.266480
20
-180.056420
11
186.266480
21
-157.478620
0
LINE
8
Layer 1
10
186.266480
20
-157.478620
11
186.266480
21
-134.900820
0
LINE
8
Layer 1
10
186.266480
20
-134.900820
11
160.866480
21
-134.900820
0
LINE
8
Layer 1
10
160.866480
20
-134.900820
11
135.466480
21
-134.900820
0
LINE
8
Layer 1
10
135.466480
20
-134.900820
11
135.466480
21
-137.723040
0
LINE
8
Layer 1
10
135.466480
20
-137.723040
11
135.466480
21
-140.545260
0
LINE
8
Layer 1
10
135.466480
20
-140.545260
11
158.044280
21
-140.545260
0
LINE
8
Layer 1
10
158.044280
20
-140.545260
11
180.622080
21
-140.545260
0
LINE
8
Layer 1
10
180.622080
20
-140.545260
11
180.622080
21
-163.123060
0
LINE
8
Layer 1
10
180.622080
20
-163.123060
11
180.622080
21
-185.700860
0
LINE
8
Layer 1
10
180.622080
20
-185.700860
11
203.199880
21
-185.700860
0
LINE
8
Layer 1
10
203.199880
20
-185.700860
11
225.777680
21
-185.700860
0
LINE
8
Layer 1
10
225.777680
20
-185.700860
11
225.777680
21
-253.434160
0
LINE
8
Layer 1
10
225.777680
20
-253.434160
11
225.777680
21
-321.167460
0
LINE
8
Layer 1
10
225.777680
20
-321.167460
11
248.355480
21
-321.167460
0
LINE
8
Layer 1
10
248.355480
20
-321.167460
11
270.933280
21
-321.167460
0
LINE
8
Layer 1
10
270.933280
20
-321.167460
11
270.933280
21
-408.656260
0
LINE
8
Layer 1
10
270.933280
20
-408.656260
11
270.933280
21
-496.145060
0
LINE
8
Layer 1
10
270.933280
20
-496.145060
11
225.777780
21
-496.145060
0
LINE
8
Layer 1
10
225.777780
20
-496.145060
11
180.622280
21
-496.145060
0
LINE
8
Layer 1
10
180.622280
20
-496.145060
11
180.622280
21
-498.967280
0
LINE
8
Layer 1
10
180.622280
20
-498.967280
11
180.622280
21
-501.789500
0
LINE
8
Layer 1
10
180.622280
20
-501.789500
11
225.777780
21
-501.789500
0
LINE
8
Layer 1
10
225.777780
20
-501.789500
11
270.933280
21
-501.789500
0
LINE
8
Layer 1
10
270.933280
20
-501.789500
11
270.933280
21
-544.122800
0
LINE
8
Layer 1
10
270.933280
20
-544.122800
11
270.933280
21
-586.456100
0
LINE
8
Layer 1
10
270.933280
20
-586.456100
11
228.599980
21
-586.456100
0
LINE
8
Layer 1
10
228.599980
20
-586.456100
11
186.266680
21
-586.456100
0
LINE
8
Layer 1
10
186.266680
20
-586.456100
11
186.266680
21
-566.700600
0
LINE
8
Layer 1
10
186.266680
20
-566.700600
11
186.266680
21
-546.945100
0
LINE
8
Layer 1
10
186.266680
20
-546.945100
11
208.844480
21
-546.945100
0
LINE
8
Layer 1
10
208.844480
20
-546.945100
11
231.422280
21
-546.945100
0
LINE
8
Layer 1
10
231.422280
20
-546.945100
11
231.422280
21
-544.122880
0
LINE
8
Layer 1
10
231.422280
20
-544.122880
11
231.422280
21
-541.300660
0
LINE
8
Layer 1
10
231.422280
20
-541.300660
11
206.022280
21
-541.300660
0
LINE
8
Layer 1
10
206.022280
20
-541.300660
11
180.622280
21
-541.300660
0
LINE
8
Layer 1
10
180.622280
20
-541.300660
11
180.622280
21
-563.878460
0
LINE
8
Layer 1
10
180.622280
20
-563.878460
11
180.622280
21
-586.456260
0
LINE
8
Layer 1
10
180.622280
20
-586.456260
11
138.288980
21
-586.456260
0
LINE
8
Layer 1
10
138.288980
20
-586.456260
11
95.955680
21
-586.456260
0
LINE
8
Layer 1
10
95.955680
20
-586.456260
11
95.955680
21
-541.300760
0
LINE
8
Layer 1
10
95.955680
20
-541.300760
11
95.955680
21
-496.145260
0
LINE
8
Layer 1
10
95.955680
20
-496.145260
11
70.555680
21
-496.145260
0
LINE
8
Layer 1
10
70.555680
20
-496.145260
11
45.155680
21
-496.145260
0
LINE
8
Layer 1
10
45.155680
20
-496.145260
11
45.155680
21
-498.967480
0
LINE
8
Layer 1
10
45.155680
20
-498.967480
11
45.155680
21
-501.789700
0
LINE
8
Layer 1
10
45.155680
20
-501.789700
11
67.733480
21
-501.789700
0
LINE
8
Layer 1
10
67.733480
20
-501.789700
11
90.311280
21
-501.789700
0
LINE
8
Layer 1
10
90.311280
20
-501.789700
11
90.311280
21
-544.123000
0
LINE
8
Layer 1
10
90.311280
20
-544.123000
11
90.311280
21
-586.456300
0
LINE
8
Layer 1
10
90.311280
20
-586.456300
11
67.733480
21
-586.456300
0
LINE
8
Layer 1
10
67.733480
20
-586.456300
11
45.155680
21
-586.456300
0
LINE
8
Layer 1
10
45.155680
20
-586.456300
11
45.155680
21
-589.278520
0
LINE
8
Layer 1
10
45.155680
20
-589.278520
11
45.155680
21
-592.100740
0
LINE
8
Layer 1
10
45.155680
20
-592.100740
11
67.733480
21
-592.100740
0
LINE
8
Layer 1
10
67.733480
20
-592.100740
11
90.311280
21
-592.100740
0
LINE
8
Layer 1
10
90.311280
20
-592.100740
11
90.311280
21
-611.856240
0
LINE
8
Layer 1
10
90.311280
20
-611.856240
11
90.311280
21
-631.611740
0
LINE
8
Layer 1
10
90.311280
20
-631.611740
11
47.977980
21
-631.611740
0
LINE
8
Layer 1
10
47.977980
20
-631.611740
11
5.644680
21
-631.611740
0
LINE
8
Layer 1
10
5.644680
20
-631.611740
11
5.644680
21
-589.278440
0
LINE
8
Layer 1
10
5.644680
20
-589.278440
11
5.644680
21
-546.945140
0
LINE
8
Layer 1
10
5.644680
20
-546.945140
11
28.222480
21
-546.945140
0
LINE
8
Layer 1
10
28.222480
20
-546.945140
11
50.800280
21
-546.945140
0
LINE
8
Layer 1
10
50.800280
20
-546.945140
11
50.800280
21
-544.122920
0
LINE
8
Layer 1
10
50.800280
20
-544.122920
11
50.800280
21
-541.300700
0
LINE
8
Layer 1
10
50.800280
20
-541.300700
11
28.222480
21
-541.300700
0
LINE
8
Layer 1
10
28.222480
20
-541.300700
11
5.644680
21
-541.300700
0
LINE
8
Layer 1
10
5.644680
20
-541.300700
11
5.644680
21
-498.967400
0
LINE
8
Layer 1
10
5.644680
20
-498.967400
11
5.644680
21
-456.634100
0
LINE
8
Layer 1
10
5.644680
20
-456.634100
11
28.222480
21
-456.634100
0
LINE
8
Layer 1
10
28.222480
20
-456.634100
11
50.800280
21
-456.634100
0
LINE
8
Layer 1
10
50.800280
20
-456.634100
11
50.800280
21
-453.811880
0
LINE
8
Layer 1
10
50.800280
20
-453.811880
11
50.800280
21
-450.989660
0
LINE
8
Layer 1
10
50.800280
20
-450.989660
11
28.222480
21
-450.989660
0
LINE
8
Layer 1
10
28.222480
20
-450.989660
11
5.644680
21
-450.989660
0
LINE
8
Layer 1
10
5.644680
20
-450.989660
11
5.644680
21
-386.078560
0
LINE
8
Layer 1
10
5.644680
20
-386.078560
11
5.644680
21
-321.167460
0
LINE
8
Layer 1
10
5.644680
20
-321.167460
11
28.222480
21
-321.167460
0
LINE
8
Layer 1
10
28.222480
20
-321.167460
11
50.800280
21
-321.167460
0
LINE
8
Layer 1
10
50.800280
20
-321.167460
11
50.800280
21
-318.345240
0
LINE
8
Layer 1
10
50.800280
20
-318.345240
11
50.800280
21
-315.523020
0
LINE
8
Layer 1
10
50.800280
20
-315.523020
11
28.222480
21
-315.523020
0
LINE
8
Layer 1
10
28.222480
20
-315.523020
11
5.644680
21
-315.523020
0
LINE
8
Layer 1
10
5.644680
20
-315.523020
11
5.644680
21
-295.767520
0
LINE
8
Layer 1
10
5.644680
20
-295.767520
11
5.644680
21
-276.012020
0
LINE
8
Layer 1
10
5.644680
20
-276.012020
11
47.977980
21
-276.012020
0
LINE
8
Layer 1
10
47.977980
20
-276.012020
11
90.311280
21
-276.012020
0
LINE
8
Layer 1
10
90.311280
20
-276.012020
11
90.311280
21
-318.345320
0
LINE
8
Layer 1
10
90.311280
20
-318.345320
11
90.311280
21
-360.678620
0
LINE
8
Layer 1
10
90.311280
20
-360.678620
11
67.733480
21
-360.678620
0
LINE
8
Layer 1
10
67.733480
20
-360.678620
11
45.155680
21
-360.678620
0
LINE
8
Layer 1
10
45.155680
20
-360.678620
11
45.155680
21
-363.500840
0
LINE
8
Layer 1
10
45.155680
20
-363.500840
11
45.155680
21
-366.323060
0
LINE
8
Layer 1
10
45.155680
20
-366.323060
11
67.733480
21
-366.323060
0
LINE
8
Layer 1
10
67.733480
20
-366.323060
11
90.311280
21
-366.323060
0
LINE
8
Layer 1
10
90.311280
20
-366.323060
11
90.311280
21
-386.078560
0
LINE
8
Layer 1
10
90.311280
20
-386.078560
11
90.311280
21
-405.834060
0
LINE
8
Layer 1
10
90.311280
20
-405.834060
11
67.733480
21
-405.834060
0
LINE
8
Layer 1
10
67.733480
20
-405.834060
11
45.155680
21
-405.834060
0
LINE
8
Layer 1
10
45.155680
20
-405.834060
11
45.155680
21
-408.656280
0
LINE
8
Layer 1
10
45.155680
20
-408.656280
11
45.155680
21
-411.478500
0
LINE
8
Layer 1
10
45.155680
20
-411.478500
11
67.733480
21
-411.478500
0
LINE
8
Layer 1
10
67.733480
20
-411.478500
11
90.311280
21
-411.478500
0
LINE
8
Layer 1
10
90.311280
20
-411.478500
11
90.311280
21
-434.056300
0
LINE
8
Layer 1
10
90.311280
20
-434.056300
11
90.311280
21
-456.634100
0
LINE
8
Layer 1
10
90.311280
20
-456.634100
11
112.889080
21
-456.634100
0
LINE
8
Layer 1
10
112.889080
20
-456.634100
11
135.466880
21
-456.634100
0
LINE
8
Layer 1
10
135.466880
20
-456.634100
11
135.466880
21
-501.789600
0
LINE
8
Layer 1
10
135.466880
20
-501.789600
11
135.466880
21
-546.945100
0
LINE
8
Layer 1
10
135.466880
20
-546.945100
11
138.289100
21
-546.945100
0
LINE
8
Layer 1
10
138.289100
20
-546.945100
11
141.111320
21
-546.945100
0
LINE
8
Layer 1
10
141.111320
20
-546.945100
11
141.111320
21
-501.789600
0
LINE
8
Layer 1
10
141.111320
20
-501.789600
11
141.111320
21
-456.634100
0
LINE
8
Layer 1
10
141.111320
20
-456.634100
11
163.689120
21
-456.634100
0
LINE
8
Layer 1
10
163.689120
20
-456.634100
11
186.266920
21
-456.634100
0
LINE
8
Layer 1
10
186.266920
20
-456.634100
11
186.266920
21
-411.478600
0
LINE
8
Layer 1
10
186.266920
20
-411.478600
11
186.266920
21
-366.323100
0
LINE
8
Layer 1
10
186.266920
20
-366.323100
11
206.022420
21
-366.323100
0
LINE
8
Layer 1
10
206.022420
20
-366.323100
11
225.777920
21
-366.323100
0
LINE
8
Layer 1
10
225.777920
20
-366.323100
11
225.777920
21
-411.478600
0
LINE
8
Layer 1
10
225.777920
20
-411.478600
11
225.777920
21
-456.634100
0
LINE
8
Layer 1
10
225.777920
20
-456.634100
11
228.600140
21
-456.634100
0
LINE
8
Layer 1
10
228.600140
20
-456.634100
11
231.422360
21
-456.634100
0
LINE
8
Layer 1
10
231.422360
20
-456.634100
11
231.422360
21
-408.656400
0
LINE
8
Layer 1
10
231.422360
20
-408.656400
11
231.422360
21
-360.678700
0
LINE
8
Layer 1
10
231.422360
20
-360.678700
11
208.844560
21
-360.678700
0
LINE
8
Layer 1
10
208.844560
20
-360.678700
11
186.266760
21
-360.678700
0
LINE
8
Layer 1
10
186.266760
20
-360.678700
11
186.266760
21
-292.945400
0
LINE
8
Layer 1
10
186.266760
20
-292.945400
11
186.266760
21
-225.212100
0
LINE
8
Layer 1
10
186.266760
20
-225.212100
11
163.688960
21
-225.212100
0
LINE
8
Layer 1
10
163.688960
20
-225.212100
11
141.111160
21
-225.212100
0
LINE
8
Layer 1
10
141.111160
20
-225.212100
11
141.111160
21
-202.634300
0
LINE
8
Layer 1
10
141.111160
20
-202.634300
11
141.111160
21
-180.056500
0
LINE
8
Layer 1
10
141.111160
20
-180.056500
11
138.288940
21
-180.056500
0
LINE
8
Layer 1
10
138.288940
20
-180.056500
11
135.466720
21
-180.056500
0
LINE
8
Layer 1
10
135.466720
20
-180.056500
11
135.466720
21
-250.612000
0
LINE
8
Layer 1
10
135.466720
20
-250.612000
11
135.466720
21
-321.167500
0
LINE
8
Layer 1
10
135.466720
20
-321.167500
11
138.288940
21
-321.167500
0
LINE
8
Layer 1
10
138.288940
20
-321.167500
11
141.111160
21
-321.167500
0
LINE
8
Layer 1
10
141.111160
20
-321.167500
11
141.111160
21
-276.012000
0
LINE
8
Layer 1
10
141.111160
20
-276.012000
11
141.111160
21
-230.856500
0
LINE
8
Layer 1
10
141.111160
20
-230.856500
11
160.866660
21
-230.856500
0
LINE
8
Layer 1
10
160.866660
20
-230.856500
11
180.622160
21
-230.856500
0
LINE
8
Layer 1
10
180.622160
20
-230.856500
11
180.622160
21
-295.767600
0
LINE
8
Layer 1
10
180.622160
20
-295.767600
11
180.622160
21
-360.678700
0
LINE
8
Layer 1
10
180.622160
20
-360.678700
11
158.044360
21
-360.678700
0
LINE
8
Layer 1
10
158.044360
20
-360.678700
11
135.466560
21
-360.678700
0
LINE
8
Layer 1
10
135.466560
20
-360.678700
11
135.466560
21
-363.500920
0
LINE
8
Layer 1
10
135.466560
20
-363.500920
11
135.466560
21
-366.323140
0
LINE
8
Layer 1
10
135.466560
20
-366.323140
11
158.044360
21
-366.323140
0
LINE
8
Layer 1
10
158.044360
20
-366.323140
11
180.622160
21
-366.323140
0
LINE
8
Layer 1
10
180.622160
20
-366.323140
11
180.622160
21
-408.656440
0
LINE
8
Layer 1
10
180.622160
20
-408.656440
11
180.622160
21
-450.989740
0
LINE
8
Layer 1
10
180.622160
20
-450.989740
11
138.288860
21
-450.989740
0
LINE
8
Layer 1
10
138.288860
20
-450.989740
11
95.955560
21
-450.989740
0
LINE
8
Layer 1
10
95.955560
20
-450.989740
11
95.955560
21
-431.234240
0
LINE
8
Layer 1
10
95.955560
20
-431.234240
11
95.955560
21
-411.478740
0
LINE
8
Layer 1
10
95.955560
20
-411.478740
11
118.533360
21
-411.478740
0
LINE
8
Layer 1
10
118.533360
20
-411.478740
11
141.111160
21
-411.478740
0
LINE
8
Layer 1
10
141.111160
20
-411.478740
11
141.111160
21
-408.656520
0
LINE
8
Layer 1
10
141.111160
20
-408.656520
11
141.111160
21
-405.834300
0
LINE
8
Layer 1
10
141.111160
20
-405.834300
11
118.533360
21
-405.834300
0
LINE
8
Layer 1
10
118.533360
20
-405.834300
11
95.955560
21
-405.834300
0
LINE
8
Layer 1
10
95.955560
20
-405.834300
11
95.955560
21
-228.034300
0
LINE
8
Layer 1
10
95.955560
20
-228.034300
11
95.955560
21
-50.234300
0
LINE
8
Layer 1
10
95.955560
20
-50.234300
11
115.711060
21
-50.234300
0
LINE
8
Layer 1
10
115.711060
20
-50.234300
11
135.466560
21
-50.234300
0
LINE
8
Layer 1
10
135.466560
20
-50.234300
11
135.466560
21
-72.812100
0
LINE
8
Layer 1
10
135.466560
20
-72.812100
11
135.466560
21
-95.389900
0
LINE
8
Layer 1
10
135.466560
20
-95.389900
11
180.622060
21
-95.389900
0
LINE
8
Layer 1
10
180.622060
20
-95.389900
11
225.777560
21
-95.389900
0
LINE
8
Layer 1
10
225.777560
20
-95.389900
11
225.777560
21
-117.967700
0
LINE
8
Layer 1
10
225.777560
20
-117.967700
11
225.777560
21
-140.545500
0
LINE
8
Layer 1
10
225.777560
20
-140.545500
11
270.933060
21
-140.545500
0
LINE
8
Layer 1
10
270.933060
20
-140.545500
11
316.088560
21
-140.545500
0
LINE
8
Layer 1
10
316.088560
20
-140.545500
11
316.088560
21
-163.123300
0
LINE
8
Layer 1
10
316.088560
20
-163.123300
11
316.088560
21
-185.701100
0
LINE
8
Layer 1
10
316.088560
20
-185.701100
11
318.910780
21
-185.701100
0
LINE
8
Layer 1
10
318.910780
20
-185.701100
11
321.733000
21
-185.701100
0
LINE
8
Layer 1
10
321.733000
20
-185.701100
11
321.733000
21
-163.123300
0
LINE
8
Layer 1
10
321.733000
20
-163.123300
11
321.733000
21
-140.545500
0
LINE
8
Layer 1
10
321.733000
20
-140.545500
11
366.888500
21
-140.545500
0
LINE
8
Layer 1
10
366.888500
20
-140.545500
11
412.044000
21
-140.545500
0
LINE
8
Layer 1
10
412.044000
20
-140.545500
11
412.044000
21
-137.723280
0
LINE
8
Layer 1
10
412.044000
20
-137.723280
11
412.044000
21
-134.901060
0
LINE
8
Layer 1
10
412.044000
20
-134.901060
11
321.733000
21
-134.901060
0
LINE
8
Layer 1
10
321.733000
20
-134.901060
11
231.422000
21
-134.901060
0
LINE
8
Layer 1
10
231.422000
20
-134.901060
11
231.422000
21
-67.167760
0
LINE
8
Layer 1
10
231.422000
20
-67.167760
11
231.422000
21
0.565540
0
LINE
8
Layer 1
10
231.422000
20
0.565540
11
228.599780
21
0.565540
0
LINE
8
Layer 1
10
228.599780
20
0.565540
11
225.777560
21
0.565540
0
LINE
8
Layer 1
10
225.777560
20
0.565540
11
225.777560
21
-44.589960
0
LINE
8
Layer 1
10
225.777560
20
-44.589960
11
225.777560
21
-89.745460
0
LINE
8
Layer 1
10
225.777560
20
-89.745460
11
183.444260
21
-89.745460
0
LINE
8
Layer 1
10
183.444260
20
-89.745460
11
141.110960
21
-89.745460
0
LINE
8
Layer 1
10
141.110960
20
-89.745460
11
141.110960
21
-67.167660
0
LINE
8
Layer 1
10
141.110960
20
-67.167660
11
141.110960
21
-44.589860
0
LINE
8
Layer 1
10
141.110960
20
-44.589860
11
118.533160
21
-44.589860
0
LINE
8
Layer 1
10
118.533160
20
-44.589860
11
95.955360
21
-44.589860
0
LINE
8
Layer 1
10
95.955360
20
-44.589860
11
95.955360
21
-2.256560
0
LINE
8
Layer 1
10
95.955360
20
-2.256560
11
95.955360
21
40.076740
0
LINE
8
Layer 1
10
95.955360
20
40.076740
11
118.533160
21
40.076740
0
LINE
8
Layer 1
10
118.533160
20
40.076740
11
141.110960
21
40.076740
0
LINE
8
Layer 1
10
141.110960
20
40.076740
11
141.110960
21
42.898960
0
LINE
8
Layer 1
10
141.110960
20
42.898960
11
141.110960
21
45.721180
0
LINE
8
Layer 1
10
141.110960
20
45.721180
11
93.133260
21
45.721180
0
LINE
8
Layer 1
10
93.133260
20
45.721180
11
45.155560
21
45.721180
0
LINE
8
Layer 1
10
45.155560
20
45.721180
11
45.155560
21
42.898960
0
LINE
8
Layer 1
10
45.155560
20
42.898960
11
45.155560
21
40.076740
0
LINE
8
Layer 1
10
45.155560
20
40.076740
11
67.733360
21
40.076740
0
LINE
8
Layer 1
10
67.733360
20
40.076740
11
90.311160
21
40.076740
0
LINE
8
Layer 1
10
90.311160
20
40.076740
11
90.311160
21
-24.834360
0
LINE
8
Layer 1
10
90.311160
20
-24.834360
11
90.311160
21
-89.745460
0
LINE
8
Layer 1
10
90.311160
20
-89.745460
11
67.733360
21
-89.745460
0
LINE
8
Layer 1
10
67.733360
20
-89.745460
11
45.155560
21
-89.745460
0
LINE
8
Layer 1
10
45.155560
20
-89.745460
11
45.155560
21
-160.300960
0
LINE
8
Layer 1
10
45.155560
20
-160.300960
11
45.155560
21
-230.856460
0
LINE
8
Layer 1
10
45.155560
20
-230.856460
11
47.977780
21
-230.856460
0
LINE
8
Layer 1
10
47.977780
20
-230.856460
11
50.800000
21
-230.856460
0
LINE
8
Layer 1
10
50.800000
20
-230.856460
11
50.800000
21
-163.123160
0
LINE
8
Layer 1
10
50.800000
20
-163.123160
11
50.800000
21
-95.389860
0
LINE
8
Layer 1
10
50.800000
20
-95.389860
11
70.555500
21
-95.389860
0
LINE
8
Layer 1
10
70.555500
20
-95.389860
11
90.311000
21
-95.389860
0
LINE
8
Layer 1
10
90.311000
20
-95.389860
11
90.311000
21
-182.878660
0
LINE
8
Layer 1
10
90.311000
20
-182.878660
11
90.311000
21
-270.367460
0
LINE
8
Layer 1
10
90.311000
20
-270.367460
11
47.977700
21
-270.367460
0
LINE
8
Layer 1
10
47.977700
20
-270.367460
11
5.644400
21
-270.367460
0
LINE
8
Layer 1
10
5.644400
20
-270.367460
11
5.644400
21
-137.723460
0
LINE
8
Layer 1
10
5.644400
20
-137.723460
11
5.644400
21
-5.079460
0
LINE
8
Layer 1
10
5.644400
20
-5.079460
11
25.399900
21
-5.079460
0
LINE
8
Layer 1
10
25.399900
20
-5.079460
11
45.155400
21
-5.079460
0
LINE
8
Layer 1
10
45.155400
20
-5.079460
11
45.155400
21
-27.657260
0
LINE
8
Layer 1
10
45.155400
20
-27.657260
11
45.155400
21
-50.235060
0
LINE
8
Layer 1
10
45.155400
20
-50.235060
11
47.977620
21
-50.235060
0
LINE
8
Layer 1
10
47.977620
20
-50.235060
11
50.799840
21
-50.235060
0
LINE
8
Layer 1
10
50.799840
20
-50.235060
11
50.799840
21
-24.835060
0
LINE
8
Layer 1
10
50.799840
20
-24.835060
11
50.799840
21
0.564940
0
LINE
8
Layer 1
10
50.799840
20
0.564940
11
28.222040
21
0.564940
0
LINE
8
Layer 1
10
28.222040
20
0.564940
11
5.644240
21
0.564940
0
LINE
8
Layer 1
10
5.644240
20
0.564940
11
5.644240
21
42.898240
0
LINE
8
Layer 1
10
5.644240
20
42.898240
11
5.644240
21
85.231540
0
LINE
8
Layer 1
10
5.644240
20
85.231540
11
115.711240
21
85.231540
0
LINE
8
Layer 1
10
115.711240
20
85.231540
11
225.778240
21
85.231540
0
LINE
8
Layer 1
10
225.778240
20
85.231540
11
225.778240
21
65.476040
0
LINE
8
Layer 1
10
225.778240
20
65.476040
11
225.778240
21
45.720540
0
LINE
8
Layer 1
10
225.778240
20
45.720540
11
203.200440
21
45.720540
0
LINE
8
Layer 1
10
203.200440
20
45.720540
11
180.622640
21
45.720540
0
LINE
8
Layer 1
10
180.622640
20
45.720540
11
180.622640
21
23.142740
0
LINE
8
Layer 1
10
180.622640
20
23.142740
11
180.622640
21
0.564940
0
LINE
8
Layer 1
10
180.622640
20
0.564940
11
158.044840
21
0.564940
0
LINE
8
Layer 1
10
158.044840
20
0.564940
11
135.467040
21
0.564940
0
LINE
8
Layer 1
10
135.467040
20
0.564940
11
135.467040
21
-2.257280
0
LINE
8
Layer 1
10
135.467040
20
-2.257280
11
135.467040
21
-5.079500
0
LINE
8
Layer 1
10
135.467040
20
-5.079500
11
158.044840
21
-5.079500
0
LINE
8
Layer 1
10
158.044840
20
-5.079500
11
180.622640
21
-5.079500
0
LINE
8
Layer 1
10
180.622640
20
-5.079500
11
180.622640
21
-27.657300
0
LINE
8
Layer 1
10
180.622640
20
-27.657300
11
180.622640
21
-50.235100
0
LINE
8
Layer 1
10
180.622640
20
-50.235100
11
183.444860
21
-50.235100
0
LINE
8
Layer 1
10
183.444860
20
-50.235100
11
186.267080
21
-50.235100
0
LINE
8
Layer 1
10
186.267080
20
-50.235100
11
186.267080
21
-5.079600
0
LINE
8
Layer 1
10
186.267080
20
-5.079600
11
186.267080
21
40.075900
0
LINE
8
Layer 1
10
186.267080
20
40.075900
11
208.844880
21
40.075900
0
LINE
8
Layer 1
10
208.844880
20
40.075900
11
231.422680
21
40.075900
0
LINE
8
Layer 1
10
231.422680
20
40.075900
11
231.422680
21
62.653700
0
LINE
8
Layer 1
10
231.422680
20
62.653700
11
231.422680
21
85.231500
0
LINE
8
Layer 1
10
231.422680
20
85.231500
11
273.755980
21
85.231500
0
LINE
8
Layer 1
10
273.755980
20
85.231500
11
316.089280
21
85.231500
0
LINE
8
Layer 1
10
316.089280
20
85.231500
11
316.089280
21
42.898200
0
LINE
8
Layer 1
10
316.089280
20
42.898200
11
316.089280
21
0.564900
0
LINE
8
Layer 1
10
316.089280
20
0.564900
11
296.333780
21
0.564900
0
LINE
8
Layer 1
10
296.333780
20
0.564900
11
276.578280
21
0.564900
0
LINE
8
Layer 1
10
276.578280
20
0.564900
11
276.578280
21
23.142700
0
LINE
8
Layer 1
10
276.578280
20
23.142700
11
276.578280
21
45.720500
0
LINE
8
Layer 1
10
276.578280
20
45.720500
11
273.756060
21
45.720500
0
LINE
8
Layer 1
10
273.756060
20
45.720500
11
270.933840
21
45.720500
0
LINE
8
Layer 1
10
270.933840
20
45.720500
11
270.933840
21
20.320500
0
LINE
8
Layer 1
10
270.933840
20
20.320500
11
270.933840
21
-5.079500
0
LINE
8
Layer 1
10
270.933840
20
-5.079500
11
293.511640
21
-5.079500
0
LINE
8
Layer 1
10
293.511640
20
-5.079500
11
316.089440
21
-5.079500
0
LINE
8
Layer 1
10
316.089440
20
-5.079500
11
316.089440
21
-27.657300
0
LINE
8
Layer 1
10
316.089440
20
-27.657300
11
316.089440
21
-50.235100
0
LINE
8
Layer 1
10
316.089440
20
-50.235100
11
318.911660
21
-50.235100
0
LINE
8
Layer 1
10
318.911660
20
-50.235100
11
321.733880
21
-50.235100
0
LINE
8
Layer 1
10
321.733880
20
-50.235100
11
321.733880
21
17.498200
0
LINE
8
Layer 1
10
321.733880
20
17.498200
11
321.733880
21
85.231500
0
LINE
8
Layer 1
10
321.733880
20
85.231500
11
364.067180
21
85.231500
0
LINE
8
Layer 1
10
364.067180
20
85.231500
11
406.400480
21
85.231500
0
LINE
8
Layer 1
10
406.400480
20
85.231500
11
406.400480
21
65.476000
0
LINE
8
Layer 1
10
406.400480
20
65.476000
11
406.400480
21
45.720500
0
LINE
8
Layer 1
10
406.400480
20
45.720500
11
383.822680
21
45.720500
0
LINE
8
Layer 1
10
383.822680
20
45.720500
11
361.244880
21
45.720500
0
LINE
8
Layer 1
10
361.244880
20
45.720500
11
361.244880
21
-22.012800
0
LINE
8
Layer 1
10
361.244880
20
-22.012800
11
361.244880
21
-89.746100
0
LINE
8
Layer 1
10
361.244880
20
-89.746100
11
318.911580
21
-89.746100
0
LINE
8
Layer 1
10
318.911580
20
-89.746100
11
276.578280
21
-89.746100
0
LINE
8
Layer 1
10
276.578280
20
-89.746100
11
276.578280
21
-67.168300
0
LINE
8
Layer 1
10
276.578280
20
-67.168300
11
276.578280
21
-44.590500
0
LINE
8
Layer 1
10
276.578280
20
-44.590500
11
273.756060
21
-44.590500
0
LINE
8
Layer 1
10
273.756060
20
-44.590500
11
270.933840
21
-44.590500
0
LINE
8
Layer 1
10
270.933840
20
-44.590500
11
270.933840
21
-69.990500
0
LINE
8
Layer 1
10
270.933840
20
-69.990500
11
270.933840
21
-95.390500
0
LINE
8
Layer 1
10
270.933840
20
-95.390500
11
361.244840
21
-95.390500
0
LINE
8
Layer 1
10
361.244840
20
-95.390500
11
451.555840
21
-95.390500
0
LINE
8
Layer 1
10
451.555840
20
-95.390500
11
451.555840
21
-137.723800
0
LINE
8
Layer 1
10
451.555840
20
-137.723800
11
451.555840
21
-180.057100
0
LINE
8
Layer 1
10
451.555840
20
-180.057100
11
428.978040
21
-180.057100
0
LINE
8
Layer 1
10
428.978040
20
-180.057100
11
406.400240
21
-180.057100
0
LINE
8
Layer 1
10
406.400240
20
-180.057100
11
406.400240
21
-182.879320
0
LINE
8
Layer 1
10
406.400240
20
-182.879320
11
406.400240
21
-185.701540
0
LINE
8
Layer 1
10
406.400240
20
-185.701540
11
428.978040
21
-185.701540
0
LINE
8
Layer 1
10
428.978040
20
-185.701540
11
451.555840
21
-185.701540
0
LINE
8
Layer 1
10
451.555840
20
-185.701540
11
451.555840
21
-228.034840
0
LINE
8
Layer 1
10
451.555840
20
-228.034840
11
451.555840
21
-270.368140
0
LINE
8
Layer 1
10
451.555840
20
-270.368140
11
428.978040
21
-270.368140
0
LINE
8
Layer 1
10
428.978040
20
-270.368140
11
406.400240
21
-270.368140
0
LINE
8
Layer 1
10
406.400240
20
-270.368140
11
406.400240
21
-273.190360
0
LINE
8
Layer 1
10
406.400240
20
-273.190360
11
406.400240
21
-276.012580
0
LINE
8
Layer 1
10
406.400240
20
-276.012580
11
431.800240
21
-276.012580
0
LINE
8
Layer 1
10
431.800240
20
-276.012580
11
457.200240
21
-276.012580
0
LINE
8
Layer 1
10
457.200240
20
-276.012580
11
457.200240
21
-253.434780
0
LINE
8
Layer 1
10
457.200240
20
-253.434780
11
457.200240
21
-230.856980
0
LINE
8
Layer 1
10
457.200240
20
-230.856980
11
499.533540
21
-230.856980
0
LINE
8
Layer 1
10
499.533540
20
-230.856980
11
541.866840
21
-230.856980
0
LINE
8
Layer 1
10
541.866840
20
-230.856980
11
541.866840
21
-253.434780
0
LINE
8
Layer 1
10
541.866840
20
-253.434780
11
541.866840
21
-276.012580
0
LINE
8
Layer 1
10
541.866840
20
-276.012580
11
544.689060
21
-276.012580
0
LINE
8
Layer 1
10
544.689060
20
-276.012580
11
547.511280
21
-276.012580
0
LINE
8
Layer 1
10
547.511280
20
-276.012580
11
547.511280
21
-250.612580
0
LINE
8
Layer 1
10
547.511280
20
-250.612580
11
547.511280
21
-225.212580
0
LINE
8
Layer 1
10
547.511280
20
-225.212580
11
524.933480
21
-225.212580
0
LINE
8
Layer 1
10
524.933480
20
-225.212580
11
502.355680
21
-225.212580
0
LINE
8
Layer 1
10
502.355680
20
-225.212580
11
502.355680
21
-180.057080
0
LINE
8
Layer 1
10
502.355680
20
-180.057080
11
502.355680
21
-134.901580
0
LINE
8
Layer 1
10
502.355680
20
-134.901580
11
499.533460
21
-134.901580
0
LINE
8
Layer 1
10
499.533460
20
-134.901580
11
496.711240
21
-134.901580
0
LINE
8
Layer 1
10
496.711240
20
-134.901580
11
496.711240
21
-180.057080
0
LINE
8
Layer 1
10
496.711240
20
-180.057080
11
496.711240
21
-225.212580
0
LINE
8
Layer 1
10
496.711240
20
-225.212580
11
476.955740
21
-225.212580
0
LINE
8
Layer 1
10
476.955740
20
-225.212580
11
457.200240
21
-225.212580
0
LINE
8
Layer 1
10
457.200240
20
-225.212580
11
457.200240
21
-137.723780
0
LINE
8
Layer 1
10
457.200240
20
-137.723780
11
457.200240
21
-50.234980
0
LINE
8
Layer 1
10
457.200240
20
-50.234980
11
476.955740
21
-50.234980
0
LINE
8
Layer 1
10
476.955740
20
-50.234980
11
496.711240
21
-50.234980
0
LINE
8
Layer 1
10
496.711240
20
-50.234980
11
496.711240
21
-72.812780
0
LINE
8
Layer 1
10
496.711240
20
-72.812780
11
496.711240
21
-95.390580
0
LINE
8
Layer 1
10
496.711240
20
-95.390580
11
519.289040
21
-95.390580
0
LINE
8
Layer 1
10
519.289040
20
-95.390580
11
541.866840
21
-95.390580
0
LINE
8
Layer 1
10
541.866840
20
-95.390580
11
541.866840
21
-117.968380
0
LINE
8
Layer 1
10
541.866840
20
-117.968380
11
541.866840
21
-140.546180
0
LINE
8
Layer 1
10
541.866840
20
-140.546180
11
544.689060
21
-140.546180
0
LINE
8
Layer 1
10
544.689060
20
-140.546180
11
547.511280
21
-140.546180
0
LINE
8
Layer 1
10
547.511280
20
-140.546180
11
547.511280
21
-117.968380
0
LINE
8
Layer 1
10
547.511280
20
-117.968380
11
547.511280
21
-95.390580
0
LINE
8
Layer 1
10
547.511280
20
-95.390580
11
615.244580
21
-95.390580
0
LINE
8
Layer 1
10
615.244580
20
-95.390580
11
682.977880
21
-95.390580
0
LINE
8
Layer 1
10
682.977880
20
-95.390580
11
682.977880
21
-92.568360
0
LINE
8
Layer 1
10
682.977880
20
-92.568360
11
682.977880
21
-89.746140
0
LINE
8
Layer 1
10
682.977880
20
-89.746140
11
660.400080
21
-89.746140
0
LINE
8
Layer 1
10
660.400080
20
-89.746140
11
637.822280
21
-89.746140
0
LINE
8
Layer 1
10
637.822280
20
-89.746140
11
637.822280
21
-47.412840
0
LINE
8
Layer 1
10
637.822280
20
-47.412840
11
637.822280
21
-5.079540
0
LINE
8
Layer 1
10
637.822280
20
-5.079540
11
725.311080
21
-5.079540
0
LINE
8
Layer 1
10
725.311080
20
-5.079540
11
812.799880
21
-5.079540
0
LINE
8
Layer 1
10
812.799880
20
-5.079540
11
812.799880
21
-24.835040
0
LINE
8
Layer 1
10
812.799880
20
-24.835040
11
812.799880
21
-44.590540
0
LINE
8
Layer 1
10
812.799880
20
-44.590540
11
745.066580
21
-44.590540
0
LINE
8
Layer 1
10
745.066580
20
-44.590540
11
677.333280
21
-44.590540
0
LINE
8
Layer 1
10
677.333280
20
-44.590540
11
677.333280
21
-47.412760
0
LINE
8
Layer 1
10
677.333280
20
-47.412760
11
677.333280
21
-50.234980
0
LINE
8
Layer 1
10
677.333280
20
-50.234980
11
722.488780
21
-50.234980
0
LINE
8
Layer 1
10
722.488780
20
-50.234980
11
767.644280
21
-50.234980
0
LINE
8
Layer 1
10
767.644280
20
-50.234980
11
767.644280
21
-69.990480
0
LINE
8
Layer 1
10
767.644280
20
-69.990480
11
767.644280
21
-89.745980
0
LINE
8
Layer 1
10
767.644280
20
-89.745980
11
745.066480
21
-89.745980
0
LINE
8
Layer 1
10
745.066480
20
-89.745980
11
722.488680
21
-89.745980
0
LINE
8
Layer 1
10
722.488680
20
-89.745980
11
722.488680
21
-112.323780
0
LINE
8
Layer 1
10
722.488680
20
-112.323780
11
722.488680
21
-134.901580
0
LINE
8
Layer 1
10
722.488680
20
-134.901580
11
654.755380
21
-134.901580
0
LINE
8
Layer 1
10
654.755380
20
-134.901580
11
587.022080
21
-134.901580
0
LINE
8
Layer 1
10
587.022080
20
-134.901580
11
587.022080
21
-157.479380
0
LINE
8
Layer 1
10
587.022080
20
-157.479380
11
587.022080
21
-180.057180
0
LINE
8
Layer 1
10
587.022080
20
-180.057180
11
564.444280
21
-180.057180
0
LINE
8
Layer 1
10
564.444280
20
-180.057180
11
541.866480
21
-180.057180
0
LINE
8
Layer 1
10
541.866480
20
-180.057180
11
541.866480
21
-182.879400
0
LINE
8
Layer 1
10
541.866480
20
-182.879400
11
541.866480
21
-185.701620
0
LINE
8
Layer 1
10
541.866480
20
-185.701620
11
564.444280
21
-185.701620
0
LINE
8
Layer 1
10
564.444280
20
-185.701620
11
587.022080
21
-185.701620
0
LINE
8
Layer 1
10
587.022080
20
-185.701620
11
587.022080
21
-250.612720
0
LINE
8
Layer 1
10
587.022080
20
-250.612720
11
587.022080
21
-315.523820
0
LINE
8
Layer 1
10
587.022080
20
-315.523820
11
544.688780
21
-315.523820
0
LINE
8
Layer 1
10
544.688780
20
-315.523820
11
502.355480
21
-315.523820
0
LINE
8
Layer 1
10
502.355480
20
-315.523820
11
502.355480
21
-292.946020
0
LINE
8
Layer 1
10
502.355480
20
-292.946020
11
502.355480
21
-270.368220
0
LINE
8
Layer 1
10
502.355480
20
-270.368220
11
499.533260
21
-270.368220
0
LINE
8
Layer 1
10
499.533260
20
-270.368220
11
496.711040
21
-270.368220
0
LINE
8
Layer 1
10
496.711040
20
-270.368220
11
496.711040
21
-295.768220
0
LINE
8
Layer 1
10
496.711040
20
-295.768220
11
496.711040
21
-321.168220
0
LINE
8
Layer 1
10
496.711040
20
-321.168220
11
541.866540
21
-321.168220
0
LINE
8
Layer 1
10
541.866540
20
-321.168220
11
587.022040
21
-321.168220
0
LINE
8
Layer 1
10
587.022040
20
-321.168220
11
587.022040
21
-363.501520
0
LINE
8
Layer 1
10
587.022040
20
-363.501520
11
587.022040
21
-405.834820
0
LINE
8
Layer 1
10
587.022040
20
-405.834820
11
564.444240
21
-405.834820
0
LINE
8
Layer 1
10
564.444240
20
-405.834820
11
541.866440
21
-405.834820
0
LINE
8
Layer 1
10
541.866440
20
-405.834820
11
541.866440
21
-408.657040
0
LINE
8
Layer 1
10
541.866440
20
-408.657040
11
541.866440
21
-411.479260
0
LINE
8
Layer 1
10
541.866440
20
-411.479260
11
587.021940
21
-411.479260
0
LINE
8
Layer 1
10
587.021940
20
-411.479260
11
632.177440
21
-411.479260
0
LINE
8
Layer 1
10
632.177440
20
-411.479260
11
632.177440
21
-431.234760
0
LINE
8
Layer 1
10
632.177440
20
-431.234760
11
632.177440
21
-450.990260
0
LINE
8
Layer 1
10
632.177440
20
-450.990260
11
609.599640
21
-450.990260
0
LINE
8
Layer 1
10
609.599640
20
-450.990260
11
587.021840
21
-450.990260
0
LINE
8
Layer 1
10
587.021840
20
-450.990260
11
587.021840
21
-453.812480
0
LINE
8
Layer 1
10
587.021840
20
-453.812480
11
587.021840
21
-456.634700
0
LINE
8
Layer 1
10
587.021840
20
-456.634700
11
612.421840
21
-456.634700
0
LINE
8
Layer 1
10
612.421840
20
-456.634700
11
637.821840
21
-456.634700
0
LINE
8
Layer 1
10
637.821840
20
-456.634700
11
637.821840
21
-434.056900
0
LINE
8
Layer 1
10
637.821840
20
-434.056900
11
637.821840
21
-411.479100
0
LINE
8
Layer 1
10
637.821840
20
-411.479100
11
660.399640
21
-411.479100
0
LINE
8
Layer 1
10
660.399640
20
-411.479100
11
682.977440
21
-411.479100
0
LINE
8
Layer 1
10
682.977440
20
-411.479100
11
682.977440
21
-388.901300
0
LINE
8
Layer 1
10
682.977440
20
-388.901300
11
682.977440
21
-366.323500
0
LINE
8
Layer 1
10
682.977440
20
-366.323500
11
702.732940
21
-366.323500
0
LINE
8
Layer 1
10
702.732940
20
-366.323500
11
722.488440
21
-366.323500
0
LINE
8
Layer 1
10
722.488440
20
-366.323500
11
722.488440
21
-388.901300
0
LINE
8
Layer 1
10
722.488440
20
-388.901300
11
722.488440
21
-411.479100
0
LINE
8
Layer 1
10
722.488440
20
-411.479100
11
745.066240
21
-411.479100
0
LINE
8
Layer 1
10
745.066240
20
-411.479100
11
767.644040
21
-411.479100
0
LINE
8
Layer 1
10
767.644040
20
-411.479100
11
767.644040
21
-453.812400
0
LINE
8
Layer 1
10
767.644040
20
-453.812400
11
767.644040
21
-496.145700
0
LINE
8
Layer 1
10
767.644040
20
-496.145700
11
725.310740
21
-496.145700
0
LINE
8
Layer 1
10
725.310740
20
-496.145700
11
682.977440
21
-496.145700
0
LINE
8
Layer 1
10
682.977440
20
-496.145700
11
682.977440
21
-476.390200
0
LINE
8
Layer 1
10
682.977440
20
-476.390200
11
682.977440
21
-456.634700
0
LINE
8
Layer 1
10
682.977440
20
-456.634700
11
705.555240
21
-456.634700
0
LINE
8
Layer 1
10
705.555240
20
-456.634700
11
728.133040
21
-456.634700
0
LINE
8
Layer 1
10
728.133040
20
-456.634700
11
728.133040
21
-453.812480
0
LINE
8
Layer 1
10
728.133040
20
-453.812480
11
728.133040
21
-450.990260
0
LINE
8
Layer 1
10
728.133040
20
-450.990260
11
702.733040
21
-450.990260
0
LINE
8
Layer 1
10
702.733040
20
-450.990260
11
677.333040
21
-450.990260
0
LINE
8
Layer 1
10
677.333040
20
-450.990260
11
677.333040
21
-473.568060
0
LINE
8
Layer 1
10
677.333040
20
-473.568060
11
677.333040
21
-496.145860
0
LINE
8
Layer 1
10
677.333040
20
-496.145860
11
612.421940
21
-496.145860
0
LINE
8
Layer 1
10
612.421940
20
-496.145860
11
547.510840
21
-496.145860
0
LINE
8
Layer 1
10
547.510840
20
-496.145860
11
547.510840
21
-473.568060
0
LINE
8
Layer 1
10
547.510840
20
-473.568060
11
547.510840
21
-450.990260
0
LINE
8
Layer 1
10
547.510840
20
-450.990260
11
524.933040
21
-450.990260
0
LINE
8
Layer 1
10
524.933040
20
-450.990260
11
502.355240
21
-450.990260
0
LINE
8
Layer 1
10
502.355240
20
-450.990260
11
502.355240
21
-408.656960
0
LINE
8
Layer 1
10
502.355240
20
-408.656960
11
502.355240
21
-366.323660
0
LINE
8
Layer 1
10
502.355240
20
-366.323660
11
524.933040
21
-366.323660
0
LINE
8
Layer 1
10
524.933040
20
-366.323660
11
547.510840
21
-366.323660
0
LINE
8
Layer 1
10
547.510840
20
-366.323660
11
547.510840
21
-363.501440
0
LINE
8
Layer 1
10
547.510840
20
-363.501440
11
547.510840
21
-360.679220
0
LINE
8
Layer 1
10
547.510840
20
-360.679220
11
499.533140
21
-360.679220
0
LINE
8
Layer 1
10
499.533140
20
-360.679220
11
451.555440
21
-360.679220
0
LINE
8
Layer 1
10
451.555440
20
-360.679220
11
451.555440
21
-363.501440
0
LINE
8
Layer 1
10
451.555440
20
-363.501440
11
451.555440
21
-366.323660
0
LINE
8
Layer 1
10
451.555440
20
-366.323660
11
474.133240
21
-366.323660
0
LINE
8
Layer 1
10
474.133240
20
-366.323660
11
496.711040
21
-366.323660
0
LINE
8
Layer 1
10
496.711040
20
-366.323660
11
496.711040
21
-411.479160
0
LINE
8
Layer 1
10
496.711040
20
-411.479160
11
496.711040
21
-456.634660
0
LINE
8
Layer 1
10
496.711040
20
-456.634660
11
519.288840
21
-456.634660
0
LINE
8
Layer 1
10
519.288840
20
-456.634660
11
541.866640
21
-456.634660
0
LINE
8
Layer 1
10
541.866640
20
-456.634660
11
541.866640
21
-476.390160
0
LINE
8
Layer 1
10
541.866640
20
-476.390160
11
541.866640
21
-496.145660
0
LINE
8
Layer 1
10
541.866640
20
-496.145660
11
499.533340
21
-496.145660
0
LINE
8
Layer 1
10
499.533340
20
-496.145660
11
457.200040
21
-496.145660
0
LINE
8
Layer 1
10
457.200040
20
-496.145660
11
457.200040
21
-473.567860
0
LINE
8
Layer 1
10
457.200040
20
-473.567860
11
457.200040
21
-450.990060
0
LINE
8
Layer 1
10
457.200040
20
-450.990060
11
454.377820
21
-450.990060
0
LINE
8
Layer 1
10
454.377820
20
-450.990060
11
451.555600
21
-450.990060
0
LINE
8
Layer 1
10
451.555600
20
-450.990060
11
451.555600
21
-476.390060
0
LINE
8
Layer 1
10
451.555600
20
-476.390060
11
451.555600
21
-501.790060
0
LINE
8
Layer 1
10
451.555600
20
-501.790060
11
474.133400
21
-501.790060
0
LINE
8
Layer 1
10
474.133400
20
-501.790060
11
496.711200
21
-501.790060
0
LINE
8
Layer 1
10
496.711200
20
-501.790060
11
496.711200
21
-521.545560
0
LINE
8
Layer 1
10
496.711200
20
-521.545560
11
496.711200
21
-541.301060
0
LINE
8
Layer 1
10
496.711200
20
-541.301060
11
474.133400
21
-541.301060
0
LINE
8
Layer 1
10
474.133400
20
-541.301060
11
451.555600
21
-541.301060
0
LINE
8
Layer 1
10
451.555600
20
-541.301060
11
451.555600
21
-563.878860
0
LINE
8
Layer 1
10
451.555600
20
-563.878860
11
451.555600
21
-586.456660
0
LINE
8
Layer 1
10
451.555600
20
-586.456660
11
406.400100
21
-586.456660
0
LINE
8
Layer 1
10
406.400100
20
-586.456660
11
361.244600
21
-586.456660
0
LINE
8
Layer 1
10
361.244600
20
-586.456660
11
361.244600
21
-611.856660
0
LINE
8
Layer 1
10
361.244600
20
-611.856660
11
361.244600
21
-637.256660
0
LINE
8
Layer 1
10
361.244600
20
-637.256660
11
383.822400
21
-637.256660
0
LINE
8
Layer 1
10
383.822400
20
-637.256660
11
406.400200
21
-637.256660
0
LINE
8
Layer 1
10
406.400200
20
-637.256660
11
406.400200
21
-659.834460
0
LINE
8
Layer 1
10
406.400200
20
-659.834460
11
406.400200
21
-682.412260
0
LINE
8
Layer 1
10
406.400200
20
-682.412260
11
409.222420
21
-682.412260
0
LINE
8
Layer 1
10
409.222420
20
-682.412260
11
412.044640
21
-682.412260
0
LINE
8
Layer 1
10
412.044640
20
-682.412260
11
412.044640
21
-657.012260
0
LINE
8
Layer 1
10
412.044640
20
-657.012260
11
412.044640
21
-631.612260
0
LINE
8
Layer 1
10
412.044640
20
-631.612260
11
389.466840
21
-631.612260
0
LINE
8
Layer 1
10
389.466840
20
-631.612260
11
366.889040
21
-631.612260
0
LINE
8
Layer 1
10
366.889040
20
-631.612260
11
366.889040
21
-611.856760
0
LINE
8
Layer 1
10
366.889040
20
-611.856760
11
366.889040
21
-592.101260
0
LINE
8
Layer 1
10
366.889040
20
-592.101260
11
409.222340
21
-592.101260
0
LINE
8
Layer 1
10
409.222340
20
-592.101260
11
451.555640
21
-592.101260
0
LINE
8
Layer 1
10
451.555640
20
-592.101260
11
451.555640
21
-659.834560
0
LINE
8
Layer 1
10
451.555640
20
-659.834560
11
451.555640
21
-727.567860
0
LINE
8
Layer 1
10
451.555640
20
-727.567860
11
454.377860
21
-727.567860
0
LINE
8
Layer 1
10
454.377860
20
-727.567860
11
457.200080
21
-727.567860
0
LINE
8
Layer 1
10
457.200080
20
-727.567860
11
457.200080
21
-682.412360
0
LINE
8
Layer 1
10
457.200080
20
-682.412360
11
457.200080
21
-637.256860
0
LINE
8
Layer 1
10
457.200080
20
-637.256860
11
544.688880
21
-637.256860
0
LINE
8
Layer 1
10
544.688880
20
-637.256860
11
632.177680
21
-637.256860
0
LINE
8
Layer 1
10
632.177680
20
-637.256860
11
632.177680
21
-704.990160
0
LINE
8
Layer 1
10
632.177680
20
-704.990160
11
632.177680
21
-772.723460
0
LINE
8
Layer 1
10
632.177680
20
-772.723460
11
634.999900
21
-772.723460
0
LINE
8
Layer 1
10
634.999900
20
-772.723460
11
637.822120
21
-772.723460
0
LINE
8
Layer 1
10
637.822120
20
-772.723460
11
637.822120
21
-702.167960
0
LINE
8
Layer 1
10
637.822120
20
-702.167960
11
637.822120
21
-631.612460
0
LINE
8
Layer 1
10
637.822120
20
-631.612460
11
547.511120
21
-631.612460
0
LINE
8
Layer 1
10
547.511120
20
-631.612460
11
457.200120
21
-631.612460
0
LINE
8
Layer 1
10
457.200120
20
-631.612460
11
457.200120
21
-589.279160
0
LINE
8
Layer 1
10
457.200120
20
-589.279160
11
457.200120
21
-546.945860
0
LINE
8
Layer 1
10
457.200120
20
-546.945860
11
479.777920
21
-546.945860
0
LINE
8
Layer 1
10
479.777920
20
-546.945860
11
502.355720
21
-546.945860
0
LINE
8
Layer 1
10
502.355720
20
-546.945860
11
502.355720
21
-524.368060
0
LINE
8
Layer 1
10
502.355720
20
-524.368060
11
502.355720
21
-501.790260
0
LINE
8
Layer 1
10
502.355720
20
-501.790260
11
682.977720
21
-501.790260
0
LINE
8
Layer 1
10
682.977720
20
-501.790260
11
863.599720
21
-501.790260
0
LINE
8
Layer 1
10
863.599720
20
-501.790260
11
863.599720
21
-498.968040
0
LINE
8
Layer 1
10
863.599720
20
-498.968040
11
863.599720
21
-496.145820
0
LINE
8
Layer 1
10
863.599720
20
-496.145820
11
818.444220
21
-496.145820
0
LINE
8
Layer 1
10
818.444220
20
-496.145820
11
773.288720
21
-496.145820
0
LINE
8
Layer 1
10
773.288720
20
-496.145820
11
773.288720
21
-450.990320
0
LINE
8
Layer 1
10
773.288720
20
-450.990320
11
773.288720
21
-405.834820
0
LINE
8
Layer 1
10
773.288720
20
-405.834820
11
750.710920
21
-405.834820
0
LINE
8
Layer 1
10
750.710920
20
-405.834820
11
728.133120
21
-405.834820
0
LINE
8
Layer 1
10
728.133120
20
-405.834820
11
728.133120
21
-383.257020
0
LINE
8
Layer 1
10
728.133120
20
-383.257020
11
728.133120
21
-360.679220
0
LINE
8
Layer 1
10
728.133120
20
-360.679220
11
702.733120
21
-360.679220
0
LINE
8
Layer 1
10
702.733120
20
-360.679220
11
677.333120
21
-360.679220
0
LINE
8
Layer 1
10
677.333120
20
-360.679220
11
677.333120
21
-383.257020
0
LINE
8
Layer 1
10
677.333120
20
-383.257020
11
677.333120
21
-405.834820
0
LINE
8
Layer 1
10
677.333120
20
-405.834820
11
634.999820
21
-405.834820
0
LINE
8
Layer 1
10
634.999820
20
-405.834820
11
592.666520
21
-405.834820
0
LINE
8
Layer 1
10
592.666520
20
-405.834820
11
592.666520
21
-273.190820
0
LINE
8
Layer 1
10
592.666520
20
-273.190820
11
592.666520
21
-140.546820
0
LINE
8
Layer 1
10
592.666520
20
-140.546820
11
660.399820
21
-140.546820
0
LINE
8
Layer 1
10
660.399820
20
-140.546820
11
728.133120
21
-140.546820
0
LINE
8
Layer 1
10
728.133120
20
-140.546820
11
728.133120
21
-117.969020
0
LINE
8
Layer 1
10
728.133120
20
-117.969020
11
728.133120
21
-95.391220
0
LINE
8
Layer 1
10
728.133120
20
-95.391220
11
750.710920
21
-95.391220
0
LINE
8
Layer 1
10
750.710920
20
-95.391220
11
773.288720
21
-95.391220
0
LINE
8
Layer 1
10
773.288720
20
-95.391220
11
773.288720
21
-72.813420
0
LINE
8
Layer 1
10
773.288720
20
-72.813420
11
773.288720
21
-50.235620
0
LINE
8
Layer 1
10
773.288720
20
-50.235620
11
795.866520
21
-50.235620
0
LINE
8
Layer 1
10
795.866520
20
-50.235620
11
818.444320
21
-50.235620
0
LINE
8
Layer 1
10
818.444320
20
-50.235620
11
818.444320
21
-24.835620
0
LINE
8
Layer 1
10
818.444320
20
-24.835620
11
818.444320
21
0.564380
0
LINE
8
Layer 1
10
818.444320
20
0.564380
11
795.866520
21
0.564380
0
LINE
8
Layer 1
10
795.866520
20
0.564380
11
773.288720
21
0.564380
0
LINE
8
Layer 1
10
773.288720
20
0.564380
11
773.288720
21
23.142180
0
LINE
8
Layer 1
10
773.288720
20
23.142180
11
773.288720
21
45.719980
0
LINE
8
Layer 1
10
773.288720
20
45.719980
11
770.466500
21
45.719980
0
LINE
8
Layer 1
10
770.466500
20
45.719980
11
767.644280
21
45.719980
0
LINE
8
Layer 1
10
767.644280
20
45.719980
11
767.644280
21
23.142180
0
LINE
8
Layer 1
10
767.644280
20
23.142180
11
767.644280
21
0.564380
0
LINE
8
Layer 1
10
767.644280
20
0.564380
11
680.155480
21
0.564380
0
LINE
8
Layer 1
10
680.155480
20
0.564380
11
592.666680
21
0.564380
0
LINE
8
Layer 1
10
592.666680
20
0.564380
11
592.666680
21
23.142180
0
LINE
8
Layer 1
10
592.666680
20
23.142180
11
592.666680
21
45.719980
0
LINE
8
Layer 1
10
592.666680
20
45.719980
11
567.266680
21
45.719980
0
LINE
8
Layer 1
10
567.266680
20
45.719980
11
541.866680
21
45.719980
0
LINE
8
Layer 1
10
541.866680
20
45.719980
11
541.866680
21
42.897760
0
LINE
8
Layer 1
10
541.866680
20
42.897760
11
541.866680
21
40.075540
0
LINE
8
Layer 1
10
541.866680
20
40.075540
11
564.444480
21
40.075540
0
LINE
8
Layer 1
10
564.444480
20
40.075540
11
587.022280
21
40.075540
0
LINE
8
Layer 1
10
587.022280
20
40.075540
11
587.022280
21
17.497740
0
LINE
8
Layer 1
10
587.022280
20
17.497740
11
587.022280
21
-5.080060
0
LINE
8
Layer 1
10
587.022280
20
-5.080060
11
609.600080
21
-5.080060
0
LINE
8
Layer 1
10
609.600080
20
-5.080060
11
632.177880
21
-5.080060
0
LINE
8
Layer 1
10
632.177880
20
-5.080060
11
632.177880
21
-47.413360
0
LINE
8
Layer 1
10
632.177880
20
-47.413360
11
632.177880
21
-89.746660
0
LINE
8
Layer 1
10
632.177880
20
-89.746660
11
567.266780
21
-89.746660
0
LINE
8
Layer 1
10
567.266780
20
-89.746660
11
502.355680
21
-89.746660
0
LINE
8
Layer 1
10
502.355680
20
-89.746660
11
502.355680
21
-67.168860
0
LINE
8
Layer 1
10
502.355680
20
-67.168860
11
502.355680
21
-44.591060
0
LINE
8
Layer 1
10
502.355680
20
-44.591060
11
476.955680
21
-44.591060
0
LINE
8
Layer 1
10
476.955680
20
-44.591060
11
451.555680
21
-44.591060
0
LINE
8
Layer 1
10
451.555680
20
-44.591060
11
451.555680
21
-67.168860
0
LINE
8
Layer 1
10
451.555680
20
-67.168860
11
451.555680
21
-89.746660
0
LINE
8
Layer 1
10
451.555680
20
-89.746660
11
409.222380
21
-89.746660
0
LINE
8
Layer 1
10
409.222380
20
-89.746660
11
366.889080
21
-89.746660
0
LINE
8
Layer 1
10
366.889080
20
-89.746660
11
366.889080
21
-24.835560
0
LINE
8
Layer 1
10
366.889080
20
-24.835560
11
366.889080
21
40.075540
0
LINE
8
Layer 1
10
366.889080
20
40.075540
11
389.466880
21
40.075540
0
LINE
8
Layer 1
10
389.466880
20
40.075540
11
412.044680
21
40.075540
0
LINE
8
Layer 1
10
412.044680
20
40.075540
11
412.044680
21
62.653340
0
LINE
8
Layer 1
10
412.044680
20
62.653340
11
412.044680
21
85.231140
0
LINE
8
Layer 1
10
412.044680
20
85.231140
11
434.622480
21
85.231140
0
LINE
8
Layer 1
10
434.622480
20
85.231140
11
457.200280
21
85.231140
0
LINE
8
Layer 1
10
457.200280
20
85.231140
11
457.200280
21
88.053360
0
LINE
8
Layer 1
10
457.200280
20
88.053360
11
457.200280
21
90.875580
0
LINE
8
Layer 1
10
457.200280
20
90.875580
11
476.955780
21
90.875580
0
LINE
8
Layer 1
10
476.955780
20
90.875580
11
496.711280
21
90.875580
0
LINE
8
Layer 1
10
496.711280
20
90.875580
11
496.711280
21
68.297780
0
LINE
8
Layer 1
10
496.711280
20
68.297780
11
496.711280
21
45.719980
0
LINE
8
Layer 1
10
496.711280
20
45.719980
11
474.133480
21
45.719980
0
LINE
8
Layer 1
10
474.133480
20
45.719980
11
451.555680
21
45.719980
0
LINE
8
Layer 1
10
451.555680
20
45.719980
11
451.555680
21
23.142180
0
LINE
8
Layer 1
10
451.555680
20
23.142180
11
451.555680
21
0.564380
0
LINE
8
Layer 1
10
451.555680
20
0.564380
11
428.977880
21
0.564380
0
LINE
8
Layer 1
10
428.977880
20
0.564380
11
406.400080
21
0.564380
0
LINE
8
Layer 1
10
406.400080
20
0.564380
11
406.400080
21
-24.835620
0
LINE
8
Layer 1
10
406.400080
20
-24.835620
11
406.400080
21
-50.235620
0
LINE
8
Layer 1
10
406.400080
20
-50.235620
11
409.222300
21
-50.235620
0
LINE
8
Layer 1
10
409.222300
20
-50.235620
11
412.044520
21
-50.235620
0
LINE
8
Layer 1
10
412.044520
20
-50.235620
11
412.044520
21
-27.657820
0
LINE
8
Layer 1
10
412.044520
20
-27.657820
11
412.044520
21
-5.080020
0
LINE
8
Layer 1
10
412.044520
20
-5.080020
11
476.955620
21
-5.080020
0
LINE
8
Layer 1
10
476.955620
20
-5.080020
11
541.866720
21
-5.080020
0
LINE
8
Layer 1
10
541.866720
20
-5.080020
11
541.866720
21
-27.657820
0
LINE
8
Layer 1
10
541.866720
20
-27.657820
11
541.866720
21
-50.235620
0
LINE
8
Layer 1
10
541.866720
20
-50.235620
11
567.266720
21
-50.235620
0
LINE
8
Layer 1
10
567.266720
20
-50.235620
11
592.666720
21
-50.235620
0
LINE
8
Layer 1
10
592.666720
20
-50.235620
11
592.666720
21
-47.413400
0
LINE
8
Layer 1
10
592.666720
20
-47.413400
11
592.666720
21
-44.591180
0
LINE
8
Layer 1
10
592.666720
20
-44.591180
11
570.088920
21
-44.591180
0
LINE
8
Layer 1
10
570.088920
20
-44.591180
11
547.511120
21
-44.591180
0
LINE
8
Layer 1
10
547.511120
20
-44.591180
11
547.511120
21
-22.013380
0
LINE
8
Layer 1
10
547.511120
20
-22.013380
11
547.511120
21
0.564420
0
LINE
8
Layer 1
10
547.511120
20
0.564420
11
502.355620
21
0.564420
0
LINE
8
Layer 1
10
502.355620
20
0.564420
11
457.200120
21
0.564420
0
LINE
8
Layer 1
10
457.200120
20
0.564420
11
457.200120
21
20.319920
0
LINE
8
Layer 1
10
457.200120
20
20.319920
11
457.200120
21
40.075420
0
LINE
8
Layer 1
10
457.200120
20
40.075420
11
479.777920
21
40.075420
0
LINE
8
Layer 1
10
479.777920
20
40.075420
11
502.355720
21
40.075420
0
LINE
8
Layer 1
10
502.355720
20
40.075420
11
502.355720
21
62.653220
0
LINE
8
Layer 1
10
502.355720
20
62.653220
11
502.355720
21
85.231020
0
LINE
8
Layer 1
10
502.355720
20
85.231020
11
567.266820
21
85.231020
0
LINE
8
Layer 1
10
567.266820
20
85.231020
11
632.177920
21
85.231020
0
LINE
8
Layer 1
10
632.177920
20
85.231020
11
632.177920
21
62.653220
0
LINE
8
Layer 1
10
632.177920
20
62.653220
11
632.177920
21
40.075420
0
LINE
8
Layer 1
10
632.177920
20
40.075420
11
635.000140
21
40.075420
0
LINE
8
Layer 1
10
635.000140
20
40.075420
11
637.822360
21
40.075420
0
LINE
8
Layer 1
10
637.822360
20
40.075420
11
637.822360
21
62.653220
0
LINE
8
Layer 1
10
637.822360
20
62.653220
11
637.822360
21
85.231020
0
LINE
8
Layer 1
10
637.822360
20
85.231020
11
680.155660
21
85.231020
0
LINE
8
Layer 1
10
680.155660
20
85.231020
11
722.488960
21
85.231020
0
LINE
8
Layer 1
10
722.488960
20
85.231020
11
722.488960
21
65.475520
0
LINE
8
Layer 1
10
722.488960
20
65.475520
11
722.488960
21
45.720020
0
LINE
8
Layer 1
10
722.488960
20
45.720020
11
699.911160
21
45.720020
0
LINE
8
Layer 1
10
699.911160
20
45.720020
11
677.333360
21
45.720020
0
LINE
8
Layer 1
10
677.333360
20
45.720020
11
677.333360
21
42.897800
0
LINE
8
Layer 1
10
677.333360
20
42.897800
11
677.333360
21
40.075580
0
LINE
8
Layer 1
10
677.333360
20
40.075580
11
702.733360
21
40.075580
0
LINE
8
Layer 1
10
702.733360
20
40.075580
11
728.133360
21
40.075580
0
LINE
8
Layer 1
10
728.133360
20
40.075580
11
728.133360
21
62.653380
0
LINE
8
Layer 1
10
728.133360
20
62.653380
11
728.133360
21
85.231180
0
LINE
8
Layer 1
10
728.133360
20
85.231180
11
770.466660
21
85.231180
0
LINE
8
Layer 1
10
770.466660
20
85.231180
11
812.799960
21
85.231180
0
LINE
8
Layer 1
10
812.799960
20
85.231180
11
812.799960
21
62.653380
0
LINE
8
Layer 1
10
812.799960
20
62.653380
11
812.799960
21
40.075580
0
LINE
8
Layer 1
10
812.799960
20
40.075580
11
835.377760
21
40.075580
0
LINE
8
Layer 1
10
835.377760
20
40.075580
11
857.955560
21
40.075580
0
LINE
8
Layer 1
10
857.955560
20
40.075580
11
857.955560
21
-24.835520
0
LINE
8
Layer 1
10
857.955560
20
-24.835520
11
857.955560
21
-89.746620
0
LINE
8
Layer 1
10
857.955560
20
-89.746620
11
835.377760
21
-89.746620
0
LINE
8
Layer 1
10
835.377760
20
-89.746620
11
812.799960
21
-89.746620
0
LINE
8
Layer 1
10
812.799960
20
-89.746620
11
812.799960
21
-112.324420
0
LINE
8
Layer 1
10
812.799960
20
-112.324420
11
812.799960
21
-134.902220
0
LINE
8
Layer 1
10
812.799960
20
-134.902220
11
790.222160
21
-134.902220
0
LINE
8
Layer 1
10
790.222160
20
-134.902220
11
767.644360
21
-134.902220
0
LINE
8
Layer 1
10
767.644360
20
-134.902220
11
767.644360
21
-157.480020
0
LINE
8
Layer 1
10
767.644360
20
-157.480020
11
767.644360
21
-180.057820
0
LINE
8
Layer 1
10
767.644360
20
-180.057820
11
699.911060
21
-180.057820
0
LINE
8
Layer 1
10
699.911060
20
-180.057820
11
632.177760
21
-180.057820
0
LINE
8
Layer 1
10
632.177760
20
-180.057820
11
632.177760
21
-182.880040
0
LINE
8
Layer 1
10
632.177760
20
-182.880040
11
632.177760
21
-185.702260
0
LINE
8
Layer 1
10
632.177760
20
-185.702260
11
654.755560
21
-185.702260
0
LINE
8
Layer 1
10
654.755560
20
-185.702260
11
677.333360
21
-185.702260
0
LINE
8
Layer 1
10
677.333360
20
-185.702260
11
677.333360
21
-230.857760
0
LINE
8
Layer 1
10
677.333360
20
-230.857760
11
677.333360
21
-276.013260
0
LINE
8
Layer 1
10
677.333360
20
-276.013260
11
725.311060
21
-276.013260
0
LINE
8
Layer 1
10
725.311060
20
-276.013260
11
773.288760
21
-276.013260
0
LINE
8
Layer 1
10
773.288760
20
-276.013260
11
773.288760
21
-250.613260
0
LINE
8
Layer 1
10
773.288760
20
-250.613260
11
773.288760
21
-225.213260
0
LINE
8
Layer 1
10
773.288760
20
-225.213260
11
747.888760
21
-225.213260
0
LINE
8
Layer 1
10
747.888760
20
-225.213260
11
722.488760
21
-225.213260
0
LINE
8
Layer 1
10
722.488760
20
-225.213260
11
722.488760
21
-228.035480
0
LINE
8
Layer 1
10
722.488760
20
-228.035480
11
722.488760
21
-230.857700
0
LINE
8
Layer 1
10
722.488760
20
-230.857700
11
745.066560
21
-230.857700
0
LINE
8
Layer 1
10
745.066560
20
-230.857700
11
767.644360
21
-230.857700
0
LINE
8
Layer 1
10
767.644360
20
-230.857700
11
767.644360
21
-250.613200
0
LINE
8
Layer 1
10
767.644360
20
-250.613200
11
767.644360
21
-270.368700
0
LINE
8
Layer 1
10
767.644360
20
-270.368700
11
725.311060
21
-270.368700
0
LINE
8
Layer 1
10
725.311060
20
-270.368700
11
682.977760
21
-270.368700
0
LINE
8
Layer 1
10
682.977760
20
-270.368700
11
682.977760
21
-228.035400
0
LINE
8
Layer 1
10
682.977760
20
-228.035400
11
682.977760
21
-185.702100
0
LINE
8
Layer 1
10
682.977760
20
-185.702100
11
728.133260
21
-185.702100
0
LINE
8
Layer 1
10
728.133260
20
-185.702100
11
773.288760
21
-185.702100
0
LINE
8
Layer 1
10
773.288760
20
-185.702100
11
773.288760
21
-163.124300
0
LINE
8
Layer 1
10
773.288760
20
-163.124300
11
773.288760
21
-140.546500
0
LINE
8
Layer 1
10
773.288760
20
-140.546500
11
793.044260
21
-140.546500
0
LINE
8
Layer 1
10
793.044260
20
-140.546500
11
812.799760
21
-140.546500
0
LINE
8
Layer 1
10
812.799760
20
-140.546500
11
812.799760
21
-228.035300
0
LINE
8
Layer 1
10
812.799760
20
-228.035300
11
812.799760
21
-315.524100
0
LINE
8
Layer 1
10
812.799760
20
-315.524100
11
725.310960
21
-315.524100
0
LINE
8
Layer 1
10
725.310960
20
-315.524100
11
637.822160
21
-315.524100
0
LINE
8
Layer 1
10
637.822160
20
-315.524100
11
637.822160
21
-270.368600
0
LINE
8
Layer 1
10
637.822160
20
-270.368600
11
637.822160
21
-225.213100
0
LINE
8
Layer 1
10
637.822160
20
-225.213100
11
634.999940
21
-225.213100
0
LINE
8
Layer 1
10
634.999940
20
-225.213100
11
632.177720
21
-225.213100
0
LINE
8
Layer 1
10
632.177720
20
-225.213100
11
632.177720
21
-295.768600
0
LINE
8
Layer 1
10
632.177720
20
-295.768600
11
632.177720
21
-366.324100
0
LINE
8
Layer 1
10
632.177720
20
-366.324100
11
634.999940
21
-366.324100
0
LINE
8
Layer 1
10
634.999940
20
-366.324100
11
637.822160
21
-366.324100
0
LINE
8
Layer 1
10
637.822160
20
-366.324100
11
637.822160
21
-343.746300
0
LINE
8
Layer 1
10
637.822160
20
-343.746300
11
637.822160
21
-321.168500
0
LINE
8
Layer 1
10
637.822160
20
-321.168500
11
702.733260
21
-321.168500
0
LINE
8
Layer 1
10
702.733260
20
-321.168500
11
767.644360
21
-321.168500
0
LINE
8
Layer 1
10
767.644360
20
-321.168500
11
767.644360
21
-343.746300
0
LINE
8
Layer 1
10
767.644360
20
-343.746300
11
767.644360
21
-366.324100
0
LINE
8
Layer 1
10
767.644360
20
-366.324100
11
770.466580
21
-366.324100
0
LINE
8
Layer 1
10
770.466580
20
-366.324100
11
773.288800
21
-366.324100
0
LINE
8
Layer 1
10
773.288800
20
-366.324100
11
773.288800
21
-343.746300
0
LINE
8
Layer 1
10
773.288800
20
-343.746300
11
773.288800
21
-321.168500
0
LINE
8
Layer 1
10
773.288800
20
-321.168500
11
815.622100
21
-321.168500
0
LINE
8
Layer 1
10
815.622100
20
-321.168500
11
857.955400
21
-321.168500
0
LINE
8
Layer 1
10
857.955400
20
-321.168500
11
857.955400
21
-386.079600
0
LINE
8
Layer 1
10
857.955400
20
-386.079600
11
857.955400
21
-450.990700
0
LINE
8
Layer 1
10
857.955400
20
-450.990700
11
838.199900
21
-450.990700
0
LINE
8
Layer 1
10
838.199900
20
-450.990700
11
818.444400
21
-450.990700
0
LINE
8
Layer 1
10
818.444400
20
-450.990700
11
818.444400
21
-405.835200
0
LINE
8
Layer 1
10
818.444400
20
-405.835200
11
818.444400
21
-360.679700
0
LINE
8
Layer 1
10
818.444400
20
-360.679700
11
815.622180
21
-360.679700
0
LINE
8
Layer 1
10
815.622180
20
-360.679700
11
812.799960
21
-360.679700
0
LINE
8
Layer 1
10
812.799960
20
-360.679700
11
812.799960
21
-408.657400
0
LINE
8
Layer 1
10
812.799960
20
-408.657400
11
812.799960
21
-456.635100
0
LINE
8
Layer 1
10
812.799960
20
-456.635100
11
838.199960
21
-456.635100
0
LINE
8
Layer 1
10
838.199960
20
-456.635100
11
863.599960
21
-456.635100
0
LINE
8
Layer 1
10
863.599960
20
-456.635100
11
863.599960
21
-386.079600
0
LINE
8
Layer 1
10
863.599960
20
-386.079600
11
863.599960
21
-315.524100
0
LINE
8
Layer 1
10
863.599960
20
-315.524100
11
841.022160
21
-315.524100
0
LINE
8
Layer 1
10
841.022160
20
-315.524100
11
818.444360
21
-315.524100
0
LINE
8
Layer 1
10
818.444360
20
-315.524100
11
818.444360
21
-205.457100
0
LINE
8
Layer 1
10
818.444360
20
-205.457100
11
818.444360
21
-95.390100
0
LINE
8
Layer 1
10
818.444360
20
-95.390100
11
841.022160
21
-95.390100
0
LINE
8
Layer 1
10
841.022160
20
-95.390100
11
863.599960
21
-95.390100
0
LINE
8
Layer 1
10
863.599960
20
-95.390100
11
863.599960
21
-24.834600
0
LINE
8
Layer 1
10
863.599960
20
-24.834600
11
863.599960
21
45.720900
0
LINE
8
Layer 1
10
863.599960
20
45.720900
11
841.022160
21
45.720900
0
LINE
8
Layer 1
10
841.022160
20
45.720900
11
818.444360
21
45.720900
0
LINE
8
Layer 1
10
818.444360
20
45.720900
11
818.444360
21
65.476400
0
LINE
8
Layer 1
10
818.444360
20
65.476400
11
818.444360
21
85.231900
0
LINE
8
Layer 1
10
818.444360
20
85.231900
11
860.777660
21
85.231900
0
LINE
8
Layer 1
10
860.777660
20
85.231900
11
903.110960
21
85.231900
0
LINE
8
Layer 1
10
903.110960
20
85.231900
11
903.110960
21
-92.568100
0
LINE
8
Layer 1
10
903.110960
20
-92.568100
11
903.110960
21
-270.368100
0
LINE
8
Layer 1
10
903.110960
20
-270.368100
11
883.355460
21
-270.368100
0
LINE
8
Layer 1
10
883.355460
20
-270.368100
11
863.599960
21
-270.368100
0
LINE
8
Layer 1
10
863.599960
20
-270.368100
11
863.599960
21
-202.634800
0
LINE
8
Layer 1
10
863.599960
20
-202.634800
11
863.599960
21
-134.901500
0
LINE
8
Layer 1
10
863.599960
20
-134.901500
11
860.777740
21
-134.901500
0
LINE
8
Layer 1
10
860.777740
20
-134.901500
11
857.955520
21
-134.901500
0
LINE
8
Layer 1
10
857.955520
20
-134.901500
11
857.955520
21
-205.457000
0
LINE
8
Layer 1
10
857.955520
20
-205.457000
11
857.955520
21
-276.012500
0
LINE
8
Layer 1
10
857.955520
20
-276.012500
11
880.533320
21
-276.012500
0
LINE
8
Layer 1
10
880.533320
20
-276.012500
11
903.111120
21
-276.012500
0
LINE
8
Layer 1
10
903.111120
20
-276.012500
11
903.111120
21
-431.234500
0
LINE
8
Layer 1
10
903.111120
20
-431.234500
11
903.111120
21
-586.456500
0
LINE
8
Layer 1
10
903.111120
20
-586.456500
11
880.533320
21
-586.456500
0
LINE
8
Layer 1
10
880.533320
20
-586.456500
11
857.955520
21
-586.456500
0
LINE
8
Layer 1
10
857.955520
20
-586.456500
11
857.955520
21
-611.856500
0
LINE
8
Layer 1
10
857.955520
20
-611.856500
11
857.955520
21
-637.256500
0
LINE
8
Layer 1
10
857.955520
20
-637.256500
11
860.777740
21
-637.256500
0
LINE
8
Layer 1
10
860.777740
20
-637.256500
11
863.599960
21
-637.256500
0
LINE
8
Layer 1
10
863.599960
20
-637.256500
11
863.599960
21
-614.678700
0
LINE
8
Layer 1
10
863.599960
20
-614.678700
11
863.599960
21
-592.100900
0
LINE
8
Layer 1
10
863.599960
20
-592.100900
11
883.355460
21
-592.100900
0
LINE
8
Layer 1
10
883.355460
20
-592.100900
11
903.110960
21
-592.100900
0
LINE
8
Layer 1
10
903.110960
20
-592.100900
11
903.110960
21
-634.434200
0
LINE
8
Layer 1
10
903.110960
20
-634.434200
11
903.110960
21
-676.767500
0
LINE
8
Layer 1
10
903.110960
20
-676.767500
11
860.777660
21
-676.767500
0
LINE
8
Layer 1
10
860.777660
20
-676.767500
11
818.444360
21
-676.767500
0
LINE
8
Layer 1
10
818.444360
20
-676.767500
11
818.444360
21
-611.856400
0
LINE
8
Layer 1
10
818.444360
20
-611.856400
11
818.444360
21
-546.945300
0
LINE
8
Layer 1
10
818.444360
20
-546.945300
11
841.022160
21
-546.945300
0
LINE
8
Layer 1
10
841.022160
20
-546.945300
11
863.599960
21
-546.945300
0
LINE
8
Layer 1
10
863.599960
20
-546.945300
11
863.599960
21
-544.123080
0
LINE
8
Layer 1
10
863.599960
20
-544.123080
11
863.599960
21
-541.300860
0
LINE
8
Layer 1
10
863.599960
20
-541.300860
11
702.732960
21
-541.300860
0
LINE
8
Layer 1
10
702.732960
20
-541.300860
11
541.865960
21
-541.300860
0
LINE
8
Layer 1
10
541.865960
20
-541.300860
11
541.865960
21
-563.878660
0
LINE
8
Layer 1
10
541.865960
20
-563.878660
11
541.865960
21
-586.456460
0
LINE
8
Layer 1
10
541.865960
20
-586.456460
11
519.288160
21
-586.456460
0
LINE
8
Layer 1
10
519.288160
20
-586.456460
11
496.710360
21
-586.456460
0
LINE
8
Layer 1
10
496.710360
20
-586.456460
11
496.710360
21
-589.278680
0
LINE
8
Layer 1
10
496.710360
20
-589.278680
11
496.710360
21
-592.100900
0
LINE
8
Layer 1
10
496.710360
20
-592.100900
11
587.021360
21
-592.100900
0
LINE
8
Layer 1
10
587.021360
20
-592.100900
11
677.332360
21
-592.100900
0
LINE
8
Layer 1
10
677.332360
20
-592.100900
11
677.332360
21
-614.678700
0
LINE
8
Layer 1
10
677.332360
20
-614.678700
11
677.332360
21
-637.256500
0
LINE
8
Layer 1
10
677.332360
20
-637.256500
11
680.154580
21
-637.256500
0
LINE
8
Layer 1
10
680.154580
20
-637.256500
11
682.976800
21
-637.256500
0
LINE
8
Layer 1
10
682.976800
20
-637.256500
11
682.976800
21
-611.856500
0
LINE
8
Layer 1
10
682.976800
20
-611.856500
11
682.976800
21
-586.456500
0
LINE
8
Layer 1
10
682.976800
20
-586.456500
11
615.243500
21
-586.456500
0
LINE
8
Layer 1
10
615.243500
20
-586.456500
11
547.510200
21
-586.456500
0
LINE
8
Layer 1
10
547.510200
20
-586.456500
11
547.510200
21
-566.701000
0
LINE
8
Layer 1
10
547.510200
20
-566.701000
11
547.510200
21
-546.945500
0
LINE
8
Layer 1
10
547.510200
20
-546.945500
11
634.999000
21
-546.945500
0
LINE
8
Layer 1
10
634.999000
20
-546.945500
11
722.487800
21
-546.945500
0
LINE
8
Layer 1
10
722.487800
20
-546.945500
11
722.487800
21
-611.856600
0
LINE
8
Layer 1
10
722.487800
20
-611.856600
11
722.487800
21
-676.767700
0
LINE
8
Layer 1
10
722.487800
20
-676.767700
11
699.910000
21
-676.767700
0
LINE
8
Layer 1
10
699.910000
20
-676.767700
11
677.332200
21
-676.767700
0
LINE
8
Layer 1
10
677.332200
20
-676.767700
11
677.332200
21
-702.167700
0
LINE
8
Layer 1
10
677.332200
20
-702.167700
11
677.332200
21
-727.567700
0
LINE
8
Layer 1
10
677.332200
20
-727.567700
11
680.154420
21
-727.567700
0
LINE
8
Layer 1
10
680.154420
20
-727.567700
11
682.976640
21
-727.567700
0
LINE
8
Layer 1
10
682.976640
20
-727.567700
11
682.976640
21
-704.989900
0
LINE
8
Layer 1
10
682.976640
20
-704.989900
11
682.976640
21
-682.412100
0
LINE
8
Layer 1
10
682.976640
20
-682.412100
11
705.554440
21
-682.412100
0
LINE
8
Layer 1
10
705.554440
20
-682.412100
11
728.132240
21
-682.412100
0
LINE
8
Layer 1
10
728.132240
20
-682.412100
11
728.132240
21
-614.678800
0
LINE
8
Layer 1
10
728.132240
20
-614.678800
11
728.132240
21
-546.945500
0
LINE
8
Layer 1
10
728.132240
20
-546.945500
11
770.465540
21
-546.945500
0
LINE
8
Layer 1
10
770.465540
20
-546.945500
11
812.798840
21
-546.945500
0
LINE
8
Layer 1
10
812.798840
20
-546.945500
11
812.798840
21
-614.678800
0
LINE
8
Layer 1
10
812.798840
20
-614.678800
11
812.798840
21
-682.412100
0
LINE
8
Layer 1
10
812.798840
20
-682.412100
11
835.376640
21
-682.412100
0
LINE
8
Layer 1
10
835.376640
20
-682.412100
11
857.954440
21
-682.412100
0
LINE
8
Layer 1
10
857.954440
20
-682.412100
11
857.954440
21
-724.745400
0
LINE
8
Layer 1
10
857.954440
20
-724.745400
11
857.954440
21
-767.078700
0
LINE
8
Layer 1
10
857.954440
20
-767.078700
11
835.376640
21
-767.078700
0
LINE
8
Layer 1
10
835.376640
20
-767.078700
11
812.798840
21
-767.078700
0
LINE
8
Layer 1
10
812.798840
20
-767.078700
11
812.798840
21
-769.900920
0
LINE
8
Layer 1
10
812.798840
20
-769.900920
11
812.798840
21
-772.723140
0
LINE
8
Layer 1
10
812.798840
20
-772.723140
11
838.198840
21
-772.723140
0
LINE
8
Layer 1
10
838.198840
20
-772.723140
11
863.598840
21
-772.723140
0
LINE
8
Layer 1
10
863.598840
20
-772.723140
11
863.598840
21
-727.567640
0
LINE
8
Layer 1
10
863.598840
20
-727.567640
11
863.598840
21
-682.412140
0
LINE
8
Layer 1
10
863.598840
20
-682.412140
11
883.354340
21
-682.412140
0
LINE
8
Layer 1
10
883.354340
20
-682.412140
11
903.109840
21
-682.412140
0
LINE
8
Layer 1
10
903.109840
20
-682.412140
11
903.109840
21
-747.323240
0
LINE
8
Layer 1
10
903.109840
20
-747.323240
11
903.109840
21
-812.234340
0
LINE
8
Layer 1
10
903.109840
20
-812.234340
11
838.198740
21
-812.234340
0
LINE
8
Layer 1
10
838.198740
20
-812.234340
11
773.287640
21
-812.234340
0
LINE
8
Layer 1
10
773.287640
20
-812.234340
11
773.287640
21
-769.901040
0
LINE
8
Layer 1
10
773.287640
20
-769.901040
11
773.287640
21
-727.567740
0
LINE
8
Layer 1
10
773.287640
20
-727.567740
11
795.865440
21
-727.567740
0
LINE
8
Layer 1
10
795.865440
20
-727.567740
11
818.443240
21
-727.567740
0
LINE
8
Layer 1
10
818.443240
20
-727.567740
11
818.443240
21
-724.745520
0
LINE
8
Layer 1
10
818.443240
20
-724.745520
11
818.443240
21
-721.923300
0
LINE
8
Layer 1
10
818.443240
20
-721.923300
11
795.865440
21
-721.923300
0
LINE
8
Layer 1
10
795.865440
20
-721.923300
11
773.287640
21
-721.923300
0
LINE
8
Layer 1
10
773.287640
20
-721.923300
11
773.287640
21
-654.190000
0
LINE
8
Layer 1
10
773.287640
20
-654.190000
11
773.287640
21
-586.456700
0
LINE
8
Layer 1
10
773.287640
20
-586.456700
11
770.465420
21
-586.456700
0
LINE
8
Layer 1
10
770.465420
20
-586.456700
11
767.643200
21
-586.456700
0
LINE
8
Layer 1
10
767.643200
20
-586.456700
11
767.643200
21
-699.345700
0
LINE
8
Layer 1
10
767.643200
20
-699.345700
11
767.643200
21
-812.234700
0
LINE
8
Layer 1
10
767.643200
20
-812.234700
11
725.309900
21
-812.234700
0
LINE
8
Layer 1
10
725.309900
20
-812.234700
11
682.976600
21
-812.234700
0
LINE
8
Layer 1
10
682.976600
20
-812.234700
11
682.976600
21
-792.479200
0
LINE
8
Layer 1
10
682.976600
20
-792.479200
11
682.976600
21
-772.723700
0
LINE
8
Layer 1
10
682.976600
20
-772.723700
11
705.554400
21
-772.723700
0
LINE
8
Layer 1
10
705.554400
20
-772.723700
11
728.132200
21
-772.723700
0
LINE
8
Layer 1
10
728.132200
20
-772.723700
11
728.132200
21
-747.323700
0
LINE
8
Layer 1
10
728.132200
20
-747.323700
11
728.132200
21
-721.923700
0
LINE
8
Layer 1
10
728.132200
20
-721.923700
11
725.309980
21
-721.923700
0
LINE
8
Layer 1
10
725.309980
20
-721.923700
11
722.487760
21
-721.923700
0
LINE
8
Layer 1
10
722.487760
20
-721.923700
11
722.487760
21
-744.501500
0
LINE
8
Layer 1
10
722.487760
20
-744.501500
11
722.487760
21
-767.079300
0
LINE
8
Layer 1
10
722.487760
20
-767.079300
11
699.909960
21
-767.079300
0
LINE
8
Layer 1
10
699.909960
20
-767.079300
11
677.332160
21
-767.079300
0
LINE
8
Layer 1
10
677.332160
20
-767.079300
11
677.332160
21
-789.657100
0
LINE
8
Layer 1
10
677.332160
20
-789.657100
11
677.332160
21
-812.234900
0
LINE
8
Layer 1
10
677.332160
20
-812.234900
11
634.998860
21
-812.234900
0
LINE
8
Layer 1
10
634.998860
20
-812.234900
11
592.665560
21
-812.234900
0
LINE
8
Layer 1
10
592.665560
20
-812.234900
11
592.665560
21
-744.501600
0
LINE
8
Layer 1
10
592.665560
20
-744.501600
11
592.665560
21
-676.768300
0
LINE
8
Layer 1
10
592.665560
20
-676.768300
11
567.265560
21
-676.768300
0
LINE
8
Layer 1
10
567.265560
20
-676.768300
11
541.865560
21
-676.768300
0
LINE
8
Layer 1
10
541.865560
20
-676.768300
11
541.865560
21
-679.590520
0
LINE
8
Layer 1
10
541.865560
20
-679.590520
11
541.865560
21
-682.412740
0
LINE
8
Layer 1
10
541.865560
20
-682.412740
11
564.443360
21
-682.412740
0
LINE
8
Layer 1
10
564.443360
20
-682.412740
11
587.021160
21
-682.412740
0
LINE
8
Layer 1
10
587.021160
20
-682.412740
11
587.021160
21
-724.746040
0
LINE
8
Layer 1
10
587.021160
20
-724.746040
11
587.021160
21
-767.079340
0
LINE
8
Layer 1
10
587.021160
20
-767.079340
11
564.443360
21
-767.079340
0
LINE
8
Layer 1
10
564.443360
20
-767.079340
11
541.865560
21
-767.079340
0
LINE
8
Layer 1
10
541.865560
20
-767.079340
11
541.865560
21
-769.901560
0
LINE
8
Layer 1
10
541.865560
20
-769.901560
11
541.865560
21
-772.723780
0
LINE
8
Layer 1
10
541.865560
20
-772.723780
11
564.443360
21
-772.723780
0
LINE
8
Layer 1
10
564.443360
20
-772.723780
11
587.021160
21
-772.723780
0
LINE
8
Layer 1
10
587.021160
20
-772.723780
11
587.021160
21
-792.479280
0
LINE
8
Layer 1
10
587.021160
20
-792.479280
11
587.021160
21
-812.234780
0
LINE
8
Layer 1
10
587.021160
20
-812.234780
11
519.287860
21
-812.234780
0
LINE
8
Layer 1
10
519.287860
20
-812.234780
11
451.554560
21
-812.234780
0
LINE
8
Layer 1
10
451.554560
20
-812.234780
11
451.554560
21
-815.057000
0
LINE
8
Layer 1
10
451.554560
20
-815.057000
11
451.554560
21
-817.879220
0
LINE
8
Layer 1
10
451.554560
20
-817.879220
11
431.799060
21
-817.879220
0
LINE
8
Layer 1
10
431.799060
20
-817.879220
11
412.043560
21
-817.879220
0
LINE
8
Layer 1
10
412.043560
20
-817.879220
11
412.043560
21
-815.057000
0
LINE
8
Layer 1
10
412.043560
20
-815.057000
11
412.044000
21
-815.057000
 0 
ENDSEC
 0 
EOF