<?xml version="1.0" standalone="no"?>
<!DOCTYPE svg PUBLIC "-//W3C//DTD SVG 20010904//EN"
 "http://www.w3.org/TR/2001/REC-SVG-20010904/DTD/svg10.dtd">
<svg version="1.0" xmlns="http://www.w3.org/2000/svg"
 width="324.000000pt" height="324.000000pt" viewBox="0 0 324.000000 324.000000"
 preserveAspectRatio="xMidYMid meet">
<metadata>
Created by potrace 1.16, written by Peter Selinger 2001-2019
</metadata>
<g transform="translate(0.000000,324.000000) scale(0.100000,-0.100000)"
fill="#000000" stroke="none">
<path d="M0 1620 l0 -1620 773 1 772 2 -80 8 -80 8 -99 21 -99 22 -71 25 -71
25 -90 41 -90 40 -80 49 -79 50 -81 62 -80 63 -75 79 -75 79 -46 60 -46 60
-41 67 -42 68 -41 82 -41 82 -40 120 -39 119 -19 115 -20 114 0 146 0 147 14
90 14 90 22 84 21 85 40 100 40 101 50 90 50 90 67 90 66 90 86 85 85 86 89
66 89 67 91 50 91 50 101 40 100 40 85 21 84 22 90 14 90 14 63 0 62 0 0 10 0
10 -805 0 -805 0 0 -1620z"/>
<path d="M1640 2990 l0 -250 48 0 47 0 59 -10 59 -9 3 -3 2 -3 -14 -60 -14
-60 0 -17 0 -17 43 -11 42 -11 36 -14 36 -13 56 136 57 136 -7 7 -8 7 -80 25
-80 25 -33 7 -33 7 5 13 5 13 12 61 12 62 -5 4 -5 5 -58 8 -58 7 -4 12 -4 11
43 -5 43 -4 124 -31 124 -30 96 -41 96 -41 78 -45 77 -45 -2 -6 -3 -5 -89
-132 -89 -132 -8 5 -9 5 85 127 85 127 -22 18 -23 17 -110 54 -110 54 -80 25
-80 25 -36 7 -36 7 -6 -39 -6 -38 -7 -31 -6 -30 58 -13 57 -13 61 -23 61 -24
-2 -10 -3 -10 -59 -143 -59 -143 -14 1 -13 2 -82 24 -83 24 -4 5 -5 4 15 69
14 70 -10 10 -11 11 -177 -2 -177 -1 -29 -4 -30 -3 -12 65 -13 65 0 18 -1 17
9 0 9 0 14 -72 14 -73 14 3 14 3 83 6 83 6 0 228 0 229 -51 0 -52 0 -88 -12
-89 -12 0 -11 0 -12 11 -56 12 -57 21 0 21 1 45 9 45 8 9 -8 9 -9 -24 -5 -24
-6 -58 -8 -58 -9 -3 6 -4 6 -12 73 -13 73 -31 -7 -31 -6 -80 -25 -80 -25 -85
-36 -84 -36 -78 -43 -78 -44 0 -10 0 -9 213 -319 212 -318 60 33 60 34 13 0
12 0 0 -7 0 -8 -76 -39 -75 -39 -8 9 -8 9 -123 185 -123 185 -3 4 -3 4 -55
-41 -55 -42 -68 -67 -69 -68 -42 -56 -42 -56 0 -5 0 -5 56 -37 56 -37 2 3 2 3
39 50 38 50 31 33 30 32 118 -117 117 -117 -6 -9 -6 -9 -112 112 -112 111 -34
-38 -34 -38 -34 -47 -33 -47 -66 44 -66 44 -24 -35 -24 -35 -35 -75 -35 -74
-3 0 -3 0 -67 30 -67 30 -3 0 -3 0 -24 -65 -23 -65 -8 0 -9 0 6 25 7 26 20 54
20 54 52 -23 52 -23 22 -7 22 -7 36 73 37 73 43 65 43 65 54 61 53 61 55 49
55 49 40 30 40 29 3 2 3 2 -83 125 -84 126 -68 -52 -69 -51 -59 -54 -58 -54
-63 -77 -63 -76 -35 -50 -35 -50 -28 -47 -27 -47 61 -31 62 -31 3 3 3 3 35 59
35 59 63 79 62 79 81 76 80 75 3 -8 3 -9 -108 -110 -107 -110 -56 -85 -55 -85
-18 -28 -17 -28 -70 37 -70 37 -3 -4 -3 -4 -36 -80 -35 -80 -31 -99 -32 -99
-19 -114 -20 -115 0 -146 0 -147 10 -65 10 -65 21 -87 21 -86 46 14 47 15 28
6 27 6 0 -10 0 -10 -65 -18 -65 -17 -5 -8 -5 -8 24 -63 24 -64 35 -76 35 -76
36 -57 36 -56 127 84 126 85 10 -6 9 -5 -129 -85 -128 -86 -4 -3 -3 -3 48 -63
48 -63 85 -89 86 -88 75 -58 75 -57 70 -43 70 -43 90 -42 90 -43 80 -27 80
-27 95 -20 95 -20 108 -6 107 -7 0 147 0 147 -32 5 -33 5 -70 6 -70 6 -80 20
-80 20 -67 24 -67 24 -49 25 -49 25 -57 34 -56 34 6 6 6 6 112 -59 111 -59 90
-30 90 -30 89 -16 89 -15 58 0 59 0 0 155 0 154 33 5 32 5 72 6 72 5 80 25 80
26 -8 22 -9 22 -82 198 -82 198 3 3 4 4 40 20 40 21 33 28 33 28 -49 48 -49
48 -44 -29 -44 -29 -35 -11 -35 -11 -47 -7 -48 -6 0 18 0 17 17 19 16 18 -4 3
-4 3 -57 38 -58 39 -46 -24 -47 -24 -58 -54 -59 -53 5 -8 5 -8 56 -38 57 -37
59 -19 60 -18 33 0 33 0 16 -6 16 -6 0 -155 0 -156 75 5 75 5 0 -7 0 -8 -22
-6 -23 -6 -75 -6 -75 -6 -57 10 -58 9 -4 -16 -5 -16 -26 -135 -27 -135 -6 -7
-7 -6 -85 24 -85 25 -91 43 -91 44 -59 39 -59 40 -51 46 -51 46 -106 -107
-106 -107 53 -47 54 -47 75 -54 75 -54 99 -50 98 -50 90 -31 90 -31 75 -14 75
-15 49 -7 48 -7 -9 -9 -10 -10 -69 11 -69 11 -94 25 -95 25 -95 40 -96 41 -70
41 -70 40 -76 58 -77 58 -86 88 -86 87 0 8 0 8 9 0 9 0 44 -50 44 -50 109 110
110 110 7 0 7 0 58 -51 58 -51 65 -43 65 -43 53 -26 52 -26 10 22 10 23 79
190 78 190 -54 30 -54 30 -49 40 -49 40 -1 8 0 7 8 0 7 0 54 -44 53 -44 55
-26 54 -27 -6 -19 -6 -20 -84 -202 -84 -202 12 -8 12 -7 78 -21 79 -21 4 4 4
4 30 148 30 148 0 3 0 2 75 -5 75 -6 0 146 0 146 -17 5 -18 5 -45 6 -45 7 -73
35 -73 34 -57 57 -57 57 -24 46 -25 46 -105 -44 -106 -45 -33 -13 -33 -14 22
-43 22 -43 43 -61 43 -60 53 -50 53 -50 28 -19 28 -18 -3 -11 -3 -11 -44 -67
-44 -67 -41 29 -41 28 -56 54 -55 53 -41 50 -41 50 -63 -43 -62 -43 -13 13
-13 13 -42 80 -42 80 -2 3 -2 2 -124 -51 -124 -51 -12 -7 -13 -7 30 -62 29
-61 -8 -5 -7 -5 -37 75 -37 74 26 10 25 10 4 0 3 0 45 19 45 20 -29 90 -29 90
-15 93 -15 93 0 63 0 62 8 0 9 0 6 -102 6 -103 7 -18 7 -19 31 6 31 7 43 6 42
6 0 -10 0 -10 -71 -13 -71 -12 6 -40 6 -39 21 -62 21 -62 8 -8 7 -8 79 34 79
34 48 18 48 18 4 8 5 8 -25 87 -25 86 -7 84 -6 84 -80 0 -80 0 6 98 5 97 4 14
3 14 -135 28 -135 28 -11 1 -12 0 -12 -87 -13 -87 7 -150 6 -151 6 -42 6 -43
-9 0 -9 0 -12 89 -12 88 1 124 1 124 12 80 12 80 10 -2 10 -2 138 -26 138 -26
14 5 14 5 0 15 0 15 25 80 26 81 7 0 7 0 67 -27 68 -26 3 4 4 4 36 65 36 65 9
13 9 13 69 -47 69 -48 3 -2 4 -2 -36 -68 -36 -67 2 -3 3 -2 62 -25 63 -25 32
61 33 62 75 75 75 75 70 37 70 37 75 20 75 21 37 0 38 0 0 151 0 152 -77 -7
-76 -6 -3 -3 -2 -2 13 -70 13 -70 -5 -5 -4 -4 -9 14 -9 14 -6 46 -6 46 -8 13
-9 13 -78 -23 -79 -24 -8 0 -8 0 -82 200 -83 200 -7 18 -7 18 -40 -21 -41 -21
-24 -9 -25 -10 0 10 0 10 51 25 50 26 80 29 80 30 10 0 9 0 0 -8 0 -8 -65 -23
-65 -23 0 -2 0 -2 84 -204 85 -205 9 -3 9 -3 89 26 89 26 93 6 92 6 0 -82 0
-81 44 0 43 0 99 -25 98 -25 9 -9 9 -9 -62 -151 -62 -151 -8 0 -8 0 -63 16
-63 16 -81 -4 -80 -5 -58 -22 -57 -23 -58 -43 -57 -43 -5 5 -5 5 43 38 42 38
48 22 47 22 45 14 45 14 75 0 76 0 54 -14 55 -14 1 1 1 2 56 135 55 134 -29
13 -30 12 -74 16 -74 15 -35 0 -35 0 -3 -77 -3 -78 -72 -7 -72 -7 -63 -21 -63
-22 -52 -29 -52 -30 -51 -46 -52 -47 -38 -50 -37 -51 -16 -32 -17 -32 0 -5 0
-4 70 -28 70 -27 0 -11 0 -11 -15 -49 -15 -49 0 -38 0 -38 -10 -6 -10 -6 0 49
0 49 14 47 14 47 -55 24 -55 25 -12 0 -12 0 -10 8 -9 9 -54 21 -54 22 -7 0 -8
0 -22 -62 -21 -63 -6 -83 -6 -83 -10 -6 -10 -6 5 81 5 82 -16 4 -16 5 -59 11
-58 12 9 9 9 9 68 -14 67 -14 4 12 3 11 22 65 22 65 29 54 29 55 0 8 0 7 -52
35 -51 35 -9 -5 -8 -5 -36 -72 -36 -72 -3 -3 -3 -3 -71 30 -72 30 -8 -22 -9
-22 -15 -46 -16 -45 -15 -83 -16 -83 0 -49 0 -49 68 0 67 0 11 -8 11 -7 6 -83
5 -84 5 -4 4 -4 69 14 69 15 4 -5 5 -4 -10 -9 -9 -8 -59 -12 -59 -11 -5 -5 -5
-4 26 -83 26 -83 -7 -6 -7 -6 -55 -22 -55 -23 -8 -8 -8 -7 31 -64 31 -64 15
-19 14 -20 61 42 60 42 7 0 7 0 26 -38 27 -37 40 -45 39 -45 61 -48 61 -47 40
59 40 59 -27 18 -27 17 -49 46 -49 46 -43 60 -43 61 -25 51 -26 51 0 9 0 10
71 28 70 27 -6 17 -6 16 -15 60 -14 60 0 48 0 47 9 0 8 0 6 -72 6 -73 16 -47
16 -46 72 29 72 30 10 -17 10 -16 38 -61 38 -60 45 44 44 43 0 12 0 11 -32 63
-33 63 -3 76 -4 76 22 58 22 59 53 53 53 53 57 21 56 21 64 0 64 0 55 -20 54
-21 44 -38 44 -39 26 -48 26 -49 10 -55 10 -55 -8 -51 -8 -52 -22 -43 -22 -44
-16 -18 -16 -18 58 -58 57 -58 -43 -35 -43 -35 -32 -18 -33 -19 0 -10 0 -10
81 -196 81 -195 5 -8 5 -8 75 41 75 40 8 0 8 0 38 -60 39 -60 7 0 7 0 74 59
73 60 59 71 60 71 8 14 8 14 -57 38 -56 37 -20 -24 -19 -25 -41 -48 -41 -49
-57 57 -58 57 -56 -46 -57 -46 -9 0 -10 0 0 8 0 7 34 23 33 23 23 24 24 25
-53 54 -54 54 36 44 35 43 31 49 31 50 0 11 0 12 -70 27 -70 28 0 6 0 7 16 45
16 45 0 85 -1 85 -15 50 -16 50 0 6 0 7 18 5 17 5 125 52 125 52 4 3 3 4 -36
67 -37 66 3 3 3 2 63 42 63 42 12 -4 11 -3 -62 -43 -62 -42 0 -6 0 -5 19 -37
20 -36 15 -31 15 -31 -72 -28 -72 -28 -2 -2 -3 -2 15 -45 16 -45 7 -64 7 -64
155 -5 155 -5 0 -10 0 -10 -159 -3 -159 -3 -9 13 -8 13 0 43 0 43 -16 65 -17
65 -22 -5 -23 -6 -47 -20 -46 -20 10 -19 11 -19 10 -72 10 -72 -9 -56 -10 -57
-6 -31 -7 -31 69 -28 68 -29 3 -2 3 -2 -24 -49 -25 -48 -41 -55 -41 -54 0 -6
0 -5 104 -104 103 -103 39 47 39 48 20 24 21 25 62 -43 62 -43 9 10 9 9 40 75
40 75 31 93 31 93 0 13 0 13 -141 28 -140 28 -8 -9 -8 -9 -12 -44 -12 -43 -5
-12 -5 -13 66 -27 65 -28 0 -9 0 -9 -5 0 -6 0 -59 25 -59 25 -6 0 -5 0 -24
-47 -24 -48 -15 -20 -15 -20 -6 6 -5 5 38 75 39 74 23 75 22 75 2 2 2 3 152
-31 153 -31 4 5 4 4 8 79 7 79 -6 118 -6 118 -5 4 -5 5 -148 -30 -148 -30 -5
5 -5 5 5 5 5 5 64 13 64 13 3 16 3 17 -25 72 -25 73 4 4 4 4 9 -6 9 -5 23 -78
23 -78 3 -6 4 -6 71 14 71 15 9 -9 8 -8 11 -105 10 -106 -10 -102 -11 -101
-19 -75 -19 -75 -27 -68 -27 -68 -40 -70 -40 -70 -46 -58 -46 -59 -20 -24 -19
-24 104 -106 105 -105 47 53 48 53 37 53 36 52 14 0 14 0 -33 -46 -33 -47 -71
-81 -71 -82 -89 -71 -89 -70 -59 -38 -60 -38 -80 -38 -81 -38 -68 -24 -67 -25
-5 8 -5 9 7 4 8 4 52 17 53 18 5 8 5 8 -16 38 -16 39 -18 40 -17 40 -18 48
-18 48 -8 5 -9 5 -77 -25 -78 -24 -21 -3 -21 -4 -2 10 -2 9 78 22 78 21 29 12
29 12 8 -8 7 -8 25 -60 24 -60 24 3 24 3 88 50 88 51 6 -6 7 -6 -20 -14 -19
-15 -90 -47 -90 -47 -3 -2 -2 -2 22 -54 21 -54 8 -8 7 -9 82 41 82 42 73 49
73 49 67 57 67 57 -103 103 -104 104 -5 0 -5 0 -80 -65 -80 -64 -6 -1 -7 0
-42 65 -42 65 -52 -29 -51 -29 -76 -30 -76 -31 -74 -14 -74 -15 -57 -7 -58 -6
0 -145 0 -144 63 0 63 0 58 11 58 10 6 -5 5 -6 -6 -6 -5 -6 -79 -9 -78 -10
-42 -5 -43 -5 0 -149 0 -149 28 4 27 4 90 6 90 5 23 6 22 6 0 19 0 18 -11 51
-11 51 -26 -5 -27 -5 -42 -6 -43 -7 0 10 0 10 23 5 22 6 56 6 56 7 13 -76 13
-76 11 0 11 0 70 19 70 18 72 26 72 26 73 37 73 36 60 36 60 36 76 57 76 57
92 94 92 93 64 90 64 90 56 106 55 107 0 5 0 5 -27 10 -28 10 -37 16 -36 16
-33 -68 -32 -67 -4 17 -4 16 26 52 26 52 -3 4 -4 3 -58 26 -58 26 -3 -3 -2 -3
-47 -90 -47 -90 -15 -19 -14 -20 -6 7 -6 6 50 88 50 88 27 69 27 70 25 95 25
96 5 102 6 103 13 10 12 11 74 -3 73 -3 -2 -10 -3 -10 -67 -3 -67 -3 -8 -12
-8 -12 0 -50 0 -50 -16 -89 -15 -88 -24 -77 -24 -76 -1 -9 -1 -10 118 -49 118
-49 19 -2 19 -1 29 85 30 85 18 90 18 90 5 38 6 37 -23 0 -23 0 -46 6 -46 7
-5 -24 -5 -24 -15 -80 -16 -80 -10 -38 -11 -38 -9 6 -8 5 14 53 14 52 10 60
10 60 6 34 5 33 80 -6 79 -7 2 63 2 63 -3 90 -3 90 -9 65 -9 65 -16 70 -17 70
-7 8 -8 9 -61 -17 -61 -18 0 -11 0 -11 10 -35 10 -35 16 -94 15 -93 -6 -6 -5
-5 -4 4 -5 4 -15 97 -16 96 -8 23 -9 24 -7 27 -6 26 75 23 75 22 0 9 0 9 -34
88 -34 89 -17 34 -18 33 -2 3 -3 3 -62 -31 -62 -31 -11 4 -12 4 68 37 67 38 0
4 0 4 -32 52 -32 53 -39 55 -40 55 -8 9 -8 9 -48 -38 -48 -39 -12 -9 -13 -9 0
13 1 14 49 38 50 38 0 11 0 10 -82 85 -83 85 -18 9 -17 10 -28 -32 -27 -32
-14 -20 -15 -20 51 -47 51 -47 -114 -114 -114 -113 34 -36 33 -35 41 -55 40
-55 43 -80 42 -80 3 -4 3 -3 60 23 61 24 0 8 0 8 -31 61 -31 62 -24 38 -24 38
0 5 0 5 67 44 66 45 10 -6 9 -5 -61 -41 -61 -40 0 -7 0 -7 45 -79 45 -79 0
-12 0 -12 10 -6 9 -6 62 26 62 25 9 0 8 0 0 -8 0 -9 -69 -27 -69 -27 28 -87
28 -87 7 -37 7 -38 -8 0 -9 0 -22 83 -21 82 -16 37 -16 37 -71 -30 -72 -29 -2
2 -2 3 -35 70 -34 70 -38 58 -38 57 -46 51 -45 51 -223 -223 -223 -223 -8 7
-7 8 167 167 168 168 -58 47 -58 47 -10 0 -10 0 -35 -55 -35 -55 -13 0 -12 0
46 70 47 70 7 0 7 0 29 -22 29 -22 39 -34 39 -34 162 162 162 162 -51 48 -50
48 47 55 47 55 0 7 0 8 -17 14 -18 13 -80 55 -81 54 -93 46 -94 46 -81 29 -81
29 -64 16 -63 16 -87 13 -86 12 -3 22 -3 22 -65 0 -64 0 0 -250z"/>
<path d="M1800 3225 l0 -15 24 0 24 0 98 -20 98 -20 106 -37 105 -36 85 -42
86 -43 89 -60 90 -60 77 -66 77 -66 76 -86 75 -87 46 -69 47 -70 53 -101 53
-102 29 -81 30 -81 26 -109 25 -109 9 -95 9 -95 2 783 1 782 -720 0 -720 0 0
-15z"/>
<path d="M1514 1900 l-51 -20 -39 -34 -40 -34 -29 -53 -29 -53 -4 -77 -4 -78
30 -65 31 -66 9 0 9 0 34 16 34 17 21 19 21 18 43 -31 44 -32 43 -19 44 -19 6
-15 5 -15 -16 -18 -16 -18 0 -7 0 -8 37 7 37 7 36 18 35 18 38 39 39 38 18 36
18 35 10 52 9 51 -8 52 -8 51 -21 42 -22 41 -31 33 -32 34 -50 26 -50 25 -75
4 -75 3 -51 -20z"/>
<path d="M3230 1496 l0 -44 -20 -118 -20 -119 -35 -101 -35 -102 -39 -84 -38
-84 -44 -70 -43 -69 -48 -65 -49 -65 -87 -89 -87 -88 -77 -59 -77 -59 -83 -50
-83 -50 -105 -44 -105 -45 -90 -26 -90 -26 -95 -14 -95 -15 -35 -3 -35 -4 763
-1 762 -2 0 770 0 770 -5 0 -5 0 0 -44z"/>
</g>
</svg>
