999
"DXF R12 Output" (www.mydxf.blogspot.com)
 0 
SECTION
 2 
HEADER
 9 
$ACADVER
 1 
AC1009
 9 
$EXTMIN
 10 
 0 
 20 
 0 
 9 
$EXTMAX
 10 
 8.5 
 20 
 11 
 0 
ENDSEC
 0 
SECTION
 2 
ENTITIES
0
LINE
8
Layer 1
10
0.000000
20
-365.760000
11
0.000000
21
91.440000
0
LINE
8
Layer 1
10
0.000000
20
91.440000
11
218.158000
21
91.157778
0
LINE
8
Layer 1
10
218.158000
20
91.157778
11
436.033000
21
90.593334
0
LINE
8
Layer 1
10
436.033000
20
90.593334
11
413.455200
21
88.335554
0
LINE
8
Layer 1
10
413.455200
20
88.335554
11
390.877400
21
86.077774
0
LINE
8
Layer 1
10
390.877400
20
86.077774
11
362.937400
21
80.151114
0
LINE
8
Layer 1
10
362.937400
20
80.151114
11
334.997400
21
73.942234
0
LINE
8
Layer 1
10
334.997400
20
73.942234
11
314.959600
21
66.886684
0
LINE
8
Layer 1
10
314.959600
20
66.886684
11
294.921800
21
59.831134
0
LINE
8
Layer 1
10
294.921800
20
59.831134
11
269.521800
21
48.260034
0
LINE
8
Layer 1
10
269.521800
20
48.260034
11
244.121800
21
36.971134
0
LINE
8
Layer 1
10
244.121800
20
36.971134
11
221.544000
21
23.142234
0
LINE
8
Layer 1
10
221.544000
20
23.142234
11
199.248500
21
9.031134
0
LINE
8
Layer 1
10
199.248500
20
9.031134
11
176.388500
21
-8.466666
0
LINE
8
Layer 1
10
176.388500
20
-8.466666
11
153.810700
21
-26.246666
0
LINE
8
Layer 1
10
153.810700
20
-26.246666
11
132.644100
21
-48.542166
0
LINE
8
Layer 1
10
132.644100
20
-48.542166
11
111.477400
21
-70.837666
0
LINE
8
Layer 1
10
111.477400
20
-70.837666
11
98.495200
21
-87.770966
0
LINE
8
Layer 1
10
98.495200
20
-87.770966
11
85.513000
21
-104.704266
0
LINE
8
Layer 1
10
85.513000
20
-104.704266
11
73.941900
21
-123.613166
0
LINE
8
Layer 1
10
73.941900
20
-123.613166
11
62.088600
21
-142.804266
0
LINE
8
Layer 1
10
62.088600
20
-142.804266
11
50.517500
21
-165.946466
0
LINE
8
Layer 1
10
50.517500
20
-165.946466
11
38.946400
21
-189.088666
0
LINE
8
Layer 1
10
38.946400
20
-189.088666
11
27.657500
21
-222.955266
0
LINE
8
Layer 1
10
27.657500
20
-222.955266
11
16.650800
21
-256.539666
0
LINE
8
Layer 1
10
16.650800
20
-256.539666
11
11.288580
21
-288.995166
0
LINE
8
Layer 1
10
11.288580
20
-288.995166
11
5.644140
21
-321.168466
0
LINE
8
Layer 1
10
5.644140
20
-321.168466
11
5.644140
21
-362.372866
0
LINE
8
Layer 1
10
5.644140
20
-362.372866
11
5.644140
21
-403.859466
0
LINE
8
Layer 1
10
5.644140
20
-403.859466
11
9.595250
21
-429.259466
0
LINE
8
Layer 1
10
9.595250
20
-429.259466
11
13.546360
21
-454.659466
0
LINE
8
Layer 1
10
13.546360
20
-454.659466
11
19.755240
21
-478.366066
0
LINE
8
Layer 1
10
19.755240
20
-478.366066
11
25.681900
21
-502.354966
0
LINE
8
Layer 1
10
25.681900
20
-502.354966
11
36.970800
21
-530.577166
0
LINE
8
Layer 1
10
36.970800
20
-530.577166
11
48.259700
21
-559.081566
0
LINE
8
Layer 1
10
48.259700
20
-559.081566
11
62.370800
21
-584.481566
0
LINE
8
Layer 1
10
62.370800
20
-584.481566
11
76.481900
21
-609.881566
0
LINE
8
Layer 1
10
76.481900
20
-609.881566
11
95.390800
21
-635.281566
0
LINE
8
Layer 1
10
95.390800
20
-635.281566
11
114.017500
21
-660.681566
0
LINE
8
Layer 1
10
114.017500
20
-660.681566
11
138.288600
21
-684.670466
0
LINE
8
Layer 1
10
138.288600
20
-684.670466
11
162.277500
21
-708.941566
0
LINE
8
Layer 1
10
162.277500
20
-708.941566
11
187.395300
21
-727.568266
0
LINE
8
Layer 1
10
187.395300
20
-727.568266
11
212.513100
21
-746.477166
0
LINE
8
Layer 1
10
212.513100
20
-746.477166
11
238.195300
21
-760.588266
0
LINE
8
Layer 1
10
238.195300
20
-760.588266
11
263.877500
21
-774.699366
0
LINE
8
Layer 1
10
263.877500
20
-774.699366
11
292.381900
21
-785.988266
0
LINE
8
Layer 1
10
292.381900
20
-785.988266
11
320.604100
21
-797.277166
0
LINE
8
Layer 1
10
320.604100
20
-797.277166
11
344.593000
21
-803.203826
0
LINE
8
Layer 1
10
344.593000
20
-803.203826
11
368.299600
21
-809.412706
0
LINE
8
Layer 1
10
368.299600
20
-809.412706
11
393.699600
21
-813.363816
0
LINE
8
Layer 1
10
393.699600
20
-813.363816
11
419.099600
21
-817.314926
0
LINE
8
Layer 1
10
419.099600
20
-817.314926
11
436.879600
21
-817.314926
0
LINE
8
Layer 1
10
436.879600
20
-817.314926
11
454.377400
21
-817.314926
0
LINE
8
Layer 1
10
454.377400
20
-817.314926
11
454.377400
21
-820.137146
0
LINE
8
Layer 1
10
454.377400
20
-820.137146
11
454.377400
21
-822.959366
0
LINE
8
Layer 1
10
454.377400
20
-822.959366
11
227.188400
21
-822.959366
0
LINE
8
Layer 1
10
227.188400
20
-822.959366
11
-0.000600
21
-822.959366
0
LINE
8
Layer 1
10
-0.000600
20
-822.959366
11
-0.000600
21
-365.759366
0
LINE
8
Layer 1
10
-0.000600
20
-365.759366
11
0.000000
21
-365.760000
0
LINE
8
Layer 1
10
462.844000
20
-752.404000
11
462.844000
21
-681.848500
0
LINE
8
Layer 1
10
462.844000
20
-681.848500
11
476.390700
21
-681.848500
0
LINE
8
Layer 1
10
476.390700
20
-681.848500
11
489.655100
21
-681.848500
0
LINE
8
Layer 1
10
489.655100
20
-681.848500
11
506.306200
21
-679.026280
0
LINE
8
Layer 1
10
506.306200
20
-679.026280
11
522.957300
21
-676.486280
0
LINE
8
Layer 1
10
522.957300
20
-676.486280
11
523.803966
21
-675.639614
0
LINE
8
Layer 1
10
523.803966
20
-675.639614
11
524.368410
21
-674.792948
0
LINE
8
Layer 1
10
524.368410
20
-674.792948
11
520.417300
21
-657.859648
0
LINE
8
Layer 1
10
520.417300
20
-657.859648
11
516.466190
21
-640.926348
0
LINE
8
Layer 1
10
516.466190
20
-640.926348
11
516.466190
21
-636.128578
0
LINE
8
Layer 1
10
516.466190
20
-636.128578
11
516.466190
21
-631.330808
0
LINE
8
Layer 1
10
516.466190
20
-631.330808
11
528.601690
21
-628.226368
0
LINE
8
Layer 1
10
528.601690
20
-628.226368
11
540.454990
21
-625.121928
0
LINE
8
Layer 1
10
540.454990
20
-625.121928
11
550.614990
21
-621.170818
0
LINE
8
Layer 1
10
550.614990
20
-621.170818
11
560.774990
21
-617.501928
0
LINE
8
Layer 1
10
560.774990
20
-617.501928
11
576.579390
21
-655.884128
0
LINE
8
Layer 1
10
576.579390
20
-655.884128
11
592.666090
21
-694.266328
0
LINE
8
Layer 1
10
592.666090
20
-694.266328
11
590.690540
21
-696.241878
0
LINE
8
Layer 1
10
590.690540
20
-696.241878
11
588.432760
21
-698.217428
0
LINE
8
Layer 1
10
588.432760
20
-698.217428
11
565.854960
21
-705.272978
0
LINE
8
Layer 1
10
565.854960
20
-705.272978
11
543.277160
21
-712.328528
0
LINE
8
Layer 1
10
543.277160
20
-712.328528
11
533.963830
21
-714.304078
0
LINE
8
Layer 1
10
533.963830
20
-714.304078
11
524.650500
21
-716.279628
0
LINE
8
Layer 1
10
524.650500
20
-716.279628
11
526.061610
21
-719.948518
0
LINE
8
Layer 1
10
526.061610
20
-719.948518
11
527.472720
21
-723.617408
0
LINE
8
Layer 1
10
527.472720
20
-723.617408
11
530.859380
21
-740.832908
0
LINE
8
Layer 1
10
530.859380
20
-740.832908
11
534.246040
21
-758.330708
0
LINE
8
Layer 1
10
534.246040
20
-758.330708
11
532.834930
21
-759.459598
0
LINE
8
Layer 1
10
532.834930
20
-759.459598
11
531.423820
21
-760.870708
0
LINE
8
Layer 1
10
531.423820
20
-760.870708
11
515.054920
21
-763.128488
0
LINE
8
Layer 1
10
515.054920
20
-763.128488
11
498.686020
21
-765.104038
0
LINE
8
Layer 1
10
498.686020
20
-765.104038
11
497.557130
21
-768.490698
0
LINE
8
Layer 1
10
497.557130
20
-768.490698
11
496.428240
21
-771.595138
0
LINE
8
Layer 1
10
496.428240
20
-771.595138
11
508.563740
21
-770.184028
0
LINE
8
Layer 1
10
508.563740
20
-770.184028
11
520.699240
21
-769.055138
0
LINE
8
Layer 1
10
520.699240
20
-769.055138
11
555.694740
21
-760.306258
0
LINE
8
Layer 1
10
555.694740
20
-760.306258
11
590.690240
21
-751.839598
0
LINE
8
Layer 1
10
590.690240
20
-751.839598
11
617.783540
21
-740.268498
0
LINE
8
Layer 1
10
617.783540
20
-740.268498
11
644.876840
21
-728.697398
0
LINE
8
Layer 1
10
644.876840
20
-728.697398
11
666.890140
21
-715.997398
0
LINE
8
Layer 1
10
666.890140
20
-715.997398
11
688.621240
21
-703.297398
0
LINE
8
Layer 1
10
688.621240
20
-703.297398
11
688.056796
21
-701.604068
0
LINE
8
Layer 1
10
688.056796
20
-701.604068
11
687.210130
21
-700.192958
0
LINE
8
Layer 1
10
687.210130
20
-700.192958
11
662.092330
21
-662.939658
0
LINE
8
Layer 1
10
662.092330
20
-662.939658
11
636.974530
21
-625.686358
0
LINE
8
Layer 1
10
636.974530
20
-625.686358
11
634.716750
21
-627.097468
0
LINE
8
Layer 1
10
634.716750
20
-627.097468
11
632.176750
21
-628.508578
0
LINE
8
Layer 1
10
632.176750
20
-628.508578
11
656.165650
21
-664.350778
0
LINE
8
Layer 1
10
656.165650
20
-664.350778
11
680.154550
21
-700.192978
0
LINE
8
Layer 1
10
680.154550
20
-700.192978
11
673.945670
21
-705.272978
0
LINE
8
Layer 1
10
673.945670
20
-705.272978
11
667.454560
21
-710.070748
0
LINE
8
Layer 1
10
667.454560
20
-710.070748
11
636.410160
21
-725.310748
0
LINE
8
Layer 1
10
636.410160
20
-725.310748
11
605.365760
21
-740.550748
0
LINE
8
Layer 1
10
605.365760
20
-740.550748
11
582.787960
21
-747.606298
0
LINE
8
Layer 1
10
582.787960
20
-747.606298
11
560.210160
21
-754.661848
0
LINE
8
Layer 1
10
560.210160
20
-754.661848
11
550.050160
21
-756.637398
0
LINE
8
Layer 1
10
550.050160
20
-756.637398
11
539.890160
21
-758.612948
0
LINE
8
Layer 1
10
539.890160
20
-758.612948
11
538.196830
21
-747.606248
0
LINE
8
Layer 1
10
538.196830
20
-747.606248
11
536.503500
21
-736.881848
0
LINE
8
Layer 1
10
536.503500
20
-736.881848
11
534.527950
21
-728.132968
0
LINE
8
Layer 1
10
534.527950
20
-728.132968
11
532.834620
21
-719.666308
0
LINE
8
Layer 1
10
532.834620
20
-719.666308
11
549.203520
21
-715.997418
0
LINE
8
Layer 1
10
549.203520
20
-715.997418
11
565.290220
21
-712.328528
0
LINE
8
Layer 1
10
565.290220
20
-712.328528
11
582.505720
21
-705.837418
0
LINE
8
Layer 1
10
582.505720
20
-705.837418
11
599.721220
21
-699.064088
0
LINE
8
Layer 1
10
599.721220
20
-699.064088
11
599.156776
21
-696.241868
0
LINE
8
Layer 1
10
599.156776
20
-696.241868
11
598.310110
21
-693.419648
0
LINE
8
Layer 1
10
598.310110
20
-693.419648
11
581.659010
21
-653.061948
0
LINE
8
Layer 1
10
581.659010
20
-653.061948
11
565.007910
21
-612.704248
0
LINE
8
Layer 1
10
565.007910
20
-612.704248
11
561.056800
21
-612.986470
0
LINE
8
Layer 1
10
561.056800
20
-612.986470
11
557.387910
21
-613.550914
0
LINE
8
Layer 1
10
557.387910
20
-613.550914
11
534.245710
21
-620.324244
0
LINE
8
Layer 1
10
534.245710
20
-620.324244
11
510.821310
21
-627.097574
0
LINE
8
Layer 1
10
510.821310
20
-627.097574
11
509.692420
21
-628.508684
0
LINE
8
Layer 1
10
509.692420
20
-628.508684
11
508.281310
21
-629.637574
0
LINE
8
Layer 1
10
508.281310
20
-629.637574
11
512.514640
21
-649.110874
0
LINE
8
Layer 1
10
512.514640
20
-649.110874
11
516.465750
21
-668.866374
0
LINE
8
Layer 1
10
516.465750
20
-668.866374
11
513.643530
21
-671.688594
0
LINE
8
Layer 1
10
513.643530
20
-671.688594
11
510.539090
21
-674.793034
0
LINE
8
Layer 1
10
510.539090
20
-674.793034
11
460.585790
21
-674.228590
0
LINE
8
Layer 1
10
460.585790
20
-674.228590
11
410.632490
21
-673.946368
0
LINE
8
Layer 1
10
410.632490
20
-673.946368
11
402.448050
21
-672.817478
0
LINE
8
Layer 1
10
402.448050
20
-672.817478
11
393.981390
21
-671.970812
0
LINE
8
Layer 1
10
393.981390
20
-671.970812
11
390.594730
21
-690.315212
0
LINE
8
Layer 1
10
390.594730
20
-690.315212
11
386.925840
21
-708.659612
0
LINE
8
Layer 1
10
386.925840
20
-708.659612
11
386.925840
21
-713.739612
0
LINE
8
Layer 1
10
386.925840
20
-713.739612
11
386.643618
21
-718.537382
0
LINE
8
Layer 1
10
386.643618
20
-718.537382
11
389.183618
21
-718.537382
0
LINE
8
Layer 1
10
389.183618
20
-718.537382
11
391.723618
21
-718.537382
0
LINE
8
Layer 1
10
391.723618
20
-718.537382
11
395.674728
21
-698.217382
0
LINE
8
Layer 1
10
395.674728
20
-698.217382
11
399.625838
21
-677.615182
0
LINE
8
Layer 1
10
399.625838
20
-677.615182
11
403.576948
21
-678.461848
0
LINE
8
Layer 1
10
403.576948
20
-678.461848
11
407.528058
21
-679.308514
0
LINE
8
Layer 1
10
407.528058
20
-679.308514
11
430.952458
21
-681.001844
0
LINE
8
Layer 1
10
430.952458
20
-681.001844
11
454.376858
21
-682.695174
0
LINE
8
Layer 1
10
454.376858
20
-682.695174
11
454.376858
21
-747.041774
0
LINE
8
Layer 1
10
454.376858
20
-747.041774
11
454.376858
21
-811.670574
0
LINE
8
Layer 1
10
454.376858
20
-811.670574
11
439.983558
21
-811.670574
0
LINE
8
Layer 1
10
439.983558
20
-811.670574
11
425.308058
21
-811.670574
0
LINE
8
Layer 1
10
425.308058
20
-811.670574
11
400.472558
21
-808.283914
0
LINE
8
Layer 1
10
400.472558
20
-808.283914
11
375.354758
21
-804.897254
0
LINE
8
Layer 1
10
375.354758
20
-804.897254
11
375.354758
21
-801.792814
0
LINE
8
Layer 1
10
375.354758
20
-801.792814
11
375.354758
21
-798.406154
0
LINE
8
Layer 1
10
375.354758
20
-798.406154
11
378.459198
21
-782.601754
0
LINE
8
Layer 1
10
378.459198
20
-782.601754
11
381.845858
21
-766.515054
0
LINE
8
Layer 1
10
381.845858
20
-766.515054
11
387.772518
21
-766.515054
0
LINE
8
Layer 1
10
387.772518
20
-766.515054
11
393.699178
21
-766.797276
0
LINE
8
Layer 1
10
393.699178
20
-766.797276
11
406.399178
21
-769.337276
0
LINE
8
Layer 1
10
406.399178
20
-769.337276
11
419.099178
21
-771.595056
0
LINE
8
Layer 1
10
419.099178
20
-771.595056
11
421.639178
21
-769.337276
0
LINE
8
Layer 1
10
421.639178
20
-769.337276
11
424.179178
21
-766.797276
0
LINE
8
Layer 1
10
424.179178
20
-766.797276
11
417.405848
21
-765.386166
0
LINE
8
Layer 1
10
417.405848
20
-765.386166
11
410.632518
21
-763.692836
0
LINE
8
Layer 1
10
410.632518
20
-763.692836
11
394.263618
21
-761.435056
0
LINE
8
Layer 1
10
394.263618
20
-761.435056
11
377.894718
21
-758.895056
0
LINE
8
Layer 1
10
377.894718
20
-758.895056
11
377.048052
21
-760.588386
0
LINE
8
Layer 1
10
377.048052
20
-760.588386
11
375.919162
21
-762.281716
0
LINE
8
Layer 1
10
375.919162
20
-762.281716
11
372.532502
21
-782.883916
0
LINE
8
Layer 1
10
372.532502
20
-782.883916
11
368.863612
21
-803.486116
0
LINE
8
Layer 1
10
368.863612
20
-803.486116
11
360.114732
21
-801.510566
0
LINE
8
Layer 1
10
360.114732
20
-801.510566
11
351.365852
21
-799.817236
0
LINE
8
Layer 1
10
351.365852
20
-799.817236
11
328.788052
21
-792.761686
0
LINE
8
Layer 1
10
328.788052
20
-792.761686
11
306.210252
21
-785.706136
0
LINE
8
Layer 1
10
306.210252
20
-785.706136
11
282.221352
21
-775.546136
0
LINE
8
Layer 1
10
282.221352
20
-775.546136
11
258.514752
21
-765.386136
0
LINE
8
Layer 1
10
258.514752
20
-765.386136
11
236.501452
21
-753.250636
0
LINE
8
Layer 1
10
236.501452
20
-753.250636
11
214.488152
21
-740.832836
0
LINE
8
Layer 1
10
214.488152
20
-740.832836
11
214.488152
21
-738.010616
0
LINE
8
Layer 1
10
214.488152
20
-738.010616
11
214.488152
21
-735.470616
0
LINE
8
Layer 1
10
214.488152
20
-735.470616
11
274.601452
21
-645.441816
0
LINE
8
Layer 1
10
274.601452
20
-645.441816
11
334.432552
21
-555.695216
0
LINE
8
Layer 1
10
334.432552
20
-555.695216
11
351.365852
21
-565.008546
0
LINE
8
Layer 1
10
351.365852
20
-565.008546
11
368.299152
21
-574.604096
0
LINE
8
Layer 1
10
368.299152
20
-574.604096
11
371.968042
21
-574.604096
0
LINE
8
Layer 1
10
371.968042
20
-574.604096
11
375.354702
21
-574.604096
0
LINE
8
Layer 1
10
375.354702
20
-574.604096
11
375.354702
21
-572.628546
0
LINE
8
Layer 1
10
375.354702
20
-572.628546
11
375.354702
21
-570.370766
0
LINE
8
Layer 1
10
375.354702
20
-570.370766
11
353.905802
21
-559.364066
0
LINE
8
Layer 1
10
353.905802
20
-559.364066
11
332.739102
21
-548.357366
0
LINE
8
Layer 1
10
332.739102
20
-548.357366
11
330.481322
21
-550.897366
0
LINE
8
Layer 1
10
330.481322
20
-550.897366
11
328.223542
21
-553.437366
0
LINE
8
Layer 1
10
328.223542
20
-553.437366
11
293.510242
21
-605.648466
0
LINE
8
Layer 1
10
293.510242
20
-605.648466
11
258.796942
21
-657.859566
0
LINE
8
Layer 1
10
258.796942
20
-657.859566
11
257.950276
21
-658.988456
0
LINE
8
Layer 1
10
257.950276
20
-658.988456
11
257.103610
21
-660.117346
0
LINE
8
Layer 1
10
257.103610
20
-660.117346
11
241.581410
21
-648.546246
0
LINE
8
Layer 1
10
241.581410
20
-648.546246
11
226.059210
21
-636.692946
0
LINE
8
Layer 1
10
226.059210
20
-636.692946
11
206.868110
21
-617.784046
0
LINE
8
Layer 1
10
206.868110
20
-617.784046
11
187.394810
21
-598.592946
0
LINE
8
Layer 1
10
187.394810
20
-598.592946
11
175.541510
21
-582.788546
0
LINE
8
Layer 1
10
175.541510
20
-582.788546
11
163.688210
21
-566.984146
0
LINE
8
Layer 1
10
163.688210
20
-566.984146
11
163.688210
21
-565.573036
0
LINE
8
Layer 1
10
163.688210
20
-565.573036
11
163.688210
21
-564.161926
0
LINE
8
Layer 1
10
163.688210
20
-564.161926
11
179.492610
21
-553.719726
0
LINE
8
Layer 1
10
179.492610
20
-553.719726
11
195.297010
21
-543.277526
0
LINE
8
Layer 1
10
195.297010
20
-543.277526
11
195.861454
21
-544.124192
0
LINE
8
Layer 1
10
195.861454
20
-544.124192
11
196.425898
21
-544.970858
0
LINE
8
Layer 1
10
196.425898
20
-544.970858
11
207.432598
21
-559.081958
0
LINE
8
Layer 1
10
207.432598
20
-559.081958
11
218.156998
21
-573.193058
0
LINE
8
Layer 1
10
218.156998
20
-573.193058
11
226.905878
21
-582.506388
0
LINE
8
Layer 1
10
226.905878
20
-582.506388
11
235.372538
21
-591.537488
0
LINE
8
Layer 1
10
235.372538
20
-591.537488
11
268.674738
21
-558.517488
0
LINE
8
Layer 1
10
268.674738
20
-558.517488
11
301.694738
21
-525.497488
0
LINE
8
Layer 1
10
301.694738
20
-525.497488
11
300.001408
21
-522.957488
0
LINE
8
Layer 1
10
300.001408
20
-522.957488
11
298.308078
21
-520.417488
0
LINE
8
Layer 1
10
298.308078
20
-520.417488
11
266.699178
21
-552.026388
0
LINE
8
Layer 1
10
266.699178
20
-552.026388
11
235.090278
21
-583.352988
0
LINE
8
Layer 1
10
235.090278
20
-583.352988
11
225.494728
21
-572.628588
0
LINE
8
Layer 1
10
225.494728
20
-572.628588
11
215.899178
21
-561.904188
0
LINE
8
Layer 1
10
215.899178
20
-561.904188
11
206.303628
21
-548.639788
0
LINE
8
Layer 1
10
206.303628
20
-548.639788
11
196.990298
21
-535.375388
0
LINE
8
Layer 1
10
196.990298
20
-535.375388
11
178.363598
21
-547.793188
0
LINE
8
Layer 1
10
178.363598
20
-547.793188
11
159.736898
21
-560.210988
0
LINE
8
Layer 1
10
159.736898
20
-560.210988
11
152.963568
21
-550.333218
0
LINE
8
Layer 1
10
152.963568
20
-550.333218
11
146.190238
21
-540.455448
0
LINE
8
Layer 1
10
146.190238
20
-540.455448
11
136.312468
21
-519.288748
0
LINE
8
Layer 1
10
136.312468
20
-519.288748
11
126.434698
21
-498.404348
0
LINE
8
Layer 1
10
126.434698
20
-498.404348
11
125.588032
21
-498.404348
0
LINE
8
Layer 1
10
125.588032
20
-498.404348
11
124.741366
21
-498.404348
0
LINE
8
Layer 1
10
124.741366
20
-498.404348
11
105.832466
21
-506.871008
0
LINE
8
Layer 1
10
105.832466
20
-506.871008
11
86.923566
21
-515.337668
0
LINE
8
Layer 1
10
86.923566
20
-515.337668
11
86.076900
21
-515.337668
0
LINE
8
Layer 1
10
86.076900
20
-515.337668
11
85.230234
21
-515.337668
0
LINE
8
Layer 1
10
85.230234
20
-515.337668
11
78.456904
21
-496.993268
0
LINE
8
Layer 1
10
78.456904
20
-496.993268
11
71.965794
21
-478.648868
0
LINE
8
Layer 1
10
71.965794
20
-478.648868
11
69.708014
21
-478.648868
0
LINE
8
Layer 1
10
69.708014
20
-478.648868
11
67.168014
21
-478.648868
0
LINE
8
Layer 1
10
67.168014
20
-478.648868
11
68.861344
21
-485.704418
0
LINE
8
Layer 1
10
68.861344
20
-485.704418
11
70.836894
21
-493.042188
0
LINE
8
Layer 1
10
70.836894
20
-493.042188
11
76.481334
21
-508.282188
0
LINE
8
Layer 1
10
76.481334
20
-508.282188
11
82.125774
21
-523.522188
0
LINE
8
Layer 1
10
82.125774
20
-523.522188
11
96.801274
21
-517.031078
0
LINE
8
Layer 1
10
96.801274
20
-517.031078
11
111.476774
21
-510.539968
0
LINE
8
Layer 1
10
111.476774
20
-510.539968
11
117.685654
21
-508.564418
0
LINE
8
Layer 1
10
117.685654
20
-508.564418
11
123.894534
21
-506.588868
0
LINE
8
Layer 1
10
123.894534
20
-506.588868
11
134.054534
21
-527.191068
0
LINE
8
Layer 1
10
134.054534
20
-527.191068
11
144.496734
21
-547.793268
0
LINE
8
Layer 1
10
144.496734
20
-547.793268
11
156.632234
21
-566.137668
0
LINE
8
Layer 1
10
156.632234
20
-566.137668
11
168.767734
21
-584.482068
0
LINE
8
Layer 1
10
168.767734
20
-584.482068
11
184.007734
21
-601.697568
0
LINE
8
Layer 1
10
184.007734
20
-601.697568
11
198.965534
21
-618.913068
0
LINE
8
Layer 1
10
198.965534
20
-618.913068
11
214.487734
21
-632.741968
0
LINE
8
Layer 1
10
214.487734
20
-632.741968
11
230.009934
21
-646.570868
0
LINE
8
Layer 1
10
230.009934
20
-646.570868
11
241.298834
21
-655.037528
0
LINE
8
Layer 1
10
241.298834
20
-655.037528
11
252.587734
21
-663.221968
0
LINE
8
Layer 1
10
252.587734
20
-663.221968
11
253.434400
21
-663.786412
0
LINE
8
Layer 1
10
253.434400
20
-663.786412
11
254.281066
21
-664.350856
0
LINE
8
Layer 1
10
254.281066
20
-664.350856
11
230.856666
21
-699.628556
0
LINE
8
Layer 1
10
230.856666
20
-699.628556
11
207.150066
21
-735.188556
0
LINE
8
Layer 1
10
207.150066
20
-735.188556
11
187.958966
21
-720.513056
0
LINE
8
Layer 1
10
187.958966
20
-720.513056
11
168.485666
21
-706.119756
0
LINE
8
Layer 1
10
168.485666
20
-706.119756
11
151.834566
21
-690.879756
0
LINE
8
Layer 1
10
151.834566
20
-690.879756
11
135.465666
21
-675.639756
0
LINE
8
Layer 1
10
135.465666
20
-675.639756
11
117.685666
21
-653.908656
0
LINE
8
Layer 1
10
117.685666
20
-653.908656
11
99.905666
21
-632.459756
0
LINE
8
Layer 1
10
99.905666
20
-632.459756
11
90.027896
21
-618.348656
0
LINE
8
Layer 1
10
90.027896
20
-618.348656
11
80.150126
21
-604.237556
0
LINE
8
Layer 1
10
80.150126
20
-604.237556
11
72.247906
21
-590.973156
0
LINE
8
Layer 1
10
72.247906
20
-590.973156
11
64.627916
21
-577.708756
0
LINE
8
Layer 1
10
64.627916
20
-577.708756
11
81.843416
21
-568.959876
0
LINE
8
Layer 1
10
81.843416
20
-568.959876
11
99.341216
21
-560.210996
0
LINE
8
Layer 1
10
99.341216
20
-560.210996
11
100.187882
21
-561.057662
0
LINE
8
Layer 1
10
100.187882
20
-561.057662
11
101.034548
21
-561.904328
0
LINE
8
Layer 1
10
101.034548
20
-561.904328
11
110.912318
21
-578.555428
0
LINE
8
Layer 1
10
110.912318
20
-578.555428
11
120.790088
21
-595.206528
0
LINE
8
Layer 1
10
120.790088
20
-595.206528
11
138.570088
21
-617.502028
0
LINE
8
Layer 1
10
138.570088
20
-617.502028
11
156.067888
21
-639.797528
0
LINE
8
Layer 1
10
156.067888
20
-639.797528
11
178.927888
21
-661.246428
0
LINE
8
Layer 1
10
178.927888
20
-661.246428
11
201.505688
21
-682.413128
0
LINE
8
Layer 1
10
201.505688
20
-682.413128
11
202.352354
21
-680.155348
0
LINE
8
Layer 1
10
202.352354
20
-680.155348
11
203.199020
21
-677.615348
0
LINE
8
Layer 1
10
203.199020
20
-677.615348
11
172.719020
21
-646.570948
0
LINE
8
Layer 1
10
172.719020
20
-646.570948
11
142.521220
21
-615.526548
0
LINE
8
Layer 1
10
142.521220
20
-615.526548
11
126.716820
21
-591.537648
0
LINE
8
Layer 1
10
126.716820
20
-591.537648
11
111.194620
21
-567.548748
0
LINE
8
Layer 1
10
111.194620
20
-567.548748
11
106.114620
21
-559.646528
0
LINE
8
Layer 1
10
106.114620
20
-559.646528
11
101.316850
21
-551.744308
0
LINE
8
Layer 1
10
101.316850
20
-551.744308
11
81.561350
21
-562.186508
0
LINE
8
Layer 1
10
81.561350
20
-562.186508
11
61.805850
21
-572.628708
0
LINE
8
Layer 1
10
61.805850
20
-572.628708
11
60.959184
21
-571.499818
0
LINE
8
Layer 1
10
60.959184
20
-571.499818
11
60.112518
21
-570.370928
0
LINE
8
Layer 1
10
60.112518
20
-570.370928
11
49.952518
21
-547.793128
0
LINE
8
Layer 1
10
49.952518
20
-547.793128
11
40.074748
21
-525.215328
0
LINE
8
Layer 1
10
40.074748
20
-525.215328
11
31.325868
21
-497.275328
0
LINE
8
Layer 1
10
31.325868
20
-497.275328
11
22.294768
21
-469.335328
0
LINE
8
Layer 1
10
22.294768
20
-469.335328
11
16.932548
21
-437.162028
0
LINE
8
Layer 1
10
16.932548
20
-437.162028
11
11.288108
21
-404.706528
0
LINE
8
Layer 1
10
11.288108
20
-404.706528
11
11.288108
21
-363.502128
0
LINE
8
Layer 1
10
11.288108
20
-363.502128
11
11.288108
21
-322.015528
0
LINE
8
Layer 1
10
11.288108
20
-322.015528
11
14.110328
21
-303.671128
0
LINE
8
Layer 1
10
14.110328
20
-303.671128
11
16.932548
21
-285.326728
0
LINE
8
Layer 1
10
16.932548
20
-285.326728
11
22.859208
21
-260.773428
0
LINE
8
Layer 1
10
22.859208
20
-260.773428
11
28.785868
21
-236.502328
0
LINE
8
Layer 1
10
28.785868
20
-236.502328
11
41.768068
21
-240.453438
0
LINE
8
Layer 1
10
41.768068
20
-240.453438
11
55.032468
21
-244.686768
0
LINE
8
Layer 1
10
55.032468
20
-244.686768
11
62.934688
21
-246.380098
0
LINE
8
Layer 1
10
62.934688
20
-246.380098
11
70.554678
21
-248.073428
0
LINE
8
Layer 1
10
70.554678
20
-248.073428
11
70.554678
21
-245.251208
0
LINE
8
Layer 1
10
70.554678
20
-245.251208
11
70.554678
21
-242.428988
0
LINE
8
Layer 1
10
70.554678
20
-242.428988
11
52.210278
21
-237.348988
0
LINE
8
Layer 1
10
52.210278
20
-237.348988
11
33.865878
21
-232.551218
0
LINE
8
Layer 1
10
33.865878
20
-232.551218
11
32.454768
21
-230.293438
0
LINE
8
Layer 1
10
32.454768
20
-230.293438
11
31.043658
21
-228.035658
0
LINE
8
Layer 1
10
31.043658
20
-228.035658
11
37.816988
21
-210.255658
0
LINE
8
Layer 1
10
37.816988
20
-210.255658
11
44.590318
21
-192.193458
0
LINE
8
Layer 1
10
44.590318
20
-192.193458
11
54.468088
21
-170.744558
0
LINE
8
Layer 1
10
54.468088
20
-170.744558
11
64.345858
21
-149.295658
0
LINE
8
Layer 1
10
64.345858
20
-149.295658
11
74.505858
21
-133.208958
0
LINE
8
Layer 1
10
74.505858
20
-133.208958
11
84.665858
21
-117.404558
0
LINE
8
Layer 1
10
84.665858
20
-117.404558
11
120.508058
21
-141.111158
0
LINE
8
Layer 1
10
120.508058
20
-141.111158
11
156.068058
21
-165.100058
0
LINE
8
Layer 1
10
156.068058
20
-165.100058
11
158.890278
21
-163.406728
0
LINE
8
Layer 1
10
158.890278
20
-163.406728
11
161.430278
21
-161.995618
0
LINE
8
Layer 1
10
161.430278
20
-161.995618
11
125.023678
21
-138.006718
0
LINE
8
Layer 1
10
125.023678
20
-138.006718
11
88.899278
21
-113.735618
0
LINE
8
Layer 1
10
88.899278
20
-113.735618
11
87.770388
21
-112.888952
0
LINE
8
Layer 1
10
87.770388
20
-112.888952
11
86.923722
21
-112.042286
0
LINE
8
Layer 1
10
86.923722
20
-112.042286
11
100.470422
21
-94.262286
0
LINE
8
Layer 1
10
100.470422
20
-94.262286
11
114.017122
21
-76.482286
0
LINE
8
Layer 1
10
114.017122
20
-76.482286
11
138.006022
21
-51.364486
0
LINE
8
Layer 1
10
138.006022
20
-51.364486
11
162.277122
21
-26.528986
0
LINE
8
Layer 1
10
162.277122
20
-26.528986
11
183.443722
21
-10.160086
0
LINE
8
Layer 1
10
183.443722
20
-10.160086
11
204.610422
21
5.926614
0
LINE
8
Layer 1
10
204.610422
20
5.926614
11
224.365922
21
18.062114
0
LINE
8
Layer 1
10
224.365922
20
18.062114
11
244.121422
21
30.197614
0
LINE
8
Layer 1
10
244.121422
20
30.197614
11
269.521422
21
42.050914
0
LINE
8
Layer 1
10
269.521422
20
42.050914
11
294.921422
21
54.186414
0
LINE
8
Layer 1
10
294.921422
20
54.186414
11
317.499222
21
61.806404
0
LINE
8
Layer 1
10
317.499222
20
61.806404
11
340.077022
21
69.426394
0
LINE
8
Layer 1
10
340.077022
20
69.426394
11
366.888122
21
75.070834
0
LINE
8
Layer 1
10
366.888122
20
75.070834
11
393.699222
21
80.715274
0
LINE
8
Layer 1
10
393.699222
20
80.715274
11
424.179222
21
82.408604
0
LINE
8
Layer 1
10
424.179222
20
82.408604
11
454.377022
21
84.384154
0
LINE
8
Layer 1
10
454.377022
20
84.384154
11
454.377022
21
42.897554
0
LINE
8
Layer 1
10
454.377022
20
42.897554
11
454.377022
21
1.410954
0
LINE
8
Layer 1
10
454.377022
20
1.410954
11
445.345922
21
-0.000156
0
LINE
8
Layer 1
10
445.345922
20
-0.000156
11
436.032592
21
-1.411266
0
LINE
8
Layer 1
10
436.032592
20
-1.411266
11
416.277092
21
-3.104596
0
LINE
8
Layer 1
10
416.277092
20
-3.104596
11
396.521592
21
-4.797926
0
LINE
8
Layer 1
10
396.521592
20
-4.797926
11
373.943792
21
-10.442366
0
LINE
8
Layer 1
10
373.943792
20
-10.442366
11
351.365992
21
-16.086806
0
LINE
8
Layer 1
10
351.365992
20
-16.086806
11
332.457092
21
-22.860136
0
LINE
8
Layer 1
10
332.457092
20
-22.860136
11
313.548192
21
-29.633466
0
LINE
8
Layer 1
10
313.548192
20
-29.633466
11
299.719292
21
-36.689016
0
LINE
8
Layer 1
10
299.719292
20
-36.689016
11
285.890392
21
-43.744566
0
LINE
8
Layer 1
10
285.890392
20
-43.744566
11
269.803692
21
-53.340116
0
LINE
8
Layer 1
10
269.803692
20
-53.340116
11
253.999292
21
-62.935666
0
LINE
8
Layer 1
10
253.999292
20
-62.935666
11
255.692622
21
-64.628996
0
LINE
8
Layer 1
10
255.692622
20
-64.628996
11
257.385952
21
-66.322326
0
LINE
8
Layer 1
10
257.385952
20
-66.322326
11
288.994852
21
-49.671226
0
LINE
8
Layer 1
10
288.994852
20
-49.671226
11
320.321452
21
-33.020126
0
LINE
8
Layer 1
10
320.321452
20
-33.020126
11
345.721452
21
-24.553466
0
LINE
8
Layer 1
10
345.721452
20
-24.553466
11
371.121452
21
-16.086806
0
LINE
8
Layer 1
10
371.121452
20
-16.086806
11
396.239252
21
-11.571256
0
LINE
8
Layer 1
10
396.239252
20
-11.571256
11
421.357052
21
-7.337926
0
LINE
8
Layer 1
10
421.357052
20
-7.337926
11
437.725952
21
-7.337926
0
LINE
8
Layer 1
10
437.725952
20
-7.337926
11
454.377052
21
-7.337926
0
LINE
8
Layer 1
10
454.377052
20
-7.337926
11
454.377052
21
-51.082326
0
LINE
8
Layer 1
10
454.377052
20
-51.082326
11
454.377052
21
-94.544526
0
LINE
8
Layer 1
10
454.377052
20
-94.544526
11
463.690382
21
-95.955636
0
LINE
8
Layer 1
10
463.690382
20
-95.955636
11
472.721482
21
-97.366746
0
LINE
8
Layer 1
10
472.721482
20
-97.366746
11
493.041482
21
-99.060076
0
LINE
8
Layer 1
10
493.041482
20
-99.060076
11
513.361482
21
-100.471186
0
LINE
8
Layer 1
10
513.361482
20
-100.471186
11
535.939282
21
-107.526736
0
LINE
8
Layer 1
10
535.939282
20
-107.526736
11
558.517082
21
-114.864506
0
LINE
8
Layer 1
10
558.517082
20
-114.864506
11
556.259302
21
-121.073386
0
LINE
8
Layer 1
10
556.259302
20
-121.073386
11
553.719302
21
-127.282266
0
LINE
8
Layer 1
10
553.719302
20
-127.282266
11
530.577102
21
-183.162266
0
LINE
8
Layer 1
10
530.577102
20
-183.162266
11
507.434902
21
-239.042266
0
LINE
8
Layer 1
10
507.434902
20
-239.042266
11
508.281568
21
-239.888932
0
LINE
8
Layer 1
10
508.281568
20
-239.888932
11
509.410458
21
-241.017822
0
LINE
8
Layer 1
10
509.410458
20
-241.017822
11
520.699358
21
-246.662262
0
LINE
8
Layer 1
10
520.699358
20
-246.662262
11
531.988258
21
-252.588922
0
LINE
8
Layer 1
10
531.988258
20
-252.588922
11
541.301588
21
-260.491142
0
LINE
8
Layer 1
10
541.301588
20
-260.491142
11
550.614918
21
-268.393362
0
LINE
8
Layer 1
10
550.614918
20
-268.393362
11
536.786018
21
-281.940062
0
LINE
8
Layer 1
10
536.786018
20
-281.940062
11
522.957118
21
-295.486762
0
LINE
8
Layer 1
10
522.957118
20
-295.486762
11
510.539318
21
-287.302322
0
LINE
8
Layer 1
10
510.539318
20
-287.302322
11
498.121518
21
-279.117882
0
LINE
8
Layer 1
10
498.121518
20
-279.117882
11
488.243748
21
-276.013442
0
LINE
8
Layer 1
10
488.243748
20
-276.013442
11
478.365978
21
-272.909002
0
LINE
8
Layer 1
10
478.365978
20
-272.909002
11
465.101578
21
-270.933452
0
LINE
8
Layer 1
10
465.101578
20
-270.933452
11
451.554878
21
-269.240122
0
LINE
8
Layer 1
10
451.554878
20
-269.240122
11
451.554878
21
-274.320122
0
LINE
8
Layer 1
10
451.554878
20
-274.320122
11
451.554878
21
-279.117892
0
LINE
8
Layer 1
10
451.554878
20
-279.117892
11
456.352648
21
-284.480112
0
LINE
8
Layer 1
10
456.352648
20
-284.480112
11
460.868198
21
-289.560112
0
LINE
8
Layer 1
10
460.868198
20
-289.560112
11
459.739308
21
-290.406778
0
LINE
8
Layer 1
10
459.739308
20
-290.406778
11
458.610418
21
-291.253444
0
LINE
8
Layer 1
10
458.610418
20
-291.253444
11
442.523718
21
-301.977844
0
LINE
8
Layer 1
10
442.523718
20
-301.977844
11
426.154818
21
-312.984544
0
LINE
8
Layer 1
10
426.154818
20
-312.984544
11
413.172618
21
-306.211214
0
LINE
8
Layer 1
10
413.172618
20
-306.211214
11
399.908218
21
-299.437884
0
LINE
8
Layer 1
10
399.908218
20
-299.437884
11
383.539318
21
-284.197884
0
LINE
8
Layer 1
10
383.539318
20
-284.197884
11
366.888218
21
-269.240084
0
LINE
8
Layer 1
10
366.888218
20
-269.240084
11
368.299328
21
-266.982304
0
LINE
8
Layer 1
10
368.299328
20
-266.982304
11
369.710438
21
-264.724524
0
LINE
8
Layer 1
10
369.710438
20
-264.724524
11
385.514838
21
-254.000124
0
LINE
8
Layer 1
10
385.514838
20
-254.000124
11
401.601538
21
-243.557924
0
LINE
8
Layer 1
10
401.601538
20
-243.557924
11
418.252638
21
-238.195704
0
LINE
8
Layer 1
10
418.252638
20
-238.195704
11
435.185938
21
-233.115704
0
LINE
8
Layer 1
10
435.185938
20
-233.115704
11
444.499268
21
-233.115704
0
LINE
8
Layer 1
10
444.499268
20
-233.115704
11
453.812598
21
-233.115704
0
LINE
8
Layer 1
10
453.812598
20
-233.115704
11
458.328148
21
-231.422374
0
LINE
8
Layer 1
10
458.328148
20
-231.422374
11
462.843698
21
-229.729044
0
LINE
8
Layer 1
10
462.843698
20
-229.729044
11
462.843698
21
-185.984644
0
LINE
8
Layer 1
10
462.843698
20
-185.984644
11
462.843698
21
-141.958044
0
LINE
8
Layer 1
10
462.843698
20
-141.958044
11
484.010398
21
-143.369154
0
LINE
8
Layer 1
10
484.010398
20
-143.369154
11
505.177098
21
-144.780264
0
LINE
8
Layer 1
10
505.177098
20
-144.780264
11
505.177098
21
-142.804714
0
LINE
8
Layer 1
10
505.177098
20
-142.804714
11
505.177098
21
-140.546934
0
LINE
8
Layer 1
10
505.177098
20
-140.546934
11
498.968218
21
-138.853604
0
LINE
8
Layer 1
10
498.968218
20
-138.853604
11
492.477108
21
-137.160274
0
LINE
8
Layer 1
10
492.477108
20
-137.160274
11
471.310408
21
-135.466944
0
LINE
8
Layer 1
10
471.310408
20
-135.466944
11
450.143708
21
-133.773614
0
LINE
8
Layer 1
10
450.143708
20
-133.773614
11
434.057008
21
-136.595834
0
LINE
8
Layer 1
10
434.057008
20
-136.595834
11
417.688108
21
-139.135834
0
LINE
8
Layer 1
10
417.688108
20
-139.135834
11
416.559218
21
-134.620284
0
LINE
8
Layer 1
10
416.559218
20
-134.620284
11
415.148108
21
-130.104734
0
LINE
8
Layer 1
10
415.148108
20
-130.104734
11
407.810338
21
-92.004734
0
LINE
8
Layer 1
10
407.810338
20
-92.004734
11
400.190348
21
-53.904734
0
LINE
8
Layer 1
10
400.190348
20
-53.904734
11
398.497018
21
-51.929184
0
LINE
8
Layer 1
10
398.497018
20
-51.929184
11
396.521468
21
-50.235854
0
LINE
8
Layer 1
10
396.521468
20
-50.235854
11
372.532568
21
-57.009184
0
LINE
8
Layer 1
10
372.532568
20
-57.009184
11
348.543668
21
-64.064734
0
LINE
8
Layer 1
10
348.543668
20
-64.064734
11
322.861468
21
-76.200234
0
LINE
8
Layer 1
10
322.861468
20
-76.200234
11
297.179268
21
-88.618034
0
LINE
8
Layer 1
10
297.179268
20
-88.618034
11
280.528168
21
-99.624734
0
LINE
8
Layer 1
10
280.528168
20
-99.624734
11
263.877068
21
-110.913634
0
LINE
8
Layer 1
10
263.877068
20
-110.913634
11
249.483768
21
-123.895834
0
LINE
8
Layer 1
10
249.483768
20
-123.895834
11
235.090468
21
-136.878034
0
LINE
8
Layer 1
10
235.090468
20
-136.878034
11
205.174968
21
-106.680234
0
LINE
8
Layer 1
10
205.174968
20
-106.680234
11
175.259468
21
-76.482434
0
LINE
8
Layer 1
10
175.259468
20
-76.482434
11
190.217268
21
-63.218034
0
LINE
8
Layer 1
10
190.217268
20
-63.218034
11
205.457268
21
-49.953634
0
LINE
8
Layer 1
10
205.457268
20
-49.953634
11
226.623968
21
-34.713634
0
LINE
8
Layer 1
10
226.623968
20
-34.713634
11
247.790668
21
-19.473634
0
LINE
8
Layer 1
10
247.790668
20
-19.473634
11
275.730668
21
-5.362534
0
LINE
8
Layer 1
10
275.730668
20
-5.362534
11
303.388468
21
8.748566
0
LINE
8
Layer 1
10
303.388468
20
8.748566
11
328.788468
21
17.497446
0
LINE
8
Layer 1
10
328.788468
20
17.497446
11
354.188468
21
26.246326
0
LINE
8
Layer 1
10
354.188468
20
26.246326
11
375.355168
21
30.197436
0
LINE
8
Layer 1
10
375.355168
20
30.197436
11
396.521768
21
34.430766
0
LINE
8
Layer 1
10
396.521768
20
34.430766
11
410.350668
21
36.406316
0
LINE
8
Layer 1
10
410.350668
20
36.406316
11
423.897368
21
38.381866
0
LINE
8
Layer 1
10
423.897368
20
38.381866
11
421.357368
21
40.921866
0
LINE
8
Layer 1
10
421.357368
20
40.921866
11
418.535148
21
43.744086
0
LINE
8
Layer 1
10
418.535148
20
43.744086
11
399.061848
21
40.639646
0
LINE
8
Layer 1
10
399.061848
20
40.639646
11
379.588548
21
37.535206
0
LINE
8
Layer 1
10
379.588548
20
37.535206
11
353.059648
21
30.479656
0
LINE
8
Layer 1
10
353.059648
20
30.479656
11
326.248548
21
23.424106
0
LINE
8
Layer 1
10
326.248548
20
23.424106
11
299.437448
21
12.135206
0
LINE
8
Layer 1
10
299.437448
20
12.135206
11
272.344148
21
0.564106
0
LINE
8
Layer 1
10
272.344148
20
0.564106
11
252.588648
21
-11.006994
0
LINE
8
Layer 1
10
252.588648
20
-11.006994
11
232.833148
21
-22.295894
0
LINE
8
Layer 1
10
232.833148
20
-22.295894
11
211.384248
21
-38.664794
0
LINE
8
Layer 1
10
211.384248
20
-38.664794
11
189.653148
21
-55.033694
0
LINE
8
Layer 1
10
189.653148
20
-55.033694
11
165.382048
21
-79.869194
0
LINE
8
Layer 1
10
165.382048
20
-79.869194
11
141.110948
21
-104.422494
0
LINE
8
Layer 1
10
141.110948
20
-104.422494
11
141.110948
21
-106.680274
0
LINE
8
Layer 1
10
141.110948
20
-106.680274
11
141.110948
21
-108.938054
0
LINE
8
Layer 1
10
141.110948
20
-108.938054
11
143.650948
21
-108.938054
0
LINE
8
Layer 1
10
143.650948
20
-108.938054
11
146.190948
21
-108.938054
0
LINE
8
Layer 1
10
146.190948
20
-108.938054
11
158.608748
21
-94.826954
0
LINE
8
Layer 1
10
158.608748
20
-94.826954
11
171.026548
21
-80.715854
0
LINE
8
Layer 1
10
171.026548
20
-80.715854
11
201.788748
21
-111.760254
0
LINE
8
Layer 1
10
201.788748
20
-111.760254
11
232.833148
21
-142.804654
0
LINE
8
Layer 1
10
232.833148
20
-142.804654
11
234.808698
21
-142.804654
0
LINE
8
Layer 1
10
234.808698
20
-142.804654
11
236.784248
21
-142.804654
0
LINE
8
Layer 1
10
236.784248
20
-142.804654
11
253.153148
21
-128.411354
0
LINE
8
Layer 1
10
253.153148
20
-128.411354
11
269.522048
21
-114.018054
0
LINE
8
Layer 1
10
269.522048
20
-114.018054
11
287.866448
21
-101.882554
0
LINE
8
Layer 1
10
287.866448
20
-101.882554
11
306.210848
21
-89.747054
0
LINE
8
Layer 1
10
306.210848
20
-89.747054
11
321.168648
21
-82.409284
0
LINE
8
Layer 1
10
321.168648
20
-82.409284
11
335.844148
21
-75.071514
0
LINE
8
Layer 1
10
335.844148
20
-75.071514
11
338.666368
21
-81.280394
0
LINE
8
Layer 1
10
338.666368
20
-81.280394
11
341.488588
21
-87.771504
0
LINE
8
Layer 1
10
341.488588
20
-87.771504
11
363.784088
21
-141.393704
0
LINE
8
Layer 1
10
363.784088
20
-141.393704
11
385.797388
21
-195.015904
0
LINE
8
Layer 1
10
385.797388
20
-195.015904
11
370.557388
21
-203.482564
0
LINE
8
Layer 1
10
370.557388
20
-203.482564
11
355.317388
21
-211.949224
0
LINE
8
Layer 1
10
355.317388
20
-211.949224
11
341.488488
21
-223.238124
0
LINE
8
Layer 1
10
341.488488
20
-223.238124
11
327.659588
21
-234.527024
0
LINE
8
Layer 1
10
327.659588
20
-234.527024
11
327.377366
21
-236.784804
0
LINE
8
Layer 1
10
327.377366
20
-236.784804
11
327.377366
21
-238.760354
0
LINE
8
Layer 1
10
327.377366
20
-238.760354
11
329.635146
21
-238.760354
0
LINE
8
Layer 1
10
329.635146
20
-238.760354
11
331.610696
21
-238.760354
0
LINE
8
Layer 1
10
331.610696
20
-238.760354
11
346.850696
21
-226.342554
0
LINE
8
Layer 1
10
346.850696
20
-226.342554
11
361.808496
21
-213.924754
0
LINE
8
Layer 1
10
361.808496
20
-213.924754
11
377.330696
21
-206.586984
0
LINE
8
Layer 1
10
377.330696
20
-206.586984
11
392.570696
21
-198.966994
0
LINE
8
Layer 1
10
392.570696
20
-198.966994
11
390.877366
21
-193.604774
0
LINE
8
Layer 1
10
390.877366
20
-193.604774
11
389.184036
21
-187.960334
0
LINE
8
Layer 1
10
389.184036
20
-187.960334
11
365.477436
21
-130.951534
0
LINE
8
Layer 1
10
365.477436
20
-130.951534
11
341.770836
21
-73.942734
0
LINE
8
Layer 1
10
341.770836
20
-73.942734
11
345.157496
21
-71.684954
0
LINE
8
Layer 1
10
345.157496
20
-71.684954
11
348.544156
21
-69.709404
0
LINE
8
Layer 1
10
348.544156
20
-69.709404
11
370.557456
21
-63.782744
0
LINE
8
Layer 1
10
370.557456
20
-63.782744
11
392.852956
21
-57.856084
0
LINE
8
Layer 1
10
392.852956
20
-57.856084
11
393.981846
21
-58.984974
0
LINE
8
Layer 1
10
393.981846
20
-58.984974
11
395.110736
21
-60.113864
0
LINE
8
Layer 1
10
395.110736
20
-60.113864
11
403.577396
21
-101.882764
0
LINE
8
Layer 1
10
403.577396
20
-101.882764
11
412.044056
21
-143.651664
0
LINE
8
Layer 1
10
412.044056
20
-143.651664
11
412.044056
21
-144.498330
0
LINE
8
Layer 1
10
412.044056
20
-144.498330
11
412.044056
21
-145.062774
0
LINE
8
Layer 1
10
412.044056
20
-145.062774
11
433.210756
21
-143.651664
0
LINE
8
Layer 1
10
433.210756
20
-143.651664
11
454.377456
21
-141.958334
0
LINE
8
Layer 1
10
454.377456
20
-141.958334
11
454.377456
21
-183.162734
0
LINE
8
Layer 1
10
454.377456
20
-183.162734
11
454.377456
21
-224.367134
0
LINE
8
Layer 1
10
454.377456
20
-224.367134
11
449.579686
21
-225.778244
0
LINE
8
Layer 1
10
449.579686
20
-225.778244
11
444.499686
21
-227.189354
0
LINE
8
Layer 1
10
444.499686
20
-227.189354
11
431.799686
21
-228.882684
0
LINE
8
Layer 1
10
431.799686
20
-228.882684
11
419.099686
21
-230.858234
0
LINE
8
Layer 1
10
419.099686
20
-230.858234
11
398.497486
21
-240.736004
0
LINE
8
Layer 1
10
398.497486
20
-240.736004
11
377.895286
21
-250.331554
0
LINE
8
Layer 1
10
377.895286
20
-250.331554
11
361.808586
21
-266.418254
0
LINE
8
Layer 1
10
361.808586
20
-266.418254
11
345.721886
21
-282.504954
0
LINE
8
Layer 1
10
345.721886
20
-282.504954
11
338.948556
21
-295.487154
0
LINE
8
Layer 1
10
338.948556
20
-295.487154
11
331.893006
21
-308.469354
0
LINE
8
Layer 1
10
331.893006
20
-308.469354
11
302.259706
21
-296.051554
0
LINE
8
Layer 1
10
302.259706
20
-296.051554
11
272.344206
21
-283.351554
0
LINE
8
Layer 1
10
272.344206
20
-283.351554
11
263.030876
21
-279.682664
0
LINE
8
Layer 1
10
263.030876
20
-279.682664
11
253.717546
21
-275.731554
0
LINE
8
Layer 1
10
253.717546
20
-275.731554
11
259.926426
21
-263.596054
0
LINE
8
Layer 1
10
259.926426
20
-263.596054
11
266.135306
21
-251.460554
0
LINE
8
Layer 1
10
266.135306
20
-251.460554
11
278.270806
21
-234.245054
0
LINE
8
Layer 1
10
278.270806
20
-234.245054
11
290.406306
21
-217.311754
0
LINE
8
Layer 1
10
290.406306
20
-217.311754
11
305.364106
21
-203.200654
0
LINE
8
Layer 1
10
305.364106
20
-203.200654
11
320.321906
21
-189.089554
0
LINE
8
Layer 1
10
320.321906
20
-189.089554
11
328.224126
21
-183.727334
0
LINE
8
Layer 1
10
328.224126
20
-183.727334
11
336.126346
21
-178.647334
0
LINE
8
Layer 1
10
336.126346
20
-178.647334
11
335.279680
21
-175.542894
0
LINE
8
Layer 1
10
335.279680
20
-175.542894
11
334.433014
21
-172.438454
0
LINE
8
Layer 1
10
334.433014
20
-172.438454
11
322.015214
21
-153.529554
0
LINE
8
Layer 1
10
322.015214
20
-153.529554
11
309.597414
21
-134.620654
0
LINE
8
Layer 1
10
309.597414
20
-134.620654
11
298.026314
21
-142.805094
0
LINE
8
Layer 1
10
298.026314
20
-142.805094
11
286.455214
21
-150.707314
0
LINE
8
Layer 1
10
286.455214
20
-150.707314
11
270.650814
21
-165.947314
0
LINE
8
Layer 1
10
270.650814
20
-165.947314
11
255.128614
21
-180.905114
0
LINE
8
Layer 1
10
255.128614
20
-180.905114
11
243.557514
21
-195.016214
0
LINE
8
Layer 1
10
243.557514
20
-195.016214
11
231.986414
21
-209.127314
0
LINE
8
Layer 1
10
231.986414
20
-209.127314
11
214.206414
21
-196.991814
0
LINE
8
Layer 1
10
214.206414
20
-196.991814
11
196.708614
21
-184.856314
0
LINE
8
Layer 1
10
196.708614
20
-184.856314
11
193.039724
21
-188.525204
0
LINE
8
Layer 1
10
193.039724
20
-188.525204
11
189.370834
21
-192.194094
0
LINE
8
Layer 1
10
189.370834
20
-192.194094
11
177.517534
21
-214.771894
0
LINE
8
Layer 1
10
177.517534
20
-214.771894
11
165.664234
21
-237.349694
0
LINE
8
Layer 1
10
165.664234
20
-237.349694
11
165.099790
21
-238.196360
0
LINE
8
Layer 1
10
165.099790
20
-238.196360
11
164.535346
21
-238.760804
0
LINE
8
Layer 1
10
164.535346
20
-238.760804
11
129.539846
21
-224.367504
0
LINE
8
Layer 1
10
129.539846
20
-224.367504
11
94.544346
21
-209.974204
0
LINE
8
Layer 1
10
94.544346
20
-209.974204
11
91.157686
21
-207.998654
0
LINE
8
Layer 1
10
91.157686
20
-207.998654
11
87.488796
21
-206.023104
0
LINE
8
Layer 1
10
87.488796
20
-206.023104
11
95.955456
21
-188.525304
0
LINE
8
Layer 1
10
95.955456
20
-188.525304
11
104.139896
21
-171.309804
0
LINE
8
Layer 1
10
104.139896
20
-171.309804
11
101.882116
21
-169.898694
0
LINE
8
Layer 1
10
101.882116
20
-169.898694
11
99.906566
21
-168.487584
0
LINE
8
Layer 1
10
99.906566
20
-168.487584
11
89.464366
21
-189.654284
0
LINE
8
Layer 1
10
89.464366
20
-189.654284
11
79.022166
21
-210.538684
0
LINE
8
Layer 1
10
79.022166
20
-210.538684
11
86.359936
21
-213.360904
0
LINE
8
Layer 1
10
86.359936
20
-213.360904
11
93.415486
21
-216.183124
0
LINE
8
Layer 1
10
93.415486
20
-216.183124
11
94.544376
21
-216.183124
0
LINE
8
Layer 1
10
94.544376
20
-216.183124
11
95.391042
21
-216.183124
0
LINE
8
Layer 1
10
95.391042
20
-216.183124
11
108.091042
21
-221.545344
0
LINE
8
Layer 1
10
108.091042
20
-221.545344
11
120.791042
21
-227.189784
0
LINE
8
Layer 1
10
120.791042
20
-227.189784
11
112.606602
21
-252.589784
0
LINE
8
Layer 1
10
112.606602
20
-252.589784
11
104.422162
21
-277.989784
0
LINE
8
Layer 1
10
104.422162
20
-277.989784
11
100.188832
21
-304.236384
0
LINE
8
Layer 1
10
100.188832
20
-304.236384
11
95.955502
21
-330.482984
0
LINE
8
Layer 1
10
95.955502
20
-330.482984
11
95.955502
21
-348.262984
0
LINE
8
Layer 1
10
95.955502
20
-348.262984
11
95.955502
21
-365.760784
0
LINE
8
Layer 1
10
95.955502
20
-365.760784
11
98.213282
21
-365.760784
0
LINE
8
Layer 1
10
98.213282
20
-365.760784
11
100.753282
21
-365.760784
0
LINE
8
Layer 1
10
100.753282
20
-365.760784
11
102.446612
21
-336.974184
0
LINE
8
Layer 1
10
102.446612
20
-336.974184
11
104.139942
21
-307.905284
0
LINE
8
Layer 1
10
104.139942
20
-307.905284
11
106.115492
21
-302.825284
0
LINE
8
Layer 1
10
106.115492
20
-302.825284
11
108.091042
21
-297.463064
0
LINE
8
Layer 1
10
108.091042
20
-297.463064
11
116.839922
21
-299.156394
0
LINE
8
Layer 1
10
116.839922
20
-299.156394
11
125.588802
21
-301.131944
0
LINE
8
Layer 1
10
125.588802
20
-301.131944
11
137.724302
21
-302.825274
0
LINE
8
Layer 1
10
137.724302
20
-302.825274
11
149.577602
21
-304.518604
0
LINE
8
Layer 1
10
149.577602
20
-304.518604
11
149.577602
21
-301.696384
0
LINE
8
Layer 1
10
149.577602
20
-301.696384
11
149.577602
21
-298.874164
0
LINE
8
Layer 1
10
149.577602
20
-298.874164
11
129.539802
21
-295.205274
0
LINE
8
Layer 1
10
129.539802
20
-295.205274
11
109.502002
21
-291.818614
0
LINE
8
Layer 1
10
109.502002
20
-291.818614
11
111.195332
21
-280.529714
0
LINE
8
Layer 1
10
111.195332
20
-280.529714
11
112.888662
21
-269.523014
0
LINE
8
Layer 1
10
112.888662
20
-269.523014
11
118.815322
21
-252.025214
0
LINE
8
Layer 1
10
118.815322
20
-252.025214
11
124.741982
21
-234.527414
0
LINE
8
Layer 1
10
124.741982
20
-234.527414
11
126.999762
21
-232.269634
0
LINE
8
Layer 1
10
126.999762
20
-232.269634
11
128.975312
21
-230.011854
0
LINE
8
Layer 1
10
128.975312
20
-230.011854
11
151.270812
21
-239.607404
0
LINE
8
Layer 1
10
151.270812
20
-239.607404
11
173.566312
21
-249.202954
0
LINE
8
Layer 1
10
173.566312
20
-249.202954
11
187.113012
21
-254.282954
0
LINE
8
Layer 1
10
187.113012
20
-254.282954
11
200.659712
21
-259.362954
0
LINE
8
Layer 1
10
200.659712
20
-259.362954
11
201.788602
21
-261.620734
0
LINE
8
Layer 1
10
201.788602
20
-261.620734
11
203.199712
21
-263.878514
0
LINE
8
Layer 1
10
203.199712
20
-263.878514
11
196.144162
21
-288.431814
0
LINE
8
Layer 1
10
196.144162
20
-288.431814
11
189.088612
21
-312.702914
0
LINE
8
Layer 1
10
189.088612
20
-312.702914
11
187.113062
21
-336.409514
0
LINE
8
Layer 1
10
187.113062
20
-336.409514
11
185.419732
21
-360.116114
0
LINE
8
Layer 1
10
185.419732
20
-360.116114
11
162.841932
21
-360.116114
0
LINE
8
Layer 1
10
162.841932
20
-360.116114
11
140.264132
21
-360.116114
0
LINE
8
Layer 1
10
140.264132
20
-360.116114
11
141.957462
21
-387.773914
0
LINE
8
Layer 1
10
141.957462
20
-387.773914
11
143.368572
21
-415.149414
0
LINE
8
Layer 1
10
143.368572
20
-415.149414
11
144.497462
21
-419.100524
0
LINE
8
Layer 1
10
144.497462
20
-419.100524
11
145.344128
21
-423.051634
0
LINE
8
Layer 1
10
145.344128
20
-423.051634
11
107.244128
21
-430.953854
0
LINE
8
Layer 1
10
107.244128
20
-430.953854
11
69.144128
21
-438.856074
0
LINE
8
Layer 1
10
69.144128
20
-438.856074
11
66.039688
21
-439.138296
0
LINE
8
Layer 1
10
66.039688
20
-439.138296
11
62.653028
21
-439.138296
0
LINE
8
Layer 1
10
62.653028
20
-439.138296
11
59.266368
21
-414.584996
0
LINE
8
Layer 1
10
59.266368
20
-414.584996
11
55.597478
21
-390.031696
0
LINE
8
Layer 1
10
55.597478
20
-390.031696
11
57.573028
21
-347.698396
0
LINE
8
Layer 1
10
57.573028
20
-347.698396
11
59.266358
21
-305.082896
0
LINE
8
Layer 1
10
59.266358
20
-305.082896
11
60.959688
21
-293.229596
0
LINE
8
Layer 1
10
60.959688
20
-293.229596
11
62.653018
21
-281.094096
0
LINE
8
Layer 1
10
62.653018
20
-281.094096
11
60.113018
21
-281.094096
0
LINE
8
Layer 1
10
60.113018
20
-281.094096
11
57.573018
21
-281.094096
0
LINE
8
Layer 1
10
57.573018
20
-281.094096
11
54.186358
21
-306.211896
0
LINE
8
Layer 1
10
54.186358
20
-306.211896
11
50.799698
21
-331.047396
0
LINE
8
Layer 1
10
50.799698
20
-331.047396
11
51.081920
21
-366.042896
0
LINE
8
Layer 1
10
51.081920
20
-366.042896
11
51.364142
21
-401.038396
0
LINE
8
Layer 1
10
51.364142
20
-401.038396
11
54.750802
21
-423.616196
0
LINE
8
Layer 1
10
54.750802
20
-423.616196
11
58.137462
21
-446.193996
0
LINE
8
Layer 1
10
58.137462
20
-446.193996
11
60.959682
21
-445.629552
0
LINE
8
Layer 1
10
60.959682
20
-445.629552
11
63.781902
21
-445.065108
0
LINE
8
Layer 1
10
63.781902
20
-445.065108
11
102.728502
21
-437.727338
0
LINE
8
Layer 1
10
102.728502
20
-437.727338
11
141.675102
21
-430.389568
0
LINE
8
Layer 1
10
141.675102
20
-430.389568
11
145.626212
21
-431.800678
0
LINE
8
Layer 1
10
145.626212
20
-431.800678
11
149.577322
21
-433.211788
0
LINE
8
Layer 1
10
149.577322
20
-433.211788
11
149.577322
21
-437.445118
0
LINE
8
Layer 1
10
149.577322
20
-437.445118
11
149.577322
21
-441.678448
0
LINE
8
Layer 1
10
149.577322
20
-441.678448
11
156.632872
21
-464.256248
0
LINE
8
Layer 1
10
156.632872
20
-464.256248
11
163.970642
21
-487.116248
0
LINE
8
Layer 1
10
163.970642
20
-487.116248
11
165.946192
21
-487.116248
0
LINE
8
Layer 1
10
165.946192
20
-487.116248
11
167.921742
21
-487.116248
0
LINE
8
Layer 1
10
167.921742
20
-487.116248
11
186.830642
21
-479.496258
0
LINE
8
Layer 1
10
186.830642
20
-479.496258
11
206.021742
21
-472.158488
0
LINE
8
Layer 1
10
206.021742
20
-472.158488
11
206.868408
21
-473.287378
0
LINE
8
Layer 1
10
206.868408
20
-473.287378
11
207.997298
21
-474.416268
0
LINE
8
Layer 1
10
207.997298
20
-474.416268
11
218.157298
21
-492.760668
0
LINE
8
Layer 1
10
218.157298
20
-492.760668
11
228.317298
21
-511.105068
0
LINE
8
Layer 1
10
228.317298
20
-511.105068
11
230.857298
21
-514.773958
0
LINE
8
Layer 1
10
230.857298
20
-514.773958
11
233.397298
21
-518.442848
0
LINE
8
Layer 1
10
233.397298
20
-518.442848
11
252.870598
21
-505.178448
0
LINE
8
Layer 1
10
252.870598
20
-505.178448
11
272.343898
21
-491.631748
0
LINE
8
Layer 1
10
272.343898
20
-491.631748
11
273.190564
21
-491.067304
0
LINE
8
Layer 1
10
273.190564
20
-491.067304
11
274.319454
21
-490.502860
0
LINE
8
Layer 1
10
274.319454
20
-490.502860
11
264.159454
21
-471.311760
0
LINE
8
Layer 1
10
264.159454
20
-471.311760
11
253.999454
21
-452.402860
0
LINE
8
Layer 1
10
253.999454
20
-452.402860
11
254.563898
21
-451.556194
0
LINE
8
Layer 1
10
254.563898
20
-451.556194
11
255.410564
21
-450.991750
0
LINE
8
Layer 1
10
255.410564
20
-450.991750
11
272.908364
21
-443.936200
0
LINE
8
Layer 1
10
272.908364
20
-443.936200
11
290.688364
21
-436.880650
0
LINE
8
Layer 1
10
290.688364
20
-436.880650
11
299.719464
21
-454.096150
0
LINE
8
Layer 1
10
299.719464
20
-454.096150
11
309.032794
21
-471.593950
0
LINE
8
Layer 1
10
309.032794
20
-471.593950
11
330.199494
21
-492.760650
0
LINE
8
Layer 1
10
330.199494
20
-492.760650
11
351.366194
21
-513.927250
0
LINE
8
Layer 1
10
351.366194
20
-513.927250
11
371.121694
21
-524.369450
0
LINE
8
Layer 1
10
371.121694
20
-524.369450
11
390.877194
21
-534.811650
0
LINE
8
Layer 1
10
390.877194
20
-534.811650
11
412.043894
21
-540.456090
0
LINE
8
Layer 1
10
412.043894
20
-540.456090
11
433.210594
21
-546.382750
0
LINE
8
Layer 1
10
433.210594
20
-546.382750
11
443.652794
21
-546.382750
0
LINE
8
Layer 1
10
443.652794
20
-546.382750
11
454.377194
21
-546.382750
0
LINE
8
Layer 1
10
454.377194
20
-546.382750
11
454.377194
21
-588.998250
0
LINE
8
Layer 1
10
454.377194
20
-588.998250
11
454.377194
21
-631.895950
0
LINE
8
Layer 1
10
454.377194
20
-631.895950
11
432.646094
21
-629.920400
0
LINE
8
Layer 1
10
432.646094
20
-629.920400
11
411.197194
21
-628.227070
0
LINE
8
Layer 1
10
411.197194
20
-628.227070
11
410.350528
21
-627.380404
0
LINE
8
Layer 1
10
410.350528
20
-627.380404
11
409.786084
21
-626.815960
0
LINE
8
Layer 1
10
409.786084
20
-626.815960
11
413.454974
21
-607.060460
0
LINE
8
Layer 1
10
413.454974
20
-607.060460
11
417.123864
21
-587.304960
0
LINE
8
Layer 1
10
417.123864
20
-587.304960
11
415.712754
21
-585.893850
0
LINE
8
Layer 1
10
415.712754
20
-585.893850
11
414.583864
21
-584.764960
0
LINE
8
Layer 1
10
414.583864
20
-584.764960
11
412.043864
21
-588.716070
0
LINE
8
Layer 1
10
412.043864
20
-588.716070
11
409.503864
21
-592.667180
0
LINE
8
Layer 1
10
409.503864
20
-592.667180
11
407.810534
21
-605.649380
0
LINE
8
Layer 1
10
407.810534
20
-605.649380
11
406.117204
21
-618.631580
0
LINE
8
Layer 1
10
406.117204
20
-618.631580
11
403.859424
21
-622.300470
0
LINE
8
Layer 1
10
403.859424
20
-622.300470
11
401.319424
21
-625.969360
0
LINE
8
Layer 1
10
401.319424
20
-625.969360
11
379.306124
21
-619.478250
0
LINE
8
Layer 1
10
379.306124
20
-619.478250
11
357.010624
21
-612.704920
0
LINE
8
Layer 1
10
357.010624
20
-612.704920
11
354.752844
21
-612.704920
0
LINE
8
Layer 1
10
354.752844
20
-612.704920
11
352.495064
21
-612.704920
0
LINE
8
Layer 1
10
352.495064
20
-612.704920
11
329.352864
21
-669.149320
0
LINE
8
Layer 1
10
329.352864
20
-669.149320
11
305.928464
21
-725.593720
0
LINE
8
Layer 1
10
305.928464
20
-725.593720
11
303.952914
21
-730.673720
0
LINE
8
Layer 1
10
303.952914
20
-730.673720
11
301.977364
21
-735.753720
0
LINE
8
Layer 1
10
301.977364
20
-735.753720
11
290.688464
21
-729.827060
0
LINE
8
Layer 1
10
290.688464
20
-729.827060
11
279.117364
21
-723.900400
0
LINE
8
Layer 1
10
279.117364
20
-723.900400
11
272.344034
21
-721.360400
0
LINE
8
Layer 1
10
272.344034
20
-721.360400
11
265.288484
21
-718.538180
0
LINE
8
Layer 1
10
265.288484
20
-718.538180
11
265.288484
21
-721.360400
0
LINE
8
Layer 1
10
265.288484
20
-721.360400
11
265.288484
21
-724.182620
0
LINE
8
Layer 1
10
265.288484
20
-724.182620
11
279.681784
21
-731.238170
0
LINE
8
Layer 1
10
279.681784
20
-731.238170
11
293.792884
21
-738.575940
0
LINE
8
Layer 1
10
293.792884
20
-738.575940
11
316.370684
21
-746.760380
0
LINE
8
Layer 1
10
316.370684
20
-746.760380
11
338.948484
21
-755.227040
0
LINE
8
Layer 1
10
338.948484
20
-755.227040
11
341.770704
21
-755.227040
0
LINE
8
Layer 1
10
341.770704
20
-755.227040
11
344.310704
21
-755.227040
0
LINE
8
Layer 1
10
344.310704
20
-755.227040
11
344.310704
21
-752.969260
0
LINE
8
Layer 1
10
344.310704
20
-752.969260
11
344.310704
21
-750.711480
0
LINE
8
Layer 1
10
344.310704
20
-750.711480
11
325.966304
21
-744.220370
0
LINE
8
Layer 1
10
325.966304
20
-744.220370
11
307.621904
21
-737.729260
0
LINE
8
Layer 1
10
307.621904
20
-737.729260
11
307.621904
21
-737.164816
0
LINE
8
Layer 1
10
307.621904
20
-737.164816
11
307.621904
21
-736.600372
0
LINE
8
Layer 1
10
307.621904
20
-736.600372
11
331.328504
21
-679.027072
0
LINE
8
Layer 1
10
331.328504
20
-679.027072
11
355.317404
21
-621.171572
0
LINE
8
Layer 1
10
355.317404
20
-621.171572
11
357.857404
21
-620.324906
0
LINE
8
Layer 1
10
357.857404
20
-620.324906
11
360.397404
21
-619.478240
0
LINE
8
Layer 1
10
360.397404
20
-619.478240
11
385.515204
21
-626.816010
0
LINE
8
Layer 1
10
385.515204
20
-626.816010
11
410.633004
21
-634.153780
0
LINE
8
Layer 1
10
410.633004
20
-634.153780
11
436.879604
21
-635.847110
0
LINE
8
Layer 1
10
436.879604
20
-635.847110
11
462.844004
21
-637.540440
0
LINE
8
Layer 1
10
462.844004
20
-637.540440
11
462.844004
21
-614.398240
0
LINE
8
Layer 1
10
462.844004
20
-614.398240
11
462.844004
21
-591.538240
0
LINE
8
Layer 1
10
462.844004
20
-591.538240
11
475.261804
21
-591.538240
0
LINE
8
Layer 1
10
475.261804
20
-591.538240
11
487.397304
21
-591.538240
0
LINE
8
Layer 1
10
487.397304
20
-591.538240
11
515.337304
21
-584.482690
0
LINE
8
Layer 1
10
515.337304
20
-584.482690
11
542.995104
21
-577.427140
0
LINE
8
Layer 1
10
542.995104
20
-577.427140
11
545.535104
21
-574.887140
0
LINE
8
Layer 1
10
545.535104
20
-574.887140
11
548.075104
21
-572.347140
0
LINE
8
Layer 1
10
548.075104
20
-572.347140
11
530.577304
21
-529.731640
0
LINE
8
Layer 1
10
530.577304
20
-529.731640
11
513.079504
21
-487.116140
0
LINE
8
Layer 1
10
513.079504
20
-487.116140
11
510.821724
21
-487.116140
0
LINE
8
Layer 1
10
510.821724
20
-487.116140
11
508.563944
21
-487.116140
0
LINE
8
Layer 1
10
508.563944
20
-487.116140
11
490.783944
21
-491.631690
0
LINE
8
Layer 1
10
490.783944
20
-491.631690
11
473.003944
21
-496.147240
0
LINE
8
Layer 1
10
473.003944
20
-496.147240
11
450.143944
21
-495.018350
0
LINE
8
Layer 1
10
450.143944
20
-495.018350
11
427.566144
21
-493.607240
0
LINE
8
Layer 1
10
427.566144
20
-493.607240
11
411.197244
21
-487.398360
0
LINE
8
Layer 1
10
411.197244
20
-487.398360
11
395.110544
21
-480.907250
0
LINE
8
Layer 1
10
395.110544
20
-480.907250
11
378.741644
21
-468.771750
0
LINE
8
Layer 1
10
378.741644
20
-468.771750
11
362.654944
21
-456.636250
0
LINE
8
Layer 1
10
362.654944
20
-456.636250
11
361.243834
21
-458.047360
0
LINE
8
Layer 1
10
361.243834
20
-458.047360
11
359.832724
21
-459.458470
0
LINE
8
Layer 1
10
359.832724
20
-459.458470
11
371.968224
21
-470.182870
0
LINE
8
Layer 1
10
371.968224
20
-470.182870
11
383.821524
21
-480.907270
0
LINE
8
Layer 1
10
383.821524
20
-480.907270
11
397.368224
21
-487.116150
0
LINE
8
Layer 1
10
397.368224
20
-487.116150
11
410.632624
21
-493.325030
0
LINE
8
Layer 1
10
410.632624
20
-493.325030
11
423.332624
21
-497.276140
0
LINE
8
Layer 1
10
423.332624
20
-497.276140
11
436.032624
21
-501.227250
0
LINE
8
Layer 1
10
436.032624
20
-501.227250
11
457.199224
21
-501.227250
0
LINE
8
Layer 1
10
457.199224
20
-501.227250
11
478.648124
21
-501.227250
0
LINE
8
Layer 1
10
478.648124
20
-501.227250
11
493.888124
21
-497.276140
0
LINE
8
Layer 1
10
493.888124
20
-497.276140
11
509.410324
21
-493.325030
0
LINE
8
Layer 1
10
509.410324
20
-493.325030
11
509.692546
21
-493.607252
0
LINE
8
Layer 1
10
509.692546
20
-493.607252
11
509.974768
21
-494.171696
0
LINE
8
Layer 1
10
509.974768
20
-494.171696
11
525.779168
21
-532.271696
0
LINE
8
Layer 1
10
525.779168
20
-532.271696
11
541.301368
21
-570.089396
0
LINE
8
Layer 1
10
541.301368
20
-570.089396
11
533.116928
21
-573.758286
0
LINE
8
Layer 1
10
533.116928
20
-573.758286
11
524.650268
21
-577.144946
0
LINE
8
Layer 1
10
524.650268
20
-577.144946
11
503.765868
21
-581.660496
0
LINE
8
Layer 1
10
503.765868
20
-581.660496
11
482.881468
21
-585.893826
0
LINE
8
Layer 1
10
482.881468
20
-585.893826
11
473.003698
21
-585.893826
0
LINE
8
Layer 1
10
473.003698
20
-585.893826
11
463.125928
21
-585.893826
0
LINE
8
Layer 1
10
463.125928
20
-585.893826
11
462.279262
21
-564.162726
0
LINE
8
Layer 1
10
462.279262
20
-564.162726
11
461.432596
21
-542.149426
0
LINE
8
Layer 1
10
461.432596
20
-542.149426
11
441.112596
21
-540.173876
0
LINE
8
Layer 1
10
441.112596
20
-540.173876
11
420.792596
21
-538.198326
0
LINE
8
Layer 1
10
420.792596
20
-538.198326
11
403.012596
21
-532.271666
0
LINE
8
Layer 1
10
403.012596
20
-532.271666
11
385.232596
21
-526.062786
0
LINE
8
Layer 1
10
385.232596
20
-526.062786
11
370.557096
21
-517.878346
0
LINE
8
Layer 1
10
370.557096
20
-517.878346
11
355.881596
21
-509.411686
0
LINE
8
Layer 1
10
355.881596
20
-509.411686
11
341.488296
21
-496.429486
0
LINE
8
Layer 1
10
341.488296
20
-496.429486
11
326.812796
21
-483.165086
0
LINE
8
Layer 1
10
326.812796
20
-483.165086
11
316.088396
21
-469.053986
0
LINE
8
Layer 1
10
316.088396
20
-469.053986
11
305.646196
21
-454.660686
0
LINE
8
Layer 1
10
305.646196
20
-454.660686
11
301.130646
21
-445.629586
0
LINE
8
Layer 1
10
301.130646
20
-445.629586
11
296.332876
21
-436.598486
0
LINE
8
Layer 1
10
296.332876
20
-436.598486
11
296.332876
21
-435.187376
0
LINE
8
Layer 1
10
296.332876
20
-435.187376
11
296.332876
21
-434.058486
0
LINE
8
Layer 1
10
296.332876
20
-434.058486
11
316.088376
21
-426.156266
0
LINE
8
Layer 1
10
316.088376
20
-426.156266
11
335.843876
21
-418.536276
0
LINE
8
Layer 1
10
335.843876
20
-418.536276
11
335.843876
21
-415.431836
0
LINE
8
Layer 1
10
335.843876
20
-415.431836
11
335.843876
21
-412.327396
0
LINE
8
Layer 1
10
335.843876
20
-412.327396
11
331.610546
21
-398.498496
0
LINE
8
Layer 1
10
331.610546
20
-398.498496
11
327.377216
21
-384.669596
0
LINE
8
Layer 1
10
327.377216
20
-384.669596
11
327.377216
21
-373.945196
0
LINE
8
Layer 1
10
327.377216
20
-373.945196
11
327.377216
21
-363.220796
0
LINE
8
Layer 1
10
327.377216
20
-363.220796
11
324.554996
21
-361.527466
0
LINE
8
Layer 1
10
324.554996
20
-361.527466
11
321.732776
21
-359.834136
0
LINE
8
Layer 1
10
321.732776
20
-359.834136
11
321.732776
21
-373.663036
0
LINE
8
Layer 1
10
321.732776
20
-373.663036
11
321.732776
21
-387.491936
0
LINE
8
Layer 1
10
321.732776
20
-387.491936
11
325.683886
21
-400.756336
0
LINE
8
Layer 1
10
325.683886
20
-400.756336
11
329.634996
21
-414.020736
0
LINE
8
Layer 1
10
329.634996
20
-414.020736
11
314.112796
21
-420.794066
0
LINE
8
Layer 1
10
314.112796
20
-420.794066
11
298.590596
21
-427.849616
0
LINE
8
Layer 1
10
298.590596
20
-427.849616
11
295.203936
21
-427.849616
0
LINE
8
Layer 1
10
295.203936
20
-427.849616
11
291.817276
21
-427.849616
0
LINE
8
Layer 1
10
291.817276
20
-427.849616
11
288.995056
21
-430.107396
0
LINE
8
Layer 1
10
288.995056
20
-430.107396
11
286.455056
21
-432.647396
0
LINE
8
Layer 1
10
286.455056
20
-432.647396
11
271.215056
21
-438.574056
0
LINE
8
Layer 1
10
271.215056
20
-438.574056
11
255.975056
21
-444.782936
0
LINE
8
Layer 1
10
255.975056
20
-444.782936
11
253.999506
21
-444.782936
0
LINE
8
Layer 1
10
253.999506
20
-444.782936
11
251.741726
21
-444.782936
0
LINE
8
Layer 1
10
251.741726
20
-444.782936
11
245.532846
21
-427.285136
0
LINE
8
Layer 1
10
245.532846
20
-427.285136
11
239.606186
21
-409.505136
0
LINE
8
Layer 1
10
239.606186
20
-409.505136
11
237.912856
21
-386.080736
0
LINE
8
Layer 1
10
237.912856
20
-386.080736
11
236.219526
21
-362.656336
0
LINE
8
Layer 1
10
236.219526
20
-362.656336
11
233.397306
21
-360.963006
0
LINE
8
Layer 1
10
233.397306
20
-360.963006
11
230.575086
21
-359.269676
0
LINE
8
Layer 1
10
230.575086
20
-359.269676
11
231.986196
21
-382.129676
0
LINE
8
Layer 1
10
231.986196
20
-382.129676
11
233.397306
21
-405.271876
0
LINE
8
Layer 1
10
233.397306
20
-405.271876
11
228.881756
21
-406.400766
0
LINE
8
Layer 1
10
228.881756
20
-406.400766
11
224.366206
21
-407.811876
0
LINE
8
Layer 1
10
224.366206
20
-407.811876
11
207.715106
21
-410.916316
0
LINE
8
Layer 1
10
207.715106
20
-410.916316
11
191.346206
21
-414.302976
0
LINE
8
Layer 1
10
191.346206
20
-414.302976
11
193.886206
21
-416.842976
0
LINE
8
Layer 1
10
193.886206
20
-416.842976
11
196.426206
21
-419.382976
0
LINE
8
Layer 1
10
196.426206
20
-419.382976
11
215.617306
21
-415.431866
0
LINE
8
Layer 1
10
215.617306
20
-415.431866
11
234.526206
21
-411.480756
0
LINE
8
Layer 1
10
234.526206
20
-411.480756
11
235.655096
21
-414.867416
0
LINE
8
Layer 1
10
235.655096
20
-414.867416
11
236.501762
21
-417.971856
0
LINE
8
Layer 1
10
236.501762
20
-417.971856
11
242.710642
21
-436.316256
0
LINE
8
Layer 1
10
242.710642
20
-436.316256
11
248.919522
21
-454.660656
0
LINE
8
Layer 1
10
248.919522
20
-454.660656
11
257.103962
21
-469.900656
0
LINE
8
Layer 1
10
257.103962
20
-469.900656
11
265.288402
21
-485.422856
0
LINE
8
Layer 1
10
265.288402
20
-485.422856
11
265.288402
21
-487.680636
0
LINE
8
Layer 1
10
265.288402
20
-487.680636
11
265.288402
21
-489.656186
0
LINE
8
Layer 1
10
265.288402
20
-489.656186
11
250.612902
21
-499.533956
0
LINE
8
Layer 1
10
250.612902
20
-499.533956
11
236.219602
21
-509.411726
0
LINE
8
Layer 1
10
236.219602
20
-509.411726
11
233.679602
21
-508.000616
0
LINE
8
Layer 1
10
233.679602
20
-508.000616
11
231.421822
21
-506.589506
0
LINE
8
Layer 1
10
231.421822
20
-506.589506
11
221.261822
21
-486.269506
0
LINE
8
Layer 1
10
221.261822
20
-486.269506
11
211.101822
21
-465.949506
0
LINE
8
Layer 1
10
211.101822
20
-465.949506
11
210.255156
21
-465.102840
0
LINE
8
Layer 1
10
210.255156
20
-465.102840
11
209.408490
21
-464.256174
0
LINE
8
Layer 1
10
209.408490
20
-464.256174
11
189.370690
21
-472.722834
0
LINE
8
Layer 1
10
189.370690
20
-472.722834
11
169.050690
21
-481.189494
0
LINE
8
Layer 1
10
169.050690
20
-481.189494
11
166.792910
21
-474.980614
0
LINE
8
Layer 1
10
166.792910
20
-474.980614
11
164.252910
21
-468.771734
0
LINE
8
Layer 1
10
164.252910
20
-468.771734
11
160.019580
21
-455.789534
0
LINE
8
Layer 1
10
160.019580
20
-455.789534
11
155.504030
21
-443.089534
0
LINE
8
Layer 1
10
155.504030
20
-443.089534
11
151.270700
21
-419.665134
0
LINE
8
Layer 1
10
151.270700
20
-419.665134
11
146.755150
21
-396.240734
0
LINE
8
Layer 1
10
146.755150
20
-396.240734
11
146.755150
21
-382.411834
0
LINE
8
Layer 1
10
146.755150
20
-382.411834
11
146.755150
21
-368.582934
0
LINE
8
Layer 1
10
146.755150
20
-368.582934
11
165.946250
21
-368.582934
0
LINE
8
Layer 1
10
165.946250
20
-368.582934
11
184.855150
21
-368.582934
0
LINE
8
Layer 1
10
184.855150
20
-368.582934
11
187.959590
21
-366.325154
0
LINE
8
Layer 1
10
187.959590
20
-366.325154
11
191.064030
21
-364.349604
0
LINE
8
Layer 1
10
191.064030
20
-364.349604
11
192.757360
21
-340.925204
0
LINE
8
Layer 1
10
192.757360
20
-340.925204
11
194.168470
21
-317.218604
0
LINE
8
Layer 1
10
194.168470
20
-317.218604
11
195.579580
21
-316.089714
0
LINE
8
Layer 1
10
195.579580
20
-316.089714
11
196.708470
21
-314.960824
0
LINE
8
Layer 1
10
196.708470
20
-314.960824
11
216.181770
21
-318.911934
0
LINE
8
Layer 1
10
216.181770
20
-318.911934
11
235.655070
21
-323.145264
0
LINE
8
Layer 1
10
235.655070
20
-323.145264
11
236.783960
21
-321.734154
0
LINE
8
Layer 1
10
236.783960
20
-321.734154
11
238.195070
21
-320.605264
0
LINE
8
Layer 1
10
238.195070
20
-320.605264
11
235.372850
21
-318.065264
0
LINE
8
Layer 1
10
235.372850
20
-318.065264
11
232.832850
21
-315.807484
0
LINE
8
Layer 1
10
232.832850
20
-315.807484
11
216.181750
21
-312.420824
0
LINE
8
Layer 1
10
216.181750
20
-312.420824
11
199.530650
21
-309.316384
0
LINE
8
Layer 1
10
199.530650
20
-309.316384
11
198.119540
21
-307.905274
0
LINE
8
Layer 1
10
198.119540
20
-307.905274
11
196.708430
21
-306.776384
0
LINE
8
Layer 1
10
196.708430
20
-306.776384
11
204.046200
21
-283.351984
0
LINE
8
Layer 1
10
204.046200
20
-283.351984
11
211.383970
21
-259.927584
0
LINE
8
Layer 1
10
211.383970
20
-259.927584
11
209.408420
21
-258.234254
0
LINE
8
Layer 1
10
209.408420
20
-258.234254
11
207.432870
21
-256.540924
0
LINE
8
Layer 1
10
207.432870
20
-256.540924
11
191.910670
21
-250.332044
0
LINE
8
Layer 1
10
191.910670
20
-250.332044
11
176.388470
21
-243.840934
0
LINE
8
Layer 1
10
176.388470
20
-243.840934
11
174.130690
21
-241.583154
0
LINE
8
Layer 1
10
174.130690
20
-241.583154
11
171.872910
21
-239.607604
0
LINE
8
Layer 1
10
171.872910
20
-239.607604
11
180.621790
21
-221.545404
0
LINE
8
Layer 1
10
180.621790
20
-221.545404
11
189.370670
21
-203.483204
0
LINE
8
Layer 1
10
189.370670
20
-203.483204
11
193.604000
21
-198.120984
0
LINE
8
Layer 1
10
193.604000
20
-198.120984
11
197.555110
21
-192.476544
0
LINE
8
Layer 1
10
197.555110
20
-192.476544
11
214.770610
21
-204.329844
0
LINE
8
Layer 1
10
214.770610
20
-204.329844
11
231.703910
21
-216.183144
0
LINE
8
Layer 1
10
231.703910
20
-216.183144
11
233.679460
21
-216.183144
0
LINE
8
Layer 1
10
233.679460
20
-216.183144
11
235.655010
21
-216.183144
0
LINE
8
Layer 1
10
235.655010
20
-216.183144
11
242.992780
21
-205.458744
0
LINE
8
Layer 1
10
242.992780
20
-205.458744
11
250.612770
21
-195.016544
0
LINE
8
Layer 1
10
250.612770
20
-195.016544
11
261.901670
21
-182.316544
0
LINE
8
Layer 1
10
261.901670
20
-182.316544
11
272.908370
21
-169.616544
0
LINE
8
Layer 1
10
272.908370
20
-169.616544
11
290.123870
21
-156.069844
0
LINE
8
Layer 1
10
290.123870
20
-156.069844
11
307.339370
21
-142.805444
0
LINE
8
Layer 1
10
307.339370
20
-142.805444
11
318.628270
21
-159.456544
0
LINE
8
Layer 1
10
318.628270
20
-159.456544
11
329.917170
21
-176.107644
0
LINE
8
Layer 1
10
329.917170
20
-176.107644
11
322.297180
21
-181.187644
0
LINE
8
Layer 1
10
322.297180
20
-181.187644
11
314.677190
21
-185.985414
0
LINE
8
Layer 1
10
314.677190
20
-185.985414
11
300.848290
21
-198.967614
0
LINE
8
Layer 1
10
300.848290
20
-198.967614
11
287.019390
21
-211.949814
0
LINE
8
Layer 1
10
287.019390
20
-211.949814
11
274.883890
21
-228.883114
0
LINE
8
Layer 1
10
274.883890
20
-228.883114
11
262.748390
21
-246.098614
0
LINE
8
Layer 1
10
262.748390
20
-246.098614
11
255.692840
21
-260.491914
0
LINE
8
Layer 1
10
255.692840
20
-260.491914
11
248.355070
21
-274.885214
0
LINE
8
Layer 1
10
248.355070
20
-274.885214
11
248.355070
21
-277.425214
0
LINE
8
Layer 1
10
248.355070
20
-277.425214
11
248.355070
21
-280.247434
0
LINE
8
Layer 1
10
248.355070
20
-280.247434
11
268.392870
21
-288.149654
0
LINE
8
Layer 1
10
268.392870
20
-288.149654
11
288.148370
21
-295.769644
0
LINE
8
Layer 1
10
288.148370
20
-295.769644
11
286.455040
21
-300.567414
0
LINE
8
Layer 1
10
286.455040
20
-300.567414
11
284.761710
21
-305.082964
0
LINE
8
Layer 1
10
284.761710
20
-305.082964
11
280.528380
21
-322.016264
0
LINE
8
Layer 1
10
280.528380
20
-322.016264
11
276.577270
21
-338.949564
0
LINE
8
Layer 1
10
276.577270
20
-338.949564
11
276.577270
21
-352.496264
0
LINE
8
Layer 1
10
276.577270
20
-352.496264
11
276.577270
21
-365.760664
0
LINE
8
Layer 1
10
276.577270
20
-365.760664
11
279.117270
21
-365.760664
0
LINE
8
Layer 1
10
279.117270
20
-365.760664
11
281.375050
21
-365.760664
0
LINE
8
Layer 1
10
281.375050
20
-365.760664
11
283.068380
21
-345.440664
0
LINE
8
Layer 1
10
283.068380
20
-345.440664
11
284.761710
21
-324.838464
0
LINE
8
Layer 1
10
284.761710
20
-324.838464
11
289.277260
21
-311.574064
0
LINE
8
Layer 1
10
289.277260
20
-311.574064
11
293.792810
21
-298.591864
0
LINE
8
Layer 1
10
293.792810
20
-298.591864
11
314.112810
21
-306.776304
0
LINE
8
Layer 1
10
314.112810
20
-306.776304
11
334.432810
21
-315.242964
0
LINE
8
Layer 1
10
334.432810
20
-315.242964
11
337.255030
21
-310.445194
0
LINE
8
Layer 1
10
337.255030
20
-310.445194
11
340.077250
21
-305.929644
0
LINE
8
Layer 1
10
340.077250
20
-305.929644
11
350.801650
21
-288.714144
0
LINE
8
Layer 1
10
350.801650
20
-288.714144
11
361.526050
21
-271.780844
0
LINE
8
Layer 1
10
361.526050
20
-271.780844
11
374.226050
21
-284.198644
0
LINE
8
Layer 1
10
374.226050
20
-284.198644
11
386.643850
21
-296.334144
0
LINE
8
Layer 1
10
386.643850
20
-296.334144
11
386.643850
21
-299.720804
0
LINE
8
Layer 1
10
386.643850
20
-299.720804
11
386.643850
21
-302.825244
0
LINE
8
Layer 1
10
386.643850
20
-302.825244
11
377.612750
21
-320.605244
0
LINE
8
Layer 1
10
377.612750
20
-320.605244
11
368.299420
21
-338.385244
0
LINE
8
Layer 1
10
368.299420
20
-338.385244
11
367.452754
21
-359.834144
0
LINE
8
Layer 1
10
367.452754
20
-359.834144
11
366.323864
21
-381.283044
0
LINE
8
Layer 1
10
366.323864
20
-381.283044
11
372.532744
21
-397.651944
0
LINE
8
Layer 1
10
372.532744
20
-397.651944
11
378.741624
21
-414.303044
0
LINE
8
Layer 1
10
378.741624
20
-414.303044
11
393.699424
21
-429.260844
0
LINE
8
Layer 1
10
393.699424
20
-429.260844
11
408.657224
21
-444.218644
0
LINE
8
Layer 1
10
408.657224
20
-444.218644
11
424.743924
21
-450.145304
0
LINE
8
Layer 1
10
424.743924
20
-450.145304
11
440.548324
21
-456.071964
0
LINE
8
Layer 1
10
440.548324
20
-456.071964
11
458.610524
21
-456.071964
0
LINE
8
Layer 1
10
458.610524
20
-456.071964
11
476.672724
21
-456.071964
0
LINE
8
Layer 1
10
476.672724
20
-456.071964
11
492.194924
21
-450.427524
0
LINE
8
Layer 1
10
492.194924
20
-450.427524
11
507.434924
21
-444.500864
0
LINE
8
Layer 1
10
507.434924
20
-444.500864
11
519.852724
21
-433.776464
0
LINE
8
Layer 1
10
519.852724
20
-433.776464
11
532.270524
21
-422.769764
0
LINE
8
Layer 1
10
532.270524
20
-422.769764
11
539.608294
21
-409.223064
0
LINE
8
Layer 1
10
539.608294
20
-409.223064
11
546.946064
21
-395.394164
0
LINE
8
Layer 1
10
546.946064
20
-395.394164
11
549.768284
21
-379.871964
0
LINE
8
Layer 1
10
549.768284
20
-379.871964
11
552.590504
21
-364.349764
0
LINE
8
Layer 1
10
552.590504
20
-364.349764
11
550.332724
21
-349.956464
0
LINE
8
Layer 1
10
550.332724
20
-349.956464
11
548.074944
21
-335.280964
0
LINE
8
Layer 1
10
548.074944
20
-335.280964
11
541.866064
21
-323.145464
0
LINE
8
Layer 1
10
541.866064
20
-323.145464
11
535.657184
21
-310.727664
0
LINE
8
Layer 1
10
535.657184
20
-310.727664
11
531.141634
21
-305.647664
0
LINE
8
Layer 1
10
531.141634
20
-305.647664
11
526.626084
21
-300.567664
0
LINE
8
Layer 1
10
526.626084
20
-300.567664
11
542.994984
21
-284.198764
0
LINE
8
Layer 1
10
542.994984
20
-284.198764
11
559.081684
21
-267.829864
0
LINE
8
Layer 1
10
559.081684
20
-267.829864
11
546.946184
21
-257.952094
0
LINE
8
Layer 1
10
546.946184
20
-257.952094
11
534.810684
21
-248.074324
0
LINE
8
Layer 1
10
534.810684
20
-248.074324
11
525.779584
21
-242.994324
0
LINE
8
Layer 1
10
525.779584
20
-242.994324
11
516.466254
21
-237.632104
0
LINE
8
Layer 1
10
516.466254
20
-237.632104
11
516.466254
21
-234.809884
0
LINE
8
Layer 1
10
516.466254
20
-234.809884
11
516.466254
21
-231.987664
0
LINE
8
Layer 1
10
516.466254
20
-231.987664
11
539.326254
21
-176.672164
0
LINE
8
Layer 1
10
539.326254
20
-176.672164
11
562.186254
21
-121.638864
0
LINE
8
Layer 1
10
562.186254
20
-121.638864
11
563.597364
21
-119.381084
0
LINE
8
Layer 1
10
563.597364
20
-119.381084
11
565.008474
21
-117.123304
0
LINE
8
Layer 1
10
565.008474
20
-117.123304
11
586.175174
21
-128.694404
0
LINE
8
Layer 1
10
586.175174
20
-128.694404
11
607.341874
21
-139.983304
0
LINE
8
Layer 1
10
607.341874
20
-139.983304
11
609.599654
21
-139.983304
0
LINE
8
Layer 1
10
609.599654
20
-139.983304
11
611.857434
21
-139.983304
0
LINE
8
Layer 1
10
611.857434
20
-139.983304
11
622.581834
21
-123.050004
0
LINE
8
Layer 1
10
622.581834
20
-123.050004
11
633.588534
21
-106.116704
0
LINE
8
Layer 1
10
633.588534
20
-106.116704
11
635.564084
21
-106.116704
0
LINE
8
Layer 1
10
635.564084
20
-106.116704
11
637.539634
21
-106.116704
0
LINE
8
Layer 1
10
637.539634
20
-106.116704
11
658.424034
21
-122.767804
0
LINE
8
Layer 1
10
658.424034
20
-122.767804
11
679.026234
21
-139.701104
0
LINE
8
Layer 1
10
679.026234
20
-139.701104
11
695.677334
21
-159.738904
0
LINE
8
Layer 1
10
695.677334
20
-159.738904
11
712.610634
21
-179.776704
0
LINE
8
Layer 1
10
712.610634
20
-179.776704
11
714.868414
21
-183.727814
0
LINE
8
Layer 1
10
714.868414
20
-183.727814
11
717.126194
21
-187.678924
0
LINE
8
Layer 1
10
717.126194
20
-187.678924
11
701.039494
21
-198.403324
0
LINE
8
Layer 1
10
701.039494
20
-198.403324
11
685.235094
21
-208.845524
0
LINE
8
Layer 1
10
685.235094
20
-208.845524
11
679.590654
21
-202.072194
0
LINE
8
Layer 1
10
679.590654
20
-202.072194
11
674.228434
21
-195.016644
0
LINE
8
Layer 1
10
674.228434
20
-195.016644
11
662.657334
21
-181.469944
0
LINE
8
Layer 1
10
662.657334
20
-181.469944
11
651.086234
21
-167.641044
0
LINE
8
Layer 1
10
651.086234
20
-167.641044
11
634.999534
21
-183.727744
0
LINE
8
Layer 1
10
634.999534
20
-183.727744
11
618.630634
21
-199.814444
0
LINE
8
Layer 1
10
618.630634
20
-199.814444
11
602.826234
21
-186.832244
0
LINE
8
Layer 1
10
602.826234
20
-186.832244
11
586.739534
21
-173.850044
0
LINE
8
Layer 1
10
586.739534
20
-173.850044
11
584.199534
21
-173.850044
0
LINE
8
Layer 1
10
584.199534
20
-173.850044
11
581.377314
21
-173.850044
0
LINE
8
Layer 1
10
581.377314
20
-173.850044
11
581.377314
21
-176.107824
0
LINE
8
Layer 1
10
581.377314
20
-176.107824
11
581.377314
21
-178.083374
0
LINE
8
Layer 1
10
581.377314
20
-178.083374
11
590.972864
21
-184.574484
0
LINE
8
Layer 1
10
590.972864
20
-184.574484
11
600.286194
21
-191.065594
0
LINE
8
Layer 1
10
600.286194
20
-191.065594
11
606.777304
21
-197.838924
0
LINE
8
Layer 1
10
606.777304
20
-197.838924
11
613.550634
21
-204.894474
0
LINE
8
Layer 1
10
613.550634
20
-204.894474
11
598.592834
21
-220.134474
0
LINE
8
Layer 1
10
598.592834
20
-220.134474
11
583.352834
21
-235.374474
0
LINE
8
Layer 1
10
583.352834
20
-235.374474
11
593.512834
21
-247.792274
0
LINE
8
Layer 1
10
593.512834
20
-247.792274
11
603.390604
21
-259.927774
0
LINE
8
Layer 1
10
603.390604
20
-259.927774
11
612.139484
21
-273.756674
0
LINE
8
Layer 1
10
612.139484
20
-273.756674
11
620.888364
21
-287.867774
0
LINE
8
Layer 1
10
620.888364
20
-287.867774
11
620.888364
21
-290.972214
0
LINE
8
Layer 1
10
620.888364
20
-290.972214
11
620.888364
21
-294.358874
0
LINE
8
Layer 1
10
620.888364
20
-294.358874
11
601.132864
21
-301.978864
0
LINE
8
Layer 1
10
601.132864
20
-301.978864
11
581.377364
21
-309.881084
0
LINE
8
Layer 1
10
581.377364
20
-309.881084
11
581.377364
21
-311.574414
0
LINE
8
Layer 1
10
581.377364
20
-311.574414
11
581.377364
21
-313.549964
0
LINE
8
Layer 1
10
581.377364
20
-313.549964
11
585.892914
21
-326.249964
0
LINE
8
Layer 1
10
585.892914
20
-326.249964
11
590.408464
21
-338.949964
0
LINE
8
Layer 1
10
590.408464
20
-338.949964
11
590.408464
21
-362.938864
0
LINE
8
Layer 1
10
590.408464
20
-362.938864
11
590.126242
21
-386.927764
0
LINE
8
Layer 1
10
590.126242
20
-386.927764
11
585.892912
21
-401.038864
0
LINE
8
Layer 1
10
585.892912
20
-401.038864
11
581.377362
21
-415.149964
0
LINE
8
Layer 1
10
581.377362
20
-415.149964
11
581.377362
21
-416.843294
0
LINE
8
Layer 1
10
581.377362
20
-416.843294
11
581.377362
21
-418.818844
0
LINE
8
Layer 1
10
581.377362
20
-418.818844
11
586.457362
21
-420.229954
0
LINE
8
Layer 1
10
586.457362
20
-420.229954
11
591.255132
21
-421.641064
0
LINE
8
Layer 1
10
591.255132
20
-421.641064
11
626.532832
21
-436.316564
0
LINE
8
Layer 1
10
626.532832
20
-436.316564
11
661.810532
21
-450.992064
0
LINE
8
Layer 1
10
661.810532
20
-450.992064
11
662.939422
21
-451.838730
0
LINE
8
Layer 1
10
662.939422
20
-451.838730
11
663.786088
21
-452.967620
0
LINE
8
Layer 1
10
663.786088
20
-452.967620
11
653.626088
21
-471.876520
0
LINE
8
Layer 1
10
653.626088
20
-471.876520
11
643.183888
21
-490.503220
0
LINE
8
Layer 1
10
643.183888
20
-490.503220
11
644.030554
21
-491.349886
0
LINE
8
Layer 1
10
644.030554
20
-491.349886
11
644.877220
21
-491.914330
0
LINE
8
Layer 1
10
644.877220
20
-491.914330
11
662.657220
21
-503.767630
0
LINE
8
Layer 1
10
662.657220
20
-503.767630
11
680.437220
21
-515.620930
0
LINE
8
Layer 1
10
680.437220
20
-515.620930
11
683.823880
21
-514.492040
0
LINE
8
Layer 1
10
683.823880
20
-514.492040
11
686.928320
21
-513.645374
0
LINE
8
Layer 1
10
686.928320
20
-513.645374
11
669.430520
21
-501.509874
0
LINE
8
Layer 1
10
669.430520
20
-501.509874
11
651.932720
21
-489.656574
0
LINE
8
Layer 1
10
651.932720
20
-489.656574
11
651.932720
21
-487.963244
0
LINE
8
Layer 1
10
651.932720
20
-487.963244
11
651.932720
21
-486.552134
0
LINE
8
Layer 1
10
651.932720
20
-486.552134
11
657.294940
21
-476.109934
0
LINE
8
Layer 1
10
657.294940
20
-476.109934
11
662.939380
21
-465.949934
0
LINE
8
Layer 1
10
662.939380
20
-465.949934
11
667.172710
21
-457.201054
0
LINE
8
Layer 1
10
667.172710
20
-457.201054
11
671.406040
21
-448.452174
0
LINE
8
Layer 1
10
671.406040
20
-448.452174
11
651.086040
21
-440.549954
0
LINE
8
Layer 1
10
651.086040
20
-440.549954
11
630.766040
21
-432.647734
0
LINE
8
Layer 1
10
630.766040
20
-432.647734
11
630.201596
21
-432.083290
0
LINE
8
Layer 1
10
630.201596
20
-432.083290
11
629.354930
21
-431.518846
0
LINE
8
Layer 1
10
629.354930
20
-431.518846
11
633.588260
21
-418.818846
0
LINE
8
Layer 1
10
633.588260
20
-418.818846
11
638.103810
21
-406.118846
0
LINE
8
Layer 1
10
638.103810
20
-406.118846
11
640.079360
21
-388.056646
0
LINE
8
Layer 1
10
640.079360
20
-388.056646
11
642.054910
21
-369.994446
0
LINE
8
Layer 1
10
642.054910
20
-369.994446
11
685.799310
21
-368.583336
0
LINE
8
Layer 1
10
685.799310
20
-368.583336
11
729.543710
21
-367.172226
0
LINE
8
Layer 1
10
729.543710
20
-367.172226
11
729.543710
21
-364.350006
0
LINE
8
Layer 1
10
729.543710
20
-364.350006
11
729.543710
21
-361.527786
0
LINE
8
Layer 1
10
729.543710
20
-361.527786
11
684.670410
21
-360.681120
0
LINE
8
Layer 1
10
684.670410
20
-360.681120
11
639.797110
21
-359.834454
0
LINE
8
Layer 1
10
639.797110
20
-359.834454
11
637.257110
21
-363.503344
0
LINE
8
Layer 1
10
637.257110
20
-363.503344
11
634.999330
21
-367.172234
0
LINE
8
Layer 1
10
634.999330
20
-367.172234
11
634.999330
21
-379.307734
0
LINE
8
Layer 1
10
634.999330
20
-379.307734
11
634.999330
21
-391.443234
0
LINE
8
Layer 1
10
634.999330
20
-391.443234
11
630.483780
21
-409.787634
0
LINE
8
Layer 1
10
630.483780
20
-409.787634
11
625.686010
21
-428.132034
0
LINE
8
Layer 1
10
625.686010
20
-428.132034
11
619.477130
21
-426.720924
0
LINE
8
Layer 1
10
619.477130
20
-426.720924
11
612.986020
21
-425.027594
0
LINE
8
Layer 1
10
612.986020
20
-425.027594
11
599.721620
21
-419.383154
0
LINE
8
Layer 1
10
599.721620
20
-419.383154
11
586.739420
21
-413.738714
0
LINE
8
Layer 1
10
586.739420
20
-413.738714
11
589.561640
21
-408.376494
0
LINE
8
Layer 1
10
589.561640
20
-408.376494
11
592.666080
21
-403.014274
0
LINE
8
Layer 1
10
592.666080
20
-403.014274
11
595.488300
21
-382.694274
0
LINE
8
Layer 1
10
595.488300
20
-382.694274
11
598.310520
21
-362.374274
0
LINE
8
Layer 1
10
598.310520
20
-362.374274
11
595.770520
21
-346.569874
0
LINE
8
Layer 1
10
595.770520
20
-346.569874
11
592.948300
21
-330.483174
0
LINE
8
Layer 1
10
592.948300
20
-330.483174
11
591.254970
21
-321.734294
0
LINE
8
Layer 1
10
591.254970
20
-321.734294
11
589.279420
21
-312.985414
0
LINE
8
Layer 1
10
589.279420
20
-312.985414
11
608.752720
21
-305.083194
0
LINE
8
Layer 1
10
608.752720
20
-305.083194
11
627.943820
21
-296.898754
0
LINE
8
Layer 1
10
627.943820
20
-296.898754
11
628.790486
21
-296.334310
0
LINE
8
Layer 1
10
628.790486
20
-296.334310
11
629.637152
21
-295.769866
0
LINE
8
Layer 1
10
629.637152
20
-295.769866
11
622.863822
21
-281.940966
0
LINE
8
Layer 1
10
622.863822
20
-281.940966
11
615.808272
21
-268.394266
0
LINE
8
Layer 1
10
615.808272
20
-268.394266
11
604.237172
21
-252.872066
0
LINE
8
Layer 1
10
604.237172
20
-252.872066
11
592.666072
21
-237.632066
0
LINE
8
Layer 1
10
592.666072
20
-237.632066
11
592.666072
21
-235.938736
0
LINE
8
Layer 1
10
592.666072
20
-235.938736
11
592.666072
21
-234.527626
0
LINE
8
Layer 1
10
592.666072
20
-234.527626
11
622.017172
21
-205.176526
0
LINE
8
Layer 1
10
622.017172
20
-205.176526
11
651.086072
21
-176.107626
0
LINE
8
Layer 1
10
651.086072
20
-176.107626
11
662.092772
21
-189.372026
0
LINE
8
Layer 1
10
662.092772
20
-189.372026
11
673.099472
21
-202.918726
0
LINE
8
Layer 1
10
673.099472
20
-202.918726
11
678.743912
21
-209.692056
0
LINE
8
Layer 1
10
678.743912
20
-209.692056
11
684.670572
21
-216.747606
0
LINE
8
Layer 1
10
684.670572
20
-216.747606
11
702.168372
21
-204.612106
0
LINE
8
Layer 1
10
702.168372
20
-204.612106
11
719.666172
21
-192.476606
0
LINE
8
Layer 1
10
719.666172
20
-192.476606
11
722.206172
21
-195.298826
0
LINE
8
Layer 1
10
722.206172
20
-195.298826
11
724.746172
21
-197.838826
0
LINE
8
Layer 1
10
724.746172
20
-197.838826
11
736.035072
21
-219.005526
0
LINE
8
Layer 1
10
736.035072
20
-219.005526
11
747.323972
21
-240.172226
0
LINE
8
Layer 1
10
747.323972
20
-240.172226
11
756.072852
21
-266.418826
0
LINE
8
Layer 1
10
756.072852
20
-266.418826
11
764.821732
21
-292.665426
0
LINE
8
Layer 1
10
764.821732
20
-292.665426
11
764.821732
21
-296.334316
0
LINE
8
Layer 1
10
764.821732
20
-296.334316
11
764.821732
21
-300.003206
0
LINE
8
Layer 1
10
764.821732
20
-300.003206
11
725.028432
21
-307.905426
0
LINE
8
Layer 1
10
725.028432
20
-307.905426
11
685.517332
21
-315.807646
0
LINE
8
Layer 1
10
685.517332
20
-315.807646
11
683.259552
21
-313.267646
0
LINE
8
Layer 1
10
683.259552
20
-313.267646
11
681.001772
21
-310.727646
0
LINE
8
Layer 1
10
681.001772
20
-310.727646
11
677.615112
21
-298.309846
0
LINE
8
Layer 1
10
677.615112
20
-298.309846
11
674.228452
21
-286.174346
0
LINE
8
Layer 1
10
674.228452
20
-286.174346
11
672.817342
21
-282.787686
0
LINE
8
Layer 1
10
672.817342
20
-282.787686
11
671.406232
21
-279.118796
0
LINE
8
Layer 1
10
671.406232
20
-279.118796
11
690.032932
21
-271.498806
0
LINE
8
Layer 1
10
690.032932
20
-271.498806
11
708.377332
21
-263.596586
0
LINE
8
Layer 1
10
708.377332
20
-263.596586
11
708.377332
21
-261.056586
0
LINE
8
Layer 1
10
708.377332
20
-261.056586
11
708.377332
21
-258.516586
0
LINE
8
Layer 1
10
708.377332
20
-258.516586
11
706.966222
21
-258.516586
0
LINE
8
Layer 1
10
706.966222
20
-258.516586
11
705.272892
21
-258.516586
0
LINE
8
Layer 1
10
705.272892
20
-258.516586
11
688.621792
21
-265.572136
0
LINE
8
Layer 1
10
688.621792
20
-265.572136
11
671.970692
21
-272.627686
0
LINE
8
Layer 1
10
671.970692
20
-272.627686
11
670.277362
21
-272.627686
0
LINE
8
Layer 1
10
670.277362
20
-272.627686
11
668.866252
21
-272.627686
0
LINE
8
Layer 1
10
668.866252
20
-272.627686
11
662.092922
21
-259.363286
0
LINE
8
Layer 1
10
662.092922
20
-259.363286
11
655.319592
21
-245.816586
0
LINE
8
Layer 1
10
655.319592
20
-245.816586
11
651.086262
21
-240.172146
0
LINE
8
Layer 1
10
651.086262
20
-240.172146
11
646.852932
21
-234.527706
0
LINE
8
Layer 1
10
646.852932
20
-234.527706
11
645.159602
21
-236.221036
0
LINE
8
Layer 1
10
645.159602
20
-236.221036
11
643.748492
21
-237.632146
0
LINE
8
Layer 1
10
643.748492
20
-237.632146
11
654.472892
21
-258.798846
0
LINE
8
Layer 1
10
654.472892
20
-258.798846
11
665.479592
21
-279.683246
0
LINE
8
Layer 1
10
665.479592
20
-279.683246
11
671.970702
21
-300.849946
0
LINE
8
Layer 1
10
671.970702
20
-300.849946
11
678.179582
21
-322.016646
0
LINE
8
Layer 1
10
678.179582
20
-322.016646
11
678.744026
21
-322.581090
0
LINE
8
Layer 1
10
678.744026
20
-322.581090
11
679.308470
21
-323.427756
0
LINE
8
Layer 1
10
679.308470
20
-323.427756
11
722.206170
21
-314.678876
0
LINE
8
Layer 1
10
722.206170
20
-314.678876
11
765.386170
21
-305.929996
0
LINE
8
Layer 1
10
765.386170
20
-305.929996
11
766.515060
21
-307.341106
0
LINE
8
Layer 1
10
766.515060
20
-307.341106
11
767.643950
21
-308.469996
0
LINE
8
Layer 1
10
767.643950
20
-308.469996
11
769.901730
21
-330.765496
0
LINE
8
Layer 1
10
769.901730
20
-330.765496
11
771.877280
21
-353.060996
0
LINE
8
Layer 1
10
771.877280
20
-353.060996
11
770.183950
21
-386.363196
0
LINE
8
Layer 1
10
770.183950
20
-386.363196
11
768.490620
21
-419.665396
0
LINE
8
Layer 1
10
768.490620
20
-419.665396
11
767.079510
21
-420.794286
0
LINE
8
Layer 1
10
767.079510
20
-420.794286
11
765.668400
21
-422.205396
0
LINE
8
Layer 1
10
765.668400
20
-422.205396
11
723.899500
21
-413.738736
0
LINE
8
Layer 1
10
723.899500
20
-413.738736
11
682.130600
21
-405.272076
0
LINE
8
Layer 1
10
682.130600
20
-405.272076
11
680.719490
21
-406.683186
0
LINE
8
Layer 1
10
680.719490
20
-406.683186
11
679.308380
21
-408.094296
0
LINE
8
Layer 1
10
679.308380
20
-408.094296
11
680.719490
21
-409.505406
0
LINE
8
Layer 1
10
680.719490
20
-409.505406
11
682.130600
21
-410.916516
0
LINE
8
Layer 1
10
682.130600
20
-410.916516
11
700.192800
21
-414.585406
0
LINE
8
Layer 1
10
700.192800
20
-414.585406
11
718.255000
21
-418.254296
0
LINE
8
Layer 1
10
718.255000
20
-418.254296
11
719.101666
21
-422.769846
0
LINE
8
Layer 1
10
719.101666
20
-422.769846
11
719.948332
21
-427.567616
0
LINE
8
Layer 1
10
719.948332
20
-427.567616
11
712.892782
21
-447.887616
0
LINE
8
Layer 1
10
712.892782
20
-447.887616
11
705.837232
21
-468.489816
0
LINE
8
Layer 1
10
705.837232
20
-468.489816
11
706.966122
21
-469.618706
0
LINE
8
Layer 1
10
706.966122
20
-469.618706
11
708.095012
21
-470.747596
0
LINE
8
Layer 1
10
708.095012
20
-470.747596
11
710.635012
21
-469.054266
0
LINE
8
Layer 1
10
710.635012
20
-469.054266
11
713.175012
21
-467.643156
0
LINE
8
Layer 1
10
713.175012
20
-467.643156
11
719.666122
21
-445.629856
0
LINE
8
Layer 1
10
719.666122
20
-445.629856
11
726.157232
21
-423.616556
0
LINE
8
Layer 1
10
726.157232
20
-423.616556
11
727.003898
21
-421.923226
0
LINE
8
Layer 1
10
727.003898
20
-421.923226
11
728.132788
21
-420.229896
0
LINE
8
Layer 1
10
728.132788
20
-420.229896
11
748.170588
21
-424.181006
0
LINE
8
Layer 1
10
748.170588
20
-424.181006
11
768.208388
21
-428.414336
0
LINE
8
Layer 1
10
768.208388
20
-428.414336
11
770.748388
21
-425.874336
0
LINE
8
Layer 1
10
770.748388
20
-425.874336
11
773.006168
21
-423.616556
0
LINE
8
Layer 1
10
773.006168
20
-423.616556
11
776.110608
21
-393.983256
0
LINE
8
Layer 1
10
776.110608
20
-393.983256
11
778.932828
21
-364.067756
0
LINE
8
Layer 1
10
778.932828
20
-364.067756
11
776.110608
21
-335.281156
0
LINE
8
Layer 1
10
776.110608
20
-335.281156
11
773.006168
21
-306.776756
0
LINE
8
Layer 1
10
773.006168
20
-306.776756
11
767.643948
21
-285.610056
0
LINE
8
Layer 1
10
767.643948
20
-285.610056
11
762.281728
21
-264.443356
0
LINE
8
Layer 1
10
762.281728
20
-264.443356
11
754.661738
21
-245.252256
0
LINE
8
Layer 1
10
754.661738
20
-245.252256
11
747.041748
21
-226.061156
0
LINE
8
Layer 1
10
747.041748
20
-226.061156
11
735.752848
21
-206.305656
0
LINE
8
Layer 1
10
735.752848
20
-206.305656
11
724.463948
21
-186.550156
0
LINE
8
Layer 1
10
724.463948
20
-186.550156
11
711.481748
21
-170.181256
0
LINE
8
Layer 1
10
711.481748
20
-170.181256
11
698.499548
21
-153.530156
0
LINE
8
Layer 1
10
698.499548
20
-153.530156
11
692.855108
21
-146.756826
0
LINE
8
Layer 1
10
692.855108
20
-146.756826
11
687.492888
21
-139.983496
0
LINE
8
Layer 1
10
687.492888
20
-139.983496
11
716.843988
21
-110.067996
0
LINE
8
Layer 1
10
716.843988
20
-110.067996
11
746.477288
21
-80.434696
0
LINE
8
Layer 1
10
746.477288
20
-80.434696
11
759.741688
21
-95.392496
0
LINE
8
Layer 1
10
759.741688
20
-95.392496
11
773.288388
21
-110.350296
0
LINE
8
Layer 1
10
773.288388
20
-110.350296
11
783.730588
21
-125.308096
0
LINE
8
Layer 1
10
783.730588
20
-125.308096
11
793.890588
21
-139.983596
0
LINE
8
Layer 1
10
793.890588
20
-139.983596
11
797.841698
21
-139.983596
0
LINE
8
Layer 1
10
797.841698
20
-139.983596
11
801.792808
21
-139.983596
0
LINE
8
Layer 1
10
801.792808
20
-139.983596
11
792.479478
21
-127.001396
0
LINE
8
Layer 1
10
792.479478
20
-127.001396
11
783.166148
21
-113.736996
0
LINE
8
Layer 1
10
783.166148
20
-113.736996
11
763.128348
21
-90.876996
0
LINE
8
Layer 1
10
763.128348
20
-90.876996
11
743.090548
21
-67.734796
0
LINE
8
Layer 1
10
743.090548
20
-67.734796
11
717.972748
21
-47.696996
0
LINE
8
Layer 1
10
717.972748
20
-47.696996
11
692.854948
21
-27.941496
0
LINE
8
Layer 1
10
692.854948
20
-27.941496
11
676.203848
21
-17.217096
0
LINE
8
Layer 1
10
676.203848
20
-17.217096
11
659.270548
21
-6.492696
0
LINE
8
Layer 1
10
659.270548
20
-6.492696
11
636.692748
21
4.231704
0
LINE
8
Layer 1
10
636.692748
20
4.231704
11
613.832748
21
14.956104
0
LINE
8
Layer 1
10
613.832748
20
14.956104
11
594.641648
21
21.729434
0
LINE
8
Layer 1
10
594.641648
20
21.729434
11
575.732748
21
28.784984
0
LINE
8
Layer 1
10
575.732748
20
28.784984
11
574.321638
21
26.527204
0
LINE
8
Layer 1
10
574.321638
20
26.527204
11
572.910528
21
23.987204
0
LINE
8
Layer 1
10
572.910528
20
23.987204
11
574.886078
21
22.858314
0
LINE
8
Layer 1
10
574.886078
20
22.858314
11
577.143858
21
21.729424
0
LINE
8
Layer 1
10
577.143858
20
21.729424
11
591.819358
21
16.931654
0
LINE
8
Layer 1
10
591.819358
20
16.931654
11
606.777158
21
11.851654
0
LINE
8
Layer 1
10
606.777158
20
11.851654
11
608.188268
21
9.593874
0
LINE
8
Layer 1
10
608.188268
20
9.593874
11
609.599378
21
7.336094
0
LINE
8
Layer 1
10
609.599378
20
7.336094
11
605.083828
21
-3.388306
0
LINE
8
Layer 1
10
605.083828
20
-3.388306
11
600.568278
21
-14.395006
0
LINE
8
Layer 1
10
600.568278
20
-14.395006
11
595.488278
21
-25.683906
0
LINE
8
Layer 1
10
595.488278
20
-25.683906
11
590.690508
21
-36.972806
0
LINE
8
Layer 1
10
590.690508
20
-36.972806
11
585.610508
21
-50.519506
0
LINE
8
Layer 1
10
585.610508
20
-50.519506
11
580.530508
21
-64.066206
0
LINE
8
Layer 1
10
580.530508
20
-64.066206
11
578.272728
21
-65.477316
0
LINE
8
Layer 1
10
578.272728
20
-65.477316
11
575.732728
21
-66.888426
0
LINE
8
Layer 1
10
575.732728
20
-66.888426
11
554.001628
21
-59.832876
0
LINE
8
Layer 1
10
554.001628
20
-59.832876
11
531.988328
21
-53.059546
0
LINE
8
Layer 1
10
531.988328
20
-53.059546
11
526.061668
21
-52.212880
0
LINE
8
Layer 1
10
526.061668
20
-52.212880
11
520.135008
21
-51.083990
0
LINE
8
Layer 1
10
520.135008
20
-51.083990
11
519.570564
21
-53.906210
0
LINE
8
Layer 1
10
519.570564
20
-53.906210
11
519.006120
21
-56.446210
0
LINE
8
Layer 1
10
519.006120
20
-56.446210
11
541.019420
21
-62.655090
0
LINE
8
Layer 1
10
541.019420
20
-62.655090
11
563.032720
21
-68.581750
0
LINE
8
Layer 1
10
563.032720
20
-68.581750
11
571.217160
21
-71.968410
0
LINE
8
Layer 1
10
571.217160
20
-71.968410
11
579.401600
21
-75.355070
0
LINE
8
Layer 1
10
579.401600
20
-75.355070
11
581.659380
21
-73.097290
0
LINE
8
Layer 1
10
581.659380
20
-73.097290
11
583.634930
21
-70.839510
0
LINE
8
Layer 1
10
583.634930
20
-70.839510
11
590.690480
21
-53.906210
0
LINE
8
Layer 1
10
590.690480
20
-53.906210
11
597.463810
21
-36.972910
0
LINE
8
Layer 1
10
597.463810
20
-36.972910
11
604.237140
21
-37.819576
0
LINE
8
Layer 1
10
604.237140
20
-37.819576
11
611.010470
21
-38.666242
0
LINE
8
Layer 1
10
611.010470
20
-38.666242
11
635.845970
21
-52.777342
0
LINE
8
Layer 1
10
635.845970
20
-52.777342
11
660.681470
21
-67.170642
0
LINE
8
Layer 1
10
660.681470
20
-67.170642
11
662.374800
21
-65.477312
0
LINE
8
Layer 1
10
662.374800
20
-65.477312
11
664.350350
21
-63.783982
0
LINE
8
Layer 1
10
664.350350
20
-63.783982
11
658.705910
21
-59.832872
0
LINE
8
Layer 1
10
658.705910
20
-59.832872
11
653.343690
21
-55.599542
0
LINE
8
Layer 1
10
653.343690
20
-55.599542
11
627.943690
21
-42.335142
0
LINE
8
Layer 1
10
627.943690
20
-42.335142
11
602.543690
21
-29.070742
0
LINE
8
Layer 1
10
602.543690
20
-29.070742
11
601.697024
21
-28.506298
0
LINE
8
Layer 1
10
601.697024
20
-28.506298
11
601.132580
21
-27.941854
0
LINE
8
Layer 1
10
601.132580
20
-27.941854
11
607.341460
21
-12.701854
0
LINE
8
Layer 1
10
607.341460
20
-12.701854
11
613.268120
21
2.538146
0
LINE
8
Layer 1
10
613.268120
20
2.538146
11
615.525900
21
4.795926
0
LINE
8
Layer 1
10
615.525900
20
4.795926
11
617.501450
21
7.335926
0
LINE
8
Layer 1
10
617.501450
20
7.335926
11
640.643650
21
-4.235174
0
LINE
8
Layer 1
10
640.643650
20
-4.235174
11
663.785850
21
-16.088474
0
LINE
8
Layer 1
10
663.785850
20
-16.088474
11
684.388050
21
-29.917374
0
LINE
8
Layer 1
10
684.388050
20
-29.917374
11
704.990250
21
-43.746274
0
LINE
8
Layer 1
10
704.990250
20
-43.746274
11
723.899150
21
-59.832974
0
LINE
8
Layer 1
10
723.899150
20
-59.832974
11
742.808050
21
-75.919674
0
LINE
8
Layer 1
10
742.808050
20
-75.919674
11
713.739150
21
-104.988574
0
LINE
8
Layer 1
10
713.739150
20
-104.988574
11
684.388050
21
-134.339674
0
LINE
8
Layer 1
10
684.388050
20
-134.339674
11
682.976940
21
-134.339674
0
LINE
8
Layer 1
10
682.976940
20
-134.339674
11
681.565830
21
-134.339674
0
LINE
8
Layer 1
10
681.565830
20
-134.339674
11
658.988030
21
-115.995274
0
LINE
8
Layer 1
10
658.988030
20
-115.995274
11
636.410230
21
-97.933074
0
LINE
8
Layer 1
10
636.410230
20
-97.933074
11
634.716900
21
-97.650852
0
LINE
8
Layer 1
10
634.716900
20
-97.650852
11
632.741350
21
-97.650852
0
LINE
8
Layer 1
10
632.741350
20
-97.650852
11
620.888050
21
-115.995252
0
LINE
8
Layer 1
10
620.888050
20
-115.995252
11
609.034750
21
-134.339652
0
LINE
8
Layer 1
10
609.034750
20
-134.339652
11
594.359250
21
-126.155212
0
LINE
8
Layer 1
10
594.359250
20
-126.155212
11
579.965950
21
-117.970772
0
LINE
8
Layer 1
10
579.965950
20
-117.970772
11
558.517050
21
-109.504112
0
LINE
8
Layer 1
10
558.517050
20
-109.504112
11
537.068150
21
-100.755232
0
LINE
8
Layer 1
10
537.068150
20
-100.755232
11
516.183750
21
-96.804122
0
LINE
8
Layer 1
10
516.183750
20
-96.804122
11
495.299350
21
-92.570792
0
LINE
8
Layer 1
10
495.299350
20
-92.570792
11
479.212650
21
-90.595242
0
LINE
8
Layer 1
10
479.212650
20
-90.595242
11
462.843750
21
-88.901912
0
LINE
8
Layer 1
10
462.843750
20
-88.901912
11
462.843750
21
-47.979712
0
LINE
8
Layer 1
10
462.843750
20
-47.979712
11
462.843750
21
-7.339712
0
LINE
8
Layer 1
10
462.843750
20
-7.339712
11
480.623750
21
-7.339712
0
LINE
8
Layer 1
10
480.623750
20
-7.339712
11
498.403750
21
-7.339712
0
LINE
8
Layer 1
10
498.403750
20
-7.339712
11
514.772650
21
-10.444152
0
LINE
8
Layer 1
10
514.772650
20
-10.444152
11
531.141550
21
-13.266372
0
LINE
8
Layer 1
10
531.141550
20
-13.266372
11
532.834880
21
-11.855262
0
LINE
8
Layer 1
10
532.834880
20
-11.855262
11
534.245990
21
-10.161932
0
LINE
8
Layer 1
10
534.245990
20
-10.161932
11
532.552660
21
-8.468602
0
LINE
8
Layer 1
10
532.552660
20
-8.468602
11
531.141550
21
-6.775272
0
LINE
8
Layer 1
10
531.141550
20
-6.775272
11
508.846050
21
-4.235272
0
LINE
8
Layer 1
10
508.846050
20
-4.235272
11
486.832750
21
-1.413052
0
LINE
8
Layer 1
10
486.832750
20
-1.413052
11
474.979450
21
-0.001942
0
LINE
8
Layer 1
10
474.979450
20
-0.001942
11
462.843950
21
1.409168
0
LINE
8
Layer 1
10
462.843950
20
1.409168
11
462.843950
21
43.460268
0
LINE
8
Layer 1
10
462.843950
20
43.460268
11
462.843950
21
85.511368
0
LINE
8
Layer 1
10
462.843950
20
85.511368
11
470.746170
21
84.382478
0
LINE
8
Layer 1
10
470.746170
20
84.382478
11
478.366160
21
83.253588
0
LINE
8
Layer 1
10
478.366160
20
83.253588
11
503.766160
21
81.560258
0
LINE
8
Layer 1
10
503.766160
20
81.560258
11
529.166160
21
80.149148
0
LINE
8
Layer 1
10
529.166160
20
80.149148
11
535.657270
21
78.455818
0
LINE
8
Layer 1
10
535.657270
20
78.455818
11
541.866150
21
76.762488
0
LINE
8
Layer 1
10
541.866150
20
76.762488
11
541.866150
21
71.400268
0
LINE
8
Layer 1
10
541.866150
20
71.400268
11
541.866150
21
66.320268
0
LINE
8
Layer 1
10
541.866150
20
66.320268
11
538.761710
21
51.926968
0
LINE
8
Layer 1
10
538.761710
20
51.926968
11
535.657270
21
37.533668
0
LINE
8
Layer 1
10
535.657270
20
37.533668
11
528.319500
21
38.944778
0
LINE
8
Layer 1
10
528.319500
20
38.944778
11
520.699510
21
40.355888
0
LINE
8
Layer 1
10
520.699510
20
40.355888
11
508.846210
21
42.049218
0
LINE
8
Layer 1
10
508.846210
20
42.049218
11
496.710710
21
44.024768
0
LINE
8
Layer 1
10
496.710710
20
44.024768
11
496.710710
21
41.202548
0
LINE
8
Layer 1
10
496.710710
20
41.202548
11
496.710710
21
38.380328
0
LINE
8
Layer 1
10
496.710710
20
38.380328
11
503.201820
21
36.969218
0
LINE
8
Layer 1
10
503.201820
20
36.969218
11
509.410700
21
35.275888
0
LINE
8
Layer 1
10
509.410700
20
35.275888
11
525.215100
21
33.582558
0
LINE
8
Layer 1
10
525.215100
20
33.582558
11
541.019500
21
31.607008
0
LINE
8
Layer 1
10
541.019500
20
31.607008
11
544.688390
21
53.055908
0
LINE
8
Layer 1
10
544.688390
20
53.055908
11
548.357280
21
74.504808
0
LINE
8
Layer 1
10
548.357280
20
74.504808
11
551.461720
21
74.504808
0
LINE
8
Layer 1
10
551.461720
20
74.504808
11
554.566160
21
74.504808
0
LINE
8
Layer 1
10
554.566160
20
74.504808
11
574.321660
21
69.142588
0
LINE
8
Layer 1
10
574.321660
20
69.142588
11
594.077160
21
64.062588
0
LINE
8
Layer 1
10
594.077160
20
64.062588
11
614.397160
21
56.724818
0
LINE
8
Layer 1
10
614.397160
20
56.724818
11
634.717160
21
49.387048
0
LINE
8
Layer 1
10
634.717160
20
49.387048
11
655.319360
21
38.944848
0
LINE
8
Layer 1
10
655.319360
20
38.944848
11
675.921560
21
28.784848
0
LINE
8
Layer 1
10
675.921560
20
28.784848
11
692.854860
21
18.624848
0
LINE
8
Layer 1
10
692.854860
20
18.624848
11
709.788160
21
8.464848
0
LINE
8
Layer 1
10
709.788160
20
8.464848
11
731.237060
21
-7.621852
0
LINE
8
Layer 1
10
731.237060
20
-7.621852
11
752.685960
21
-23.708552
0
LINE
8
Layer 1
10
752.685960
20
-23.708552
11
778.650360
21
-50.237452
0
LINE
8
Layer 1
10
778.650360
20
-50.237452
11
804.614760
21
-76.484052
0
LINE
8
Layer 1
10
804.614760
20
-76.484052
11
822.676960
21
-101.884052
0
LINE
8
Layer 1
10
822.676960
20
-101.884052
11
840.739160
21
-127.284052
0
LINE
8
Layer 1
10
840.739160
20
-127.284052
11
856.543560
21
-157.199552
0
LINE
8
Layer 1
10
856.543560
20
-157.199552
11
872.065760
21
-187.397352
0
LINE
8
Layer 1
10
872.065760
20
-187.397352
11
872.065760
21
-188.808462
0
LINE
8
Layer 1
10
872.065760
20
-188.808462
11
872.065760
21
-190.219572
0
LINE
8
Layer 1
10
872.065760
20
-190.219572
11
864.445770
21
-193.041792
0
LINE
8
Layer 1
10
864.445770
20
-193.041792
11
856.543550
21
-195.864012
0
LINE
8
Layer 1
10
856.543550
20
-195.864012
11
846.101350
21
-200.379562
0
LINE
8
Layer 1
10
846.101350
20
-200.379562
11
835.941350
21
-204.895112
0
LINE
8
Layer 1
10
835.941350
20
-204.895112
11
826.628020
21
-185.704012
0
LINE
8
Layer 1
10
826.628020
20
-185.704012
11
817.596920
21
-166.795112
0
LINE
8
Layer 1
10
817.596920
20
-166.795112
11
816.468030
21
-171.592882
0
LINE
8
Layer 1
10
816.468030
20
-171.592882
11
815.339140
21
-176.108432
0
LINE
8
Layer 1
10
815.339140
20
-176.108432
11
822.676910
21
-190.783932
0
LINE
8
Layer 1
10
822.676910
20
-190.783932
11
830.014680
21
-205.459432
0
LINE
8
Layer 1
10
830.014680
20
-205.459432
11
829.168014
21
-206.588322
0
LINE
8
Layer 1
10
829.168014
20
-206.588322
11
828.039124
21
-207.434988
0
LINE
8
Layer 1
10
828.039124
20
-207.434988
11
811.670224
21
-214.772758
0
LINE
8
Layer 1
10
811.670224
20
-214.772758
11
795.301324
21
-222.110528
0
LINE
8
Layer 1
10
795.301324
20
-222.110528
11
794.454658
21
-221.263862
0
LINE
8
Layer 1
10
794.454658
20
-221.263862
11
793.890214
21
-220.417196
0
LINE
8
Layer 1
10
793.890214
20
-220.417196
11
780.625814
21
-195.017196
0
LINE
8
Layer 1
10
780.625814
20
-195.017196
11
767.361414
21
-169.617196
0
LINE
8
Layer 1
10
767.361414
20
-169.617196
11
763.128084
21
-164.254976
0
LINE
8
Layer 1
10
763.128084
20
-164.254976
11
759.176974
21
-158.610536
0
LINE
8
Layer 1
10
759.176974
20
-158.610536
11
757.483644
21
-160.586086
0
LINE
8
Layer 1
10
757.483644
20
-160.586086
11
755.790314
21
-162.279416
0
LINE
8
Layer 1
10
755.790314
20
-162.279416
11
769.901414
21
-187.114916
0
LINE
8
Layer 1
10
769.901414
20
-187.114916
11
784.012514
21
-211.950416
0
LINE
8
Layer 1
10
784.012514
20
-211.950416
11
791.632504
21
-231.423716
0
LINE
8
Layer 1
10
791.632504
20
-231.423716
11
799.252494
21
-251.179216
0
LINE
8
Layer 1
10
799.252494
20
-251.179216
11
806.308044
21
-277.990316
0
LINE
8
Layer 1
10
806.308044
20
-277.990316
11
813.363594
21
-305.083616
0
LINE
8
Layer 1
10
813.363594
20
-305.083616
11
814.774704
21
-333.870216
0
LINE
8
Layer 1
10
814.774704
20
-333.870216
11
816.468034
21
-362.939116
0
LINE
8
Layer 1
10
816.468034
20
-362.939116
11
820.136924
21
-365.761336
0
LINE
8
Layer 1
10
820.136924
20
-365.761336
11
823.523584
21
-368.865776
0
LINE
8
Layer 1
10
823.523584
20
-368.865776
11
844.407984
21
-368.019110
0
LINE
8
Layer 1
10
844.407984
20
-368.019110
11
865.010184
21
-367.172444
0
LINE
8
Layer 1
10
865.010184
20
-367.172444
11
864.445740
21
-364.350224
0
LINE
8
Layer 1
10
864.445740
20
-364.350224
11
863.599074
21
-361.528004
0
LINE
8
Layer 1
10
863.599074
20
-361.528004
11
844.690174
21
-360.681338
0
LINE
8
Layer 1
10
844.690174
20
-360.681338
11
825.781274
21
-359.834672
0
LINE
8
Layer 1
10
825.781274
20
-359.834672
11
823.523494
21
-356.448012
0
LINE
8
Layer 1
10
823.523494
20
-356.448012
11
821.265714
21
-353.061352
0
LINE
8
Layer 1
10
821.265714
20
-353.061352
11
821.265714
21
-338.950252
0
LINE
8
Layer 1
10
821.265714
20
-338.950252
11
821.265714
21
-324.839152
0
LINE
8
Layer 1
10
821.265714
20
-324.839152
11
816.750164
21
-299.721352
0
LINE
8
Layer 1
10
816.750164
20
-299.721352
11
812.516834
21
-274.885852
0
LINE
8
Layer 1
10
812.516834
20
-274.885852
11
805.743504
21
-253.154752
0
LINE
8
Layer 1
10
805.743504
20
-253.154752
11
798.970174
21
-231.705852
0
LINE
8
Layer 1
10
798.970174
20
-231.705852
11
798.687952
21
-229.165852
0
LINE
8
Layer 1
10
798.687952
20
-229.165852
11
798.405730
21
-226.343632
0
LINE
8
Layer 1
10
798.405730
20
-226.343632
11
831.707930
21
-212.514732
0
LINE
8
Layer 1
10
831.707930
20
-212.514732
11
865.010130
21
-198.685832
0
LINE
8
Layer 1
10
865.010130
20
-198.685832
11
870.372350
21
-198.121388
0
LINE
8
Layer 1
10
870.372350
20
-198.121388
11
875.734570
21
-197.839166
0
LINE
8
Layer 1
10
875.734570
20
-197.839166
11
883.919010
21
-221.828066
0
LINE
8
Layer 1
10
883.919010
20
-221.828066
11
892.385670
21
-245.816966
0
LINE
8
Layer 1
10
892.385670
20
-245.816966
11
897.465670
21
-271.216966
0
LINE
8
Layer 1
10
897.465670
20
-271.216966
11
902.545670
21
-296.616966
0
LINE
8
Layer 1
10
902.545670
20
-296.616966
11
903.956780
21
-307.341366
0
LINE
8
Layer 1
10
903.956780
20
-307.341366
11
905.650110
21
-317.783566
0
LINE
8
Layer 1
10
905.650110
20
-317.783566
11
899.159000
21
-317.783566
0
LINE
8
Layer 1
10
899.159000
20
-317.783566
11
892.667890
21
-317.783566
0
LINE
8
Layer 1
10
892.667890
20
-317.783566
11
879.685690
21
-319.476896
0
LINE
8
Layer 1
10
879.685690
20
-319.476896
11
866.703490
21
-321.452446
0
LINE
8
Layer 1
10
866.703490
20
-321.452446
11
865.292380
21
-314.679116
0
LINE
8
Layer 1
10
865.292380
20
-314.679116
11
863.881270
21
-307.905786
0
LINE
8
Layer 1
10
863.881270
20
-307.905786
11
859.647940
21
-285.327986
0
LINE
8
Layer 1
10
859.647940
20
-285.327986
11
855.132390
21
-262.750186
0
LINE
8
Layer 1
10
855.132390
20
-262.750186
11
852.310170
21
-252.025786
0
LINE
8
Layer 1
10
852.310170
20
-252.025786
11
849.205730
21
-241.301386
0
LINE
8
Layer 1
10
849.205730
20
-241.301386
11
846.665730
21
-242.994716
0
LINE
8
Layer 1
10
846.665730
20
-242.994716
11
844.407950
21
-244.405826
0
LINE
8
Layer 1
10
844.407950
20
-244.405826
11
848.359060
21
-259.363626
0
LINE
8
Layer 1
10
848.359060
20
-259.363626
11
852.310170
21
-274.039126
0
LINE
8
Layer 1
10
852.310170
20
-274.039126
11
855.132390
21
-290.972426
0
LINE
8
Layer 1
10
855.132390
20
-290.972426
11
857.954610
21
-307.905726
0
LINE
8
Layer 1
10
857.954610
20
-307.905726
11
859.647940
21
-317.501276
0
LINE
8
Layer 1
10
859.647940
20
-317.501276
11
861.059050
21
-326.814606
0
LINE
8
Layer 1
10
861.059050
20
-326.814606
11
883.636850
21
-325.121276
0
LINE
8
Layer 1
10
883.636850
20
-325.121276
11
905.932350
21
-323.145726
0
LINE
8
Layer 1
10
905.932350
20
-323.145726
11
906.496794
21
-340.925726
0
LINE
8
Layer 1
10
906.496794
20
-340.925726
11
907.061238
21
-358.705726
0
LINE
8
Layer 1
10
907.061238
20
-358.705726
11
906.214572
21
-384.105726
0
LINE
8
Layer 1
10
906.214572
20
-384.105726
11
905.367906
21
-409.505726
0
LINE
8
Layer 1
10
905.367906
20
-409.505726
11
902.827906
21
-427.850126
0
LINE
8
Layer 1
10
902.827906
20
-427.850126
11
900.287906
21
-446.194526
0
LINE
8
Layer 1
10
900.287906
20
-446.194526
11
895.772356
21
-465.950026
0
LINE
8
Layer 1
10
895.772356
20
-465.950026
11
890.974586
21
-485.705526
0
LINE
8
Layer 1
10
890.974586
20
-485.705526
11
888.999036
21
-487.963306
0
LINE
8
Layer 1
10
888.999036
20
-487.963306
11
886.741256
21
-490.503306
0
LINE
8
Layer 1
10
886.741256
20
-490.503306
11
869.525756
21
-485.705536
0
LINE
8
Layer 1
10
869.525756
20
-485.705536
11
852.310256
21
-480.625536
0
LINE
8
Layer 1
10
852.310256
20
-480.625536
11
852.310256
21
-477.521096
0
LINE
8
Layer 1
10
852.310256
20
-477.521096
11
852.310256
21
-474.416656
0
LINE
8
Layer 1
10
852.310256
20
-474.416656
11
855.132476
21
-464.538886
0
LINE
8
Layer 1
10
855.132476
20
-464.538886
11
857.954696
21
-454.661116
0
LINE
8
Layer 1
10
857.954696
20
-454.661116
11
862.470246
21
-428.132216
0
LINE
8
Layer 1
10
862.470246
20
-428.132216
11
866.703576
21
-401.885616
0
LINE
8
Layer 1
10
866.703576
20
-401.885616
11
865.010246
21
-400.192286
0
LINE
8
Layer 1
10
865.010246
20
-400.192286
11
863.599136
21
-398.781176
0
LINE
8
Layer 1
10
863.599136
20
-398.781176
11
862.470246
21
-399.910066
0
LINE
8
Layer 1
10
862.470246
20
-399.910066
11
861.059136
21
-401.038956
0
LINE
8
Layer 1
10
861.059136
20
-401.038956
11
856.825806
21
-428.414456
0
LINE
8
Layer 1
10
856.825806
20
-428.414456
11
852.310256
21
-455.507756
0
LINE
8
Layer 1
10
852.310256
20
-455.507756
11
850.052476
21
-461.998866
0
LINE
8
Layer 1
10
850.052476
20
-461.998866
11
847.512476
21
-468.772196
0
LINE
8
Layer 1
10
847.512476
20
-468.772196
11
845.536926
21
-476.392186
0
LINE
8
Layer 1
10
845.536926
20
-476.392186
11
843.843596
21
-483.729956
0
LINE
8
Layer 1
10
843.843596
20
-483.729956
11
865.010296
21
-490.221066
0
LINE
8
Layer 1
10
865.010296
20
-490.221066
11
886.176996
21
-496.429946
0
LINE
8
Layer 1
10
886.176996
20
-496.429946
11
886.176996
21
-498.969946
0
LINE
8
Layer 1
10
886.176996
20
-498.969946
11
886.176996
21
-501.509946
0
LINE
8
Layer 1
10
886.176996
20
-501.509946
11
876.581446
21
-526.345446
0
LINE
8
Layer 1
10
876.581446
20
-526.345446
11
866.985896
21
-551.463246
0
LINE
8
Layer 1
10
866.985896
20
-551.463246
11
862.188126
21
-561.058796
0
LINE
8
Layer 1
10
862.188126
20
-561.058796
11
857.108126
21
-570.372126
0
LINE
8
Layer 1
10
857.108126
20
-570.372126
11
856.543682
21
-571.218792
0
LINE
8
Layer 1
10
856.543682
20
-571.218792
11
855.697016
21
-572.065458
0
LINE
8
Layer 1
10
855.697016
20
-572.065458
11
838.199216
21
-563.316578
0
LINE
8
Layer 1
10
838.199216
20
-563.316578
11
820.701416
21
-554.567698
0
LINE
8
Layer 1
10
820.701416
20
-554.567698
11
817.596976
21
-555.696588
0
LINE
8
Layer 1
10
817.596976
20
-555.696588
11
814.210316
21
-556.825478
0
LINE
8
Layer 1
10
814.210316
20
-556.825478
11
833.401416
21
-567.267678
0
LINE
8
Layer 1
10
833.401416
20
-567.267678
11
852.310316
21
-577.992078
0
LINE
8
Layer 1
10
852.310316
20
-577.992078
11
852.310316
21
-579.120968
0
LINE
8
Layer 1
10
852.310316
20
-579.120968
11
852.310316
21
-580.249858
0
LINE
8
Layer 1
10
852.310316
20
-580.249858
11
843.279216
21
-594.925358
0
LINE
8
Layer 1
10
843.279216
20
-594.925358
11
834.248116
21
-609.883158
0
LINE
8
Layer 1
10
834.248116
20
-609.883158
11
823.241416
21
-625.405358
0
LINE
8
Layer 1
10
823.241416
20
-625.405358
11
811.952516
21
-640.927558
0
LINE
8
Layer 1
10
811.952516
20
-640.927558
11
809.694736
21
-643.467558
0
LINE
8
Layer 1
10
809.694736
20
-643.467558
11
807.436956
21
-646.007558
0
LINE
8
Layer 1
10
807.436956
20
-646.007558
11
793.890256
21
-635.283158
0
LINE
8
Layer 1
10
793.890256
20
-635.283158
11
780.343556
21
-624.276458
0
LINE
8
Layer 1
10
780.343556
20
-624.276458
11
776.956896
21
-621.736458
0
LINE
8
Layer 1
10
776.956896
20
-621.736458
11
773.288006
21
-619.196458
0
LINE
8
Layer 1
10
773.288006
20
-619.196458
11
773.288006
21
-622.865348
0
LINE
8
Layer 1
10
773.288006
20
-622.865348
11
773.570228
21
-626.816458
0
LINE
8
Layer 1
10
773.570228
20
-626.816458
11
787.399128
21
-637.540858
0
LINE
8
Layer 1
10
787.399128
20
-637.540858
11
801.510228
21
-648.265258
0
LINE
8
Layer 1
10
801.510228
20
-648.265258
11
801.510228
21
-651.369698
0
LINE
8
Layer 1
10
801.510228
20
-651.369698
11
801.510228
21
-654.191918
0
LINE
8
Layer 1
10
801.510228
20
-654.191918
11
778.368028
21
-678.180818
0
LINE
8
Layer 1
10
778.368028
20
-678.180818
11
754.943628
21
-702.169718
0
LINE
8
Layer 1
10
754.943628
20
-702.169718
11
749.863628
21
-704.709718
0
LINE
8
Layer 1
10
749.863628
20
-704.709718
11
745.065858
21
-707.531938
0
LINE
8
Layer 1
10
745.065858
20
-707.531938
11
737.163638
21
-698.500838
0
LINE
8
Layer 1
10
737.163638
20
-698.500838
11
729.543648
21
-689.469738
0
LINE
8
Layer 1
10
729.543648
20
-689.469738
11
725.592538
21
-683.825298
0
LINE
8
Layer 1
10
725.592538
20
-683.825298
11
721.359208
21
-678.180858
0
LINE
8
Layer 1
10
721.359208
20
-678.180858
11
735.752508
21
-664.916458
0
LINE
8
Layer 1
10
735.752508
20
-664.916458
11
750.145808
21
-651.652058
0
LINE
8
Layer 1
10
750.145808
20
-651.652058
11
717.972508
21
-619.478758
0
LINE
8
Layer 1
10
717.972508
20
-619.478758
11
685.799208
21
-587.587658
0
LINE
8
Layer 1
10
685.799208
20
-587.587658
11
695.394758
21
-577.427658
0
LINE
8
Layer 1
10
695.394758
20
-577.427658
11
704.708088
21
-567.549888
0
LINE
8
Layer 1
10
704.708088
20
-567.549888
11
716.279188
21
-552.027688
0
LINE
8
Layer 1
10
716.279188
20
-552.027688
11
727.568088
21
-536.505488
0
LINE
8
Layer 1
10
727.568088
20
-536.505488
11
739.703588
21
-513.927688
0
LINE
8
Layer 1
10
739.703588
20
-513.927688
11
751.556888
21
-491.349888
0
LINE
8
Layer 1
10
751.556888
20
-491.349888
11
752.403554
21
-490.220998
0
LINE
8
Layer 1
10
752.403554
20
-490.220998
11
753.250220
21
-489.374332
0
LINE
8
Layer 1
10
753.250220
20
-489.374332
11
770.183520
21
-495.865442
0
LINE
8
Layer 1
10
770.183520
20
-495.865442
11
787.399020
21
-502.638772
0
LINE
8
Layer 1
10
787.399020
20
-502.638772
11
787.399020
21
-504.896552
0
LINE
8
Layer 1
10
787.399020
20
-504.896552
11
787.399020
21
-507.154332
0
LINE
8
Layer 1
10
787.399020
20
-507.154332
11
778.650140
21
-524.369832
0
LINE
8
Layer 1
10
778.650140
20
-524.369832
11
769.901260
21
-541.867632
0
LINE
8
Layer 1
10
769.901260
20
-541.867632
11
763.127930
21
-552.592032
0
LINE
8
Layer 1
10
763.127930
20
-552.592032
11
756.354600
21
-563.316432
0
LINE
8
Layer 1
10
756.354600
20
-563.316432
11
756.354600
21
-564.727542
0
LINE
8
Layer 1
10
756.354600
20
-564.727542
11
756.354600
21
-566.138652
0
LINE
8
Layer 1
10
756.354600
20
-566.138652
11
775.263500
21
-578.556452
0
LINE
8
Layer 1
10
775.263500
20
-578.556452
11
793.890200
21
-591.256452
0
LINE
8
Layer 1
10
793.890200
20
-591.256452
11
796.712420
21
-589.563122
0
LINE
8
Layer 1
10
796.712420
20
-589.563122
11
799.252420
21
-588.152012
0
LINE
8
Layer 1
10
799.252420
20
-588.152012
11
782.036920
21
-576.580912
0
LINE
8
Layer 1
10
782.036920
20
-576.580912
11
764.821420
21
-565.292012
0
LINE
8
Layer 1
10
764.821420
20
-565.292012
11
764.821420
21
-563.316462
0
LINE
8
Layer 1
10
764.821420
20
-563.316462
11
764.821420
21
-561.340912
0
LINE
8
Layer 1
10
764.821420
20
-561.340912
11
777.521420
21
-539.045412
0
LINE
8
Layer 1
10
777.521420
20
-539.045412
11
790.221420
21
-516.749912
0
LINE
8
Layer 1
10
790.221420
20
-516.749912
11
790.221420
21
-513.363252
0
LINE
8
Layer 1
10
790.221420
20
-513.363252
11
790.221420
21
-509.976592
0
LINE
8
Layer 1
10
790.221420
20
-509.976592
11
793.043640
21
-508.283262
0
LINE
8
Layer 1
10
793.043640
20
-508.283262
11
795.583640
21
-506.589932
0
LINE
8
Layer 1
10
795.583640
20
-506.589932
11
813.081440
21
-513.927702
0
LINE
8
Layer 1
10
813.081440
20
-513.927702
11
830.579240
21
-520.983252
0
LINE
8
Layer 1
10
830.579240
20
-520.983252
11
833.119240
21
-520.983252
0
LINE
8
Layer 1
10
833.119240
20
-520.983252
11
835.377020
21
-520.983252
0
LINE
8
Layer 1
10
835.377020
20
-520.983252
11
835.377020
21
-518.725472
0
LINE
8
Layer 1
10
835.377020
20
-518.725472
11
835.377020
21
-516.185472
0
LINE
8
Layer 1
10
835.377020
20
-516.185472
11
815.903720
21
-508.565482
0
LINE
8
Layer 1
10
815.903720
20
-508.565482
11
796.430420
21
-500.945492
0
LINE
8
Layer 1
10
796.430420
20
-500.945492
11
804.332640
21
-476.392192
0
LINE
8
Layer 1
10
804.332640
20
-476.392192
11
812.234860
21
-451.838892
0
LINE
8
Layer 1
10
812.234860
20
-451.838892
11
814.210410
21
-441.396692
0
LINE
8
Layer 1
10
814.210410
20
-441.396692
11
816.185960
21
-430.672292
0
LINE
8
Layer 1
10
816.185960
20
-430.672292
11
813.928180
21
-430.672292
0
LINE
8
Layer 1
10
813.928180
20
-430.672292
11
811.388180
21
-430.672292
0
LINE
8
Layer 1
10
811.388180
20
-430.672292
11
805.179300
21
-454.096692
0
LINE
8
Layer 1
10
805.179300
20
-454.096692
11
799.252640
21
-477.238892
0
LINE
8
Layer 1
10
799.252640
20
-477.238892
11
794.737090
21
-487.681092
0
LINE
8
Layer 1
10
794.737090
20
-487.681092
11
790.221540
21
-498.123292
0
LINE
8
Layer 1
10
790.221540
20
-498.123292
11
770.183740
21
-489.656632
0
LINE
8
Layer 1
10
770.183740
20
-489.656632
11
749.863740
21
-481.472192
0
LINE
8
Layer 1
10
749.863740
20
-481.472192
11
749.299296
21
-482.036636
0
LINE
8
Layer 1
10
749.299296
20
-482.036636
11
748.734852
21
-482.883302
0
LINE
8
Layer 1
10
748.734852
20
-482.883302
11
738.857082
21
-502.638802
0
LINE
8
Layer 1
10
738.857082
20
-502.638802
11
729.261532
21
-522.394302
0
LINE
8
Layer 1
10
729.261532
20
-522.394302
11
718.537132
21
-538.763202
0
LINE
8
Layer 1
10
718.537132
20
-538.763202
11
707.812732
21
-554.849902
0
LINE
8
Layer 1
10
707.812732
20
-554.849902
11
694.830532
21
-569.243202
0
LINE
8
Layer 1
10
694.830532
20
-569.243202
11
682.130532
21
-583.636502
0
LINE
8
Layer 1
10
682.130532
20
-583.636502
11
619.195032
21
-520.701002
0
LINE
8
Layer 1
10
619.195032
20
-520.701002
11
556.259532
21
-457.765502
0
LINE
8
Layer 1
10
556.259532
20
-457.765502
11
554.001752
21
-459.741052
0
LINE
8
Layer 1
10
554.001752
20
-459.741052
11
552.026202
21
-461.998832
0
LINE
8
Layer 1
10
552.026202
20
-461.998832
11
599.157302
21
-509.129932
0
LINE
8
Layer 1
10
599.157302
20
-509.129932
11
646.570602
21
-556.543232
0
LINE
8
Layer 1
10
646.570602
20
-556.543232
11
630.201702
21
-569.807632
0
LINE
8
Layer 1
10
630.201702
20
-569.807632
11
613.832802
21
-583.072032
0
LINE
8
Layer 1
10
613.832802
20
-583.072032
11
611.010582
21
-583.072032
0
LINE
8
Layer 1
10
611.010582
20
-583.072032
11
608.188362
21
-583.072032
0
LINE
8
Layer 1
10
608.188362
20
-583.072032
11
598.310592
21
-567.549832
0
LINE
8
Layer 1
10
598.310592
20
-567.549832
11
588.432822
21
-552.027632
0
LINE
8
Layer 1
10
588.432822
20
-552.027632
11
584.763932
21
-552.027632
0
LINE
8
Layer 1
10
584.763932
20
-552.027632
11
581.377272
21
-552.027632
0
LINE
8
Layer 1
10
581.377272
20
-552.027632
11
594.359472
21
-571.783132
0
LINE
8
Layer 1
10
594.359472
20
-571.783132
11
607.623872
21
-591.538632
0
LINE
8
Layer 1
10
607.623872
20
-591.538632
11
609.599422
21
-591.538632
0
LINE
8
Layer 1
10
609.599422
20
-591.538632
11
611.574972
21
-591.538632
0
LINE
8
Layer 1
10
611.574972
20
-591.538632
11
619.759412
21
-585.329752
0
LINE
8
Layer 1
10
619.759412
20
-585.329752
11
627.943852
21
-579.120872
0
LINE
8
Layer 1
10
627.943852
20
-579.120872
11
638.950552
21
-569.525322
0
LINE
8
Layer 1
10
638.950552
20
-569.525322
11
649.957252
21
-559.929772
0
LINE
8
Layer 1
10
649.957252
20
-559.929772
11
695.677252
21
-605.649772
0
LINE
8
Layer 1
10
695.677252
20
-605.649772
11
741.397252
21
-651.369772
0
LINE
8
Layer 1
10
741.397252
20
-651.369772
11
727.003952
21
-664.916472
0
LINE
8
Layer 1
10
727.003952
20
-664.916472
11
712.892852
21
-678.463172
0
LINE
8
Layer 1
10
712.892852
20
-678.463172
11
726.157252
21
-693.985372
0
LINE
8
Layer 1
10
726.157252
20
-693.985372
11
739.421652
21
-709.507572
0
LINE
8
Layer 1
10
739.421652
20
-709.507572
11
739.421652
21
-711.483122
0
LINE
8
Layer 1
10
739.421652
20
-711.483122
11
739.421652
21
-713.740902
0
LINE
8
Layer 1
10
739.421652
20
-713.740902
11
734.623882
21
-717.692012
0
LINE
8
Layer 1
10
734.623882
20
-717.692012
11
729.543882
21
-721.360902
0
LINE
8
Layer 1
10
729.543882
20
-721.360902
11
706.966082
21
-736.883102
0
LINE
8
Layer 1
10
706.966082
20
-736.883102
11
684.106082
21
-752.123102
0
LINE
8
Layer 1
10
684.106082
20
-752.123102
11
657.859482
21
-765.105302
0
LINE
8
Layer 1
10
657.859482
20
-765.105302
11
631.330582
21
-778.087502
0
LINE
8
Layer 1
10
631.330582
20
-778.087502
11
608.470582
21
-786.271942
0
LINE
8
Layer 1
10
608.470582
20
-786.271942
11
585.610582
21
-794.456382
0
LINE
8
Layer 1
10
585.610582
20
-794.456382
11
567.548382
21
-798.971932
0
LINE
8
Layer 1
10
567.548382
20
-798.971932
11
549.768382
21
-803.487482
0
LINE
8
Layer 1
10
549.768382
20
-803.487482
11
525.215082
21
-807.156372
0
LINE
8
Layer 1
10
525.215082
20
-807.156372
11
500.943982
21
-810.543032
0
LINE
8
Layer 1
10
500.943982
20
-810.543032
11
500.097316
21
-816.751912
0
LINE
8
Layer 1
10
500.097316
20
-816.751912
11
499.250650
21
-822.960792
0
LINE
8
Layer 1
10
499.250650
20
-822.960792
11
480.906250
21
-822.960792
0
LINE
8
Layer 1
10
480.906250
20
-822.960792
11
462.844050
21
-822.960792
0
LINE
8
Layer 1
10
462.844050
20
-822.960792
11
462.844050
21
-752.405292
0
LINE
8
Layer 1
10
462.844050
20
-752.405292
11
462.844000
21
-752.404000
0
LINE
8
Layer 1
10
508.000000
20
-818.726000
11
508.000000
21
-814.492670
0
LINE
8
Layer 1
10
508.000000
20
-814.492670
11
514.773330
21
-814.492670
0
LINE
8
Layer 1
10
514.773330
20
-814.492670
11
521.546660
21
-814.492670
0
LINE
8
Layer 1
10
521.546660
20
-814.492670
11
549.204460
21
-808.848230
0
LINE
8
Layer 1
10
549.204460
20
-808.848230
11
576.862260
21
-803.203790
0
LINE
8
Layer 1
10
576.862260
20
-803.203790
11
606.777760
21
-792.761590
0
LINE
8
Layer 1
10
606.777760
20
-792.761590
11
636.411060
21
-782.601590
0
LINE
8
Layer 1
10
636.411060
20
-782.601590
11
660.399960
21
-770.748290
0
LINE
8
Layer 1
10
660.399960
20
-770.748290
11
684.671060
21
-758.612790
0
LINE
8
Layer 1
10
684.671060
20
-758.612790
11
709.788860
21
-741.679490
0
LINE
8
Layer 1
10
709.788860
20
-741.679490
11
735.188860
21
-724.746190
0
LINE
8
Layer 1
10
735.188860
20
-724.746190
11
756.919960
21
-706.119490
0
LINE
8
Layer 1
10
756.919960
20
-706.119490
11
778.651060
21
-687.492790
0
LINE
8
Layer 1
10
778.651060
20
-687.492790
11
800.099960
21
-663.221690
0
LINE
8
Layer 1
10
800.099960
20
-663.221690
11
821.266660
21
-638.668390
0
LINE
8
Layer 1
10
821.266660
20
-638.668390
11
834.248860
21
-619.195090
0
LINE
8
Layer 1
10
834.248860
20
-619.195090
11
847.513260
21
-599.439590
0
LINE
8
Layer 1
10
847.513260
20
-599.439590
11
862.471060
21
-570.935190
0
LINE
8
Layer 1
10
862.471060
20
-570.935190
11
877.428860
21
-542.148590
0
LINE
8
Layer 1
10
877.428860
20
-542.148590
11
885.613300
21
-519.288590
0
LINE
8
Layer 1
10
885.613300
20
-519.288590
11
894.079960
21
-496.428590
0
LINE
8
Layer 1
10
894.079960
20
-496.428590
11
901.417730
21
-465.666390
0
LINE
8
Layer 1
10
901.417730
20
-465.666390
11
908.473280
21
-434.904190
0
LINE
8
Layer 1
10
908.473280
20
-434.904190
11
911.013280
21
-408.093090
0
LINE
8
Layer 1
10
911.013280
20
-408.093090
11
913.553280
21
-381.281990
0
LINE
8
Layer 1
10
913.553280
20
-381.281990
11
914.117724
21
-602.261990
0
LINE
8
Layer 1
10
914.117724
20
-602.261990
11
914.399946
21
-822.959990
0
LINE
8
Layer 1
10
914.399946
20
-822.959990
11
711.199946
21
-822.959990
0
LINE
8
Layer 1
10
711.199946
20
-822.959990
11
507.999946
21
-822.959990
0
LINE
8
Layer 1
10
507.999946
20
-822.959990
11
507.999946
21
-818.726660
0
LINE
8
Layer 1
10
507.999946
20
-818.726660
11
508.000000
21
-818.726000
0
LINE
8
Layer 1
10
427.284000
20
-444.782000
11
412.890700
21
-439.137560
0
LINE
8
Layer 1
10
412.890700
20
-439.137560
11
401.884000
21
-429.542010
0
LINE
8
Layer 1
10
401.884000
20
-429.542010
11
390.595100
21
-419.946460
0
LINE
8
Layer 1
10
390.595100
20
-419.946460
11
382.410660
21
-404.988660
0
LINE
8
Layer 1
10
382.410660
20
-404.988660
11
374.226220
21
-390.030860
0
LINE
8
Layer 1
10
374.226220
20
-390.030860
11
373.097330
21
-368.299760
0
LINE
8
Layer 1
10
373.097330
20
-368.299760
11
371.968440
21
-346.286460
0
LINE
8
Layer 1
10
371.968440
20
-346.286460
11
380.435100
21
-327.942060
0
LINE
8
Layer 1
10
380.435100
20
-327.942060
11
389.183980
21
-309.315360
0
LINE
8
Layer 1
10
389.183980
20
-309.315360
11
391.723980
21
-309.315360
0
LINE
8
Layer 1
10
391.723980
20
-309.315360
11
394.263980
21
-309.315360
0
LINE
8
Layer 1
10
394.263980
20
-309.315360
11
403.859530
21
-313.830910
0
LINE
8
Layer 1
10
403.859530
20
-313.830910
11
413.455080
21
-318.628680
0
LINE
8
Layer 1
10
413.455080
20
-318.628680
11
419.381740
21
-323.990900
0
LINE
8
Layer 1
10
419.381740
20
-323.990900
11
425.308400
21
-329.070900
0
LINE
8
Layer 1
10
425.308400
20
-329.070900
11
437.443900
21
-320.322020
0
LINE
8
Layer 1
10
437.443900
20
-320.322020
11
449.861700
21
-311.290920
0
LINE
8
Layer 1
10
449.861700
20
-311.290920
11
461.997200
21
-305.928700
0
LINE
8
Layer 1
10
461.997200
20
-305.928700
11
474.415000
21
-300.566480
0
LINE
8
Layer 1
10
474.415000
20
-300.566480
11
476.108330
21
-296.333150
0
LINE
8
Layer 1
10
476.108330
20
-296.333150
11
477.519440
21
-292.099820
0
LINE
8
Layer 1
10
477.519440
20
-292.099820
11
473.003890
21
-287.019820
0
LINE
8
Layer 1
10
473.003890
20
-287.019820
11
468.488340
21
-281.939820
0
LINE
8
Layer 1
10
468.488340
20
-281.939820
11
468.488340
21
-279.964270
0
LINE
8
Layer 1
10
468.488340
20
-279.964270
11
468.488340
21
-277.706490
0
LINE
8
Layer 1
10
468.488340
20
-277.706490
11
478.930540
21
-279.682040
0
LINE
8
Layer 1
10
478.930540
20
-279.682040
11
489.372740
21
-281.657590
0
LINE
8
Layer 1
10
489.372740
20
-281.657590
11
499.532740
21
-286.737590
0
LINE
8
Layer 1
10
499.532740
20
-286.737590
11
509.410510
21
-291.817590
0
LINE
8
Layer 1
10
509.410510
20
-291.817590
11
520.134910
21
-302.824290
0
LINE
8
Layer 1
10
520.134910
20
-302.824290
11
531.141610
21
-313.548690
0
LINE
8
Layer 1
10
531.141610
20
-313.548690
11
536.221610
21
-323.708690
0
LINE
8
Layer 1
10
536.221610
20
-323.708690
11
541.301610
21
-333.586460
0
LINE
8
Layer 1
10
541.301610
20
-333.586460
11
544.123830
21
-348.261960
0
LINE
8
Layer 1
10
544.123830
20
-348.261960
11
546.663830
21
-362.655260
0
LINE
8
Layer 1
10
546.663830
20
-362.655260
11
544.406050
21
-377.330760
0
LINE
8
Layer 1
10
544.406050
20
-377.330760
11
542.148270
21
-391.724060
0
LINE
8
Layer 1
10
542.148270
20
-391.724060
11
536.221610
21
-403.577360
0
LINE
8
Layer 1
10
536.221610
20
-403.577360
11
530.012730
21
-415.148460
0
LINE
8
Layer 1
10
530.012730
20
-415.148460
11
521.263850
21
-424.461790
0
LINE
8
Layer 1
10
521.263850
20
-424.461790
11
512.232750
21
-434.057340
0
LINE
8
Layer 1
10
512.232750
20
-434.057340
11
498.121650
21
-441.395110
0
LINE
8
Layer 1
10
498.121650
20
-441.395110
11
484.010550
21
-448.450660
0
LINE
8
Layer 1
10
484.010550
20
-448.450660
11
462.843850
21
-449.579550
0
LINE
8
Layer 1
10
462.843850
20
-449.579550
11
441.677150
21
-450.426216
0
LINE
8
Layer 1
10
441.677150
20
-450.426216
11
427.283850
21
-444.781776
0
LINE
8
Layer 1
10
427.283850
20
-444.781776
11
427.284000
21
-444.782000
0
LINE
8
Layer 1
10
911.577000
20
-330.764000
11
911.577000
21
-318.346200
0
LINE
8
Layer 1
10
911.577000
20
-318.346200
11
905.932560
21
-285.044000
0
LINE
8
Layer 1
10
905.932560
20
-285.044000
11
900.288120
21
-251.459600
0
LINE
8
Layer 1
10
900.288120
20
-251.459600
11
890.410350
21
-222.955200
0
LINE
8
Layer 1
10
890.410350
20
-222.955200
11
880.532580
21
-194.168600
0
LINE
8
Layer 1
10
880.532580
20
-194.168600
11
869.525880
21
-170.462000
0
LINE
8
Layer 1
10
869.525880
20
-170.462000
11
858.801480
21
-146.755400
0
LINE
8
Layer 1
10
858.801480
20
-146.755400
11
846.383680
21
-126.999900
0
LINE
8
Layer 1
10
846.383680
20
-126.999900
11
834.248180
21
-107.526600
0
LINE
8
Layer 1
10
834.248180
20
-107.526600
11
820.701480
21
-89.182200
0
LINE
8
Layer 1
10
820.701480
20
-89.182200
11
806.872580
21
-70.837800
0
LINE
8
Layer 1
10
806.872580
20
-70.837800
11
782.319280
21
-45.720000
0
LINE
8
Layer 1
10
782.319280
20
-45.720000
11
757.765980
21
-20.884500
0
LINE
8
Layer 1
10
757.765980
20
-20.884500
11
736.034880
21
-4.233400
0
LINE
8
Layer 1
10
736.034880
20
-4.233400
11
714.303780
21
12.417700
0
LINE
8
Layer 1
10
714.303780
20
12.417700
11
690.879380
21
26.528800
0
LINE
8
Layer 1
10
690.879380
20
26.528800
11
667.454980
21
40.639900
0
LINE
8
Layer 1
10
667.454980
20
40.639900
11
637.821680
21
53.057700
0
LINE
8
Layer 1
10
637.821680
20
53.057700
11
608.188380
21
65.757700
0
LINE
8
Layer 1
10
608.188380
20
65.757700
11
582.788380
21
73.095470
0
LINE
8
Layer 1
10
582.788380
20
73.095470
11
557.388380
21
80.433240
0
LINE
8
Layer 1
10
557.388380
20
80.433240
11
530.577280
21
84.384350
0
LINE
8
Layer 1
10
530.577280
20
84.384350
11
503.766180
21
88.617680
0
LINE
8
Layer 1
10
503.766180
20
88.617680
11
493.888410
21
89.464346
0
LINE
8
Layer 1
10
493.888410
20
89.464346
11
484.010640
21
90.593236
0
LINE
8
Layer 1
10
484.010640
20
90.593236
11
699.345640
21
90.875458
0
LINE
8
Layer 1
10
699.345640
20
90.875458
11
914.398640
21
91.439902
0
LINE
8
Layer 1
10
914.398640
20
91.439902
11
914.398640
21
-125.871098
0
LINE
8
Layer 1
10
914.398640
20
-125.871098
11
914.398640
21
-343.182098
0
LINE
8
Layer 1
10
914.398640
20
-343.182098
11
912.987530
21
-343.182098
0
LINE
8
Layer 1
10
912.987530
20
-343.182098
11
911.576420
21
-343.182098
0
LINE
8
Layer 1
10
911.576420
20
-343.182098
11
911.576420
21
-330.764298
0
LINE
8
Layer 1
10
911.576420
20
-330.764298
11
911.577000
21
-330.764000
 0 
ENDSEC
 0 
EOF