<?xml version="1.0" encoding="UTF-8" standalone="no"?>
<svg
   xmlns:ns1="http://wanglongqi.github.io/WriteTeX"
   xmlns:dc="http://purl.org/dc/elements/1.1/"
   xmlns:cc="http://creativecommons.org/ns#"
   xmlns:rdf="http://www.w3.org/1999/02/22-rdf-syntax-ns#"
   xmlns:svg="http://www.w3.org/2000/svg"
   xmlns="http://www.w3.org/2000/svg"
   xmlns:sodipodi="http://sodipodi.sourceforge.net/DTD/sodipodi-0.dtd"
   xmlns:inkscape="http://www.inkscape.org/namespaces/inkscape"
   width="658.05743pt"
   height="67.5pt"
   viewBox="0 0 658.05743 67.5"
   version="1.1"
   id="svg9792"
   sodipodi:docname="maze2-top.svg"
   inkscape:version="1.0.2 (e86c870879, 2021-01-15)">
  <metadata
     id="metadata9796">
    <rdf:RDF>
      <cc:Work
         rdf:about="">
        <dc:format>image/svg+xml</dc:format>
        <dc:type
           rdf:resource="http://purl.org/dc/dcmitype/StillImage" />
        <dc:title>maze1</dc:title>
      </cc:Work>
    </rdf:RDF>
  </metadata>
  <sodipodi:namedview
     pagecolor="#ffffff"
     bordercolor="#666666"
     borderopacity="1"
     objecttolerance="10"
     gridtolerance="10"
     guidetolerance="10"
     inkscape:pageopacity="0"
     inkscape:pageshadow="2"
     inkscape:window-width="1920"
     inkscape:window-height="1015"
     id="namedview9794"
     showgrid="false"
     fit-margin-top="0"
     fit-margin-left="0"
     fit-margin-right="0"
     fit-margin-bottom="0"
     inkscape:zoom="0.78587774"
     inkscape:cx="316.48613"
     inkscape:cy="136.30176"
     inkscape:window-x="0"
     inkscape:window-y="0"
     inkscape:window-maximized="1"
     inkscape:current-layer="svg9792"
     inkscape:document-rotation="0">
    <inkscape:grid
       type="xygrid"
       id="grid10751"
       originx="0"
       originy="67.499999" />
  </sodipodi:namedview>
  <title
     id="title2">maze1</title>
  <desc
     id="desc4">
Creator: GL2PS 1.4.3, (C) 1999-2020 C. Geuzaine
For: Gmsh
CreationDate: Mon Aug  9 09:04:01 2021
</desc>
  <defs
     id="defs6">
    <marker
       style="overflow:visible"
       id="marker11073"
       refX="0"
       refY="0"
       orient="auto"
       inkscape:stockid="Arrow1Lend"
       inkscape:isstock="true">
      <path
         transform="matrix(-0.8,0,0,-0.8,-10,0)"
         style="fill:#000000;fill-opacity:1;fill-rule:evenodd;stroke:#000000;stroke-width:1pt;stroke-opacity:0.991071"
         d="M 0,0 5,-5 -12.5,0 5,5 Z"
         id="path11071" />
    </marker>
    <marker
       style="overflow:visible"
       id="Arrow1Lend"
       refX="0"
       refY="0"
       orient="auto"
       inkscape:stockid="Arrow1Lend"
       inkscape:isstock="true"
       inkscape:collect="always">
      <path
         transform="matrix(-0.8,0,0,-0.8,-10,0)"
         style="fill:#000000;fill-opacity:1;fill-rule:evenodd;stroke:#000000;stroke-width:1pt;stroke-opacity:0.991071"
         d="M 0,0 5,-5 -12.5,0 5,5 Z"
         id="path10634" />
    </marker>
  </defs>
  <path
     style="fill:#000000;fill-opacity:1;stroke:#000000;stroke-width:0.75px;stroke-linecap:butt;stroke-linejoin:miter;stroke-opacity:0.991071;marker-end:url(#Arrow1Lend)"
     d="m 347.28107,37.605497 v 26.94736"
     id="path10629" />
  <g
     ns1:text="$\phi=0$"
     transform="matrix(3.5029628,0,0,3.5029628,-321.71945,-354.35013)"
     id="g879">
    <g
       id="surface1">
      <g
         style="fill:#000000;fill-opacity:1"
         id="g868">
        <path
           style="stroke:none"
           d="m 4.359375,-6.671875 c 0,-0.03125 0.03125,-0.140625 0.03125,-0.140625 0,-0.015625 0,-0.109375 -0.125,-0.109375 -0.09375,0 -0.109375,0.03125 -0.15625,0.203125 L 3.53125,-4.421875 c -1.578125,0.0625 -3.046875,1.375 -3.046875,2.734375 0,0.953125 0.703125,1.734375 1.921875,1.8125 C 2.328125,0.421875 2.25,0.75 2.171875,1.0625 c -0.125,0.46875 -0.21875,0.84375 -0.21875,0.875 0,0.09375 0.078125,0.109375 0.125,0.109375 C 2.125,2.046875 2.140625,2.03125 2.171875,2 2.1875,1.984375 2.25,1.75 2.28125,1.609375 L 2.65625,0.125 c 1.609375,-0.0625 3.0625,-1.40625 3.0625,-2.734375 0,-0.796875 -0.53125,-1.703125 -1.921875,-1.8125 z m -1.90625,6.578125 c -0.59375,-0.03125 -1.3125,-0.390625 -1.3125,-1.375 0,-1.203125 0.859375,-2.59375 2.34375,-2.734375 z m 1.28125,-4.109375 c 0.765625,0.046875 1.328125,0.5 1.328125,1.375 0,1.1875 -0.859375,2.609375 -2.34375,2.734375 z m 0,0"
           transform="translate(178.585,110.99)"
           id="path866" />
      </g>
      <g
         style="fill:#000000;fill-opacity:1"
         id="g872">
        <path
           style="stroke:none"
           d="m 6.84375,-3.265625 c 0.15625,0 0.34375,0 0.34375,-0.1875 C 7.1875,-3.65625 7,-3.65625 6.859375,-3.65625 h -5.96875 c -0.140625,0 -0.328125,0 -0.328125,0.203125 0,0.1875 0.1875,0.1875 0.328125,0.1875 z m 0.015625,1.9375 c 0.140625,0 0.328125,0 0.328125,-0.203125 0,-0.1875 -0.1875,-0.1875 -0.34375,-0.1875 H 0.890625 c -0.140625,0 -0.328125,0 -0.328125,0.1875 0,0.203125 0.1875,0.203125 0.328125,0.203125 z m 0,0"
           transform="translate(187.288,110.99)"
           id="path870" />
      </g>
      <g
         style="fill:#000000;fill-opacity:1"
         id="g876">
        <path
           style="stroke:none"
           d="m 4.578125,-3.1875 c 0,-0.796875 -0.046875,-1.59375 -0.390625,-2.328125 -0.453125,-0.96875 -1.28125,-1.125 -1.6875,-1.125 -0.609375,0 -1.328125,0.265625 -1.75,1.1875 -0.3125,0.6875 -0.359375,1.46875 -0.359375,2.265625 0,0.75 0.03125,1.640625 0.453125,2.40625 0.421875,0.796875 1.15625,1 1.640625,1 0.53125,0 1.296875,-0.203125 1.734375,-1.15625 0.3125,-0.6875 0.359375,-1.46875 0.359375,-2.25 z M 2.484375,0 C 2.09375,0 1.5,-0.25 1.328125,-1.203125 1.21875,-1.796875 1.21875,-2.71875 1.21875,-3.3125 c 0,-0.640625 0,-1.296875 0.078125,-1.828125 0.1875,-1.1875 0.9375,-1.28125 1.1875,-1.28125 0.328125,0 0.984375,0.1875 1.171875,1.171875 0.109375,0.5625 0.109375,1.3125 0.109375,1.9375 0,0.75 0,1.421875 -0.109375,2.0625 C 3.5,-0.296875 2.9375,0 2.484375,0 Z m 0,0"
           transform="translate(197.79655,110.99)"
           id="path874" />
      </g>
    </g>
  </g>
  <g
     ns1:text="$\nabla^2 \phi = 0$"
     transform="matrix(3.5029628,0,0,3.5029628,-576.15966,-343.62372)"
     id="g2089">
    <g
       id="g2087">
      <g
         style="fill:rgb(0%,0%,0%);fill-opacity:1;"
         id="g2069">
        <path
           style="stroke:none;"
           d="M 7.78125 -6.59375 C 7.796875 -6.625 7.828125 -6.6875 7.828125 -6.734375 C 7.828125 -6.796875 7.8125 -6.8125 7.59375 -6.8125 L 0.703125 -6.8125 C 0.484375 -6.8125 0.46875 -6.796875 0.46875 -6.734375 C 0.46875 -6.6875 0.5 -6.625 0.515625 -6.59375 L 3.875 0.140625 C 3.953125 0.265625 3.984375 0.328125 4.140625 0.328125 C 4.3125 0.328125 4.34375 0.265625 4.421875 0.140625 Z M 1.703125 -6.09375 L 7.171875 -6.09375 L 4.453125 -0.609375 Z M 1.703125 -6.09375 "
           transform="translate(178.585,110.99)"
           id="path2067" />
      </g>
      <g
         style="fill:rgb(0%,0%,0%);fill-opacity:1;"
         id="g2073">
        <path
           style="stroke:none;"
           d="M 3.515625 -1.265625 L 3.28125 -1.265625 C 3.265625 -1.109375 3.1875 -0.703125 3.09375 -0.640625 C 3.046875 -0.59375 2.515625 -0.59375 2.40625 -0.59375 L 1.125 -0.59375 C 1.859375 -1.234375 2.109375 -1.4375 2.515625 -1.765625 C 3.03125 -2.171875 3.515625 -2.609375 3.515625 -3.265625 C 3.515625 -4.109375 2.78125 -4.625 1.890625 -4.625 C 1.03125 -4.625 0.4375 -4.015625 0.4375 -3.375 C 0.4375 -3.03125 0.734375 -2.984375 0.8125 -2.984375 C 0.96875 -2.984375 1.171875 -3.109375 1.171875 -3.359375 C 1.171875 -3.484375 1.125 -3.734375 0.765625 -3.734375 C 0.984375 -4.21875 1.453125 -4.375 1.78125 -4.375 C 2.484375 -4.375 2.84375 -3.828125 2.84375 -3.265625 C 2.84375 -2.65625 2.40625 -2.1875 2.1875 -1.9375 L 0.515625 -0.265625 C 0.4375 -0.203125 0.4375 -0.1875 0.4375 0 L 3.3125 0 Z M 3.515625 -1.265625 "
           transform="translate(186.887,107.375)"
           id="path2071" />
      </g>
      <g
         style="fill:rgb(0%,0%,0%);fill-opacity:1;"
         id="g2077">
        <path
           style="stroke:none;"
           d="M 4.359375 -6.671875 C 4.359375 -6.703125 4.390625 -6.8125 4.390625 -6.8125 C 4.390625 -6.828125 4.390625 -6.921875 4.265625 -6.921875 C 4.171875 -6.921875 4.15625 -6.890625 4.109375 -6.71875 L 3.53125 -4.421875 C 1.953125 -4.359375 0.484375 -3.046875 0.484375 -1.6875 C 0.484375 -0.734375 1.1875 0.046875 2.40625 0.125 C 2.328125 0.421875 2.25 0.75 2.171875 1.0625 C 2.046875 1.53125 1.953125 1.90625 1.953125 1.9375 C 1.953125 2.03125 2.03125 2.046875 2.078125 2.046875 C 2.125 2.046875 2.140625 2.03125 2.171875 2 C 2.1875 1.984375 2.25 1.75 2.28125 1.609375 L 2.65625 0.125 C 4.265625 0.0625 5.71875 -1.28125 5.71875 -2.609375 C 5.71875 -3.40625 5.1875 -4.3125 3.796875 -4.421875 Z M 2.453125 -0.09375 C 1.859375 -0.125 1.140625 -0.484375 1.140625 -1.46875 C 1.140625 -2.671875 2 -4.0625 3.484375 -4.203125 Z M 3.734375 -4.203125 C 4.5 -4.15625 5.0625 -3.703125 5.0625 -2.828125 C 5.0625 -1.640625 4.203125 -0.21875 2.71875 -0.09375 Z M 3.734375 -4.203125 "
           transform="translate(191.356,110.99)"
           id="path2075" />
      </g>
      <g
         style="fill:rgb(0%,0%,0%);fill-opacity:1;"
         id="g2081">
        <path
           style="stroke:none;"
           d="M 6.84375 -3.265625 C 7 -3.265625 7.1875 -3.265625 7.1875 -3.453125 C 7.1875 -3.65625 7 -3.65625 6.859375 -3.65625 L 0.890625 -3.65625 C 0.75 -3.65625 0.5625 -3.65625 0.5625 -3.453125 C 0.5625 -3.265625 0.75 -3.265625 0.890625 -3.265625 Z M 6.859375 -1.328125 C 7 -1.328125 7.1875 -1.328125 7.1875 -1.53125 C 7.1875 -1.71875 7 -1.71875 6.84375 -1.71875 L 0.890625 -1.71875 C 0.75 -1.71875 0.5625 -1.71875 0.5625 -1.53125 C 0.5625 -1.328125 0.75 -1.328125 0.890625 -1.328125 Z M 6.859375 -1.328125 "
           transform="translate(200.06,110.99)"
           id="path2079" />
      </g>
      <g
         style="fill:rgb(0%,0%,0%);fill-opacity:1;"
         id="g2085">
        <path
           style="stroke:none;"
           d="M 4.578125 -3.1875 C 4.578125 -3.984375 4.53125 -4.78125 4.1875 -5.515625 C 3.734375 -6.484375 2.90625 -6.640625 2.5 -6.640625 C 1.890625 -6.640625 1.171875 -6.375 0.75 -5.453125 C 0.4375 -4.765625 0.390625 -3.984375 0.390625 -3.1875 C 0.390625 -2.4375 0.421875 -1.546875 0.84375 -0.78125 C 1.265625 0.015625 2 0.21875 2.484375 0.21875 C 3.015625 0.21875 3.78125 0.015625 4.21875 -0.9375 C 4.53125 -1.625 4.578125 -2.40625 4.578125 -3.1875 Z M 2.484375 0 C 2.09375 0 1.5 -0.25 1.328125 -1.203125 C 1.21875 -1.796875 1.21875 -2.71875 1.21875 -3.3125 C 1.21875 -3.953125 1.21875 -4.609375 1.296875 -5.140625 C 1.484375 -6.328125 2.234375 -6.421875 2.484375 -6.421875 C 2.8125 -6.421875 3.46875 -6.234375 3.65625 -5.25 C 3.765625 -4.6875 3.765625 -3.9375 3.765625 -3.3125 C 3.765625 -2.5625 3.765625 -1.890625 3.65625 -1.25 C 3.5 -0.296875 2.9375 0 2.484375 0 Z M 2.484375 0 "
           transform="translate(210.56855,110.99)"
           id="path2083" />
      </g>
    </g>
  </g>
</svg>
