<?xml version="1.0" standalone="no"?>
<!DOCTYPE svg PUBLIC "-//W3C//DTD SVG 20010904//EN"
 "http://www.w3.org/TR/2001/REC-SVG-20010904/DTD/svg10.dtd">
<svg version="1.0" xmlns="http://www.w3.org/2000/svg"
 width="368.000000pt" height="371.000000pt" viewBox="0 0 368.000000 371.000000"
 preserveAspectRatio="xMidYMid meet">
<metadata>
Created by potrace 1.16, written by Peter Selinger 2001-2019
</metadata>
<g transform="translate(0.000000,371.000000) scale(0.100000,-0.100000)"
fill="#000000" stroke="none">
<path d="M0 3615 l0 -95 4 0 4 0 32 50 32 50 62 0 61 0 14 23 14 22 15 23 14
22 -126 0 -126 0 0 -95z"/>
<path d="M392 3688 l15 -23 14 -22 14 -23 60 0 60 0 14 23 14 22 15 23 14 22
-117 0 -117 0 14 -22z"/>
<path d="M752 3688 l15 -23 14 -22 14 -23 60 0 60 0 14 23 14 22 15 23 14 22
-117 0 -117 0 14 -22z"/>
<path d="M1112 3688 l15 -23 14 -22 14 -23 60 0 60 0 14 23 14 22 15 23 14 22
-117 0 -117 0 14 -22z"/>
<path d="M1472 3688 l15 -23 14 -22 14 -23 60 0 60 0 23 35 22 35 0 10 0 10
-111 0 -111 0 14 -22z"/>
<path d="M1710 3700 l0 -10 -36 -50 -36 -50 -58 0 -59 0 -32 -47 -33 -47 -4
13 -4 12 26 39 26 40 0 5 0 5 -22 35 -23 35 -57 0 -58 0 -26 -39 -26 -40 30
-44 31 -43 -30 -46 -30 -46 26 -41 27 -40 -4 -12 -4 -12 -30 46 -29 47 -57 0
-58 0 -26 -39 -26 -40 30 -44 31 -43 -30 -46 -30 -46 26 -41 27 -40 -4 -12 -4
-11 -36 54 -35 54 28 39 28 40 1 8 0 7 -22 35 -23 35 -62 0 -61 0 -29 45 -28
45 -57 0 -58 0 -26 -39 -26 -40 31 -44 30 -44 -35 -51 -35 -52 -59 0 -59 0
-31 -45 -31 -45 -59 0 -60 0 -26 -39 -26 -40 30 -44 31 -43 -30 -46 -30 -46
23 -36 23 -36 60 0 60 0 28 45 29 45 62 0 61 0 25 40 25 40 7 0 8 0 0 -10 0
-10 -26 -40 -26 -39 31 -44 30 -44 -36 -54 -37 -53 -4 12 -4 13 26 39 26 40 0
5 0 5 -22 35 -23 35 -57 0 -58 0 -26 -39 -26 -40 30 -44 31 -43 -30 -46 -30
-46 26 -41 27 -40 -4 -12 -4 -11 -36 54 -35 54 28 39 28 40 1 8 0 7 -22 35
-23 35 -62 0 -61 0 -29 45 -28 45 -63 0 -64 0 4 13 5 12 58 3 59 3 12 17 13
17 11 21 12 21 -24 37 -23 36 -63 0 -64 0 4 13 5 12 58 3 59 3 12 17 13 17 11
21 12 21 -24 37 -23 36 -63 0 -64 0 4 13 5 12 60 3 61 3 28 -46 29 -45 60 0
60 0 23 35 22 35 0 5 0 6 -25 37 -25 37 0 7 0 8 8 0 7 0 25 -40 25 -40 60 0
60 0 23 35 22 35 0 5 0 5 -22 35 -23 35 -62 0 -61 0 -29 45 -28 45 -57 0 -58
0 -26 -39 -25 -39 26 -41 27 -40 -4 -12 -4 -11 -36 54 -35 54 28 39 28 40 1 8
0 8 -25 37 -25 37 0 7 0 8 8 0 7 0 25 -40 25 -40 61 0 62 0 29 -45 28 -45 60
0 60 0 28 45 29 45 63 0 63 0 29 -45 28 -45 60 0 60 0 28 45 29 45 61 0 62 0
23 35 22 35 0 5 0 5 -22 35 -23 35 -62 0 -61 0 -29 45 -28 45 -57 0 -58 0 -26
-39 -25 -39 23 -36 23 -35 59 -3 59 -3 5 -12 4 -13 -65 0 -65 0 -29 45 -28 45
-57 0 -57 0 -31 -45 -31 -45 -65 0 -66 0 4 13 5 12 58 3 59 3 12 17 13 17 11
21 12 21 -24 37 -23 36 -57 0 -57 0 -31 -45 -31 -45 -64 0 -63 0 -29 45 -28
45 -57 0 -57 0 -31 -45 -31 -45 -59 0 -60 0 -26 -39 -26 -40 30 -44 31 -43
-30 -46 -30 -46 23 -36 23 -36 60 0 60 0 23 35 22 35 0 7 -1 8 -28 40 -28 39
31 48 31 48 8 0 7 0 0 -10 0 -10 -26 -40 -26 -39 31 -44 30 -44 -35 -51 -35
-52 -59 0 -60 0 -26 -39 -25 -39 23 -36 23 -35 59 -3 59 -3 5 -12 4 -13 -61 0
-61 0 -26 -39 -25 -39 23 -36 23 -35 59 -3 59 -3 5 -12 4 -13 -61 0 -61 0 -26
-39 -25 -39 23 -36 23 -36 62 0 61 0 29 -45 28 -45 61 0 61 0 36 -53 35 -54
-30 -46 -29 -45 23 -36 23 -36 62 0 61 0 29 -45 28 -45 60 0 60 0 23 35 22 35
0 7 -1 8 -28 40 -28 39 35 53 35 53 61 0 61 0 23 35 22 35 0 7 -1 8 -28 40
-29 40 29 42 29 42 0 8 -1 8 -28 40 -29 40 29 42 29 42 0 5 0 6 -22 35 -23 35
-57 0 -57 0 -31 -45 -31 -45 -59 0 -59 0 -32 -47 -33 -47 -4 12 -4 12 32 50
32 50 62 0 61 0 28 45 29 45 61 0 62 0 23 35 22 35 0 5 0 5 -26 40 -27 40 7 7
6 6 3 -4 4 -4 31 -46 31 -45 -30 -46 -30 -46 23 -36 23 -35 59 -3 59 -3 5 -12
4 -13 -61 0 -61 0 -26 -39 -26 -40 30 -44 31 -43 -31 -47 -30 -46 31 -44 30
-44 -35 -51 -35 -52 -59 0 -60 0 -26 -39 -25 -39 23 -36 23 -35 59 -3 59 -3 5
-12 4 -13 -61 0 -60 0 -31 -45 -31 -45 -64 0 -63 0 -29 45 -28 45 -57 0 -58 0
-26 -39 -25 -39 26 -41 27 -40 -4 -12 -4 -11 -36 54 -35 54 28 39 28 40 1 8 0
8 -29 42 -29 42 29 40 28 40 1 8 0 7 -22 35 -23 35 -62 0 -61 0 -29 45 -28 45
-57 0 -58 0 -26 -39 -26 -40 30 -44 31 -43 -31 -47 -30 -46 30 -44 31 -43 -30
-46 -30 -46 23 -36 23 -36 60 0 60 0 23 35 22 35 0 7 -1 8 -28 40 -29 40 29
42 29 42 0 6 0 5 -26 40 -27 40 7 7 6 6 3 -4 4 -4 31 -46 31 -45 -31 -47 -30
-46 30 -44 31 -43 -30 -46 -30 -46 23 -36 23 -36 62 0 61 0 29 -45 28 -45 60
0 60 0 23 35 22 35 0 5 0 6 -25 37 -25 37 0 7 0 8 8 0 7 0 25 -40 25 -40 60 0
60 0 25 40 25 40 7 0 8 0 0 -10 0 -10 -26 -39 -25 -39 26 -41 27 -40 -4 -12
-4 -12 -30 46 -29 47 -57 0 -58 0 -26 -39 -26 -40 30 -44 31 -43 -31 -47 -30
-46 31 -44 30 -44 -36 -54 -37 -53 -4 12 -4 13 26 39 26 40 0 7 -1 8 -28 40
-29 40 29 42 29 42 0 5 0 6 -23 35 -22 35 -62 0 -61 0 -29 45 -28 45 -62 0
-61 0 -29 45 -28 45 -57 0 -58 0 -26 -39 -26 -40 30 -44 31 -43 -30 -46 -30
-46 23 -36 23 -36 61 0 62 0 32 -50 32 -50 -4 -11 -4 -12 -30 46 -29 47 -57 0
-58 0 -26 -39 -26 -40 30 -44 31 -43 -30 -46 -30 -46 23 -36 23 -36 62 0 61 0
29 -45 28 -45 62 0 61 0 29 -45 28 -45 60 0 60 0 23 35 22 35 0 5 0 5 -22 35
-23 35 -62 0 -61 0 -29 45 -28 45 -61 0 -62 0 -31 48 -31 49 0 6 0 7 8 0 7 0
25 -40 25 -40 60 0 60 0 23 35 22 35 0 7 -1 8 -28 40 -29 40 29 42 29 42 0 5
0 6 -22 35 -23 35 -61 0 -62 0 -31 48 -31 49 0 6 0 7 8 0 7 0 25 -40 25 -40
61 0 61 0 36 -53 35 -54 -30 -46 -30 -46 30 -44 31 -43 -30 -46 -30 -46 23
-36 23 -36 60 0 60 0 28 45 29 45 61 0 62 0 22 35 23 35 0 7 -1 8 -28 40 -29
40 29 42 29 42 0 6 0 5 -26 40 -27 40 7 7 6 6 3 -4 4 -4 31 -46 31 -45 -30
-46 -30 -46 23 -36 23 -35 59 -3 59 -3 5 -12 4 -13 -61 0 -60 0 -31 -45 -31
-45 -59 0 -60 0 -26 -39 -26 -40 30 -44 31 -43 -30 -46 -30 -46 23 -36 23 -36
61 0 61 0 36 -53 35 -54 -30 -46 -30 -46 30 -44 31 -43 -30 -46 -30 -46 23
-36 23 -36 60 0 60 0 23 35 22 35 0 5 0 5 -26 40 -27 40 7 7 6 6 3 -4 4 -4 31
-46 31 -45 -30 -46 -30 -46 26 -41 27 -40 -4 -12 -4 -12 -30 46 -29 47 -61 0
-61 0 -35 53 -35 53 28 39 28 40 1 8 0 7 -22 35 -23 35 -63 0 -64 0 4 13 5 12
58 3 59 3 12 17 13 17 11 21 12 21 -24 37 -23 36 -57 0 -57 0 -32 -47 -33 -47
-4 13 -4 12 26 39 26 40 0 5 0 5 -22 35 -23 35 -62 0 -61 0 -29 45 -28 45 -62
0 -61 0 -29 45 -28 45 -57 0 -58 0 -26 -39 -26 -40 30 -44 31 -43 -31 -47 -30
-46 30 -44 31 -43 -31 -47 -30 -46 30 -44 31 -43 -30 -46 -30 -46 23 -36 23
-36 60 0 60 0 28 45 29 45 61 0 62 0 23 35 22 35 0 7 -1 8 -28 40 -29 40 29
42 29 42 0 5 0 6 -22 35 -23 35 -57 0 -58 0 -26 -39 -26 -40 31 -44 30 -44
-36 -54 -37 -53 -4 12 -4 13 26 39 26 40 0 7 -1 8 -28 40 -29 40 29 42 29 42
0 6 0 6 -25 37 -25 37 0 7 0 8 8 0 7 0 25 -40 25 -40 61 0 61 0 36 -53 35 -54
-30 -46 -29 -45 23 -36 23 -35 59 -3 59 -3 5 -12 4 -13 -61 0 -60 0 -31 -45
-31 -45 -59 0 -60 0 -26 -39 -26 -40 31 -44 30 -44 -36 -54 -37 -53 -4 12 -4
13 26 39 26 40 0 5 0 5 -23 35 -22 35 -57 0 -58 0 -26 -39 -26 -40 30 -44 31
-43 -30 -46 -30 -46 23 -36 23 -36 60 0 60 0 28 45 29 45 61 0 62 0 28 45 29
45 63 0 63 0 29 -45 28 -45 60 0 60 0 23 35 22 35 0 5 0 5 -22 35 -23 35 -62
0 -61 0 -29 45 -28 45 -57 0 -57 0 -32 -47 -33 -47 -4 12 -4 12 32 50 32 50
62 0 61 0 25 40 25 40 7 0 8 0 0 -10 0 -10 -26 -39 -25 -39 23 -36 23 -36 62
0 61 0 29 -45 28 -45 62 0 61 0 29 -45 28 -45 60 0 60 0 25 40 25 40 7 0 8 0
0 -11 0 -10 -30 -45 -31 -44 -64 0 -63 0 -29 45 -28 45 -57 0 -57 0 -31 -45
-31 -45 -59 0 -60 0 -26 -39 -25 -39 26 -41 27 -40 -4 -12 -4 -11 -36 54 -35
54 28 39 28 40 1 8 0 7 -23 35 -22 35 -57 0 -57 0 -31 -45 -31 -45 -59 0 -59
0 -31 -45 -31 -45 -59 0 -60 0 -26 -39 -26 -40 30 -44 31 -43 -30 -46 -30 -46
23 -36 23 -36 60 0 60 0 23 35 22 35 0 7 -1 8 -28 40 -28 39 31 48 31 48 8 0
7 0 0 -10 0 -10 -26 -39 -25 -39 23 -36 23 -36 62 0 61 0 29 -45 28 -45 60 0
60 0 22 35 23 35 0 5 0 5 -22 35 -23 35 -61 0 -61 0 -35 53 -35 52 31 47 31
48 8 0 7 0 0 -10 0 -10 -26 -39 -25 -39 23 -36 23 -36 62 0 61 0 29 -45 28
-45 60 0 60 0 23 35 22 35 0 5 0 5 -26 40 -27 40 7 7 6 6 3 -4 4 -4 31 -46 31
-45 -30 -46 -30 -46 23 -36 23 -36 60 0 60 0 28 45 29 45 63 0 63 0 29 -45 28
-45 60 0 60 0 28 45 29 45 61 0 62 0 23 35 22 35 0 5 0 5 -22 35 -23 35 -57 0
-57 0 -31 -45 -31 -45 -65 0 -66 0 4 13 5 12 59 3 59 3 29 44 28 45 62 0 61 0
25 40 25 40 7 0 8 0 0 -10 0 -10 -26 -40 -26 -39 30 -44 31 -43 -30 -46 -30
-46 23 -36 23 -36 60 0 60 0 28 45 29 45 61 0 62 0 23 35 22 35 0 5 0 5 -22
35 -23 35 -57 0 -57 0 -32 -47 -33 -47 -4 13 -4 12 26 39 26 40 0 7 -1 8 -28
40 -29 40 29 42 29 42 0 5 0 6 -22 35 -23 35 -62 0 -61 0 -29 45 -28 45 -57 0
-58 0 -26 -39 -25 -39 23 -36 23 -35 59 -3 59 -3 5 -12 4 -13 -61 0 -60 0 -31
-45 -31 -45 -59 0 -59 0 -31 -45 -31 -45 -59 0 -59 0 -32 -47 -33 -47 -4 13
-4 12 26 39 26 40 0 5 0 5 -23 35 -22 35 -63 0 -64 0 4 13 5 12 60 3 61 3 28
-46 29 -45 60 0 60 0 28 45 29 45 61 0 62 0 23 35 22 35 0 7 -1 8 -28 40 -29
40 29 42 29 42 0 5 0 6 -22 35 -23 35 -57 0 -57 0 -32 -47 -33 -47 -4 13 -4
12 26 39 26 40 0 5 0 6 -25 37 -25 37 0 7 0 8 8 0 7 0 25 -40 25 -40 60 0 60
0 23 35 22 35 0 5 0 5 -22 35 -23 35 -62 0 -61 0 -29 45 -28 45 -61 0 -61 0
-35 53 -35 53 28 39 28 40 1 8 0 7 -22 35 -23 35 -63 0 -64 0 4 13 5 12 58 3
59 3 12 17 13 17 11 21 12 21 -24 37 -23 36 -57 0 -57 0 -32 -47 -33 -47 -4
12 -4 12 32 50 32 50 62 0 61 0 28 45 29 45 62 0 61 0 25 40 25 40 7 0 8 0 0
-11 0 -10 -30 -45 -31 -44 -59 0 -60 0 -26 -39 -26 -40 30 -44 31 -43 -31 -47
-30 -46 30 -44 31 -43 -30 -46 -30 -46 23 -36 23 -36 60 0 60 0 25 40 25 40 7
0 8 0 0 -10 0 -10 -26 -39 -25 -39 23 -36 23 -36 62 0 61 0 29 -45 28 -45 60
0 60 0 28 45 29 45 63 0 63 0 29 -45 28 -45 60 0 60 0 23 35 22 35 0 5 0 5
-22 35 -23 35 -61 0 -62 0 -31 48 -31 49 0 6 0 7 8 0 7 0 25 -40 25 -40 60 0
60 0 23 35 22 35 0 5 0 6 -25 37 -25 37 0 7 0 8 8 0 7 0 25 -40 25 -40 60 0
60 0 28 45 29 45 61 0 62 0 28 45 29 45 61 0 62 0 23 35 22 35 0 7 -1 8 -28
40 -29 40 29 42 29 42 0 5 0 6 -22 35 -23 35 -57 0 -58 0 -26 -39 -26 -40 31
-44 30 -44 -35 -51 -35 -52 -59 0 -59 0 -31 -45 -31 -45 -64 0 -63 0 -29 45
-28 45 -57 0 -58 0 -26 -39 -25 -39 26 -41 27 -40 -4 -12 -4 -12 -30 46 -29
47 -57 0 -58 0 -26 -39 -26 -40 31 -44 30 -44 -35 -51 -35 -52 -63 0 -63 0
-35 53 -35 53 28 39 28 40 1 8 0 7 -22 35 -23 35 -57 0 -57 0 -32 -47 -33 -47
-4 13 -4 12 26 39 26 40 0 7 -1 8 -28 40 -28 39 35 54 35 53 60 -3 60 -3 5
-12 4 -13 -61 0 -61 0 -26 -39 -25 -39 23 -36 23 -36 60 0 60 0 25 40 25 40 7
0 8 0 0 -10 0 -10 -26 -40 -26 -39 30 -44 31 -43 -30 -46 -30 -46 23 -36 23
-36 60 0 60 0 23 35 22 35 0 7 -1 8 -28 40 -29 40 29 42 29 42 0 8 -1 8 -28
40 -29 40 29 42 29 42 0 5 0 6 -22 35 -23 35 -63 0 -64 0 4 13 5 12 60 3 60 3
35 -54 36 -54 -30 -46 -29 -45 23 -36 23 -36 60 0 60 0 28 45 29 45 61 0 62 0
23 35 22 35 0 7 -1 8 -28 40 -29 40 29 42 29 42 0 5 0 6 -22 35 -23 35 -57 0
-58 0 -26 -39 -26 -40 31 -44 30 -44 -36 -54 -37 -53 -4 12 -4 13 26 39 26 40
0 5 0 5 -22 35 -23 35 -62 0 -61 0 -29 45 -28 45 -57 0 -57 0 -32 -47 -33 -47
-4 13 -4 12 26 39 26 40 0 5 0 5 -22 35 -23 35 -57 0 -57 0 -31 -45 -31 -45
-65 0 -66 0 4 13 5 12 59 3 59 3 29 44 28 45 61 0 62 0 23 35 22 35 0 5 0 5
-22 35 -23 35 -63 0 -64 0 4 13 5 12 59 3 59 3 29 44 28 45 61 0 62 0 23 35
22 35 0 7 -1 8 -28 40 -28 39 35 53 35 53 61 0 61 0 23 35 22 35 0 5 0 5 -22
35 -23 35 -63 0 -64 0 4 13 5 12 59 3 59 3 23 34 22 35 0 7 -1 8 -28 40 -28
39 35 53 35 53 61 0 61 0 28 45 29 45 61 0 62 0 23 35 22 35 0 5 0 5 -22 35
-23 35 -62 0 -61 0 -29 45 -28 45 -62 0 -61 0 -29 45 -28 45 -57 0 -57 0 -31
-45 -31 -45 -59 0 -60 0 -26 -39 -26 -40 30 -44 31 -43 -30 -46 -30 -46 23
-36 23 -36 60 0 60 0 28 45 29 45 61 0 62 0 23 35 22 35 0 5 0 5 -22 35 -23
35 -57 0 -57 0 -32 -47 -33 -47 -4 12 -4 12 32 50 32 50 63 0 63 0 28 -45 29
-44 59 -3 59 -3 5 -12 4 -13 -61 0 -60 0 -31 -45 -31 -45 -59 0 -60 0 -26 -39
-25 -39 26 -41 27 -40 -4 -12 -4 -12 -30 46 -29 47 -62 0 -61 0 -29 45 -28 45
-57 0 -58 0 -26 -39 -26 -40 30 -44 31 -43 -31 -47 -30 -46 30 -44 31 -43 -31
-47 -30 -46 31 -44 30 -44 -35 -51 -35 -52 -59 0 -60 0 -26 -39 -25 -39 23
-36 23 -36 60 0 60 0 28 45 29 45 61 0 62 0 23 35 22 35 0 7 -1 8 -28 40 -29
40 29 42 29 42 0 8 -1 8 -28 40 -29 40 29 42 29 42 0 6 0 6 -25 37 -25 37 0 7
0 8 8 0 7 0 25 -40 24 -39 60 -3 59 -3 5 -12 4 -13 -61 0 -61 0 -26 -39 -25
-39 23 -36 23 -35 59 -3 59 -3 5 -12 4 -13 -61 0 -61 0 -26 -39 -26 -40 31
-44 30 -44 -35 -51 -35 -52 -59 0 -59 0 -31 -45 -31 -45 -59 0 -60 0 -26 -39
-25 -39 23 -36 23 -35 59 -3 59 -3 5 -12 4 -13 -61 0 -60 0 -32 -47 -33 -47
-4 13 -4 12 26 39 26 40 0 7 -1 8 -28 40 -29 40 29 42 29 42 0 8 -1 8 -28 40
-28 39 35 53 35 53 61 0 61 0 23 35 22 35 0 5 0 5 -22 35 -23 35 -63 0 -64 0
4 13 5 12 58 3 59 3 12 17 13 17 12 22 11 21 -30 44 -30 43 29 40 28 40 0 10
0 10 -28 40 -28 39 35 53 35 53 61 0 61 0 23 35 22 35 0 7 -1 8 -28 40 -29 40
29 42 29 42 0 6 0 6 -25 37 -25 37 0 7 0 8 8 0 7 0 25 -40 25 -40 60 0 60 0
23 35 22 35 0 5 0 6 -25 37 -25 37 0 7 0 8 8 0 7 0 25 -40 25 -40 61 0 62 0
29 -45 28 -45 62 0 61 0 29 -45 28 -45 61 0 61 0 36 -53 35 -54 -30 -46 -29
-45 23 -36 23 -36 60 0 60 0 25 40 25 40 7 0 8 0 0 -10 0 -10 -26 -39 -25 -39
23 -36 23 -36 60 0 60 0 28 45 29 45 61 0 62 0 23 35 22 35 0 5 0 5 -22 35
-23 35 -57 0 -57 0 -32 -47 -33 -47 -4 13 -4 12 26 39 26 40 0 5 0 5 -22 35
-23 35 -57 0 -57 0 -32 -47 -33 -47 -4 13 -4 12 26 39 26 40 0 5 0 5 -22 35
-23 35 -63 0 -64 0 4 13 5 12 59 3 59 3 29 45 28 45 61 -3 60 -3 5 -12 4 -13
-61 0 -61 0 -26 -39 -25 -39 23 -36 23 -36 62 0 61 0 29 -45 28 -45 62 0 61 0
28 -45 29 -44 59 -3 59 -3 5 -12 4 -13 -61 0 -61 0 -26 -39 -25 -39 23 -36 23
-35 59 -3 59 -3 5 -12 4 -13 -65 0 -65 0 -29 45 -28 45 -57 0 -57 0 -31 -45
-31 -45 -59 0 -60 0 -26 -39 -26 -40 30 -44 31 -43 -30 -46 -30 -46 23 -36 23
-35 59 -3 59 -3 5 -12 4 -13 -65 0 -64 0 -35 53 -35 53 28 39 28 40 1 8 0 7
-22 35 -23 35 -63 0 -64 0 4 13 5 12 58 3 59 3 12 17 13 17 11 21 12 21 -24
37 -23 36 -62 0 -61 0 -29 45 -28 45 -57 0 -57 0 -31 -45 -31 -45 -59 0 -60 0
-26 -39 -26 -40 30 -44 31 -43 -31 -47 -30 -46 30 -44 31 -43 -30 -46 -30 -46
23 -36 23 -36 62 0 61 0 29 -45 28 -45 60 0 60 0 23 35 22 35 0 7 -1 8 -28 40
-29 40 29 42 29 42 0 5 0 6 -22 35 -23 35 -57 0 -58 0 -26 -39 -25 -39 26 -41
27 -40 -4 -12 -4 -11 -36 54 -35 54 28 39 28 40 0 10 0 10 -28 40 -28 39 35
54 35 53 60 -3 60 -3 5 -12 4 -13 -61 0 -61 0 -26 -39 -25 -39 23 -36 23 -36
61 0 61 0 36 -53 35 -54 -30 -46 -29 -45 23 -36 23 -36 62 0 61 0 29 -45 28
-45 60 0 60 0 28 45 29 45 61 0 62 0 23 35 22 35 0 5 0 5 -22 35 -23 35 -63 0
-64 0 4 13 5 12 58 3 59 3 12 17 13 17 11 21 12 21 -24 37 -23 36 -57 0 -57 0
-32 -47 -33 -47 -4 12 -4 12 32 50 32 50 63 0 63 0 29 -45 28 -45 60 0 60 0
25 40 25 40 7 0 8 0 0 -11 0 -10 -30 -45 -31 -44 -59 0 -60 0 -26 -39 -25 -39
23 -36 23 -36 62 0 61 0 29 -45 28 -45 60 0 60 0 25 40 25 40 7 0 8 0 0 -10 0
-10 -26 -39 -25 -39 23 -36 23 -35 59 -3 59 -3 5 -12 4 -13 -65 0 -65 0 -29
45 -28 45 -57 0 -58 0 -26 -39 -26 -40 31 -44 30 -44 -35 -51 -35 -52 -65 0
-66 0 4 13 5 12 58 3 59 3 12 17 13 17 12 22 11 21 -30 44 -30 43 29 40 28 40
1 8 0 7 -22 35 -23 35 -57 0 -57 0 -31 -45 -31 -45 -59 0 -59 0 -31 -45 -31
-45 -59 0 -60 0 -26 -39 -26 -40 30 -44 31 -43 -30 -46 -30 -46 26 -41 27 -40
-4 -12 -4 -12 -30 46 -29 47 -57 0 -58 0 -26 -39 -26 -40 30 -44 31 -43 -31
-47 -30 -46 31 -44 30 -44 -36 -54 -37 -53 -4 12 -4 13 26 39 26 40 0 7 -1 8
-28 40 -29 40 29 42 29 42 0 8 -1 8 -28 40 -28 39 35 53 35 53 61 0 61 0 23
35 22 35 0 5 0 5 -22 35 -23 35 -63 0 -64 0 4 13 5 12 58 3 59 3 12 17 13 17
11 21 12 21 -24 37 -23 36 -57 0 -57 0 -31 -45 -31 -45 -64 0 -63 0 -29 45
-28 45 -57 0 -58 0 -26 -39 -26 -40 31 -44 30 -44 -35 -51 -35 -52 -59 0 -60
0 -26 -39 -25 -39 23 -36 23 -35 59 -3 59 -3 5 -12 4 -13 -65 0 -64 0 -35 53
-35 52 35 53 35 52 61 0 61 0 23 35 22 35 0 7 -1 8 -28 40 -29 40 29 42 29 42
0 5 0 6 -22 35 -23 35 -57 0 -58 0 -26 -39 -26 -40 31 -44 30 -44 -35 -51 -35
-52 -59 0 -60 0 -26 -39 -26 -40 30 -44 31 -43 -30 -46 -30 -46 23 -36 23 -36
62 0 61 0 29 -45 28 -45 60 0 60 0 28 45 29 45 61 0 62 0 23 35 22 35 0 5 0 5
-22 35 -23 35 -63 0 -64 0 4 13 5 12 58 3 59 3 12 17 13 17 12 21 11 22 -26
38 -26 39 0 7 0 8 8 0 7 0 25 -40 24 -39 60 -3 59 -3 5 -12 4 -13 -61 0 -61 0
-26 -39 -26 -40 30 -44 31 -43 -31 -47 -30 -46 30 -44 31 -43 -31 -47 -30 -46
30 -44 31 -43 -30 -46 -30 -46 23 -36 23 -36 60 0 60 0 28 45 29 45 61 0 62 0
23 35 22 35 0 7 -1 8 -28 40 -29 40 29 42 29 42 0 6 0 6 -25 37 -25 37 0 7 0
8 8 0 7 0 25 -40 25 -40 61 0 61 0 36 -53 35 -54 -30 -46 -29 -45 23 -36 23
-36 62 0 61 0 29 -45 28 -45 60 0 60 0 23 35 22 35 0 7 -1 8 -28 40 -28 39 35
53 35 53 61 0 61 0 23 35 22 35 0 5 0 5 -22 35 -23 35 -62 0 -61 0 -29 45 -28
45 -62 0 -61 0 -29 45 -28 45 -57 0 -58 0 -26 -39 -25 -39 23 -36 23 -36 62 0
61 0 28 -45 29 -44 59 -3 59 -3 5 -12 4 -13 -61 0 -61 0 -26 -39 -25 -39 26
-41 27 -40 -4 -12 -4 -11 -36 54 -35 54 28 39 28 40 1 8 0 7 -22 35 -23 35
-61 0 -61 0 -35 53 -35 53 28 39 28 40 0 10 0 10 -28 40 -28 39 35 53 35 53
61 0 61 0 25 40 25 40 7 0 8 0 0 -11 0 -10 -30 -45 -31 -44 -59 0 -60 0 -26
-39 -25 -39 23 -36 23 -36 62 0 61 0 29 -45 28 -45 60 0 60 0 28 45 29 45 61
0 62 0 23 35 22 35 0 5 0 6 -25 37 -25 37 0 7 0 8 8 0 7 0 25 -40 25 -40 60 0
60 0 28 45 29 45 61 0 62 0 29 45 28 46 61 -3 60 -3 5 -12 4 -13 -61 0 -61 0
-26 -39 -25 -39 26 -41 27 -40 -4 -12 -4 -12 -30 46 -29 47 -57 0 -57 0 -31
-45 -31 -45 -59 0 -59 0 -31 -45 -31 -45 -59 0 -60 0 -26 -39 -25 -39 23 -36
23 -36 61 0 61 0 36 -54 36 -53 -35 -52 -35 -51 -59 0 -60 0 -26 -39 -25 -39
23 -36 23 -35 59 -3 59 -3 5 -12 4 -13 -61 0 -61 0 -26 -39 -26 -40 30 -44 31
-43 -30 -46 -30 -46 23 -36 23 -36 62 0 61 0 29 -45 28 -45 62 0 61 0 29 -45
28 -45 61 0 61 0 36 -54 36 -53 -37 -54 -36 -53 -4 12 -4 13 26 39 26 40 0 5
0 5 -22 35 -23 35 -57 0 -57 0 -32 -47 -33 -47 -4 13 -4 12 26 39 26 40 0 5 0
5 -22 35 -23 35 -57 0 -57 0 -32 -47 -33 -47 -4 13 -4 12 26 39 26 40 0 5 0 5
-22 35 -23 35 -57 0 -57 0 -31 -45 -31 -45 -59 0 -59 0 -31 -45 -31 -45 -59 0
-60 0 -26 -39 -25 -39 26 -41 27 -40 -4 -12 -4 -12 -30 46 -29 47 -57 0 -57 0
-31 -45 -31 -45 -59 0 -59 0 -32 -47 -33 -47 -4 12 -4 12 32 50 32 50 62 0 61
0 28 45 29 45 61 0 62 0 23 35 22 35 0 5 0 5 -22 35 -23 35 -63 0 -64 0 4 13
5 12 60 3 61 3 28 -46 29 -45 60 0 60 0 23 35 22 35 0 5 0 6 -25 37 -25 37 0
7 0 8 8 0 7 0 25 -40 25 -40 60 0 60 0 23 35 22 35 0 7 -1 8 -28 40 -29 40 29
42 29 42 0 5 0 6 -22 35 -23 35 -62 0 -61 0 -29 45 -28 45 -57 0 -57 0 -31
-45 -31 -45 -59 0 -59 0 -31 -45 -31 -45 -59 0 -59 0 -31 -45 -31 -45 -59 0
-60 0 -26 -39 -26 -40 31 -44 30 -44 -35 -51 -35 -52 -63 0 -64 0 -29 45 -28
45 -57 0 -57 0 -31 -45 -31 -45 -59 0 -60 0 -26 -39 -25 -39 23 -36 23 -36 62
0 61 0 29 -45 28 -45 61 0 61 0 36 -53 35 -54 -30 -46 -29 -45 23 -36 23 -36
62 0 61 0 28 -45 29 -44 59 -3 59 -3 5 -12 4 -13 -61 0 -61 0 -25 -39 -26 -38
28 -46 28 -46 50 0 50 0 33 54 33 55 62 0 62 0 23 35 22 35 0 5 0 5 -22 35
-23 35 -62 0 -61 0 -29 45 -28 45 -61 0 -61 0 -35 53 -35 53 28 39 28 40 1 8
0 7 -22 35 -23 35 -62 0 -61 0 -29 45 -28 45 -63 0 -64 0 4 13 5 12 60 3 61 3
28 -46 29 -45 60 0 60 0 28 45 29 45 61 0 62 0 23 35 22 35 0 7 -1 8 -28 40
-28 39 35 53 35 53 61 0 61 0 28 45 29 45 61 0 62 0 28 45 29 45 63 0 63 0 32
-50 32 -50 -4 -11 -4 -12 -30 46 -29 47 -57 0 -58 0 -26 -39 -25 -39 26 -41
27 -40 -4 -12 -4 -12 -30 46 -29 47 -57 0 -57 0 -31 -45 -31 -45 -59 0 -60 0
-26 -39 -25 -39 23 -36 23 -35 59 -3 59 -3 5 -12 4 -13 -61 0 -60 0 -31 -45
-31 -45 -59 0 -60 0 -26 -39 -26 -40 30 -44 31 -43 -30 -46 -30 -46 23 -36 23
-36 60 0 60 0 28 45 29 45 61 0 62 0 28 45 29 45 63 0 63 0 29 -45 28 -45 60
0 60 0 23 35 22 35 0 7 -1 8 -28 40 -28 39 35 53 35 53 61 0 61 0 25 40 25 40
7 0 8 0 0 -10 0 -10 -26 -39 -25 -39 23 -36 23 -36 60 0 60 0 25 40 25 40 7 0
8 0 0 -10 0 -10 -26 -39 -25 -39 23 -36 23 -36 60 0 60 0 25 40 25 40 7 0 8 0
0 -10 0 -10 -26 -39 -25 -39 23 -36 23 -36 60 0 60 0 28 45 29 45 61 0 62 0
23 35 22 35 0 7 -1 8 -28 40 -29 40 29 42 29 42 0 5 0 6 -22 35 -23 35 -62 0
-61 0 -29 45 -28 45 -62 0 -61 0 -29 45 -28 45 -61 0 -61 0 -35 52 -35 53 35
52 35 53 61 0 61 0 23 35 22 35 0 5 0 5 -22 35 -23 35 -63 0 -64 0 4 13 5 12
58 3 59 3 12 17 13 17 12 22 11 21 -30 44 -30 43 29 40 28 40 1 8 0 7 -22 35
-23 35 -63 0 -64 0 4 13 5 12 59 3 59 3 29 44 28 45 63 0 63 0 29 -45 28 -45
60 0 60 0 23 35 22 35 0 5 0 5 -26 40 -27 40 7 7 6 6 3 -4 4 -4 31 -46 31 -45
-31 -47 -30 -46 31 -44 30 -44 -35 -51 -35 -52 -59 0 -60 0 -26 -39 -25 -39
23 -36 23 -35 59 -3 59 -3 5 -12 4 -13 -61 0 -61 0 -26 -39 -25 -39 26 -41 27
-40 -4 -12 -4 -11 -36 54 -35 54 28 39 28 40 0 10 0 10 -28 40 -28 39 35 53
35 53 61 0 61 0 23 35 22 35 0 5 0 5 -22 35 -23 35 -62 0 -61 0 -29 45 -28 45
-57 0 -58 0 -26 -39 -25 -39 23 -36 23 -35 59 -3 59 -3 5 -12 4 -13 -61 0 -61
0 -26 -39 -26 -40 30 -44 31 -43 -31 -47 -30 -46 30 -44 31 -43 -30 -46 -30
-46 23 -36 23 -36 62 0 61 0 29 -45 28 -45 60 0 60 0 23 35 22 35 0 5 0 5 -26
40 -27 40 7 7 6 6 3 -4 4 -4 31 -46 31 -45 -30 -46 -30 -46 26 -41 27 -40 -4
-12 -4 -12 -30 46 -29 47 -62 0 -61 0 -29 45 -28 45 -62 0 -61 0 -29 45 -28
45 -57 0 -58 0 -26 -39 -25 -39 23 -36 23 -36 62 0 61 0 29 -45 28 -45 62 0
61 0 29 -45 28 -45 61 0 61 0 36 -53 35 -54 -30 -46 -30 -46 30 -44 31 -43
-30 -46 -30 -46 26 -41 27 -40 -4 -12 -4 -12 -30 46 -29 47 -57 0 -58 0 -26
-39 -26 -40 30 -44 31 -43 -30 -46 -30 -46 23 -36 23 -35 59 -3 59 -3 5 -12 4
-13 -65 0 -64 0 -35 53 -35 53 28 39 28 40 1 8 0 7 -22 35 -23 35 -62 0 -61 0
-29 45 -28 45 -57 0 -58 0 -26 -39 -25 -39 26 -41 27 -40 -4 -12 -4 -12 -30
46 -29 47 -63 0 -64 0 4 13 5 12 58 3 59 3 12 17 13 17 11 21 12 21 -24 37
-23 36 -62 0 -61 0 -29 45 -28 45 -57 0 -58 0 -26 -39 -25 -39 23 -36 23 -35
59 -3 59 -3 5 -12 4 -13 -61 0 -60 0 -31 -45 -31 -45 -59 0 -59 0 -32 -47 -33
-47 -4 13 -4 12 26 39 26 40 0 5 0 5 -22 35 -23 35 -57 0 -57 0 -31 -45 -31
-45 -59 0 -60 0 -26 -39 -25 -39 23 -36 23 -36 60 0 60 0 25 40 25 40 7 0 8 0
0 -10 0 -10 -26 -39 -25 -39 23 -36 23 -36 60 0 60 0 28 45 29 45 61 0 62 0
28 45 29 45 63 0 63 0 29 -45 28 -45 61 0 62 0 32 -50 32 -50 -4 -11 -4 -12
-30 46 -29 47 -62 0 -61 0 -29 45 -28 45 -57 0 -57 0 -31 -45 -31 -45 -59 0
-59 0 -31 -45 -31 -45 -59 0 -60 0 -26 -39 -25 -39 23 -36 23 -36 60 0 60 0
28 45 29 45 63 0 63 0 29 -45 28 -45 60 0 60 0 23 35 22 35 0 5 0 5 -22 35
-23 35 -63 0 -64 0 4 13 5 12 60 3 61 3 28 -46 29 -45 62 0 61 0 29 -45 28
-45 60 0 60 0 23 35 22 35 0 7 -1 8 -28 40 -29 40 29 42 29 42 0 6 0 5 -26 40
-27 40 7 7 6 6 3 -4 4 -4 31 -46 31 -45 -30 -46 -30 -46 23 -36 23 -36 62 0
61 0 29 -45 28 -45 60 0 60 0 28 45 29 45 61 0 62 0 22 35 23 35 0 5 0 5 -22
35 -23 35 -61 0 -62 0 -31 48 -31 49 0 6 0 7 8 0 7 0 25 -40 25 -40 60 0 60 0
23 35 22 35 0 7 -1 8 -28 40 -29 40 29 42 29 42 0 8 -1 8 -28 40 -29 40 29 42
29 42 0 8 -1 8 -28 40 -29 40 29 42 29 42 0 8 -1 8 -28 40 -29 40 29 42 29 42
0 8 -1 8 -28 40 -29 40 29 42 29 42 0 5 0 6 -22 35 -23 35 -63 0 -64 0 4 13 5
12 58 3 59 3 12 17 13 17 11 21 12 21 -24 37 -23 36 -63 0 -64 0 4 13 5 12 58
3 59 3 12 17 13 17 12 22 11 21 -30 44 -30 43 29 40 28 40 0 10 0 10 -28 40
-29 40 29 42 29 42 0 5 0 6 -22 35 -23 35 -63 0 -64 0 4 13 5 12 58 3 59 3 12
17 13 17 11 21 12 21 -24 37 -23 36 -63 0 -64 0 4 13 5 12 58 3 59 3 12 17 13
17 12 22 11 21 -30 44 -30 43 29 40 28 40 1 8 0 7 -22 35 -23 35 -57 0 -58 0
-26 -39 -26 -40 31 -44 30 -44 -35 -51 -35 -52 -59 0 -59 0 -31 -45 -31 -45
-63 0 -63 0 -35 53 -35 53 28 39 28 40 0 10 0 10 -28 40 -28 39 31 48 31 48 8
0 7 0 0 -10 0 -10 -26 -40 -26 -39 30 -44 31 -43 -30 -46 -30 -46 23 -36 23
-36 60 0 60 0 28 45 29 45 61 0 62 0 23 35 22 35 0 7 -1 8 -28 40 -28 39 35
53 35 53 61 0 61 0 23 35 22 35 0 7 -1 8 -28 40 -29 40 29 42 29 42 0 5 0 6
-22 35 -23 35 -57 0 -57 0 -32 -47 -33 -47 -4 13 -4 12 26 39 26 40 0 5 0 5
-22 35 -23 35 -57 0 -57 0 -31 -45 -31 -45 -64 0 -63 0 -29 45 -28 45 -63 0
-64 0 4 13 5 12 58 3 59 3 12 17 13 17 11 21 12 21 -27 42 -28 41 7 7 6 6 3
-4 4 -4 31 -46 31 -45 -30 -46 -30 -46 23 -36 23 -36 60 0 60 0 28 45 29 45
62 0 61 0 25 40 25 40 7 0 8 0 0 -10 0 -10 -26 -39 -25 -39 23 -36 23 -36 60
0 60 0 23 35 22 35 0 7 -1 8 -28 40 -29 40 29 42 29 42 0 5 0 6 -22 35 -23 35
-57 0 -57 0 -32 -47 -33 -47 -4 12 -4 12 32 50 32 50 62 0 61 0 23 35 22 35 0
7 -1 8 -28 40 -29 40 29 42 29 42 0 5 0 6 -22 35 -23 35 -57 0 -58 0 -26 -39
-26 -40 31 -44 30 -44 -35 -51 -35 -52 -59 0 -60 0 -26 -39 -26 -40 31 -44 30
-44 -36 -54 -37 -53 -4 12 -4 13 26 39 26 40 0 5 0 5 -22 35 -23 35 -63 0 -64
0 4 13 5 12 59 3 59 3 29 44 28 45 61 0 62 0 23 35 22 35 0 5 0 5 -22 35 -23
35 -62 0 -61 0 -29 45 -28 45 -57 0 -57 0 -31 -45 -31 -45 -64 0 -63 0 -29 45
-28 45 -57 0 -58 0 -26 -39 -26 -40 31 -44 30 -44 -35 -51 -35 -52 -59 0 -60
0 -26 -39 -26 -40 30 -44 31 -43 -30 -46 -30 -46 23 -36 23 -36 60 0 60 0 28
45 29 45 61 0 62 0 23 35 22 35 0 5 0 5 -22 35 -23 35 -57 0 -57 0 -32 -47
-33 -47 -4 12 -4 12 32 50 32 50 62 0 61 0 23 35 22 35 0 5 0 6 -25 37 -25 37
0 7 0 8 8 0 7 0 25 -40 25 -40 60 0 60 0 29 45 28 46 61 -3 60 -3 5 -12 4 -13
-61 0 -60 0 -31 -45 -31 -45 -59 0 -60 0 -26 -39 -26 -40 31 -44 30 -44 -35
-51 -35 -52 -59 0 -60 0 -26 -39 -25 -39 23 -36 23 -36 62 0 61 0 29 -45 28
-45 62 0 61 0 29 -45 28 -45 60 0 60 0 25 40 25 40 7 0 8 0 0 -10 0 -10 -26
-39 -25 -39 23 -36 23 -36 60 0 60 0 25 40 25 40 7 0 8 0 0 -11 0 -10 -30 -45
-31 -44 -59 0 -60 0 -26 -39 -26 -40 31 -44 30 -44 -36 -54 -37 -53 -4 12 -4
13 26 39 26 40 0 7 -1 8 -28 40 -29 40 29 42 29 42 0 5 0 6 -22 35 -23 35 -57
0 -57 0 -31 -45 -31 -45 -59 0 -60 0 -26 -39 -26 -40 31 -44 30 -44 -35 -51
-35 -52 -65 0 -66 0 4 13 5 12 58 3 59 3 12 17 13 17 12 22 11 21 -30 44 -30
43 29 40 28 40 1 8 0 7 -22 35 -23 35 -63 0 -64 0 4 13 5 12 60 3 61 3 28 -46
29 -45 60 0 60 0 23 35 22 35 0 5 0 5 -22 35 -23 35 -62 0 -61 0 -29 45 -28
45 -62 0 -61 0 -29 45 -28 45 -62 0 -61 0 -29 45 -28 45 -63 0 -64 0 4 13 5
12 58 3 59 3 12 17 13 17 11 21 12 21 -24 37 -23 36 -62 0 -61 0 -29 45 -28
45 -57 0 -57 0 -31 -45 -31 -45 -65 0 -66 0 4 13 5 12 59 3 59 3 29 44 28 45
62 0 61 0 25 40 25 40 7 0 8 0 0 -10 0 -10 -26 -39 -25 -39 23 -36 23 -36 60
0 60 0 28 45 29 45 61 0 62 0 23 35 22 35 0 5 0 5 -22 35 -23 35 -57 0 -57 0
-32 -47 -33 -47 -4 13 -4 12 26 39 26 40 0 5 0 5 -22 35 -23 35 -57 0 -57 0
-31 -45 -31 -45 -59 0 -59 0 -31 -45 -31 -45 -59 0 -59 0 -31 -45 -31 -45 -59
0 -60 0 -26 -39 -25 -39 23 -36 23 -35 59 -3 59 -3 5 -12 4 -13 -65 0 -65 0
-29 45 -28 45 -62 0 -61 0 -29 45 -28 45 -63 0 -64 0 4 13 5 12 59 3 60 3 24
39 25 40 7 0 8 0 0 -10 0 -10 -26 -39 -25 -39 23 -36 23 -36 60 0 60 0 28 45
29 45 61 0 62 0 28 45 29 45 61 0 62 0 23 35 22 35 0 5 0 5 -22 35 -23 35 -57
0 -57 0 -31 -45 -31 -45 -59 0 -59 0 -32 -47 -33 -47 -4 13 -4 12 27 41 27 41
-13 23 -12 24 -19 19 -18 20 0 11 0 10 -45 0 -45 0 0 -10z"/>
<path d="M1830 3700 l0 -10 23 -35 22 -35 60 0 60 0 14 23 14 22 15 23 14 22
-111 0 -111 0 0 -10z"/>
<path d="M2192 3688 l15 -23 14 -22 14 -23 60 0 60 0 14 23 14 22 15 23 14 22
-117 0 -117 0 14 -22z"/>
<path d="M2552 3688 l15 -23 14 -22 14 -23 60 0 60 0 14 23 14 22 15 23 14 22
-117 0 -117 0 14 -22z"/>
<path d="M2912 3688 l15 -23 14 -22 14 -23 60 0 60 0 14 23 14 22 15 23 14 22
-117 0 -117 0 14 -22z"/>
<path d="M3272 3688 l15 -23 14 -22 14 -23 60 0 60 0 14 23 14 22 15 23 14 22
-117 0 -117 0 14 -22z"/>
<path d="M3635 3683 l18 -28 14 -20 13 -19 0 47 0 47 -31 0 -31 0 17 -27z"/>
<path d="M3650 3545 l-21 -34 25 -38 26 -38 0 73 0 72 -4 0 -4 0 -22 -35z"/>
<path d="M0 3428 l0 -88 4 0 3 0 28 41 27 42 -11 21 -12 21 -19 25 -20 25 0
-87z"/>
<path d="M3650 3365 l-21 -34 25 -38 26 -38 0 73 0 72 -4 0 -4 0 -22 -35z"/>
<path d="M0 3248 l0 -88 4 0 3 0 28 41 27 42 -11 21 -12 21 -19 25 -20 25 0
-87z"/>
<path d="M3650 3185 l-21 -34 25 -38 26 -38 0 73 0 72 -4 0 -4 0 -22 -35z"/>
<path d="M0 3068 l0 -88 4 0 3 0 28 41 27 42 -11 21 -12 21 -19 25 -20 25 0
-87z"/>
<path d="M3650 3005 l-21 -34 25 -38 26 -38 0 73 0 72 -4 0 -4 0 -22 -35z"/>
<path d="M0 2888 l0 -88 4 0 3 0 28 41 27 42 -11 21 -12 21 -19 25 -20 25 0
-87z"/>
<path d="M3650 2825 l-21 -34 25 -38 26 -38 0 73 0 72 -4 0 -4 0 -22 -35z"/>
<path d="M0 2708 l0 -88 4 0 3 0 28 41 27 42 -11 21 -12 21 -19 25 -20 25 0
-87z"/>
<path d="M3650 2645 l-21 -34 25 -38 26 -38 0 73 0 72 -4 0 -4 0 -22 -35z"/>
<path d="M0 2528 l0 -88 4 0 3 0 28 41 27 42 -11 21 -12 21 -19 25 -20 25 0
-87z"/>
<path d="M3650 2465 l-21 -34 25 -38 26 -38 0 73 0 72 -4 0 -4 0 -22 -35z"/>
<path d="M0 2348 l0 -88 4 0 3 0 28 41 27 42 -11 21 -12 21 -19 25 -20 25 0
-87z"/>
<path d="M3650 2285 l-21 -34 25 -38 26 -38 0 73 0 72 -4 0 -4 0 -22 -35z"/>
<path d="M0 2168 l0 -88 4 0 3 0 28 41 27 42 -11 21 -12 21 -19 25 -20 25 0
-87z"/>
<path d="M3650 2105 l-21 -34 25 -38 26 -38 0 73 0 72 -4 0 -4 0 -22 -35z"/>
<path d="M0 1988 l0 -88 4 0 3 0 28 41 27 42 -11 21 -12 21 -19 25 -20 25 0
-87z"/>
<path d="M3650 1925 l-21 -34 25 -38 26 -38 0 73 0 72 -4 0 -4 0 -22 -35z"/>
<path d="M0 1808 l0 -88 4 0 3 0 28 41 27 42 -11 21 -12 21 -19 25 -20 25 0
-87z"/>
<path d="M3650 1745 l-21 -34 25 -38 26 -38 0 73 0 72 -4 0 -4 0 -22 -35z"/>
<path d="M0 1628 l0 -88 4 0 3 0 28 41 27 42 -11 21 -12 21 -19 25 -20 25 0
-87z"/>
<path d="M3650 1565 l-21 -34 25 -38 26 -38 0 73 0 72 -4 0 -4 0 -22 -35z"/>
<path d="M0 1448 l0 -88 4 0 3 0 28 41 27 42 -11 21 -12 21 -19 25 -20 25 0
-87z"/>
<path d="M3650 1385 l-21 -34 25 -38 26 -38 0 73 0 72 -4 0 -4 0 -22 -35z"/>
<path d="M0 1268 l0 -88 4 0 3 0 28 41 27 42 -11 21 -12 21 -19 25 -20 25 0
-87z"/>
<path d="M3650 1205 l-21 -34 25 -38 26 -38 0 73 0 72 -4 0 -4 0 -22 -35z"/>
<path d="M0 1088 l0 -88 4 0 3 0 28 41 27 42 -11 21 -12 21 -19 25 -20 25 0
-87z"/>
<path d="M3650 1025 l-21 -34 25 -38 26 -38 0 73 0 72 -4 0 -4 0 -22 -35z"/>
<path d="M0 908 l0 -88 4 0 3 0 28 41 27 42 -11 21 -12 21 -19 25 -20 25 0
-87z"/>
<path d="M3650 845 l-21 -34 25 -38 26 -38 0 73 0 72 -4 0 -4 0 -22 -35z"/>
<path d="M0 728 l0 -88 4 0 3 0 28 41 27 42 -11 21 -12 21 -19 25 -20 25 0
-87z"/>
<path d="M3650 665 l-21 -34 25 -38 26 -38 0 73 0 72 -4 0 -4 0 -22 -35z"/>
<path d="M0 548 l0 -88 4 0 3 0 28 41 27 42 -11 21 -12 21 -19 25 -20 25 0
-87z"/>
<path d="M3650 485 l-21 -34 25 -38 26 -38 0 73 0 72 -4 0 -4 0 -22 -35z"/>
<path d="M0 368 l0 -88 4 0 3 0 28 41 27 42 -11 21 -12 21 -19 25 -20 25 0
-87z"/>
<path d="M3650 305 l-21 -34 25 -38 26 -38 0 73 0 72 -4 0 -4 0 -22 -35z"/>
<path d="M0 188 l0 -88 4 0 3 0 28 41 27 42 -11 21 -12 21 -19 25 -20 25 0
-87z"/>
<path d="M3647 122 l-27 -42 -60 0 -59 0 -26 -37 -25 -38 111 -3 112 -3 4 4 4
5 -3 78 -3 78 -28 -42z"/>
<path d="M0 45 l0 -45 30 0 30 0 0 5 0 5 -26 40 -27 40 -3 0 -4 0 0 -45z"/>
<path d="M235 43 l-25 -38 101 -3 102 -3 4 5 4 4 -23 36 -23 36 -57 0 -57 0
-26 -37z"/>
<path d="M595 43 l-25 -38 101 -3 102 -3 4 5 4 4 -23 36 -23 36 -57 0 -57 0
-26 -37z"/>
<path d="M955 43 l-25 -38 101 -3 102 -3 4 5 4 4 -23 36 -23 36 -57 0 -57 0
-26 -37z"/>
<path d="M1315 43 l-25 -38 101 -3 102 -3 4 5 4 4 -23 36 -23 36 -57 0 -57 0
-26 -37z"/>
<path d="M1675 43 l-25 -38 101 -3 102 -3 4 5 4 4 -23 36 -23 36 -57 0 -57 0
-26 -37z"/>
<path d="M2035 43 l-25 -38 101 -3 102 -3 4 5 4 4 -23 36 -23 36 -57 0 -57 0
-26 -37z"/>
<path d="M2395 43 l-25 -38 101 -3 102 -3 4 5 4 4 -23 36 -23 36 -57 0 -57 0
-26 -37z"/>
<path d="M2755 43 l-25 -38 101 -3 102 -3 4 5 4 4 -23 36 -23 36 -57 0 -57 0
-26 -37z"/>
<path d="M3115 43 l-25 -38 101 -3 102 -3 4 5 4 4 -23 36 -23 36 -57 0 -57 0
-26 -37z"/>
</g>
</svg>
