999
"DXF R12 Output" (www.mydxf.blogspot.com)
 0 
SECTION
 2 
HEADER
 9 
$ACADVER
 1 
AC1009
 9 
$EXTMIN
 10 
 0 
 20 
 0 
 9 
$EXTMAX
 10 
 8.5 
 20 
 11 
 0 
ENDSEC
 0 
SECTION
 2 
ENTITIES
0
LINE
8
Layer 1
10
0.000000
20
-695.113000
11
0.000000
21
-673.946300
0
LINE
8
Layer 1
10
0.000000
20
-673.946300
11
1.128890
21
-673.946300
0
LINE
8
Layer 1
10
1.128890
20
-673.946300
11
1.975556
21
-673.946300
0
LINE
8
Layer 1
10
1.975556
20
-673.946300
11
11.853326
21
-688.904100
0
LINE
8
Layer 1
10
11.853326
20
-688.904100
11
21.731096
21
-703.579600
0
LINE
8
Layer 1
10
21.731096
20
-703.579600
11
25.117756
21
-710.070710
0
LINE
8
Layer 1
10
25.117756
20
-710.070710
11
28.504416
21
-716.279590
0
LINE
8
Layer 1
10
28.504416
20
-716.279590
11
14.111116
21
-716.279590
0
LINE
8
Layer 1
10
14.111116
20
-716.279590
11
0.000016
21
-716.279590
0
LINE
8
Layer 1
10
0.000016
20
-716.279590
11
0.000016
21
-695.112890
0
LINE
8
Layer 1
10
0.000016
20
-695.112890
11
0.000000
21
-695.113000
0
LINE
8
Layer 1
10
442.806000
20
-707.248000
11
448.732660
21
-697.934670
0
LINE
8
Layer 1
10
448.732660
20
-697.934670
11
454.941540
21
-687.492470
0
LINE
8
Layer 1
10
454.941540
20
-687.492470
11
460.868200
21
-677.050270
0
LINE
8
Layer 1
10
460.868200
20
-677.050270
11
486.268200
21
-676.203604
0
LINE
8
Layer 1
10
486.268200
20
-676.203604
11
511.668200
21
-675.356938
0
LINE
8
Layer 1
10
511.668200
20
-675.356938
11
513.079310
21
-671.970278
0
LINE
8
Layer 1
10
513.079310
20
-671.970278
11
514.208200
21
-668.301388
0
LINE
8
Layer 1
10
514.208200
20
-668.301388
11
487.114900
21
-668.301388
0
LINE
8
Layer 1
10
487.114900
20
-668.301388
11
460.303800
21
-668.301388
0
LINE
8
Layer 1
10
460.303800
20
-668.301388
11
448.168300
21
-688.056888
0
LINE
8
Layer 1
10
448.168300
20
-688.056888
11
436.032800
21
-707.812388
0
LINE
8
Layer 1
10
436.032800
20
-707.812388
11
312.419800
21
-707.812388
0
LINE
8
Layer 1
10
312.419800
20
-707.812388
11
188.806800
21
-707.812388
0
LINE
8
Layer 1
10
188.806800
20
-707.812388
11
195.297910
21
-697.087988
0
LINE
8
Layer 1
10
195.297910
20
-697.087988
11
201.789020
21
-686.363588
0
LINE
8
Layer 1
10
201.789020
20
-686.363588
11
217.311220
21
-662.092488
0
LINE
8
Layer 1
10
217.311220
20
-662.092488
11
232.833420
21
-637.539188
0
LINE
8
Layer 1
10
232.833420
20
-637.539188
11
257.951220
21
-636.692522
0
LINE
8
Layer 1
10
257.951220
20
-636.692522
11
283.069020
21
-635.845856
0
LINE
8
Layer 1
10
283.069020
20
-635.845856
11
284.480130
21
-632.459196
0
LINE
8
Layer 1
10
284.480130
20
-632.459196
11
285.609020
21
-628.790306
0
LINE
8
Layer 1
10
285.609020
20
-628.790306
11
259.926820
21
-628.790306
0
LINE
8
Layer 1
10
259.926820
20
-628.790306
11
234.244620
21
-628.790306
0
LINE
8
Layer 1
10
234.244620
20
-628.790306
11
222.955720
21
-611.292506
0
LINE
8
Layer 1
10
222.955720
20
-611.292506
11
211.666820
21
-593.794706
0
LINE
8
Layer 1
10
211.666820
20
-593.794706
11
212.231264
21
-592.101376
0
LINE
8
Layer 1
10
212.231264
20
-592.101376
11
213.077930
21
-590.690266
0
LINE
8
Layer 1
10
213.077930
20
-590.690266
11
222.955700
21
-574.321366
0
LINE
8
Layer 1
10
222.955700
20
-574.321366
11
232.833470
21
-558.234666
0
LINE
8
Layer 1
10
232.833470
20
-558.234666
11
283.915670
21
-558.234666
0
LINE
8
Layer 1
10
283.915670
20
-558.234666
11
335.280070
21
-558.234666
0
LINE
8
Layer 1
10
335.280070
20
-558.234666
11
347.133370
21
-539.325766
0
LINE
8
Layer 1
10
347.133370
20
-539.325766
11
359.268870
21
-520.416866
0
LINE
8
Layer 1
10
359.268870
20
-520.416866
11
365.759980
21
-528.601306
0
LINE
8
Layer 1
10
365.759980
20
-528.601306
11
372.251090
21
-536.785746
0
LINE
8
Layer 1
10
372.251090
20
-536.785746
11
377.048860
21
-545.534626
0
LINE
8
Layer 1
10
377.048860
20
-545.534626
11
381.846630
21
-554.283506
0
LINE
8
Layer 1
10
381.846630
20
-554.283506
11
361.244430
21
-586.739006
0
LINE
8
Layer 1
10
361.244430
20
-586.739006
11
340.642230
21
-618.912306
0
LINE
8
Layer 1
10
340.642230
20
-618.912306
11
337.255570
21
-622.581196
0
LINE
8
Layer 1
10
337.255570
20
-622.581196
11
333.868910
21
-626.532306
0
LINE
8
Layer 1
10
333.868910
20
-626.532306
11
322.015610
21
-607.905606
0
LINE
8
Layer 1
10
322.015610
20
-607.905606
11
310.444510
21
-589.278906
0
LINE
8
Layer 1
10
310.444510
20
-589.278906
11
283.351210
21
-589.278906
0
LINE
8
Layer 1
10
283.351210
20
-589.278906
11
256.257910
21
-589.278906
0
LINE
8
Layer 1
10
256.257910
20
-589.278906
11
257.386800
21
-592.947796
0
LINE
8
Layer 1
10
257.386800
20
-592.947796
11
258.797910
21
-596.334456
0
LINE
8
Layer 1
10
258.797910
20
-596.334456
11
283.915710
21
-597.181122
0
LINE
8
Layer 1
10
283.915710
20
-597.181122
11
309.033510
21
-598.027788
0
LINE
8
Layer 1
10
309.033510
20
-598.027788
11
319.757910
21
-614.678888
0
LINE
8
Layer 1
10
319.757910
20
-614.678888
11
330.764610
21
-631.329988
0
LINE
8
Layer 1
10
330.764610
20
-631.329988
11
329.635720
21
-633.587768
0
LINE
8
Layer 1
10
329.635720
20
-633.587768
11
328.789054
21
-635.845548
0
LINE
8
Layer 1
10
328.789054
20
-635.845548
11
318.911284
21
-652.214448
0
LINE
8
Layer 1
10
318.911284
20
-652.214448
11
309.033514
21
-668.301148
0
LINE
8
Layer 1
10
309.033514
20
-668.301148
11
282.786914
21
-668.301148
0
LINE
8
Layer 1
10
282.786914
20
-668.301148
11
256.258014
21
-668.301148
0
LINE
8
Layer 1
10
256.258014
20
-668.301148
11
257.669124
21
-671.970038
0
LINE
8
Layer 1
10
257.669124
20
-671.970038
11
258.798014
21
-675.356698
0
LINE
8
Layer 1
10
258.798014
20
-675.356698
11
334.433514
21
-675.356698
0
LINE
8
Layer 1
10
334.433514
20
-675.356698
11
410.069014
21
-675.356698
0
LINE
8
Layer 1
10
410.069014
20
-675.356698
11
411.197904
21
-671.970038
0
LINE
8
Layer 1
10
411.197904
20
-671.970038
11
412.609014
21
-668.301148
0
LINE
8
Layer 1
10
412.609014
20
-668.301148
11
364.349014
21
-667.736704
0
LINE
8
Layer 1
10
364.349014
20
-667.736704
11
316.089014
21
-666.890038
0
LINE
8
Layer 1
10
316.089014
20
-666.890038
11
343.182314
21
-624.556738
0
LINE
8
Layer 1
10
343.182314
20
-624.556738
11
370.557814
21
-582.223438
0
LINE
8
Layer 1
10
370.557814
20
-582.223438
11
379.588914
21
-567.830138
0
LINE
8
Layer 1
10
379.588914
20
-567.830138
11
388.902244
21
-553.436838
0
LINE
8
Layer 1
10
388.902244
20
-553.436838
11
362.655644
21
-512.796838
0
LINE
8
Layer 1
10
362.655644
20
-512.796838
11
336.409044
21
-472.156838
0
LINE
8
Layer 1
10
336.409044
20
-472.156838
11
310.162444
21
-470.745728
0
LINE
8
Layer 1
10
310.162444
20
-470.745728
11
283.915844
21
-469.334618
0
LINE
8
Layer 1
10
283.915844
20
-469.334618
11
259.362544
21
-431.234618
0
LINE
8
Layer 1
10
259.362544
20
-431.234618
11
234.809244
21
-393.134618
0
LINE
8
Layer 1
10
234.809244
20
-393.134618
11
186.549244
21
-391.723508
0
LINE
8
Layer 1
10
186.549244
20
-391.723508
11
138.289244
21
-390.312398
0
LINE
8
Layer 1
10
138.289244
20
-390.312398
11
149.295944
21
-373.096898
0
LINE
8
Layer 1
10
149.295944
20
-373.096898
11
160.302644
21
-355.599098
0
LINE
8
Layer 1
10
160.302644
20
-355.599098
11
152.118204
21
-343.463598
0
LINE
8
Layer 1
10
152.118204
20
-343.463598
11
143.651544
21
-331.045798
0
LINE
8
Layer 1
10
143.651544
20
-331.045798
11
139.418214
21
-323.425808
0
LINE
8
Layer 1
10
139.418214
20
-323.425808
11
135.467104
21
-315.805818
0
LINE
8
Layer 1
10
135.467104
20
-315.805818
11
145.344874
21
-300.001418
0
LINE
8
Layer 1
10
145.344874
20
-300.001418
11
155.504874
21
-284.197018
0
LINE
8
Layer 1
10
155.504874
20
-284.197018
11
158.044874
21
-285.890348
0
LINE
8
Layer 1
10
158.044874
20
-285.890348
11
160.584874
21
-287.583678
0
LINE
8
Layer 1
10
160.584874
20
-287.583678
11
171.027074
21
-304.234778
0
LINE
8
Layer 1
10
171.027074
20
-304.234778
11
181.469274
21
-321.168078
0
LINE
8
Layer 1
10
181.469274
20
-321.168078
11
207.433674
21
-321.168078
0
LINE
8
Layer 1
10
207.433674
20
-321.168078
11
233.680274
21
-321.168078
0
LINE
8
Layer 1
10
233.680274
20
-321.168078
11
247.791374
21
-298.872578
0
LINE
8
Layer 1
10
247.791374
20
-298.872578
11
261.902474
21
-276.859278
0
LINE
8
Layer 1
10
261.902474
20
-276.859278
11
247.791374
21
-255.128178
0
LINE
8
Layer 1
10
247.791374
20
-255.128178
11
233.962474
21
-233.679278
0
LINE
8
Layer 1
10
233.962474
20
-233.679278
11
207.715874
21
-233.679278
0
LINE
8
Layer 1
10
207.715874
20
-233.679278
11
181.469274
21
-233.679278
0
LINE
8
Layer 1
10
181.469274
20
-233.679278
11
179.775944
21
-235.372608
0
LINE
8
Layer 1
10
179.775944
20
-235.372608
11
178.364834
21
-237.065938
0
LINE
8
Layer 1
10
178.364834
20
-237.065938
11
191.347034
21
-257.668138
0
LINE
8
Layer 1
10
191.347034
20
-257.668138
11
204.611434
21
-278.552538
0
LINE
8
Layer 1
10
204.611434
20
-278.552538
11
206.869214
21
-278.552538
0
LINE
8
Layer 1
10
206.869214
20
-278.552538
11
208.844764
21
-278.834760
0
LINE
8
Layer 1
10
208.844764
20
-278.834760
11
208.844764
21
-275.730320
0
LINE
8
Layer 1
10
208.844764
20
-275.730320
11
208.844764
21
-272.908100
0
LINE
8
Layer 1
10
208.844764
20
-272.908100
11
200.942544
21
-261.054800
0
LINE
8
Layer 1
10
200.942544
20
-261.054800
11
192.758104
21
-249.201500
0
LINE
8
Layer 1
10
192.758104
20
-249.201500
11
190.782554
21
-245.532610
0
LINE
8
Layer 1
10
190.782554
20
-245.532610
11
188.807004
21
-242.145950
0
LINE
8
Layer 1
10
188.807004
20
-242.145950
11
210.820304
21
-242.145950
0
LINE
8
Layer 1
10
210.820304
20
-242.145950
11
232.833604
21
-242.145950
0
LINE
8
Layer 1
10
232.833604
20
-242.145950
11
243.558004
21
-259.079250
0
LINE
8
Layer 1
10
243.558004
20
-259.079250
11
254.564704
21
-275.730350
0
LINE
8
Layer 1
10
254.564704
20
-275.730350
11
253.435814
21
-277.988130
0
LINE
8
Layer 1
10
253.435814
20
-277.988130
11
252.589148
21
-280.245910
0
LINE
8
Layer 1
10
252.589148
20
-280.245910
11
242.711378
21
-296.614810
0
LINE
8
Layer 1
10
242.711378
20
-296.614810
11
232.833608
21
-312.701510
0
LINE
8
Layer 1
10
232.833608
20
-312.701510
11
207.998108
21
-312.701510
0
LINE
8
Layer 1
10
207.998108
20
-312.701510
11
183.444808
21
-312.701510
0
LINE
8
Layer 1
10
183.444808
20
-312.701510
11
170.462608
21
-292.946010
0
LINE
8
Layer 1
10
170.462608
20
-292.946010
11
157.762608
21
-273.190510
0
LINE
8
Layer 1
10
157.762608
20
-273.190510
11
156.915942
21
-273.190510
0
LINE
8
Layer 1
10
156.915942
20
-273.190510
11
155.787052
21
-273.190510
0
LINE
8
Layer 1
10
155.787052
20
-273.190510
11
141.958152
21
-295.203810
0
LINE
8
Layer 1
10
141.958152
20
-295.203810
11
127.847052
21
-317.217110
0
LINE
8
Layer 1
10
127.847052
20
-317.217110
11
140.264852
21
-335.279310
0
LINE
8
Layer 1
10
140.264852
20
-335.279310
11
152.400352
21
-353.623710
0
LINE
8
Layer 1
10
152.400352
20
-353.623710
11
152.400352
21
-355.599260
0
LINE
8
Layer 1
10
152.400352
20
-355.599260
11
152.400352
21
-357.574810
0
LINE
8
Layer 1
10
152.400352
20
-357.574810
11
141.958152
21
-374.508110
0
LINE
8
Layer 1
10
141.958152
20
-374.508110
11
131.233752
21
-391.723610
0
LINE
8
Layer 1
10
131.233752
20
-391.723610
11
104.987152
21
-391.723610
0
LINE
8
Layer 1
10
104.987152
20
-391.723610
11
78.458252
21
-391.723610
0
LINE
8
Layer 1
10
78.458252
20
-391.723610
11
79.587142
21
-395.392500
0
LINE
8
Layer 1
10
79.587142
20
-395.392500
11
80.998252
21
-398.779160
0
LINE
8
Layer 1
10
80.998252
20
-398.779160
11
156.915952
21
-399.625826
0
LINE
8
Layer 1
10
156.915952
20
-399.625826
11
232.833652
21
-400.190270
0
LINE
8
Layer 1
10
232.833652
20
-400.190270
11
257.951452
21
-439.701370
0
LINE
8
Layer 1
10
257.951452
20
-439.701370
11
283.351452
21
-479.212470
0
LINE
8
Layer 1
10
283.351452
20
-479.212470
11
308.751452
21
-479.212470
0
LINE
8
Layer 1
10
308.751452
20
-479.212470
11
334.433652
21
-479.212470
0
LINE
8
Layer 1
10
334.433652
20
-479.212470
11
345.158052
21
-496.145770
0
LINE
8
Layer 1
10
345.158052
20
-496.145770
11
356.164752
21
-512.796870
0
LINE
8
Layer 1
10
356.164752
20
-512.796870
11
355.035862
21
-515.054650
0
LINE
8
Layer 1
10
355.035862
20
-515.054650
11
354.189196
21
-517.312430
0
LINE
8
Layer 1
10
354.189196
20
-517.312430
11
344.311426
21
-533.681330
0
LINE
8
Layer 1
10
344.311426
20
-533.681330
11
334.433656
21
-549.768030
0
LINE
8
Layer 1
10
334.433656
20
-549.768030
11
284.198156
21
-549.768030
0
LINE
8
Layer 1
10
284.198156
20
-549.768030
11
234.244856
21
-549.768030
0
LINE
8
Layer 1
10
234.244856
20
-549.768030
11
221.262656
21
-530.012530
0
LINE
8
Layer 1
10
221.262656
20
-530.012530
11
208.562656
21
-510.257030
0
LINE
8
Layer 1
10
208.562656
20
-510.257030
11
182.316056
21
-510.257030
0
LINE
8
Layer 1
10
182.316056
20
-510.257030
11
156.069456
21
-510.257030
0
LINE
8
Layer 1
10
156.069456
20
-510.257030
11
154.376126
21
-511.950360
0
LINE
8
Layer 1
10
154.376126
20
-511.950360
11
152.965016
21
-513.643690
0
LINE
8
Layer 1
10
152.965016
20
-513.643690
11
165.947216
21
-534.245890
0
LINE
8
Layer 1
10
165.947216
20
-534.245890
11
179.211616
21
-555.130290
0
LINE
8
Layer 1
10
179.211616
20
-555.130290
11
181.469396
21
-555.130290
0
LINE
8
Layer 1
10
181.469396
20
-555.130290
11
183.444946
21
-555.412512
0
LINE
8
Layer 1
10
183.444946
20
-555.412512
11
183.444946
21
-552.308072
0
LINE
8
Layer 1
10
183.444946
20
-552.308072
11
183.444946
21
-549.485852
0
LINE
8
Layer 1
10
183.444946
20
-549.485852
11
175.542726
21
-537.632552
0
LINE
8
Layer 1
10
175.542726
20
-537.632552
11
167.358286
21
-525.779252
0
LINE
8
Layer 1
10
167.358286
20
-525.779252
11
165.382736
21
-522.392592
0
LINE
8
Layer 1
10
165.382736
20
-522.392592
11
163.407186
21
-518.723702
0
LINE
8
Layer 1
10
163.407186
20
-518.723702
11
185.420486
21
-518.723702
0
LINE
8
Layer 1
10
185.420486
20
-518.723702
11
207.433786
21
-518.723702
0
LINE
8
Layer 1
10
207.433786
20
-518.723702
11
218.158186
21
-535.657002
0
LINE
8
Layer 1
10
218.158186
20
-535.657002
11
229.164886
21
-552.308102
0
LINE
8
Layer 1
10
229.164886
20
-552.308102
11
228.035996
21
-554.565882
0
LINE
8
Layer 1
10
228.035996
20
-554.565882
11
227.189330
21
-556.823662
0
LINE
8
Layer 1
10
227.189330
20
-556.823662
11
217.311560
21
-573.192562
0
LINE
8
Layer 1
10
217.311560
20
-573.192562
11
207.433790
21
-589.279262
0
LINE
8
Layer 1
10
207.433790
20
-589.279262
11
181.751590
21
-589.279262
0
LINE
8
Layer 1
10
181.751590
20
-589.279262
11
156.069390
21
-589.279262
0
LINE
8
Layer 1
10
156.069390
20
-589.279262
11
154.376060
21
-590.972592
0
LINE
8
Layer 1
10
154.376060
20
-590.972592
11
152.682730
21
-592.665922
0
LINE
8
Layer 1
10
152.682730
20
-592.665922
11
163.971630
21
-609.317022
0
LINE
8
Layer 1
10
163.971630
20
-609.317022
11
174.978330
21
-625.968122
0
LINE
8
Layer 1
10
174.978330
20
-625.968122
11
176.671660
21
-629.637012
0
LINE
8
Layer 1
10
176.671660
20
-629.637012
11
178.082770
21
-633.588122
0
LINE
8
Layer 1
10
178.082770
20
-633.588122
11
166.229470
21
-652.497022
0
LINE
8
Layer 1
10
166.229470
20
-652.497022
11
154.376170
21
-671.405922
0
LINE
8
Layer 1
10
154.376170
20
-671.405922
11
156.351720
21
-673.099252
0
LINE
8
Layer 1
10
156.351720
20
-673.099252
11
158.045050
21
-674.792582
0
LINE
8
Layer 1
10
158.045050
20
-674.792582
11
159.173940
21
-673.663692
0
LINE
8
Layer 1
10
159.173940
20
-673.663692
11
160.302830
21
-672.534802
0
LINE
8
Layer 1
10
160.302830
20
-672.534802
11
173.002830
21
-652.497002
0
LINE
8
Layer 1
10
173.002830
20
-652.497002
11
185.702830
21
-632.177002
0
LINE
8
Layer 1
10
185.702830
20
-632.177002
11
179.493950
21
-622.863672
0
LINE
8
Layer 1
10
179.493950
20
-622.863672
11
173.002840
21
-613.268122
0
LINE
8
Layer 1
10
173.002840
20
-613.268122
11
167.922840
21
-605.648132
0
LINE
8
Layer 1
10
167.922840
20
-605.648132
11
163.125070
21
-597.745912
0
LINE
8
Layer 1
10
163.125070
20
-597.745912
11
185.138370
21
-597.745912
0
LINE
8
Layer 1
10
185.138370
20
-597.745912
11
207.433870
21
-597.745912
0
LINE
8
Layer 1
10
207.433870
20
-597.745912
11
218.158270
21
-614.679212
0
LINE
8
Layer 1
10
218.158270
20
-614.679212
11
229.164970
21
-631.330312
0
LINE
8
Layer 1
10
229.164970
20
-631.330312
11
228.036080
21
-633.870312
0
LINE
8
Layer 1
10
228.036080
20
-633.870312
11
227.189414
21
-636.410312
0
LINE
8
Layer 1
10
227.189414
20
-636.410312
11
204.611614
21
-671.970312
0
LINE
8
Layer 1
10
204.611614
20
-671.970312
11
182.033814
21
-707.812512
0
LINE
8
Layer 1
10
182.033814
20
-707.812512
11
131.798314
21
-707.812512
0
LINE
8
Layer 1
10
131.798314
20
-707.812512
11
81.845014
21
-707.812512
0
LINE
8
Layer 1
10
81.845014
20
-707.812512
11
68.580614
21
-687.492512
0
LINE
8
Layer 1
10
68.580614
20
-687.492512
11
55.316214
21
-667.172512
0
LINE
8
Layer 1
10
55.316214
20
-667.172512
11
54.187324
21
-670.841402
0
LINE
8
Layer 1
10
54.187324
20
-670.841402
11
53.058434
21
-674.228062
0
LINE
8
Layer 1
10
53.058434
20
-674.228062
11
63.218434
21
-689.468062
0
LINE
8
Layer 1
10
63.218434
20
-689.468062
11
73.378434
21
-704.990262
0
LINE
8
Layer 1
10
73.378434
20
-704.990262
11
73.378434
21
-706.401372
0
LINE
8
Layer 1
10
73.378434
20
-706.401372
11
73.378434
21
-707.812482
0
LINE
8
Layer 1
10
73.378434
20
-707.812482
11
52.211734
21
-707.812482
0
LINE
8
Layer 1
10
52.211734
20
-707.812482
11
31.045134
21
-707.812482
0
LINE
8
Layer 1
10
31.045134
20
-707.812482
11
19.756234
21
-690.314682
0
LINE
8
Layer 1
10
19.756234
20
-690.314682
11
8.467334
21
-672.816882
0
LINE
8
Layer 1
10
8.467334
20
-672.816882
11
9.031778
21
-671.123552
0
LINE
8
Layer 1
10
9.031778
20
-671.123552
11
9.878444
21
-669.712442
0
LINE
8
Layer 1
10
9.878444
20
-669.712442
11
19.756214
21
-653.625742
0
LINE
8
Layer 1
10
19.756214
20
-653.625742
11
29.351764
21
-637.539042
0
LINE
8
Layer 1
10
29.351764
20
-637.539042
11
54.751764
21
-636.692376
0
LINE
8
Layer 1
10
54.751764
20
-636.692376
11
79.869564
21
-635.845710
0
LINE
8
Layer 1
10
79.869564
20
-635.845710
11
81.280674
21
-632.459050
0
LINE
8
Layer 1
10
81.280674
20
-632.459050
11
82.409564
21
-628.790160
0
LINE
8
Layer 1
10
82.409564
20
-628.790160
11
56.727364
21
-628.790160
0
LINE
8
Layer 1
10
56.727364
20
-628.790160
11
31.045164
21
-628.790160
0
LINE
8
Layer 1
10
31.045164
20
-628.790160
11
19.756264
21
-611.292360
0
LINE
8
Layer 1
10
19.756264
20
-611.292360
11
8.467364
21
-593.794560
0
LINE
8
Layer 1
10
8.467364
20
-593.794560
11
9.031808
21
-592.101230
0
LINE
8
Layer 1
10
9.031808
20
-592.101230
11
9.878474
21
-590.690120
0
LINE
8
Layer 1
10
9.878474
20
-590.690120
11
19.756244
21
-574.321220
0
LINE
8
Layer 1
10
19.756244
20
-574.321220
11
29.634014
21
-558.234520
0
LINE
8
Layer 1
10
29.634014
20
-558.234520
11
55.598414
21
-558.234520
0
LINE
8
Layer 1
10
55.598414
20
-558.234520
11
81.562814
21
-558.234520
0
LINE
8
Layer 1
10
81.562814
20
-558.234520
11
82.973924
21
-555.976740
0
LINE
8
Layer 1
10
82.973924
20
-555.976740
11
84.385034
21
-553.718960
0
LINE
8
Layer 1
10
84.385034
20
-553.718960
11
69.709534
21
-531.423460
0
LINE
8
Layer 1
10
69.709534
20
-531.423460
11
55.316234
21
-509.127960
0
LINE
8
Layer 1
10
55.316234
20
-509.127960
11
54.187344
21
-512.514620
0
LINE
8
Layer 1
10
54.187344
20
-512.514620
11
53.058454
21
-516.183510
0
LINE
8
Layer 1
10
53.058454
20
-516.183510
11
63.218454
21
-531.423510
0
LINE
8
Layer 1
10
63.218454
20
-531.423510
11
73.378454
21
-546.945710
0
LINE
8
Layer 1
10
73.378454
20
-546.945710
11
73.378454
21
-548.356820
0
LINE
8
Layer 1
10
73.378454
20
-548.356820
11
73.378454
21
-549.767930
0
LINE
8
Layer 1
10
73.378454
20
-549.767930
11
52.211754
21
-549.767930
0
LINE
8
Layer 1
10
52.211754
20
-549.767930
11
31.327354
21
-549.767930
0
LINE
8
Layer 1
10
31.327354
20
-549.767930
11
23.142914
21
-537.914630
0
LINE
8
Layer 1
10
23.142914
20
-537.914630
11
14.958474
21
-525.779130
0
LINE
8
Layer 1
10
14.958474
20
-525.779130
11
11.571814
21
-519.570250
0
LINE
8
Layer 1
10
11.571814
20
-519.570250
11
8.467374
21
-513.361370
0
LINE
8
Layer 1
10
8.467374
20
-513.361370
11
20.885174
21
-493.888070
0
LINE
8
Layer 1
10
20.885174
20
-493.888070
11
33.302974
21
-474.414770
0
LINE
8
Layer 1
10
33.302974
20
-474.414770
11
25.118534
21
-461.996970
0
LINE
8
Layer 1
10
25.118534
20
-461.996970
11
16.651874
21
-449.579170
0
LINE
8
Layer 1
10
16.651874
20
-449.579170
11
12.418544
21
-441.959180
0
LINE
8
Layer 1
10
12.418544
20
-441.959180
11
8.467434
21
-434.339190
0
LINE
8
Layer 1
10
8.467434
20
-434.339190
11
18.345204
21
-418.534790
0
LINE
8
Layer 1
10
18.345204
20
-418.534790
11
28.505204
21
-402.730390
0
LINE
8
Layer 1
10
28.505204
20
-402.730390
11
31.045204
21
-404.423720
0
LINE
8
Layer 1
10
31.045204
20
-404.423720
11
33.585204
21
-406.117050
0
LINE
8
Layer 1
10
33.585204
20
-406.117050
11
44.027404
21
-422.768150
0
LINE
8
Layer 1
10
44.027404
20
-422.768150
11
54.469604
21
-439.701450
0
LINE
8
Layer 1
10
54.469604
20
-439.701450
11
130.951804
21
-439.701450
0
LINE
8
Layer 1
10
130.951804
20
-439.701450
11
207.434004
21
-439.701450
0
LINE
8
Layer 1
10
207.434004
20
-439.701450
11
216.747334
21
-453.812550
0
LINE
8
Layer 1
10
216.747334
20
-453.812550
11
225.778434
21
-467.923650
0
LINE
8
Layer 1
10
225.778434
20
-467.923650
11
225.778434
21
-469.334760
0
LINE
8
Layer 1
10
225.778434
20
-469.334760
11
225.778434
21
-470.745870
0
LINE
8
Layer 1
10
225.778434
20
-470.745870
11
152.118534
21
-470.745870
0
LINE
8
Layer 1
10
152.118534
20
-470.745870
11
78.458634
21
-470.745870
0
LINE
8
Layer 1
10
78.458634
20
-470.745870
11
79.587524
21
-474.414760
0
LINE
8
Layer 1
10
79.587524
20
-474.414760
11
80.998634
21
-477.801420
0
LINE
8
Layer 1
10
80.998634
20
-477.801420
11
102.447534
21
-479.212530
0
LINE
8
Layer 1
10
102.447534
20
-479.212530
11
124.178634
21
-480.623640
0
LINE
8
Layer 1
10
124.178634
20
-480.623640
11
113.171934
21
-497.556940
0
LINE
8
Layer 1
10
113.171934
20
-497.556940
11
102.447534
21
-514.772440
0
LINE
8
Layer 1
10
102.447534
20
-514.772440
11
114.865334
21
-532.834640
0
LINE
8
Layer 1
10
114.865334
20
-532.834640
11
127.000834
21
-551.179040
0
LINE
8
Layer 1
10
127.000834
20
-551.179040
11
127.000834
21
-553.154590
0
LINE
8
Layer 1
10
127.000834
20
-553.154590
11
127.000834
21
-555.130140
0
LINE
8
Layer 1
10
127.000834
20
-555.130140
11
116.276434
21
-572.063440
0
LINE
8
Layer 1
10
116.276434
20
-572.063440
11
105.834234
21
-589.278940
0
LINE
8
Layer 1
10
105.834234
20
-589.278940
11
79.587634
21
-589.278940
0
LINE
8
Layer 1
10
79.587634
20
-589.278940
11
53.058734
21
-589.278940
0
LINE
8
Layer 1
10
53.058734
20
-589.278940
11
54.187624
21
-592.947830
0
LINE
8
Layer 1
10
54.187624
20
-592.947830
11
55.598734
21
-596.334490
0
LINE
8
Layer 1
10
55.598734
20
-596.334490
11
80.716534
21
-597.181156
0
LINE
8
Layer 1
10
80.716534
20
-597.181156
11
105.834334
21
-598.027822
0
LINE
8
Layer 1
10
105.834334
20
-598.027822
11
116.558734
21
-614.396722
0
LINE
8
Layer 1
10
116.558734
20
-614.396722
11
127.000934
21
-630.765622
0
LINE
8
Layer 1
10
127.000934
20
-630.765622
11
127.000934
21
-632.458952
0
LINE
8
Layer 1
10
127.000934
20
-632.458952
11
127.000934
21
-634.152282
0
LINE
8
Layer 1
10
127.000934
20
-634.152282
11
115.429834
21
-652.778982
0
LINE
8
Layer 1
10
115.429834
20
-652.778982
11
103.576534
21
-671.405682
0
LINE
8
Layer 1
10
103.576534
20
-671.405682
11
105.552084
21
-673.099012
0
LINE
8
Layer 1
10
105.552084
20
-673.099012
11
107.245414
21
-674.792342
0
LINE
8
Layer 1
10
107.245414
20
-674.792342
11
108.374304
21
-673.663452
0
LINE
8
Layer 1
10
108.374304
20
-673.663452
11
109.503194
21
-672.534562
0
LINE
8
Layer 1
10
109.503194
20
-672.534562
11
122.203194
21
-652.496762
0
LINE
8
Layer 1
10
122.203194
20
-652.496762
11
134.903194
21
-632.458962
0
LINE
8
Layer 1
10
134.903194
20
-632.458962
11
126.718754
21
-620.041162
0
LINE
8
Layer 1
10
126.718754
20
-620.041162
11
118.252094
21
-607.623362
0
LINE
8
Layer 1
10
118.252094
20
-607.623362
11
114.018764
21
-600.003372
0
LINE
8
Layer 1
10
114.018764
20
-600.003372
11
110.067654
21
-592.383382
0
LINE
8
Layer 1
10
110.067654
20
-592.383382
11
122.485454
21
-572.910082
0
LINE
8
Layer 1
10
122.485454
20
-572.910082
11
134.903254
21
-553.436782
0
LINE
8
Layer 1
10
134.903254
20
-553.436782
11
126.718814
21
-541.018982
0
LINE
8
Layer 1
10
126.718814
20
-541.018982
11
118.252154
21
-528.601182
0
LINE
8
Layer 1
10
118.252154
20
-528.601182
11
114.301044
21
-520.981192
0
LINE
8
Layer 1
10
114.301044
20
-520.981192
11
110.067714
21
-513.361202
0
LINE
8
Layer 1
10
110.067714
20
-513.361202
11
120.792114
21
-496.427902
0
LINE
8
Layer 1
10
120.792114
20
-496.427902
11
131.234314
21
-479.212402
0
LINE
8
Layer 1
10
131.234314
20
-479.212402
11
182.034314
21
-479.212402
0
LINE
8
Layer 1
10
182.034314
20
-479.212402
11
232.834314
21
-479.212402
0
LINE
8
Layer 1
10
232.834314
20
-479.212402
11
245.534314
21
-498.967902
0
LINE
8
Layer 1
10
245.534314
20
-498.967902
11
257.952114
21
-519.005702
0
LINE
8
Layer 1
10
257.952114
20
-519.005702
11
283.352114
21
-518.159036
0
LINE
8
Layer 1
10
283.352114
20
-518.159036
11
308.469914
21
-517.312370
0
LINE
8
Layer 1
10
308.469914
20
-517.312370
11
309.598804
21
-513.925710
0
LINE
8
Layer 1
10
309.598804
20
-513.925710
11
310.727694
21
-510.539050
0
LINE
8
Layer 1
10
310.727694
20
-510.539050
11
284.763294
21
-509.692384
0
LINE
8
Layer 1
10
284.763294
20
-509.692384
11
258.516694
21
-508.845718
0
LINE
8
Layer 1
10
258.516694
20
-508.845718
11
233.963394
21
-470.745718
0
LINE
8
Layer 1
10
233.963394
20
-470.745718
11
209.410094
21
-432.645718
0
LINE
8
Layer 1
10
209.410094
20
-432.645718
11
132.927894
21
-431.799052
0
LINE
8
Layer 1
10
132.927894
20
-431.799052
11
56.445694
21
-431.234608
0
LINE
8
Layer 1
10
56.445694
20
-431.234608
11
35.561294
21
-399.061308
0
LINE
8
Layer 1
10
35.561294
20
-399.061308
11
14.394694
21
-366.605808
0
LINE
8
Layer 1
10
14.394694
20
-366.605808
11
11.572474
21
-360.961368
0
LINE
8
Layer 1
10
11.572474
20
-360.961368
11
8.468034
21
-355.316928
0
LINE
8
Layer 1
10
8.468034
20
-355.316928
11
20.885834
21
-335.843628
0
LINE
8
Layer 1
10
20.885834
20
-335.843628
11
33.303634
21
-316.370328
0
LINE
8
Layer 1
10
33.303634
20
-316.370328
11
25.119194
21
-303.952528
0
LINE
8
Layer 1
10
25.119194
20
-303.952528
11
16.652534
21
-291.534728
0
LINE
8
Layer 1
10
16.652534
20
-291.534728
11
12.419204
21
-283.914738
0
LINE
8
Layer 1
10
12.419204
20
-283.914738
11
8.468094
21
-276.294748
0
LINE
8
Layer 1
10
8.468094
20
-276.294748
11
18.628094
21
-260.208048
0
LINE
8
Layer 1
10
18.628094
20
-260.208048
11
28.788094
21
-244.403648
0
LINE
8
Layer 1
10
28.788094
20
-244.403648
11
32.456984
21
-248.072538
0
LINE
8
Layer 1
10
32.456984
20
-248.072538
11
36.125874
21
-252.023648
0
LINE
8
Layer 1
10
36.125874
20
-252.023648
11
67.452474
21
-300.848048
0
LINE
8
Layer 1
10
67.452474
20
-300.848048
11
98.779074
21
-349.672448
0
LINE
8
Layer 1
10
98.779074
20
-349.672448
11
98.779074
21
-351.083558
0
LINE
8
Layer 1
10
98.779074
20
-351.083558
11
98.779074
21
-352.212448
0
LINE
8
Layer 1
10
98.779074
20
-352.212448
11
75.919074
21
-352.212448
0
LINE
8
Layer 1
10
75.919074
20
-352.212448
11
53.059074
21
-352.212448
0
LINE
8
Layer 1
10
53.059074
20
-352.212448
11
54.187964
21
-355.881338
0
LINE
8
Layer 1
10
54.187964
20
-355.881338
11
55.599074
21
-359.267998
0
LINE
8
Layer 1
10
55.599074
20
-359.267998
11
80.434574
21
-360.114664
0
LINE
8
Layer 1
10
80.434574
20
-360.114664
11
105.270074
21
-360.961330
0
LINE
8
Layer 1
10
105.270074
20
-360.961330
11
107.527854
21
-358.703550
0
LINE
8
Layer 1
10
107.527854
20
-358.703550
11
109.785634
21
-356.445770
0
LINE
8
Layer 1
10
109.785634
20
-356.445770
11
74.507934
21
-301.694670
0
LINE
8
Layer 1
10
74.507934
20
-301.694670
11
39.512434
21
-247.225870
0
LINE
8
Layer 1
10
39.512434
20
-247.225870
11
36.690214
21
-242.145870
0
LINE
8
Layer 1
10
36.690214
20
-242.145870
11
33.867994
21
-236.783650
0
LINE
8
Layer 1
10
33.867994
20
-236.783650
11
45.439094
21
-218.439250
0
LINE
8
Layer 1
10
45.439094
20
-218.439250
11
57.010194
21
-200.094850
0
LINE
8
Layer 1
10
57.010194
20
-200.094850
11
55.881304
21
-196.708190
0
LINE
8
Layer 1
10
55.881304
20
-196.708190
11
54.752414
21
-193.321530
0
LINE
8
Layer 1
10
54.752414
20
-193.321530
11
42.616914
21
-212.512630
0
LINE
8
Layer 1
10
42.616914
20
-212.512630
11
30.199114
21
-231.985930
0
LINE
8
Layer 1
10
30.199114
20
-231.985930
11
26.248004
21
-226.341490
0
LINE
8
Layer 1
10
26.248004
20
-226.341490
11
22.014674
21
-220.979270
0
LINE
8
Layer 1
10
22.014674
20
-220.979270
11
15.241344
21
-209.125970
0
LINE
8
Layer 1
10
15.241344
20
-209.125970
11
8.185794
21
-197.554870
0
LINE
8
Layer 1
10
8.185794
20
-197.554870
11
20.885794
21
-177.799370
0
LINE
8
Layer 1
10
20.885794
20
-177.799370
11
33.303594
21
-158.326070
0
LINE
8
Layer 1
10
33.303594
20
-158.326070
11
25.119154
21
-145.908270
0
LINE
8
Layer 1
10
25.119154
20
-145.908270
11
16.652494
21
-133.490470
0
LINE
8
Layer 1
10
16.652494
20
-133.490470
11
12.701384
21
-125.870480
0
LINE
8
Layer 1
10
12.701384
20
-125.870480
11
8.468054
21
-118.250490
0
LINE
8
Layer 1
10
8.468054
20
-118.250490
11
19.192454
21
-101.317190
0
LINE
8
Layer 1
10
19.192454
20
-101.317190
11
29.634654
21
-84.101690
0
LINE
8
Layer 1
10
29.634654
20
-84.101690
11
80.434654
21
-84.101690
0
LINE
8
Layer 1
10
80.434654
20
-84.101690
11
131.234654
21
-84.101690
0
LINE
8
Layer 1
10
131.234654
20
-84.101690
11
142.523554
21
-102.446090
0
LINE
8
Layer 1
10
142.523554
20
-102.446090
11
153.812454
21
-120.508290
0
LINE
8
Layer 1
10
153.812454
20
-120.508290
11
156.070234
21
-120.790512
0
LINE
8
Layer 1
10
156.070234
20
-120.790512
11
158.045784
21
-120.790512
0
LINE
8
Layer 1
10
158.045784
20
-120.790512
11
158.045784
21
-117.686072
0
LINE
8
Layer 1
10
158.045784
20
-117.686072
11
158.045784
21
-114.863852
0
LINE
8
Layer 1
10
158.045784
20
-114.863852
11
149.861344
21
-103.010552
0
LINE
8
Layer 1
10
149.861344
20
-103.010552
11
141.959124
21
-91.157252
0
LINE
8
Layer 1
10
141.959124
20
-91.157252
11
138.572464
21
-84.948372
0
LINE
8
Layer 1
10
138.572464
20
-84.948372
11
135.468024
21
-78.739492
0
LINE
8
Layer 1
10
135.468024
20
-78.739492
11
159.456924
21
-41.203992
0
LINE
8
Layer 1
10
159.456924
20
-41.203992
11
183.445824
21
-3.668492
0
LINE
8
Layer 1
10
183.445824
20
-3.668492
11
183.445824
21
-0.281832
0
LINE
8
Layer 1
10
183.445824
20
-0.281832
11
183.445824
21
3.387058
0
LINE
8
Layer 1
10
183.445824
20
3.387058
11
182.316934
21
3.387058
0
LINE
8
Layer 1
10
182.316934
20
3.387058
11
180.905824
21
3.387058
0
LINE
8
Layer 1
10
180.905824
20
3.387058
11
168.770324
21
-16.368442
0
LINE
8
Layer 1
10
168.770324
20
-16.368442
11
156.634824
21
-36.123942
0
LINE
8
Layer 1
10
156.634824
20
-36.123942
11
131.799324
21
-36.123942
0
LINE
8
Layer 1
10
131.799324
20
-36.123942
11
107.246024
21
-36.123942
0
LINE
8
Layer 1
10
107.246024
20
-36.123942
11
88.619324
21
-7.337342
0
LINE
8
Layer 1
10
88.619324
20
-7.337342
11
69.992624
21
21.449258
0
LINE
8
Layer 1
10
69.992624
20
21.449258
11
62.654854
21
33.020358
0
LINE
8
Layer 1
10
62.654854
20
33.020358
11
55.599304
21
44.309258
0
LINE
8
Layer 1
10
55.599304
20
44.309258
11
54.188194
21
40.640368
0
LINE
8
Layer 1
10
54.188194
20
40.640368
11
53.059304
21
36.971478
0
LINE
8
Layer 1
10
53.059304
20
36.971478
11
75.919304
21
1.693778
0
LINE
8
Layer 1
10
75.919304
20
1.693778
11
98.779304
21
-33.583922
0
LINE
8
Layer 1
10
98.779304
20
-33.583922
11
98.779304
21
-34.995032
0
LINE
8
Layer 1
10
98.779304
20
-34.995032
11
98.779304
21
-36.123922
0
LINE
8
Layer 1
10
98.779304
20
-36.123922
11
75.919304
21
-36.123922
0
LINE
8
Layer 1
10
75.919304
20
-36.123922
11
53.059304
21
-36.123922
0
LINE
8
Layer 1
10
53.059304
20
-36.123922
11
54.188194
21
-39.792812
0
LINE
8
Layer 1
10
54.188194
20
-39.792812
11
55.599304
21
-43.179472
0
LINE
8
Layer 1
10
55.599304
20
-43.179472
11
102.448204
21
-44.590582
0
LINE
8
Layer 1
10
102.448204
20
-44.590582
11
149.014804
21
-46.001692
0
LINE
8
Layer 1
10
149.014804
20
-46.001692
11
140.265924
21
-60.959492
0
LINE
8
Layer 1
10
140.265924
20
-60.959492
11
131.234824
21
-75.634992
0
LINE
8
Layer 1
10
131.234824
20
-75.634992
11
81.281524
21
-75.634992
0
LINE
8
Layer 1
10
81.281524
20
-75.634992
11
31.328224
21
-75.634992
0
LINE
8
Layer 1
10
31.328224
20
-75.634992
11
23.143784
21
-63.781692
0
LINE
8
Layer 1
10
23.143784
20
-63.781692
11
14.959344
21
-51.646192
0
LINE
8
Layer 1
10
14.959344
20
-51.646192
11
11.572684
21
-45.437312
0
LINE
8
Layer 1
10
11.572684
20
-45.437312
11
8.468244
21
-39.228432
0
LINE
8
Layer 1
10
8.468244
20
-39.228432
11
20.886044
21
-19.755132
0
LINE
8
Layer 1
10
20.886044
20
-19.755132
11
33.303844
21
-0.281832
0
LINE
8
Layer 1
10
33.303844
20
-0.281832
11
25.119404
21
12.135968
0
LINE
8
Layer 1
10
25.119404
20
12.135968
11
16.652744
21
24.553768
0
LINE
8
Layer 1
10
16.652744
20
24.553768
11
12.701634
21
32.173758
0
LINE
8
Layer 1
10
12.701634
20
32.173758
11
8.468304
21
39.793748
0
LINE
8
Layer 1
10
8.468304
20
39.793748
11
19.192704
21
56.727048
0
LINE
8
Layer 1
10
19.192704
20
56.727048
11
29.634904
21
73.942548
0
LINE
8
Layer 1
10
29.634904
20
73.942548
11
55.034904
21
73.942548
0
LINE
8
Layer 1
10
55.034904
20
73.942548
11
80.434904
21
73.942548
0
LINE
8
Layer 1
10
80.434904
20
73.942548
11
104.423804
21
35.842548
0
LINE
8
Layer 1
10
104.423804
20
35.842548
11
128.412704
21
-1.975152
0
LINE
8
Layer 1
10
128.412704
20
-1.975152
11
130.670484
21
-2.257374
0
LINE
8
Layer 1
10
130.670484
20
-2.257374
11
132.646034
21
-2.257374
0
LINE
8
Layer 1
10
132.646034
20
-2.257374
11
132.646034
21
0.564846
0
LINE
8
Layer 1
10
132.646034
20
0.564846
11
132.646034
21
3.387066
0
LINE
8
Layer 1
10
132.646034
20
3.387066
11
112.043834
21
34.995966
0
LINE
8
Layer 1
10
112.043834
20
34.995966
11
91.441634
21
66.887066
0
LINE
8
Layer 1
10
91.441634
20
66.887066
11
89.183854
21
70.273726
0
LINE
8
Layer 1
10
89.183854
20
70.273726
11
87.208304
21
73.942616
0
LINE
8
Layer 1
10
87.208304
20
73.942616
11
109.221604
21
73.942616
0
LINE
8
Layer 1
10
109.221604
20
73.942616
11
131.234904
21
73.942616
0
LINE
8
Layer 1
10
131.234904
20
73.942616
11
143.652704
21
54.187116
0
LINE
8
Layer 1
10
143.652704
20
54.187116
11
156.070504
21
34.431616
0
LINE
8
Layer 1
10
156.070504
20
34.431616
11
181.752704
21
34.431616
0
LINE
8
Layer 1
10
181.752704
20
34.431616
11
207.434904
21
34.431616
0
LINE
8
Layer 1
10
207.434904
20
34.431616
11
218.441604
21
17.498316
0
LINE
8
Layer 1
10
218.441604
20
17.498316
11
229.166004
21
0.565016
0
LINE
8
Layer 1
10
229.166004
20
0.565016
11
227.754894
21
-2.821644
0
LINE
8
Layer 1
10
227.754894
20
-2.821644
11
226.061564
21
-6.490534
0
LINE
8
Layer 1
10
226.061564
20
-6.490534
11
202.637164
21
-43.179434
0
LINE
8
Layer 1
10
202.637164
20
-43.179434
11
178.930564
21
-79.868334
0
LINE
8
Layer 1
10
178.930564
20
-79.868334
11
193.041664
21
-101.881634
0
LINE
8
Layer 1
10
193.041664
20
-101.881634
11
207.152764
21
-123.612734
0
LINE
8
Layer 1
10
207.152764
20
-123.612734
11
257.952764
21
-123.048290
0
LINE
8
Layer 1
10
257.952764
20
-123.048290
11
308.470464
21
-122.201624
0
LINE
8
Layer 1
10
308.470464
20
-122.201624
11
309.881574
21
-118.814964
0
LINE
8
Layer 1
10
309.881574
20
-118.814964
11
311.010464
21
-115.146074
0
LINE
8
Layer 1
10
311.010464
20
-115.146074
11
259.928264
21
-115.146074
0
LINE
8
Layer 1
10
259.928264
20
-115.146074
11
209.128264
21
-115.146074
0
LINE
8
Layer 1
10
209.128264
20
-115.146074
11
200.943824
21
-103.292774
0
LINE
8
Layer 1
10
200.943824
20
-103.292774
11
192.759384
21
-91.157274
0
LINE
8
Layer 1
10
192.759384
20
-91.157274
11
189.372724
21
-84.948394
0
LINE
8
Layer 1
10
189.372724
20
-84.948394
11
186.268284
21
-78.739514
0
LINE
8
Layer 1
10
186.268284
20
-78.739514
11
198.968284
21
-58.701714
0
LINE
8
Layer 1
10
198.968284
20
-58.701714
11
211.668284
21
-38.946214
0
LINE
8
Layer 1
10
211.668284
20
-38.946214
11
224.086084
21
-19.755114
0
LINE
8
Layer 1
10
224.086084
20
-19.755114
11
236.503884
21
-0.281814
0
LINE
8
Layer 1
10
236.503884
20
-0.281814
11
222.392784
21
21.167086
0
LINE
8
Layer 1
10
222.392784
20
21.167086
11
208.563884
21
42.898186
0
LINE
8
Layer 1
10
208.563884
20
42.898186
11
183.446084
21
42.898186
0
LINE
8
Layer 1
10
183.446084
20
42.898186
11
158.328284
21
42.898186
0
LINE
8
Layer 1
10
158.328284
20
42.898186
11
148.168284
21
57.573686
0
LINE
8
Layer 1
10
148.168284
20
57.573686
11
138.290514
21
72.531486
0
LINE
8
Layer 1
10
138.290514
20
72.531486
11
209.974914
21
73.378152
0
LINE
8
Layer 1
10
209.974914
20
73.378152
11
281.941514
21
73.942596
0
LINE
8
Layer 1
10
281.941514
20
73.942596
11
355.319214
21
73.378152
0
LINE
8
Layer 1
10
355.319214
20
73.378152
11
428.414714
21
72.531486
0
LINE
8
Layer 1
10
428.414714
20
72.531486
11
419.665834
21
57.573686
0
LINE
8
Layer 1
10
419.665834
20
57.573686
11
410.634734
21
42.898186
0
LINE
8
Layer 1
10
410.634734
20
42.898186
11
359.270334
21
42.898186
0
LINE
8
Layer 1
10
359.270334
20
42.898186
11
308.188134
21
42.898186
0
LINE
8
Layer 1
10
308.188134
20
42.898186
11
296.617034
21
24.553786
0
LINE
8
Layer 1
10
296.617034
20
24.553786
11
285.045934
21
6.209386
0
LINE
8
Layer 1
10
285.045934
20
6.209386
11
283.917044
21
6.209386
0
LINE
8
Layer 1
10
283.917044
20
6.209386
11
282.788154
21
6.209386
0
LINE
8
Layer 1
10
282.788154
20
6.209386
11
270.652654
21
25.118286
0
LINE
8
Layer 1
10
270.652654
20
25.118286
11
258.799354
21
44.309386
0
LINE
8
Layer 1
10
258.799354
20
44.309386
11
257.388244
21
40.640496
0
LINE
8
Layer 1
10
257.388244
20
40.640496
11
256.259354
21
36.971606
0
LINE
8
Layer 1
10
256.259354
20
36.971606
11
267.830454
21
19.191606
0
LINE
8
Layer 1
10
267.830454
20
19.191606
11
279.401554
21
1.693806
0
LINE
8
Layer 1
10
279.401554
20
1.693806
11
279.401554
21
-0.281744
0
LINE
8
Layer 1
10
279.401554
20
-0.281744
11
279.401554
21
-2.257294
0
LINE
8
Layer 1
10
279.401554
20
-2.257294
11
266.983754
21
-21.448394
0
LINE
8
Layer 1
10
266.983754
20
-21.448394
11
254.848254
21
-40.639494
0
LINE
8
Layer 1
10
254.848254
20
-40.639494
11
265.572654
21
-55.879494
0
LINE
8
Layer 1
10
265.572654
20
-55.879494
11
276.297054
21
-71.401694
0
LINE
8
Layer 1
10
276.297054
20
-71.401694
11
276.579276
21
-73.659474
0
LINE
8
Layer 1
10
276.579276
20
-73.659474
11
276.579276
21
-75.635024
0
LINE
8
Layer 1
10
276.579276
20
-75.635024
11
253.719276
21
-75.635024
0
LINE
8
Layer 1
10
253.719276
20
-75.635024
11
230.859276
21
-75.635024
0
LINE
8
Layer 1
10
230.859276
20
-75.635024
11
231.988166
21
-79.303914
0
LINE
8
Layer 1
10
231.988166
20
-79.303914
11
233.399276
21
-82.690574
0
LINE
8
Layer 1
10
233.399276
20
-82.690574
11
283.916976
21
-83.537240
0
LINE
8
Layer 1
10
283.916976
20
-83.537240
11
334.434676
21
-84.383906
0
LINE
8
Layer 1
10
334.434676
20
-84.383906
11
345.159076
21
-100.752806
0
LINE
8
Layer 1
10
345.159076
20
-100.752806
11
355.601276
21
-117.121706
0
LINE
8
Layer 1
10
355.601276
20
-117.121706
11
355.601276
21
-118.815036
0
LINE
8
Layer 1
10
355.601276
20
-118.815036
11
355.601276
21
-120.508366
0
LINE
8
Layer 1
10
355.601276
20
-120.508366
11
344.030176
21
-139.135066
0
LINE
8
Layer 1
10
344.030176
20
-139.135066
11
332.176876
21
-157.761766
0
LINE
8
Layer 1
10
332.176876
20
-157.761766
11
334.152426
21
-159.455096
0
LINE
8
Layer 1
10
334.152426
20
-159.455096
11
335.845756
21
-161.148426
0
LINE
8
Layer 1
10
335.845756
20
-161.148426
11
336.974646
21
-160.019536
0
LINE
8
Layer 1
10
336.974646
20
-160.019536
11
338.103536
21
-158.890646
0
LINE
8
Layer 1
10
338.103536
20
-158.890646
11
348.545736
21
-142.239546
0
LINE
8
Layer 1
10
348.545736
20
-142.239546
11
359.270136
21
-125.306246
0
LINE
8
Layer 1
10
359.270136
20
-125.306246
11
365.761246
21
-133.490686
0
LINE
8
Layer 1
10
365.761246
20
-133.490686
11
372.252356
21
-141.675126
0
LINE
8
Layer 1
10
372.252356
20
-141.675126
11
377.050126
21
-150.424006
0
LINE
8
Layer 1
10
377.050126
20
-150.424006
11
381.565676
21
-158.890666
0
LINE
8
Layer 1
10
381.565676
20
-158.890666
11
370.841276
21
-176.670666
0
LINE
8
Layer 1
10
370.841276
20
-176.670666
11
359.834576
21
-194.168466
0
LINE
8
Layer 1
10
359.834576
20
-194.168466
11
334.999076
21
-194.168466
0
LINE
8
Layer 1
10
334.999076
20
-194.168466
11
310.445776
21
-194.168466
0
LINE
8
Layer 1
10
310.445776
20
-194.168466
11
297.463576
21
-174.412966
0
LINE
8
Layer 1
10
297.463576
20
-174.412966
11
284.763576
21
-154.657466
0
LINE
8
Layer 1
10
284.763576
20
-154.657466
11
207.434776
21
-154.657466
0
LINE
8
Layer 1
10
207.434776
20
-154.657466
11
130.388176
21
-154.657466
0
LINE
8
Layer 1
10
130.388176
20
-154.657466
11
118.534876
21
-173.566366
0
LINE
8
Layer 1
10
118.534876
20
-173.566366
11
106.399376
21
-192.475266
0
LINE
8
Layer 1
10
106.399376
20
-192.475266
11
102.448266
21
-186.830826
0
LINE
8
Layer 1
10
102.448266
20
-186.830826
11
98.214936
21
-181.468606
0
LINE
8
Layer 1
10
98.214936
20
-181.468606
11
91.441606
21
-169.897506
0
LINE
8
Layer 1
10
91.441606
20
-169.897506
11
84.386056
21
-158.044206
0
LINE
8
Layer 1
10
84.386056
20
-158.044206
11
96.239356
21
-139.417506
0
LINE
8
Layer 1
10
96.239356
20
-139.417506
11
107.810456
21
-121.073106
0
LINE
8
Layer 1
10
107.810456
20
-121.073106
11
106.681566
21
-117.686446
0
LINE
8
Layer 1
10
106.681566
20
-117.686446
11
105.552676
21
-114.299786
0
LINE
8
Layer 1
10
105.552676
20
-114.299786
11
93.699376
21
-132.926486
0
LINE
8
Layer 1
10
93.699376
20
-132.926486
11
81.846076
21
-151.835386
0
LINE
8
Layer 1
10
81.846076
20
-151.835386
11
80.717186
21
-151.835386
0
LINE
8
Layer 1
10
80.717186
20
-151.835386
11
79.588296
21
-151.835386
0
LINE
8
Layer 1
10
79.588296
20
-151.835386
11
67.452796
21
-132.926486
0
LINE
8
Layer 1
10
67.452796
20
-132.926486
11
55.599496
21
-113.735386
0
LINE
8
Layer 1
10
55.599496
20
-113.735386
11
54.188386
21
-117.404276
0
LINE
8
Layer 1
10
54.188386
20
-117.404276
11
53.059496
21
-121.073166
0
LINE
8
Layer 1
10
53.059496
20
-121.073166
11
77.330596
21
-158.608666
0
LINE
8
Layer 1
10
77.330596
20
-158.608666
11
101.601696
21
-196.144166
0
LINE
8
Layer 1
10
101.601696
20
-196.144166
11
101.601696
21
-197.837496
0
LINE
8
Layer 1
10
101.601696
20
-197.837496
11
101.601696
21
-199.813046
0
LINE
8
Layer 1
10
101.601696
20
-199.813046
11
91.723926
21
-215.335246
0
LINE
8
Layer 1
10
91.723926
20
-215.335246
11
81.563926
21
-230.857446
0
LINE
8
Layer 1
10
81.563926
20
-230.857446
11
80.152816
21
-235.090776
0
LINE
8
Layer 1
10
80.152816
20
-235.090776
11
78.459486
21
-239.324106
0
LINE
8
Layer 1
10
78.459486
20
-239.324106
11
80.717266
21
-239.324106
0
LINE
8
Layer 1
10
80.717266
20
-239.324106
11
83.257266
21
-239.324106
0
LINE
8
Layer 1
10
83.257266
20
-239.324106
11
107.246166
21
-201.224106
0
LINE
8
Layer 1
10
107.246166
20
-201.224106
11
131.235066
21
-163.124106
0
LINE
8
Layer 1
10
131.235066
20
-163.124106
11
207.434966
21
-163.124106
0
LINE
8
Layer 1
10
207.434966
20
-163.124106
11
283.634866
21
-163.124106
0
LINE
8
Layer 1
10
283.634866
20
-163.124106
11
296.052666
21
-182.879606
0
LINE
8
Layer 1
10
296.052666
20
-182.879606
11
308.470466
21
-202.635106
0
LINE
8
Layer 1
10
308.470466
20
-202.635106
11
334.152666
21
-202.635106
0
LINE
8
Layer 1
10
334.152666
20
-202.635106
11
359.834866
21
-202.635106
0
LINE
8
Layer 1
10
359.834866
20
-202.635106
11
370.559266
21
-219.004006
0
LINE
8
Layer 1
10
370.559266
20
-219.004006
11
381.001466
21
-235.655106
0
LINE
8
Layer 1
10
381.001466
20
-235.655106
11
381.001466
21
-237.348436
0
LINE
8
Layer 1
10
381.001466
20
-237.348436
11
381.001466
21
-239.323986
0
LINE
8
Layer 1
10
381.001466
20
-239.323986
11
358.423666
21
-274.601786
0
LINE
8
Layer 1
10
358.423666
20
-274.601786
11
335.845866
21
-309.879486
0
LINE
8
Layer 1
10
335.845866
20
-309.879486
11
334.152536
21
-314.112816
0
LINE
8
Layer 1
10
334.152536
20
-314.112816
11
332.459206
21
-318.346146
0
LINE
8
Layer 1
10
332.459206
20
-318.346146
11
334.716986
21
-318.346146
0
LINE
8
Layer 1
10
334.716986
20
-318.346146
11
337.256986
21
-318.346146
0
LINE
8
Layer 1
10
337.256986
20
-318.346146
11
362.939186
21
-277.988446
0
LINE
8
Layer 1
10
362.939186
20
-277.988446
11
388.903586
21
-237.912946
0
LINE
8
Layer 1
10
388.903586
20
-237.912946
11
384.388036
21
-230.857396
0
LINE
8
Layer 1
10
384.388036
20
-230.857396
11
379.872486
21
-223.801846
0
LINE
8
Layer 1
10
379.872486
20
-223.801846
11
371.688046
21
-210.819646
0
LINE
8
Layer 1
10
371.688046
20
-210.819646
11
363.785826
21
-197.555246
0
LINE
8
Layer 1
10
363.785826
20
-197.555246
11
376.203626
21
-178.081946
0
LINE
8
Layer 1
10
376.203626
20
-178.081946
11
388.903626
21
-158.326446
0
LINE
8
Layer 1
10
388.903626
20
-158.326446
11
362.657026
21
-117.686446
0
LINE
8
Layer 1
10
362.657026
20
-117.686446
11
336.410426
21
-77.046446
0
LINE
8
Layer 1
10
336.410426
20
-77.046446
11
310.728226
21
-76.199780
0
LINE
8
Layer 1
10
310.728226
20
-76.199780
11
284.763826
21
-75.353114
0
LINE
8
Layer 1
10
284.763826
20
-75.353114
11
273.474926
21
-58.137614
0
LINE
8
Layer 1
10
273.474926
20
-58.137614
11
262.468226
21
-40.639814
0
LINE
8
Layer 1
10
262.468226
20
-40.639814
11
263.032670
21
-38.946484
0
LINE
8
Layer 1
10
263.032670
20
-38.946484
11
263.879336
21
-36.970934
0
LINE
8
Layer 1
10
263.879336
20
-36.970934
11
286.457136
21
-1.410934
0
LINE
8
Layer 1
10
286.457136
20
-1.410934
11
309.034936
21
34.431266
0
LINE
8
Layer 1
10
309.034936
20
34.431266
11
360.117136
21
34.431266
0
LINE
8
Layer 1
10
360.117136
20
34.431266
11
411.481536
21
34.431266
0
LINE
8
Layer 1
10
411.481536
20
34.431266
11
425.874836
21
57.009066
0
LINE
8
Layer 1
10
425.874836
20
57.009066
11
440.268136
21
79.586866
0
LINE
8
Layer 1
10
440.268136
20
79.586866
11
461.717036
21
79.586866
0
LINE
8
Layer 1
10
461.717036
20
79.586866
11
483.165936
21
79.586866
0
LINE
8
Layer 1
10
483.165936
20
79.586866
11
482.037046
21
77.046866
0
LINE
8
Layer 1
10
482.037046
20
77.046866
11
481.190380
21
74.789086
0
LINE
8
Layer 1
10
481.190380
20
74.789086
11
458.612580
21
39.229086
0
LINE
8
Layer 1
10
458.612580
20
39.229086
11
436.034780
21
3.386886
0
LINE
8
Layer 1
10
436.034780
20
3.386886
11
384.952580
21
3.386886
0
LINE
8
Layer 1
10
384.952580
20
3.386886
11
333.588180
21
3.386886
0
LINE
8
Layer 1
10
333.588180
20
3.386886
11
319.194880
21
-19.190914
0
LINE
8
Layer 1
10
319.194880
20
-19.190914
11
304.801580
21
-42.050914
0
LINE
8
Layer 1
10
304.801580
20
-42.050914
11
308.470470
21
-43.462024
0
LINE
8
Layer 1
10
308.470470
20
-43.462024
11
312.421580
21
-44.873134
0
LINE
8
Layer 1
10
312.421580
20
-44.873134
11
335.845980
21
-44.026468
0
LINE
8
Layer 1
10
335.845980
20
-44.026468
11
359.270380
21
-43.179802
0
LINE
8
Layer 1
10
359.270380
20
-43.179802
11
360.399270
21
-39.793142
0
LINE
8
Layer 1
10
360.399270
20
-39.793142
11
361.528160
21
-36.406482
0
LINE
8
Layer 1
10
361.528160
20
-36.406482
11
338.950360
21
-35.559816
0
LINE
8
Layer 1
10
338.950360
20
-35.559816
11
316.654860
21
-34.713150
0
LINE
8
Layer 1
10
316.654860
20
-34.713150
11
325.403740
21
-20.037650
0
LINE
8
Layer 1
10
325.403740
20
-20.037650
11
334.434840
21
-5.079850
0
LINE
8
Layer 1
10
334.434840
20
-5.079850
11
359.834840
21
-5.079850
0
LINE
8
Layer 1
10
359.834840
20
-5.079850
11
385.234840
21
-5.079850
0
LINE
8
Layer 1
10
385.234840
20
-5.079850
11
395.959240
21
-21.448750
0
LINE
8
Layer 1
10
395.959240
20
-21.448750
11
406.401440
21
-38.099850
0
LINE
8
Layer 1
10
406.401440
20
-38.099850
11
406.119218
21
-40.639850
0
LINE
8
Layer 1
10
406.119218
20
-40.639850
11
406.119218
21
-43.179850
0
LINE
8
Layer 1
10
406.119218
20
-43.179850
11
393.983718
21
-61.524250
0
LINE
8
Layer 1
10
393.983718
20
-61.524250
11
382.130418
21
-79.868650
0
LINE
8
Layer 1
10
382.130418
20
-79.868650
11
405.837018
21
-116.275250
0
LINE
8
Layer 1
10
405.837018
20
-116.275250
11
429.543618
21
-152.964150
0
LINE
8
Layer 1
10
429.543618
20
-152.964150
11
430.954728
21
-156.350810
0
LINE
8
Layer 1
10
430.954728
20
-156.350810
11
432.083618
21
-159.455250
0
LINE
8
Layer 1
10
432.083618
20
-159.455250
11
420.230318
21
-178.364150
0
LINE
8
Layer 1
10
420.230318
20
-178.364150
11
408.377018
21
-197.273050
0
LINE
8
Layer 1
10
408.377018
20
-197.273050
11
410.352568
21
-198.966380
0
LINE
8
Layer 1
10
410.352568
20
-198.966380
11
412.045898
21
-200.659710
0
LINE
8
Layer 1
10
412.045898
20
-200.659710
11
413.174788
21
-199.530820
0
LINE
8
Layer 1
10
413.174788
20
-199.530820
11
414.303678
21
-198.401930
0
LINE
8
Layer 1
10
414.303678
20
-198.401930
11
427.003678
21
-178.364130
0
LINE
8
Layer 1
10
427.003678
20
-178.364130
11
439.703678
21
-158.326330
0
LINE
8
Layer 1
10
439.703678
20
-158.326330
11
427.285878
21
-139.135230
0
LINE
8
Layer 1
10
427.285878
20
-139.135230
11
414.868078
21
-119.661930
0
LINE
8
Layer 1
10
414.868078
20
-119.661930
11
415.432522
21
-117.968600
0
LINE
8
Layer 1
10
415.432522
20
-117.968600
11
416.279188
21
-115.993050
0
LINE
8
Layer 1
10
416.279188
20
-115.993050
11
438.856988
21
-80.433050
0
LINE
8
Layer 1
10
438.856988
20
-80.433050
11
461.434788
21
-44.873050
0
LINE
8
Layer 1
10
461.434788
20
-44.873050
11
511.952488
21
-44.026384
0
LINE
8
Layer 1
10
511.952488
20
-44.026384
11
562.470188
21
-43.179718
0
LINE
8
Layer 1
10
562.470188
20
-43.179718
11
563.599078
21
-39.793058
0
LINE
8
Layer 1
10
563.599078
20
-39.793058
11
565.010188
21
-36.124168
0
LINE
8
Layer 1
10
565.010188
20
-36.124168
11
516.750188
21
-35.559724
0
LINE
8
Layer 1
10
516.750188
20
-35.559724
11
468.772488
21
-34.713058
0
LINE
8
Layer 1
10
468.772488
20
-34.713058
11
478.650258
21
-18.344158
0
LINE
8
Layer 1
10
478.650258
20
-18.344158
11
488.810258
21
-2.257458
0
LINE
8
Layer 1
10
488.810258
20
-2.257458
11
487.681368
21
0.846982
0
LINE
8
Layer 1
10
487.681368
20
0.846982
11
486.552478
21
4.233642
0
LINE
8
Layer 1
10
486.552478
20
4.233642
11
449.581378
21
-53.339658
0
LINE
8
Layer 1
10
449.581378
20
-53.339658
11
412.892478
21
-110.912958
0
LINE
8
Layer 1
10
412.892478
20
-110.912958
11
410.352478
21
-110.066292
0
LINE
8
Layer 1
10
410.352478
20
-110.066292
11
407.812478
21
-109.501848
0
LINE
8
Layer 1
10
407.812478
20
-109.501848
11
398.499148
21
-94.261848
0
LINE
8
Layer 1
10
398.499148
20
-94.261848
11
389.185818
21
-79.021848
0
LINE
8
Layer 1
10
389.185818
20
-79.021848
11
401.603618
21
-59.548548
0
LINE
8
Layer 1
10
401.603618
20
-59.548548
11
414.303618
21
-39.793048
0
LINE
8
Layer 1
10
414.303618
20
-39.793048
11
403.296918
21
-23.141948
0
LINE
8
Layer 1
10
403.296918
20
-23.141948
11
392.290218
21
-6.490848
0
LINE
8
Layer 1
10
392.290218
20
-6.490848
11
414.868018
21
-5.644182
0
LINE
8
Layer 1
10
414.868018
20
-5.644182
11
437.163518
21
-4.797516
0
LINE
8
Layer 1
10
437.163518
20
-4.797516
11
449.299018
21
14.675784
0
LINE
8
Layer 1
10
449.299018
20
14.675784
11
461.434518
21
34.431284
0
LINE
8
Layer 1
10
461.434518
20
34.431284
11
486.834518
21
34.431284
0
LINE
8
Layer 1
10
486.834518
20
34.431284
11
512.234518
21
34.431284
0
LINE
8
Layer 1
10
512.234518
20
34.431284
11
524.652318
21
14.675784
0
LINE
8
Layer 1
10
524.652318
20
14.675784
11
537.070118
21
-5.079716
0
LINE
8
Layer 1
10
537.070118
20
-5.079716
11
562.752318
21
-5.079716
0
LINE
8
Layer 1
10
562.752318
20
-5.079716
11
588.434518
21
-5.079716
0
LINE
8
Layer 1
10
588.434518
20
-5.079716
11
599.158918
21
-22.013016
0
LINE
8
Layer 1
10
599.158918
20
-22.013016
11
610.165618
21
-38.664116
0
LINE
8
Layer 1
10
610.165618
20
-38.664116
11
609.036728
21
-40.921896
0
LINE
8
Layer 1
10
609.036728
20
-40.921896
11
608.190062
21
-43.179676
0
LINE
8
Layer 1
10
608.190062
20
-43.179676
11
598.312292
21
-59.548576
0
LINE
8
Layer 1
10
598.312292
20
-59.548576
11
588.434522
21
-75.635276
0
LINE
8
Layer 1
10
588.434522
20
-75.635276
11
537.352322
21
-75.635276
0
LINE
8
Layer 1
10
537.352322
20
-75.635276
11
485.987922
21
-75.635276
0
LINE
8
Layer 1
10
485.987922
20
-75.635276
11
472.159022
21
-97.648576
0
LINE
8
Layer 1
10
472.159022
20
-97.648576
11
458.047922
21
-119.661876
0
LINE
8
Layer 1
10
458.047922
20
-119.661876
11
470.465722
21
-137.724076
0
LINE
8
Layer 1
10
470.465722
20
-137.724076
11
482.601222
21
-156.068476
0
LINE
8
Layer 1
10
482.601222
20
-156.068476
11
482.036778
21
-159.172916
0
LINE
8
Layer 1
10
482.036778
20
-159.172916
11
481.190112
21
-162.559576
0
LINE
8
Layer 1
10
481.190112
20
-162.559576
11
420.512412
21
-257.386176
0
LINE
8
Layer 1
10
420.512412
20
-257.386176
11
359.834712
21
-351.930576
0
LINE
8
Layer 1
10
359.834712
20
-351.930576
11
335.281412
21
-352.212798
0
LINE
8
Layer 1
10
335.281412
20
-352.212798
11
310.728112
21
-352.212798
0
LINE
8
Layer 1
10
310.728112
20
-352.212798
11
302.543672
21
-340.359498
0
LINE
8
Layer 1
10
302.543672
20
-340.359498
11
294.359232
21
-328.223998
0
LINE
8
Layer 1
10
294.359232
20
-328.223998
11
290.972572
21
-322.015118
0
LINE
8
Layer 1
10
290.972572
20
-322.015118
11
287.868132
21
-315.806238
0
LINE
8
Layer 1
10
287.868132
20
-315.806238
11
312.985932
21
-276.859638
0
LINE
8
Layer 1
10
312.985932
20
-276.859638
11
337.821432
21
-237.913038
0
LINE
8
Layer 1
10
337.821432
20
-237.913038
11
336.692542
21
-235.937488
0
LINE
8
Layer 1
10
336.692542
20
-235.937488
11
335.563652
21
-233.679708
0
LINE
8
Layer 1
10
335.563652
20
-233.679708
11
310.163652
21
-233.679708
0
LINE
8
Layer 1
10
310.163652
20
-233.679708
11
285.045852
21
-233.679708
0
LINE
8
Layer 1
10
285.045852
20
-233.679708
11
272.063652
21
-213.924208
0
LINE
8
Layer 1
10
272.063652
20
-213.924208
11
259.363652
21
-194.168708
0
LINE
8
Layer 1
10
259.363652
20
-194.168708
11
207.717052
21
-194.168708
0
LINE
8
Layer 1
10
207.717052
20
-194.168708
11
155.788252
21
-194.168708
0
LINE
8
Layer 1
10
155.788252
20
-194.168708
11
131.517152
21
-232.268708
0
LINE
8
Layer 1
10
131.517152
20
-232.268708
11
106.963852
21
-270.368708
0
LINE
8
Layer 1
10
106.963852
20
-270.368708
11
105.552742
21
-274.602038
0
LINE
8
Layer 1
10
105.552742
20
-274.602038
11
103.859412
21
-278.835368
0
LINE
8
Layer 1
10
103.859412
20
-278.835368
11
106.117192
21
-278.835368
0
LINE
8
Layer 1
10
106.117192
20
-278.835368
11
108.657192
21
-278.835368
0
LINE
8
Layer 1
10
108.657192
20
-278.835368
11
132.646092
21
-240.735368
0
LINE
8
Layer 1
10
132.646092
20
-240.735368
11
156.634992
21
-202.635368
0
LINE
8
Layer 1
10
156.634992
20
-202.635368
11
207.434992
21
-202.635368
0
LINE
8
Layer 1
10
207.434992
20
-202.635368
11
258.234992
21
-202.635368
0
LINE
8
Layer 1
10
258.234992
20
-202.635368
11
270.652792
21
-222.390868
0
LINE
8
Layer 1
10
270.652792
20
-222.390868
11
283.070592
21
-241.864168
0
LINE
8
Layer 1
10
283.070592
20
-241.864168
11
305.083892
21
-242.710834
0
LINE
8
Layer 1
10
305.083892
20
-242.710834
11
327.379392
21
-243.557500
0
LINE
8
Layer 1
10
327.379392
20
-243.557500
11
292.666092
21
-297.744100
0
LINE
8
Layer 1
10
292.666092
20
-297.744100
11
258.234992
21
-351.930700
0
LINE
8
Layer 1
10
258.234992
20
-351.930700
11
231.988392
21
-352.212922
0
LINE
8
Layer 1
10
231.988392
20
-352.212922
11
205.459492
21
-352.212922
0
LINE
8
Layer 1
10
205.459492
20
-352.212922
11
206.588382
21
-355.881812
0
LINE
8
Layer 1
10
206.588382
20
-355.881812
11
207.999492
21
-359.268472
0
LINE
8
Layer 1
10
207.999492
20
-359.268472
11
233.399492
21
-360.115138
0
LINE
8
Layer 1
10
233.399492
20
-360.115138
11
259.081692
21
-360.961804
0
LINE
8
Layer 1
10
259.081692
20
-360.961804
11
270.652792
21
-342.335104
0
LINE
8
Layer 1
10
270.652792
20
-342.335104
11
282.223892
21
-323.990704
0
LINE
8
Layer 1
10
282.223892
20
-323.990704
11
283.635002
21
-323.990704
0
LINE
8
Layer 1
10
283.635002
20
-323.990704
11
285.046112
21
-323.990704
0
LINE
8
Layer 1
10
285.046112
20
-323.990704
11
296.617212
21
-341.770704
0
LINE
8
Layer 1
10
296.617212
20
-341.770704
11
307.906112
21
-359.268504
0
LINE
8
Layer 1
10
307.906112
20
-359.268504
11
330.201612
21
-360.679614
0
LINE
8
Layer 1
10
330.201612
20
-360.679614
11
352.497112
21
-362.090724
0
LINE
8
Layer 1
10
352.497112
20
-362.090724
11
343.466012
21
-377.048524
0
LINE
8
Layer 1
10
343.466012
20
-377.048524
11
334.434912
21
-391.724024
0
LINE
8
Layer 1
10
334.434912
20
-391.724024
11
308.188312
21
-391.724024
0
LINE
8
Layer 1
10
308.188312
20
-391.724024
11
281.659412
21
-391.724024
0
LINE
8
Layer 1
10
281.659412
20
-391.724024
11
282.788302
21
-395.392914
0
LINE
8
Layer 1
10
282.788302
20
-395.392914
11
284.199412
21
-398.779574
0
LINE
8
Layer 1
10
284.199412
20
-398.779574
11
309.599412
21
-399.626240
0
LINE
8
Layer 1
10
309.599412
20
-399.626240
11
334.999412
21
-400.472906
0
LINE
8
Layer 1
10
334.999412
20
-400.472906
11
372.817112
21
-341.206306
0
LINE
8
Layer 1
10
372.817112
20
-341.206306
11
410.634812
21
-281.939706
0
LINE
8
Layer 1
10
410.634812
20
-281.939706
11
436.599212
21
-281.657484
0
LINE
8
Layer 1
10
436.599212
20
-281.657484
11
462.563612
21
-281.657484
0
LINE
8
Layer 1
10
462.563612
20
-281.657484
11
475.545812
21
-260.490784
0
LINE
8
Layer 1
10
475.545812
20
-260.490784
11
488.810212
21
-239.324084
0
LINE
8
Layer 1
10
488.810212
20
-239.324084
11
487.681322
21
-235.937424
0
LINE
8
Layer 1
10
487.681322
20
-235.937424
11
486.552432
21
-232.550764
0
LINE
8
Layer 1
10
486.552432
20
-232.550764
11
473.852432
21
-252.870764
0
LINE
8
Layer 1
10
473.852432
20
-252.870764
11
461.434632
21
-273.190764
0
LINE
8
Layer 1
10
461.434632
20
-273.190764
11
439.421332
21
-273.190764
0
LINE
8
Layer 1
10
439.421332
20
-273.190764
11
417.408032
21
-273.190764
0
LINE
8
Layer 1
10
417.408032
20
-273.190764
11
423.899142
21
-262.466364
0
LINE
8
Layer 1
10
423.899142
20
-262.466364
11
430.390252
21
-251.741964
0
LINE
8
Layer 1
10
430.390252
20
-251.741964
11
445.912452
21
-227.470864
0
LINE
8
Layer 1
10
445.912452
20
-227.470864
11
461.434652
21
-202.917564
0
LINE
8
Layer 1
10
461.434652
20
-202.917564
11
486.552452
21
-202.070898
0
LINE
8
Layer 1
10
486.552452
20
-202.070898
11
511.670252
21
-201.224232
0
LINE
8
Layer 1
10
511.670252
20
-201.224232
11
512.799142
21
-197.837572
0
LINE
8
Layer 1
10
512.799142
20
-197.837572
11
513.928032
21
-194.450912
0
LINE
8
Layer 1
10
513.928032
20
-194.450912
11
491.350232
21
-193.604246
0
LINE
8
Layer 1
10
491.350232
20
-193.604246
11
468.490232
21
-192.757580
0
LINE
8
Layer 1
10
468.490232
20
-192.757580
11
491.068032
21
-157.479880
0
LINE
8
Layer 1
10
491.068032
20
-157.479880
11
513.645832
21
-122.202080
0
LINE
8
Layer 1
10
513.645832
20
-122.202080
11
513.645832
21
-118.815420
0
LINE
8
Layer 1
10
513.645832
20
-118.815420
11
513.645832
21
-115.146530
0
LINE
8
Layer 1
10
513.645832
20
-115.146530
11
512.516942
21
-115.146530
0
LINE
8
Layer 1
10
512.516942
20
-115.146530
11
511.388052
21
-115.146530
0
LINE
8
Layer 1
10
511.388052
20
-115.146530
11
499.534752
21
-134.055430
0
LINE
8
Layer 1
10
499.534752
20
-134.055430
11
487.399252
21
-152.964330
0
LINE
8
Layer 1
10
487.399252
20
-152.964330
11
483.448142
21
-147.319890
0
LINE
8
Layer 1
10
483.448142
20
-147.319890
11
479.214812
21
-141.957670
0
LINE
8
Layer 1
10
479.214812
20
-141.957670
11
472.441482
21
-130.386570
0
LINE
8
Layer 1
10
472.441482
20
-130.386570
11
465.385932
21
-118.533270
0
LINE
8
Layer 1
10
465.385932
20
-118.533270
11
476.110332
21
-101.317770
0
LINE
8
Layer 1
10
476.110332
20
-101.317770
11
486.834732
21
-84.102270
0
LINE
8
Layer 1
10
486.834732
20
-84.102270
11
512.234732
21
-84.102270
0
LINE
8
Layer 1
10
512.234732
20
-84.102270
11
537.634732
21
-84.102270
0
LINE
8
Layer 1
10
537.634732
20
-84.102270
11
562.752532
21
-123.613370
0
LINE
8
Layer 1
10
562.752532
20
-123.613370
11
587.870332
21
-162.842270
0
LINE
8
Layer 1
10
587.870332
20
-162.842270
11
609.883632
21
-163.688936
0
LINE
8
Layer 1
10
609.883632
20
-163.688936
11
631.614732
21
-164.535602
0
LINE
8
Layer 1
10
631.614732
20
-164.535602
11
622.865852
21
-179.493402
0
LINE
8
Layer 1
10
622.865852
20
-179.493402
11
613.834752
21
-194.168902
0
LINE
8
Layer 1
10
613.834752
20
-194.168902
11
588.999252
21
-194.168902
0
LINE
8
Layer 1
10
588.999252
20
-194.168902
11
564.445952
21
-194.168902
0
LINE
8
Layer 1
10
564.445952
20
-194.168902
11
551.181552
21
-173.848902
0
LINE
8
Layer 1
10
551.181552
20
-173.848902
11
537.917152
21
-153.528902
0
LINE
8
Layer 1
10
537.917152
20
-153.528902
11
536.788262
21
-156.915562
0
LINE
8
Layer 1
10
536.788262
20
-156.915562
11
535.659372
21
-160.302222
0
LINE
8
Layer 1
10
535.659372
20
-160.302222
11
549.206072
21
-181.468922
0
LINE
8
Layer 1
10
549.206072
20
-181.468922
11
562.470472
21
-202.635622
0
LINE
8
Layer 1
10
562.470472
20
-202.635622
11
588.717072
21
-202.635622
0
LINE
8
Layer 1
10
588.717072
20
-202.635622
11
614.681472
21
-202.635622
0
LINE
8
Layer 1
10
614.681472
20
-202.635622
11
628.792572
21
-180.340122
0
LINE
8
Layer 1
10
628.792572
20
-180.340122
11
642.903672
21
-158.044622
0
LINE
8
Layer 1
10
642.903672
20
-158.044622
11
641.492562
21
-156.351292
0
LINE
8
Layer 1
10
641.492562
20
-156.351292
11
639.799232
21
-154.657962
0
LINE
8
Layer 1
10
639.799232
20
-154.657962
11
614.681432
21
-154.657962
0
LINE
8
Layer 1
10
614.681432
20
-154.657962
11
589.845932
21
-154.657962
0
LINE
8
Layer 1
10
589.845932
20
-154.657962
11
569.243732
21
-122.766862
0
LINE
8
Layer 1
10
569.243732
20
-122.766862
11
548.641532
21
-91.157962
0
LINE
8
Layer 1
10
548.641532
20
-91.157962
11
546.383752
21
-87.771302
0
LINE
8
Layer 1
10
546.383752
20
-87.771302
11
544.408202
21
-84.102412
0
LINE
8
Layer 1
10
544.408202
20
-84.102412
11
566.421502
21
-84.102412
0
LINE
8
Layer 1
10
566.421502
20
-84.102412
11
588.434802
21
-84.102412
0
LINE
8
Layer 1
10
588.434802
20
-84.102412
11
600.852602
21
-103.857912
0
LINE
8
Layer 1
10
600.852602
20
-103.857912
11
613.270402
21
-123.613412
0
LINE
8
Layer 1
10
613.270402
20
-123.613412
11
639.517002
21
-123.613412
0
LINE
8
Layer 1
10
639.517002
20
-123.613412
11
665.481402
21
-123.613412
0
LINE
8
Layer 1
10
665.481402
20
-123.613412
11
677.334702
21
-104.704512
0
LINE
8
Layer 1
10
677.334702
20
-104.704512
11
689.470202
21
-85.795612
0
LINE
8
Layer 1
10
689.470202
20
-85.795612
11
695.961312
21
-93.980052
0
LINE
8
Layer 1
10
695.961312
20
-93.980052
11
702.452422
21
-102.164492
0
LINE
8
Layer 1
10
702.452422
20
-102.164492
11
707.250192
21
-110.913372
0
LINE
8
Layer 1
10
707.250192
20
-110.913372
11
711.765742
21
-119.662252
0
LINE
8
Layer 1
10
711.765742
20
-119.662252
11
686.647942
21
-159.173352
0
LINE
8
Layer 1
10
686.647942
20
-159.173352
11
661.247942
21
-198.402252
0
LINE
8
Layer 1
10
661.247942
20
-198.402252
11
662.376832
21
-200.660032
0
LINE
8
Layer 1
10
662.376832
20
-200.660032
11
663.505722
21
-202.635582
0
LINE
8
Layer 1
10
663.505722
20
-202.635582
11
689.470122
21
-202.635582
0
LINE
8
Layer 1
10
689.470122
20
-202.635582
11
715.434522
21
-202.635582
0
LINE
8
Layer 1
10
715.434522
20
-202.635582
11
728.134522
21
-222.391082
0
LINE
8
Layer 1
10
728.134522
20
-222.391082
11
740.552322
21
-242.428882
0
LINE
8
Layer 1
10
740.552322
20
-242.428882
11
765.952322
21
-241.582216
0
LINE
8
Layer 1
10
765.952322
20
-241.582216
11
791.070122
21
-240.735550
0
LINE
8
Layer 1
10
791.070122
20
-240.735550
11
792.481232
21
-237.348890
0
LINE
8
Layer 1
10
792.481232
20
-237.348890
11
793.610122
21
-233.680000
0
LINE
8
Layer 1
10
793.610122
20
-233.680000
11
767.927922
21
-233.680000
0
LINE
8
Layer 1
10
767.927922
20
-233.680000
11
742.527922
21
-233.680000
0
LINE
8
Layer 1
10
742.527922
20
-233.680000
11
734.343482
21
-221.826700
0
LINE
8
Layer 1
10
734.343482
20
-221.826700
11
726.159042
21
-209.691200
0
LINE
8
Layer 1
10
726.159042
20
-209.691200
11
722.772382
21
-203.482320
0
LINE
8
Layer 1
10
722.772382
20
-203.482320
11
719.667942
21
-197.273440
0
LINE
8
Layer 1
10
719.667942
20
-197.273440
11
731.239042
21
-178.929040
0
LINE
8
Layer 1
10
731.239042
20
-178.929040
11
742.810142
21
-160.584640
0
LINE
8
Layer 1
10
742.810142
20
-160.584640
11
741.681252
21
-156.915750
0
LINE
8
Layer 1
10
741.681252
20
-156.915750
11
740.552362
21
-153.529090
0
LINE
8
Layer 1
10
740.552362
20
-153.529090
11
727.852362
21
-173.849090
0
LINE
8
Layer 1
10
727.852362
20
-173.849090
11
715.434562
21
-194.169090
0
LINE
8
Layer 1
10
715.434562
20
-194.169090
11
693.421262
21
-194.169090
0
LINE
8
Layer 1
10
693.421262
20
-194.169090
11
671.125762
21
-194.169090
0
LINE
8
Layer 1
10
671.125762
20
-194.169090
11
677.616872
21
-183.726890
0
LINE
8
Layer 1
10
677.616872
20
-183.726890
11
684.107982
21
-173.002490
0
LINE
8
Layer 1
10
684.107982
20
-173.002490
11
701.605782
21
-146.191390
0
LINE
8
Layer 1
10
701.605782
20
-146.191390
11
719.103582
21
-119.380290
0
LINE
8
Layer 1
10
719.103582
20
-119.380290
11
714.588032
21
-112.324740
0
LINE
8
Layer 1
10
714.588032
20
-112.324740
11
710.072482
21
-105.269190
0
LINE
8
Layer 1
10
710.072482
20
-105.269190
11
702.170262
21
-92.286990
0
LINE
8
Layer 1
10
702.170262
20
-92.286990
11
693.985822
21
-79.304790
0
LINE
8
Layer 1
10
693.985822
20
-79.304790
11
704.710222
21
-62.089290
0
LINE
8
Layer 1
10
704.710222
20
-62.089290
11
715.434622
21
-44.873790
0
LINE
8
Layer 1
10
715.434622
20
-44.873790
11
765.952322
21
-44.027124
0
LINE
8
Layer 1
10
765.952322
20
-44.027124
11
816.470022
21
-43.180458
0
LINE
8
Layer 1
10
816.470022
20
-43.180458
11
817.881132
21
-39.793798
0
LINE
8
Layer 1
10
817.881132
20
-39.793798
11
819.010022
21
-36.124908
0
LINE
8
Layer 1
10
819.010022
20
-36.124908
11
766.798922
21
-36.124908
0
LINE
8
Layer 1
10
766.798922
20
-36.124908
11
714.587822
21
-36.124908
0
LINE
8
Layer 1
10
714.587822
20
-36.124908
11
689.752322
21
-75.636008
0
LINE
8
Layer 1
10
689.752322
20
-75.636008
11
664.634522
21
-115.147108
0
LINE
8
Layer 1
10
664.634522
20
-115.147108
11
640.081222
21
-115.147108
0
LINE
8
Layer 1
10
640.081222
20
-115.147108
11
615.527922
21
-115.147108
0
LINE
8
Layer 1
10
615.527922
20
-115.147108
11
607.343482
21
-103.293808
0
LINE
8
Layer 1
10
607.343482
20
-103.293808
11
599.159042
21
-91.158308
0
LINE
8
Layer 1
10
599.159042
20
-91.158308
11
595.772382
21
-84.949428
0
LINE
8
Layer 1
10
595.772382
20
-84.949428
11
592.667942
21
-78.740548
0
LINE
8
Layer 1
10
592.667942
20
-78.740548
11
605.085742
21
-59.267248
0
LINE
8
Layer 1
10
605.085742
20
-59.267248
11
617.503542
21
-39.793948
0
LINE
8
Layer 1
10
617.503542
20
-39.793948
11
609.319102
21
-27.376148
0
LINE
8
Layer 1
10
609.319102
20
-27.376148
11
600.852442
21
-14.958348
0
LINE
8
Layer 1
10
600.852442
20
-14.958348
11
596.901332
21
-7.338358
0
LINE
8
Layer 1
10
596.901332
20
-7.338358
11
592.668002
21
0.281632
0
LINE
8
Layer 1
10
592.668002
20
0.281632
11
603.392402
21
17.214932
0
LINE
8
Layer 1
10
603.392402
20
17.214932
11
613.834602
21
34.148232
0
LINE
8
Layer 1
10
613.834602
20
34.148232
11
638.952402
21
34.994898
0
LINE
8
Layer 1
10
638.952402
20
34.994898
11
664.070202
21
35.841564
0
LINE
8
Layer 1
10
664.070202
20
35.841564
11
665.481312
21
39.228224
0
LINE
8
Layer 1
10
665.481312
20
39.228224
11
666.610202
21
42.897114
0
LINE
8
Layer 1
10
666.610202
20
42.897114
11
639.516902
21
42.897114
0
LINE
8
Layer 1
10
639.516902
20
42.897114
11
612.705802
21
42.897114
0
LINE
8
Layer 1
10
612.705802
20
42.897114
11
600.570302
21
23.141614
0
LINE
8
Layer 1
10
600.570302
20
23.141614
11
588.434802
21
3.386114
0
LINE
8
Layer 1
10
588.434802
20
3.386114
11
563.599302
21
3.386114
0
LINE
8
Layer 1
10
563.599302
20
3.386114
11
539.046002
21
3.386114
0
LINE
8
Layer 1
10
539.046002
20
3.386114
11
526.346002
21
23.141614
0
LINE
8
Layer 1
10
526.346002
20
23.141614
11
513.646002
21
42.614914
0
LINE
8
Layer 1
10
513.646002
20
42.614914
11
491.350502
21
43.461580
0
LINE
8
Layer 1
10
491.350502
20
43.461580
11
469.055002
21
44.308246
0
LINE
8
Layer 1
10
469.055002
20
44.308246
11
477.803882
21
59.266046
0
LINE
8
Layer 1
10
477.803882
20
59.266046
11
486.834982
21
73.941546
0
LINE
8
Layer 1
10
486.834982
20
73.941546
11
534.248282
21
73.941546
0
LINE
8
Layer 1
10
534.248282
20
73.941546
11
581.943782
21
73.941546
0
LINE
8
Layer 1
10
581.943782
20
73.941546
11
575.452672
21
63.217146
0
LINE
8
Layer 1
10
575.452672
20
63.217146
11
568.961562
21
52.774946
0
LINE
8
Layer 1
10
568.961562
20
52.774946
11
565.292672
21
47.130506
0
LINE
8
Layer 1
10
565.292672
20
47.130506
11
561.623782
21
41.768286
0
LINE
8
Layer 1
10
561.623782
20
41.768286
11
561.623782
21
39.510506
0
LINE
8
Layer 1
10
561.623782
20
39.510506
11
561.623782
21
37.252726
0
LINE
8
Layer 1
10
561.623782
20
37.252726
11
563.881562
21
37.252726
0
LINE
8
Layer 1
10
563.881562
20
37.252726
11
566.139342
21
37.252726
0
LINE
8
Layer 1
10
566.139342
20
37.252726
11
577.146042
21
55.597126
0
LINE
8
Layer 1
10
577.146042
20
55.597126
11
588.434942
21
73.941526
0
LINE
8
Layer 1
10
588.434942
20
73.941526
11
639.234942
21
73.941526
0
LINE
8
Layer 1
10
639.234942
20
73.941526
11
690.034942
21
73.941526
0
LINE
8
Layer 1
10
690.034942
20
73.941526
11
700.759342
21
57.008226
0
LINE
8
Layer 1
10
700.759342
20
57.008226
11
711.766042
21
40.357126
0
LINE
8
Layer 1
10
711.766042
20
40.357126
11
710.637152
21
38.099346
0
LINE
8
Layer 1
10
710.637152
20
38.099346
11
709.790486
21
35.841566
0
LINE
8
Layer 1
10
709.790486
20
35.841566
11
699.912716
21
19.472666
0
LINE
8
Layer 1
10
699.912716
20
19.472666
11
690.034946
21
3.385966
0
LINE
8
Layer 1
10
690.034946
20
3.385966
11
664.352746
21
3.385966
0
LINE
8
Layer 1
10
664.352746
20
3.385966
11
638.670546
21
3.385966
0
LINE
8
Layer 1
10
638.670546
20
3.385966
11
636.977216
21
1.692636
0
LINE
8
Layer 1
10
636.977216
20
1.692636
11
635.283886
21
-0.000694
0
LINE
8
Layer 1
10
635.283886
20
-0.000694
11
646.572786
21
-16.651794
0
LINE
8
Layer 1
10
646.572786
20
-16.651794
11
657.579486
21
-33.302894
0
LINE
8
Layer 1
10
657.579486
20
-33.302894
11
659.272816
21
-36.971784
0
LINE
8
Layer 1
10
659.272816
20
-36.971784
11
660.683926
21
-40.922894
0
LINE
8
Layer 1
10
660.683926
20
-40.922894
11
648.830626
21
-59.831794
0
LINE
8
Layer 1
10
648.830626
20
-59.831794
11
636.977326
21
-78.740694
0
LINE
8
Layer 1
10
636.977326
20
-78.740694
11
638.952876
21
-80.434024
0
LINE
8
Layer 1
10
638.952876
20
-80.434024
11
640.646206
21
-82.127354
0
LINE
8
Layer 1
10
640.646206
20
-82.127354
11
641.775096
21
-80.998464
0
LINE
8
Layer 1
10
641.775096
20
-80.998464
11
642.903986
21
-79.869574
0
LINE
8
Layer 1
10
642.903986
20
-79.869574
11
655.603986
21
-59.831774
0
LINE
8
Layer 1
10
655.603986
20
-59.831774
11
668.303986
21
-39.793974
0
LINE
8
Layer 1
10
668.303986
20
-39.793974
11
657.297286
21
-23.142874
0
LINE
8
Layer 1
10
657.297286
20
-23.142874
11
646.290586
21
-6.491774
0
LINE
8
Layer 1
10
646.290586
20
-6.491774
11
693.421686
21
-5.080664
0
LINE
8
Layer 1
10
693.421686
20
-5.080664
11
740.270586
21
-3.669554
0
LINE
8
Layer 1
10
740.270586
20
-3.669554
11
741.399476
21
-0.282894
0
LINE
8
Layer 1
10
741.399476
20
-0.282894
11
742.528366
21
3.103766
0
LINE
8
Layer 1
10
742.528366
20
3.103766
11
719.950566
21
3.950432
0
LINE
8
Layer 1
10
719.950566
20
3.950432
11
697.655066
21
4.797098
0
LINE
8
Layer 1
10
697.655066
20
4.797098
11
706.403946
21
19.754898
0
LINE
8
Layer 1
10
706.403946
20
19.754898
11
715.435046
21
34.430398
0
LINE
8
Layer 1
10
715.435046
20
34.430398
11
740.835046
21
34.430398
0
LINE
8
Layer 1
10
740.835046
20
34.430398
11
766.235046
21
34.430398
0
LINE
8
Layer 1
10
766.235046
20
34.430398
11
778.652846
21
14.674898
0
LINE
8
Layer 1
10
778.652846
20
14.674898
11
791.070646
21
-5.080602
0
LINE
8
Layer 1
10
791.070646
20
-5.080602
11
816.752846
21
-5.080602
0
LINE
8
Layer 1
10
816.752846
20
-5.080602
11
842.435046
21
-5.080602
0
LINE
8
Layer 1
10
842.435046
20
-5.080602
11
853.159446
21
-22.013902
0
LINE
8
Layer 1
10
853.159446
20
-22.013902
11
864.166146
21
-38.665002
0
LINE
8
Layer 1
10
864.166146
20
-38.665002
11
863.037256
21
-40.922782
0
LINE
8
Layer 1
10
863.037256
20
-40.922782
11
862.190590
21
-43.180562
0
LINE
8
Layer 1
10
862.190590
20
-43.180562
11
852.312820
21
-59.549462
0
LINE
8
Layer 1
10
852.312820
20
-59.549462
11
842.435050
21
-75.636162
0
LINE
8
Layer 1
10
842.435050
20
-75.636162
11
790.788450
21
-75.636162
0
LINE
8
Layer 1
10
790.788450
20
-75.636162
11
738.859650
21
-75.636162
0
LINE
8
Layer 1
10
738.859650
20
-75.636162
11
739.988540
21
-79.305052
0
LINE
8
Layer 1
10
739.988540
20
-79.305052
11
741.399650
21
-82.691712
0
LINE
8
Layer 1
10
741.399650
20
-82.691712
11
766.517450
21
-83.538378
0
LINE
8
Layer 1
10
766.517450
20
-83.538378
11
791.635250
21
-84.385044
0
LINE
8
Layer 1
10
791.635250
20
-84.385044
11
802.359650
21
-100.753944
0
LINE
8
Layer 1
10
802.359650
20
-100.753944
11
812.801850
21
-117.122844
0
LINE
8
Layer 1
10
812.801850
20
-117.122844
11
812.801850
21
-118.816174
0
LINE
8
Layer 1
10
812.801850
20
-118.816174
11
812.801850
21
-120.791724
0
LINE
8
Layer 1
10
812.801850
20
-120.791724
11
802.924080
21
-136.313924
0
LINE
8
Layer 1
10
802.924080
20
-136.313924
11
792.764080
21
-151.836124
0
LINE
8
Layer 1
10
792.764080
20
-151.836124
11
791.917414
21
-151.836124
0
LINE
8
Layer 1
10
791.917414
20
-151.836124
11
790.788524
21
-151.836124
0
LINE
8
Layer 1
10
790.788524
20
-151.836124
11
778.653024
21
-132.927224
0
LINE
8
Layer 1
10
778.653024
20
-132.927224
11
766.799724
21
-113.736124
0
LINE
8
Layer 1
10
766.799724
20
-113.736124
11
765.388614
21
-117.405014
0
LINE
8
Layer 1
10
765.388614
20
-117.405014
11
764.259724
21
-121.073904
0
LINE
8
Layer 1
10
764.259724
20
-121.073904
11
775.830824
21
-138.853904
0
LINE
8
Layer 1
10
775.830824
20
-138.853904
11
787.401924
21
-156.351704
0
LINE
8
Layer 1
10
787.401924
20
-156.351704
11
787.401924
21
-158.327254
0
LINE
8
Layer 1
10
787.401924
20
-158.327254
11
787.401924
21
-160.020584
0
LINE
8
Layer 1
10
787.401924
20
-160.020584
11
775.830824
21
-178.647284
0
LINE
8
Layer 1
10
775.830824
20
-178.647284
11
763.977524
21
-197.273984
0
LINE
8
Layer 1
10
763.977524
20
-197.273984
11
765.953074
21
-198.967314
0
LINE
8
Layer 1
10
765.953074
20
-198.967314
11
767.646404
21
-200.660644
0
LINE
8
Layer 1
10
767.646404
20
-200.660644
11
768.775294
21
-199.531754
0
LINE
8
Layer 1
10
768.775294
20
-199.531754
11
769.904184
21
-198.402864
0
LINE
8
Layer 1
10
769.904184
20
-198.402864
11
782.321984
21
-178.647364
0
LINE
8
Layer 1
10
782.321984
20
-178.647364
11
795.021984
21
-158.891864
0
LINE
8
Layer 1
10
795.021984
20
-158.891864
11
808.004184
21
-138.854064
0
LINE
8
Layer 1
10
808.004184
20
-138.854064
11
820.704184
21
-118.534064
0
LINE
8
Layer 1
10
820.704184
20
-118.534064
11
814.495304
21
-109.220734
0
LINE
8
Layer 1
10
814.495304
20
-109.220734
11
808.004194
21
-99.625184
0
LINE
8
Layer 1
10
808.004194
20
-99.625184
11
802.924194
21
-91.722964
0
LINE
8
Layer 1
10
802.924194
20
-91.722964
11
798.126424
21
-84.102974
0
LINE
8
Layer 1
10
798.126424
20
-84.102974
11
820.421924
21
-84.102974
0
LINE
8
Layer 1
10
820.421924
20
-84.102974
11
842.435224
21
-84.102974
0
LINE
8
Layer 1
10
842.435224
20
-84.102974
11
853.724124
21
-102.447374
0
LINE
8
Layer 1
10
853.724124
20
-102.447374
11
865.013024
21
-120.509574
0
LINE
8
Layer 1
10
865.013024
20
-120.509574
11
867.270804
21
-120.791796
0
LINE
8
Layer 1
10
867.270804
20
-120.791796
11
869.246354
21
-120.791796
0
LINE
8
Layer 1
10
869.246354
20
-120.791796
11
869.246354
21
-117.687356
0
LINE
8
Layer 1
10
869.246354
20
-117.687356
11
869.246354
21
-114.865136
0
LINE
8
Layer 1
10
869.246354
20
-114.865136
11
861.061914
21
-103.011836
0
LINE
8
Layer 1
10
861.061914
20
-103.011836
11
853.159694
21
-91.158536
0
LINE
8
Layer 1
10
853.159694
20
-91.158536
11
849.773034
21
-84.949656
0
LINE
8
Layer 1
10
849.773034
20
-84.949656
11
846.668594
21
-78.740776
0
LINE
8
Layer 1
10
846.668594
20
-78.740776
11
859.086394
21
-59.267476
0
LINE
8
Layer 1
10
859.086394
20
-59.267476
11
871.504194
21
-39.794176
0
LINE
8
Layer 1
10
871.504194
20
-39.794176
11
857.393094
21
-18.345276
0
LINE
8
Layer 1
10
857.393094
20
-18.345276
11
843.564194
21
3.385824
0
LINE
8
Layer 1
10
843.564194
20
3.385824
11
818.164194
21
3.385824
0
LINE
8
Layer 1
10
818.164194
20
3.385824
11
793.046394
21
3.385824
0
LINE
8
Layer 1
10
793.046394
20
3.385824
11
780.064194
21
23.141324
0
LINE
8
Layer 1
10
780.064194
20
23.141324
11
767.364194
21
42.896824
0
LINE
8
Layer 1
10
767.364194
20
42.896824
11
742.246394
21
42.896824
0
LINE
8
Layer 1
10
742.246394
20
42.896824
11
717.128594
21
42.896824
0
LINE
8
Layer 1
10
717.128594
20
42.896824
11
708.944154
21
54.750124
0
LINE
8
Layer 1
10
708.944154
20
54.750124
11
700.759714
21
66.885624
0
LINE
8
Layer 1
10
700.759714
20
66.885624
11
698.784164
21
70.272284
0
LINE
8
Layer 1
10
698.784164
20
70.272284
11
696.808614
21
73.941174
0
LINE
8
Layer 1
10
696.808614
20
73.941174
11
795.021914
21
73.941174
0
LINE
8
Layer 1
10
795.021914
20
73.941174
11
893.235214
21
73.941174
0
LINE
8
Layer 1
10
893.235214
20
73.941174
11
903.959614
21
57.572274
0
LINE
8
Layer 1
10
903.959614
20
57.572274
11
914.401814
21
40.921174
0
LINE
8
Layer 1
10
914.401814
20
40.921174
11
914.401814
21
39.227844
0
LINE
8
Layer 1
10
914.401814
20
39.227844
11
914.401814
21
37.252294
0
LINE
8
Layer 1
10
914.401814
20
37.252294
11
904.524044
21
21.730094
0
LINE
8
Layer 1
10
904.524044
20
21.730094
11
894.364044
21
6.207894
0
LINE
8
Layer 1
10
894.364044
20
6.207894
11
893.517378
21
6.207894
0
LINE
8
Layer 1
10
893.517378
20
6.207894
11
892.388488
21
6.207894
0
LINE
8
Layer 1
10
892.388488
20
6.207894
11
880.817388
21
24.552294
0
LINE
8
Layer 1
10
880.817388
20
24.552294
11
869.246288
21
42.896694
0
LINE
8
Layer 1
10
869.246288
20
42.896694
11
842.152988
21
42.896694
0
LINE
8
Layer 1
10
842.152988
20
42.896694
11
815.059688
21
42.896694
0
LINE
8
Layer 1
10
815.059688
20
42.896694
11
816.188578
21
39.227804
0
LINE
8
Layer 1
10
816.188578
20
39.227804
11
817.599688
21
35.841144
0
LINE
8
Layer 1
10
817.599688
20
35.841144
11
842.717488
21
34.994478
0
LINE
8
Layer 1
10
842.717488
20
34.994478
11
867.835288
21
34.147812
0
LINE
8
Layer 1
10
867.835288
20
34.147812
11
891.259688
21
-1.976588
0
LINE
8
Layer 1
10
891.259688
20
-1.976588
11
914.401888
21
-38.100988
0
LINE
8
Layer 1
10
914.401888
20
-38.100988
11
914.401888
21
-40.076538
0
LINE
8
Layer 1
10
914.401888
20
-40.076538
11
914.401888
21
-41.769868
0
LINE
8
Layer 1
10
914.401888
20
-41.769868
11
902.266388
21
-60.960968
0
LINE
8
Layer 1
10
902.266388
20
-60.960968
11
889.848588
21
-79.869868
0
LINE
8
Layer 1
10
889.848588
20
-79.869868
11
902.266388
21
-98.214268
0
LINE
8
Layer 1
10
902.266388
20
-98.214268
11
914.401888
21
-116.558668
0
LINE
8
Layer 1
10
914.401888
20
-116.558668
11
914.401888
21
-118.534218
0
LINE
8
Layer 1
10
914.401888
20
-118.534218
11
914.401888
21
-120.791998
0
LINE
8
Layer 1
10
914.401888
20
-120.791998
11
891.824088
21
-156.069798
0
LINE
8
Layer 1
10
891.824088
20
-156.069798
11
869.246288
21
-191.347498
0
LINE
8
Layer 1
10
869.246288
20
-191.347498
11
867.552958
21
-195.580828
0
LINE
8
Layer 1
10
867.552958
20
-195.580828
11
865.859628
21
-199.814158
0
LINE
8
Layer 1
10
865.859628
20
-199.814158
11
868.117408
21
-199.814158
0
LINE
8
Layer 1
10
868.117408
20
-199.814158
11
870.657408
21
-199.814158
0
LINE
8
Layer 1
10
870.657408
20
-199.814158
11
881.664108
21
-182.316358
0
LINE
8
Layer 1
10
881.664108
20
-182.316358
11
892.670808
21
-164.818558
0
LINE
8
Layer 1
10
892.670808
20
-164.818558
11
899.161918
21
-173.002998
0
LINE
8
Layer 1
10
899.161918
20
-173.002998
11
905.653028
21
-181.187438
0
LINE
8
Layer 1
10
905.653028
20
-181.187438
11
910.450798
21
-189.936318
0
LINE
8
Layer 1
10
910.450798
20
-189.936318
11
914.966348
21
-198.402978
0
LINE
8
Layer 1
10
914.966348
20
-198.402978
11
904.241948
21
-216.182978
0
LINE
8
Layer 1
10
904.241948
20
-216.182978
11
893.235248
21
-233.680778
0
LINE
8
Layer 1
10
893.235248
20
-233.680778
11
868.681948
21
-233.680778
0
LINE
8
Layer 1
10
868.681948
20
-233.680778
11
844.128648
21
-233.680778
0
LINE
8
Layer 1
10
844.128648
20
-233.680778
11
835.944208
21
-221.827478
0
LINE
8
Layer 1
10
835.944208
20
-221.827478
11
827.759768
21
-209.691978
0
LINE
8
Layer 1
10
827.759768
20
-209.691978
11
824.373108
21
-203.483098
0
LINE
8
Layer 1
10
824.373108
20
-203.483098
11
821.268668
21
-197.274218
0
LINE
8
Layer 1
10
821.268668
20
-197.274218
11
832.839768
21
-178.929818
0
LINE
8
Layer 1
10
832.839768
20
-178.929818
11
844.410868
21
-160.585418
0
LINE
8
Layer 1
10
844.410868
20
-160.585418
11
843.281978
21
-157.198758
0
LINE
8
Layer 1
10
843.281978
20
-157.198758
11
842.153088
21
-153.812098
0
LINE
8
Layer 1
10
842.153088
20
-153.812098
11
828.041988
21
-176.107598
0
LINE
8
Layer 1
10
828.041988
20
-176.107598
11
813.648688
21
-198.685398
0
LINE
8
Layer 1
10
813.648688
20
-198.685398
11
826.066488
21
-216.747598
0
LINE
8
Layer 1
10
826.066488
20
-216.747598
11
838.201988
21
-235.091998
0
LINE
8
Layer 1
10
838.201988
20
-235.091998
11
838.201988
21
-237.067548
0
LINE
8
Layer 1
10
838.201988
20
-237.067548
11
838.201988
21
-239.043098
0
LINE
8
Layer 1
10
838.201988
20
-239.043098
11
827.759788
21
-255.976398
0
LINE
8
Layer 1
10
827.759788
20
-255.976398
11
817.035388
21
-273.191898
0
LINE
8
Layer 1
10
817.035388
20
-273.191898
11
741.682088
21
-273.191898
0
LINE
8
Layer 1
10
741.682088
20
-273.191898
11
666.328788
21
-273.191898
0
LINE
8
Layer 1
10
666.328788
20
-273.191898
11
656.168788
21
-258.516398
0
LINE
8
Layer 1
10
656.168788
20
-258.516398
11
646.291018
21
-243.558598
0
LINE
8
Layer 1
10
646.291018
20
-243.558598
11
668.022118
21
-242.147488
0
LINE
8
Layer 1
10
668.022118
20
-242.147488
11
689.471018
21
-240.736378
0
LINE
8
Layer 1
10
689.471018
20
-240.736378
11
690.882128
21
-237.349718
0
LINE
8
Layer 1
10
690.882128
20
-237.349718
11
692.011018
21
-233.680828
0
LINE
8
Layer 1
10
692.011018
20
-233.680828
11
639.235518
21
-233.680828
0
LINE
8
Layer 1
10
639.235518
20
-233.680828
11
586.460018
21
-233.680828
0
LINE
8
Layer 1
10
586.460018
20
-233.680828
11
587.588908
21
-237.349718
0
LINE
8
Layer 1
10
587.588908
20
-237.349718
11
589.000018
21
-240.736378
0
LINE
8
Layer 1
10
589.000018
20
-240.736378
11
614.117818
21
-241.583044
0
LINE
8
Layer 1
10
614.117818
20
-241.583044
11
639.235618
21
-242.429710
0
LINE
8
Layer 1
10
639.235618
20
-242.429710
11
649.960018
21
-258.798610
0
LINE
8
Layer 1
10
649.960018
20
-258.798610
11
660.402218
21
-275.167510
0
LINE
8
Layer 1
10
660.402218
20
-275.167510
11
660.402218
21
-276.860840
0
LINE
8
Layer 1
10
660.402218
20
-276.860840
11
660.402218
21
-278.836390
0
LINE
8
Layer 1
10
660.402218
20
-278.836390
11
647.984418
21
-298.309690
0
LINE
8
Layer 1
10
647.984418
20
-298.309690
11
635.284418
21
-317.782990
0
LINE
8
Layer 1
10
635.284418
20
-317.782990
11
636.977748
21
-319.476320
0
LINE
8
Layer 1
10
636.977748
20
-319.476320
11
638.671078
21
-321.169650
0
LINE
8
Layer 1
10
638.671078
20
-321.169650
11
664.353278
21
-321.169650
0
LINE
8
Layer 1
10
664.353278
20
-321.169650
11
690.035478
21
-321.169650
0
LINE
8
Layer 1
10
690.035478
20
-321.169650
11
715.153278
21
-360.680750
0
LINE
8
Layer 1
10
715.153278
20
-360.680750
11
740.553278
21
-400.191850
0
LINE
8
Layer 1
10
740.553278
20
-400.191850
11
766.517678
21
-400.191850
0
LINE
8
Layer 1
10
766.517678
20
-400.191850
11
792.764278
21
-400.191850
0
LINE
8
Layer 1
10
792.764278
20
-400.191850
11
805.746478
21
-379.025150
0
LINE
8
Layer 1
10
805.746478
20
-379.025150
11
819.010878
21
-357.858450
0
LINE
8
Layer 1
10
819.010878
20
-357.858450
11
817.881988
21
-354.471790
0
LINE
8
Layer 1
10
817.881988
20
-354.471790
11
816.753098
21
-351.085130
0
LINE
8
Layer 1
10
816.753098
20
-351.085130
11
804.053098
21
-371.405130
0
LINE
8
Layer 1
10
804.053098
20
-371.405130
11
791.635298
21
-391.725130
0
LINE
8
Layer 1
10
791.635298
20
-391.725130
11
766.799798
21
-391.725130
0
LINE
8
Layer 1
10
766.799798
20
-391.725130
11
742.246498
21
-391.725130
0
LINE
8
Layer 1
10
742.246498
20
-391.725130
11
719.668698
21
-357.294030
0
LINE
8
Layer 1
10
719.668698
20
-357.294030
11
697.373198
21
-322.580730
0
LINE
8
Layer 1
10
697.373198
20
-322.580730
11
718.822098
21
-321.169620
0
LINE
8
Layer 1
10
718.822098
20
-321.169620
11
740.270998
21
-319.758510
0
LINE
8
Layer 1
10
740.270998
20
-319.758510
11
741.399888
21
-316.371850
0
LINE
8
Layer 1
10
741.399888
20
-316.371850
11
742.810998
21
-312.702960
0
LINE
8
Layer 1
10
742.810998
20
-312.702960
11
694.833298
21
-312.138516
0
LINE
8
Layer 1
10
694.833298
20
-312.138516
11
646.855598
21
-311.291850
0
LINE
8
Layer 1
10
646.855598
20
-311.291850
11
655.604478
21
-296.616350
0
LINE
8
Layer 1
10
655.604478
20
-296.616350
11
664.635578
21
-281.658550
0
LINE
8
Layer 1
10
664.635578
20
-281.658550
11
715.435578
21
-281.658550
0
LINE
8
Layer 1
10
715.435578
20
-281.658550
11
766.235578
21
-281.658550
0
LINE
8
Layer 1
10
766.235578
20
-281.658550
11
776.959978
21
-298.027450
0
LINE
8
Layer 1
10
776.959978
20
-298.027450
11
787.402178
21
-314.678550
0
LINE
8
Layer 1
10
787.402178
20
-314.678550
11
787.402178
21
-316.371880
0
LINE
8
Layer 1
10
787.402178
20
-316.371880
11
787.402178
21
-318.347430
0
LINE
8
Layer 1
10
787.402178
20
-318.347430
11
777.524408
21
-333.869630
0
LINE
8
Layer 1
10
777.524408
20
-333.869630
11
767.364408
21
-349.391830
0
LINE
8
Layer 1
10
767.364408
20
-349.391830
11
765.953298
21
-353.625160
0
LINE
8
Layer 1
10
765.953298
20
-353.625160
11
764.259968
21
-357.858490
0
LINE
8
Layer 1
10
764.259968
20
-357.858490
11
766.799968
21
-357.858490
0
LINE
8
Layer 1
10
766.799968
20
-357.858490
11
769.339968
21
-357.858490
0
LINE
8
Layer 1
10
769.339968
20
-357.858490
11
780.346668
21
-339.514090
0
LINE
8
Layer 1
10
780.346668
20
-339.514090
11
791.635568
21
-321.169690
0
LINE
8
Layer 1
10
791.635568
20
-321.169690
11
817.035568
21
-321.169690
0
LINE
8
Layer 1
10
817.035568
20
-321.169690
11
842.435568
21
-321.169690
0
LINE
8
Layer 1
10
842.435568
20
-321.169690
11
853.159968
21
-337.538590
0
LINE
8
Layer 1
10
853.159968
20
-337.538590
11
863.602168
21
-354.189690
0
LINE
8
Layer 1
10
863.602168
20
-354.189690
11
863.602168
21
-355.883020
0
LINE
8
Layer 1
10
863.602168
20
-355.883020
11
863.602168
21
-357.576350
0
LINE
8
Layer 1
10
863.602168
20
-357.576350
11
852.031068
21
-376.203050
0
LINE
8
Layer 1
10
852.031068
20
-376.203050
11
840.177768
21
-394.829750
0
LINE
8
Layer 1
10
840.177768
20
-394.829750
11
842.153318
21
-396.523080
0
LINE
8
Layer 1
10
842.153318
20
-396.523080
11
843.846648
21
-398.216410
0
LINE
8
Layer 1
10
843.846648
20
-398.216410
11
844.975538
21
-397.087520
0
LINE
8
Layer 1
10
844.975538
20
-397.087520
11
846.104428
21
-395.958630
0
LINE
8
Layer 1
10
846.104428
20
-395.958630
11
858.804428
21
-375.920830
0
LINE
8
Layer 1
10
858.804428
20
-375.920830
11
871.504428
21
-355.883030
0
LINE
8
Layer 1
10
871.504428
20
-355.883030
11
863.319988
21
-343.465230
0
LINE
8
Layer 1
10
863.319988
20
-343.465230
11
854.853328
21
-331.047430
0
LINE
8
Layer 1
10
854.853328
20
-331.047430
11
850.902218
21
-323.427440
0
LINE
8
Layer 1
10
850.902218
20
-323.427440
11
846.668888
21
-315.807450
0
LINE
8
Layer 1
10
846.668888
20
-315.807450
11
858.239988
21
-297.463050
0
LINE
8
Layer 1
10
858.239988
20
-297.463050
11
869.811088
21
-279.118650
0
LINE
8
Layer 1
10
869.811088
20
-279.118650
11
868.682198
21
-275.449760
0
LINE
8
Layer 1
10
868.682198
20
-275.449760
11
867.553308
21
-272.063100
0
LINE
8
Layer 1
10
867.553308
20
-272.063100
11
854.853308
21
-292.383100
0
LINE
8
Layer 1
10
854.853308
20
-292.383100
11
842.435508
21
-312.703100
0
LINE
8
Layer 1
10
842.435508
20
-312.703100
11
817.882208
21
-312.703100
0
LINE
8
Layer 1
10
817.882208
20
-312.703100
11
793.328908
21
-312.703100
0
LINE
8
Layer 1
10
793.328908
20
-312.703100
11
783.168908
21
-298.027600
0
LINE
8
Layer 1
10
783.168908
20
-298.027600
11
773.291138
21
-283.069800
0
LINE
8
Layer 1
10
773.291138
20
-283.069800
11
795.586638
21
-282.223134
0
LINE
8
Layer 1
10
795.586638
20
-282.223134
11
818.164438
21
-281.376468
0
LINE
8
Layer 1
10
818.164438
20
-281.376468
11
830.299938
21
-261.903168
0
LINE
8
Layer 1
10
830.299938
20
-261.903168
11
842.435438
21
-242.147668
0
LINE
8
Layer 1
10
842.435438
20
-242.147668
11
867.835438
21
-242.147668
0
LINE
8
Layer 1
10
867.835438
20
-242.147668
11
893.235438
21
-242.147668
0
LINE
8
Layer 1
10
893.235438
20
-242.147668
11
903.677638
21
-258.516568
0
LINE
8
Layer 1
10
903.677638
20
-258.516568
11
914.402038
21
-275.167668
0
LINE
8
Layer 1
10
914.402038
20
-275.167668
11
914.402038
21
-276.860998
0
LINE
8
Layer 1
10
914.402038
20
-276.860998
11
914.402038
21
-278.836548
0
LINE
8
Layer 1
10
914.402038
20
-278.836548
11
902.266538
21
-298.027648
0
LINE
8
Layer 1
10
902.266538
20
-298.027648
11
889.848738
21
-316.936548
0
LINE
8
Layer 1
10
889.848738
20
-316.936548
11
902.266538
21
-335.280948
0
LINE
8
Layer 1
10
902.266538
20
-335.280948
11
914.402038
21
-353.625348
0
LINE
8
Layer 1
10
914.402038
20
-353.625348
11
914.402038
21
-355.600898
0
LINE
8
Layer 1
10
914.402038
20
-355.600898
11
914.402038
21
-357.858678
0
LINE
8
Layer 1
10
914.402038
20
-357.858678
11
902.266538
21
-377.049778
0
LINE
8
Layer 1
10
902.266538
20
-377.049778
11
889.848738
21
-395.958678
0
LINE
8
Layer 1
10
889.848738
20
-395.958678
11
902.266538
21
-414.303078
0
LINE
8
Layer 1
10
902.266538
20
-414.303078
11
914.402038
21
-432.647478
0
LINE
8
Layer 1
10
914.402038
20
-432.647478
11
914.402038
21
-434.623028
0
LINE
8
Layer 1
10
914.402038
20
-434.623028
11
914.402038
21
-436.880808
0
LINE
8
Layer 1
10
914.402038
20
-436.880808
11
904.524268
21
-452.403008
0
LINE
8
Layer 1
10
904.524268
20
-452.403008
11
894.364268
21
-467.925208
0
LINE
8
Layer 1
10
894.364268
20
-467.925208
11
893.517602
21
-467.925208
0
LINE
8
Layer 1
10
893.517602
20
-467.925208
11
892.388712
21
-467.925208
0
LINE
8
Layer 1
10
892.388712
20
-467.925208
11
880.817612
21
-449.580808
0
LINE
8
Layer 1
10
880.817612
20
-449.580808
11
869.246512
21
-431.236408
0
LINE
8
Layer 1
10
869.246512
20
-431.236408
11
793.046612
21
-431.236408
0
LINE
8
Layer 1
10
793.046612
20
-431.236408
11
716.846712
21
-431.236408
0
LINE
8
Layer 1
10
716.846712
20
-431.236408
11
698.220012
21
-402.449808
0
LINE
8
Layer 1
10
698.220012
20
-402.449808
11
679.593312
21
-373.663208
0
LINE
8
Layer 1
10
679.593312
20
-373.663208
11
672.255542
21
-362.092108
0
LINE
8
Layer 1
10
672.255542
20
-362.092108
11
665.199992
21
-350.803208
0
LINE
8
Layer 1
10
665.199992
20
-350.803208
11
663.788882
21
-354.472098
0
LINE
8
Layer 1
10
663.788882
20
-354.472098
11
662.659992
21
-358.140988
0
LINE
8
Layer 1
10
662.659992
20
-358.140988
11
672.819992
21
-373.380988
0
LINE
8
Layer 1
10
672.819992
20
-373.380988
11
682.979992
21
-388.903188
0
LINE
8
Layer 1
10
682.979992
20
-388.903188
11
682.979992
21
-390.314298
0
LINE
8
Layer 1
10
682.979992
20
-390.314298
11
682.979992
21
-391.725408
0
LINE
8
Layer 1
10
682.979992
20
-391.725408
11
661.813292
21
-391.725408
0
LINE
8
Layer 1
10
661.813292
20
-391.725408
11
640.646592
21
-391.725408
0
LINE
8
Layer 1
10
640.646592
20
-391.725408
11
622.019892
21
-362.938808
0
LINE
8
Layer 1
10
622.019892
20
-362.938808
11
603.393192
21
-334.152208
0
LINE
8
Layer 1
10
603.393192
20
-334.152208
11
596.055422
21
-322.581108
0
LINE
8
Layer 1
10
596.055422
20
-322.581108
11
588.999872
21
-311.292208
0
LINE
8
Layer 1
10
588.999872
20
-311.292208
11
587.588762
21
-314.961098
0
LINE
8
Layer 1
10
587.588762
20
-314.961098
11
586.459872
21
-318.629988
0
LINE
8
Layer 1
10
586.459872
20
-318.629988
11
596.619872
21
-333.869988
0
LINE
8
Layer 1
10
596.619872
20
-333.869988
11
606.779872
21
-349.392188
0
LINE
8
Layer 1
10
606.779872
20
-349.392188
11
606.779872
21
-350.803298
0
LINE
8
Layer 1
10
606.779872
20
-350.803298
11
606.779872
21
-352.214408
0
LINE
8
Layer 1
10
606.779872
20
-352.214408
11
585.613172
21
-352.214408
0
LINE
8
Layer 1
10
585.613172
20
-352.214408
11
564.446472
21
-352.214408
0
LINE
8
Layer 1
10
564.446472
20
-352.214408
11
553.157572
21
-334.716608
0
LINE
8
Layer 1
10
553.157572
20
-334.716608
11
541.868672
21
-317.218808
0
LINE
8
Layer 1
10
541.868672
20
-317.218808
11
542.433116
21
-315.525478
0
LINE
8
Layer 1
10
542.433116
20
-315.525478
11
543.279782
21
-314.114368
0
LINE
8
Layer 1
10
543.279782
20
-314.114368
11
553.157552
21
-298.027668
0
LINE
8
Layer 1
10
553.157552
20
-298.027668
11
562.753102
21
-281.940968
0
LINE
8
Layer 1
10
562.753102
20
-281.940968
11
588.153102
21
-281.094302
0
LINE
8
Layer 1
10
588.153102
20
-281.094302
11
613.270902
21
-280.247636
0
LINE
8
Layer 1
10
613.270902
20
-280.247636
11
614.682012
21
-276.860976
0
LINE
8
Layer 1
10
614.682012
20
-276.860976
11
615.810902
21
-273.192086
0
LINE
8
Layer 1
10
615.810902
20
-273.192086
11
590.128702
21
-273.192086
0
LINE
8
Layer 1
10
590.128702
20
-273.192086
11
564.446502
21
-273.192086
0
LINE
8
Layer 1
10
564.446502
20
-273.192086
11
551.464302
21
-253.436586
0
LINE
8
Layer 1
10
551.464302
20
-253.436586
11
538.764302
21
-233.681086
0
LINE
8
Layer 1
10
538.764302
20
-233.681086
11
537.917636
21
-233.681086
0
LINE
8
Layer 1
10
537.917636
20
-233.681086
11
536.788746
21
-233.681086
0
LINE
8
Layer 1
10
536.788746
20
-233.681086
11
511.953246
21
-273.192186
0
LINE
8
Layer 1
10
511.953246
20
-273.192186
11
486.835446
21
-312.703286
0
LINE
8
Layer 1
10
486.835446
20
-312.703286
11
461.153246
21
-312.703286
0
LINE
8
Layer 1
10
461.153246
20
-312.703286
11
435.471046
21
-312.703286
0
LINE
8
Layer 1
10
435.471046
20
-312.703286
11
433.777716
21
-314.396616
0
LINE
8
Layer 1
10
433.777716
20
-314.396616
11
432.084386
21
-316.089946
0
LINE
8
Layer 1
10
432.084386
20
-316.089946
11
443.373286
21
-332.741046
0
LINE
8
Layer 1
10
443.373286
20
-332.741046
11
454.379986
21
-349.392146
0
LINE
8
Layer 1
10
454.379986
20
-349.392146
11
456.073316
21
-353.343256
0
LINE
8
Layer 1
10
456.073316
20
-353.343256
11
457.484426
21
-357.294366
0
LINE
8
Layer 1
10
457.484426
20
-357.294366
11
434.624426
21
-392.854366
0
LINE
8
Layer 1
10
434.624426
20
-392.854366
11
412.046626
21
-428.414366
0
LINE
8
Layer 1
10
412.046626
20
-428.414366
11
410.353296
21
-432.647696
0
LINE
8
Layer 1
10
410.353296
20
-432.647696
11
408.659966
21
-436.881026
0
LINE
8
Layer 1
10
408.659966
20
-436.881026
11
410.917746
21
-436.881026
0
LINE
8
Layer 1
10
410.917746
20
-436.881026
11
413.457746
21
-436.881026
0
LINE
8
Layer 1
10
413.457746
20
-436.881026
11
423.617746
21
-420.794326
0
LINE
8
Layer 1
10
423.617746
20
-420.794326
11
433.777746
21
-404.425426
0
LINE
8
Layer 1
10
433.777746
20
-404.425426
11
449.582146
21
-380.154326
0
LINE
8
Layer 1
10
449.582146
20
-380.154326
11
465.386546
21
-355.601026
0
LINE
8
Layer 1
10
465.386546
20
-355.601026
11
458.895436
21
-346.287696
0
LINE
8
Layer 1
10
458.895436
20
-346.287696
11
452.404326
21
-336.692146
0
LINE
8
Layer 1
10
452.404326
20
-336.692146
11
447.324326
21
-329.072156
0
LINE
8
Layer 1
10
447.324326
20
-329.072156
11
442.526556
21
-321.169936
0
LINE
8
Layer 1
10
442.526556
20
-321.169936
11
464.822056
21
-321.169936
0
LINE
8
Layer 1
10
464.822056
20
-321.169936
11
486.835356
21
-321.169936
0
LINE
8
Layer 1
10
486.835356
20
-321.169936
11
498.124256
21
-339.514336
0
LINE
8
Layer 1
10
498.124256
20
-339.514336
11
509.413156
21
-357.576536
0
LINE
8
Layer 1
10
509.413156
20
-357.576536
11
511.670936
21
-357.858758
0
LINE
8
Layer 1
10
511.670936
20
-357.858758
11
513.646486
21
-357.858758
0
LINE
8
Layer 1
10
513.646486
20
-357.858758
11
513.646486
21
-354.754318
0
LINE
8
Layer 1
10
513.646486
20
-354.754318
11
513.646486
21
-351.932098
0
LINE
8
Layer 1
10
513.646486
20
-351.932098
11
505.462046
21
-340.078798
0
LINE
8
Layer 1
10
505.462046
20
-340.078798
11
497.559826
21
-328.225498
0
LINE
8
Layer 1
10
497.559826
20
-328.225498
11
494.173166
21
-322.016618
0
LINE
8
Layer 1
10
494.173166
20
-322.016618
11
491.068726
21
-315.525508
0
LINE
8
Layer 1
10
491.068726
20
-315.525508
11
511.106526
21
-283.916608
0
LINE
8
Layer 1
10
511.106526
20
-283.916608
11
531.426526
21
-252.025508
0
LINE
8
Layer 1
10
531.426526
20
-252.025508
11
535.095416
21
-248.074398
0
LINE
8
Layer 1
10
535.095416
20
-248.074398
11
538.482076
21
-244.405508
0
LINE
8
Layer 1
10
538.482076
20
-244.405508
11
548.642076
21
-259.363308
0
LINE
8
Layer 1
10
548.642076
20
-259.363308
11
558.802076
21
-274.603308
0
LINE
8
Layer 1
10
558.802076
20
-274.603308
11
558.802076
21
-276.578858
0
LINE
8
Layer 1
10
558.802076
20
-276.578858
11
558.802076
21
-278.836638
0
LINE
8
Layer 1
10
558.802076
20
-278.836638
11
546.666576
21
-298.027738
0
LINE
8
Layer 1
10
546.666576
20
-298.027738
11
534.248776
21
-316.936638
0
LINE
8
Layer 1
10
534.248776
20
-316.936638
11
546.666576
21
-335.281038
0
LINE
8
Layer 1
10
546.666576
20
-335.281038
11
558.802076
21
-353.625438
0
LINE
8
Layer 1
10
558.802076
20
-353.625438
11
558.802076
21
-355.600988
0
LINE
8
Layer 1
10
558.802076
20
-355.600988
11
558.802076
21
-357.576538
0
LINE
8
Layer 1
10
558.802076
20
-357.576538
11
548.359876
21
-374.509838
0
LINE
8
Layer 1
10
548.359876
20
-374.509838
11
537.635476
21
-391.725338
0
LINE
8
Layer 1
10
537.635476
20
-391.725338
11
511.671076
21
-391.725338
0
LINE
8
Layer 1
10
511.671076
20
-391.725338
11
485.988876
21
-391.725338
0
LINE
8
Layer 1
10
485.988876
20
-391.725338
11
472.159976
21
-413.456438
0
LINE
8
Layer 1
10
472.159976
20
-413.456438
11
458.331076
21
-435.469738
0
LINE
8
Layer 1
10
458.331076
20
-435.469738
11
472.442176
21
-457.200838
0
LINE
8
Layer 1
10
472.442176
20
-457.200838
11
486.553276
21
-479.214138
0
LINE
8
Layer 1
10
486.553276
20
-479.214138
11
512.517676
21
-479.214138
0
LINE
8
Layer 1
10
512.517676
20
-479.214138
11
538.764276
21
-479.214138
0
LINE
8
Layer 1
10
538.764276
20
-479.214138
11
540.175386
21
-476.956358
0
LINE
8
Layer 1
10
540.175386
20
-476.956358
11
541.586496
21
-474.698578
0
LINE
8
Layer 1
10
541.586496
20
-474.698578
11
526.910996
21
-452.403078
0
LINE
8
Layer 1
10
526.910996
20
-452.403078
11
512.517696
21
-430.107578
0
LINE
8
Layer 1
10
512.517696
20
-430.107578
11
511.388806
21
-433.494238
0
LINE
8
Layer 1
10
511.388806
20
-433.494238
11
510.259916
21
-437.163128
0
LINE
8
Layer 1
10
510.259916
20
-437.163128
11
520.419916
21
-452.403128
0
LINE
8
Layer 1
10
520.419916
20
-452.403128
11
530.579916
21
-467.925328
0
LINE
8
Layer 1
10
530.579916
20
-467.925328
11
530.579916
21
-469.336438
0
LINE
8
Layer 1
10
530.579916
20
-469.336438
11
530.579916
21
-470.747548
0
LINE
8
Layer 1
10
530.579916
20
-470.747548
11
509.413216
21
-470.747548
0
LINE
8
Layer 1
10
509.413216
20
-470.747548
11
488.246516
21
-470.747548
0
LINE
8
Layer 1
10
488.246516
20
-470.747548
11
476.957616
21
-453.249748
0
LINE
8
Layer 1
10
476.957616
20
-453.249748
11
465.668716
21
-435.751948
0
LINE
8
Layer 1
10
465.668716
20
-435.751948
11
466.233160
21
-434.058618
0
LINE
8
Layer 1
10
466.233160
20
-434.058618
11
467.079826
21
-432.647508
0
LINE
8
Layer 1
10
467.079826
20
-432.647508
11
476.957596
21
-416.278608
0
LINE
8
Layer 1
10
476.957596
20
-416.278608
11
486.835366
21
-400.191908
0
LINE
8
Layer 1
10
486.835366
20
-400.191908
11
512.799766
21
-400.191908
0
LINE
8
Layer 1
10
512.799766
20
-400.191908
11
538.764166
21
-400.191908
0
LINE
8
Layer 1
10
538.764166
20
-400.191908
11
550.899666
21
-380.436408
0
LINE
8
Layer 1
10
550.899666
20
-380.436408
11
563.035166
21
-360.680908
0
LINE
8
Layer 1
10
563.035166
20
-360.680908
11
588.435166
21
-360.680908
0
LINE
8
Layer 1
10
588.435166
20
-360.680908
11
613.835166
21
-360.680908
0
LINE
8
Layer 1
10
613.835166
20
-360.680908
11
624.841866
21
-377.614208
0
LINE
8
Layer 1
10
624.841866
20
-377.614208
11
635.566266
21
-394.547508
0
LINE
8
Layer 1
10
635.566266
20
-394.547508
11
634.155156
21
-397.934168
0
LINE
8
Layer 1
10
634.155156
20
-397.934168
11
632.461826
21
-401.603058
0
LINE
8
Layer 1
10
632.461826
20
-401.603058
11
611.577426
21
-434.058558
0
LINE
8
Layer 1
10
611.577426
20
-434.058558
11
590.693026
21
-466.514058
0
LINE
8
Layer 1
10
590.693026
20
-466.514058
11
588.435246
21
-466.231836
0
LINE
8
Layer 1
10
588.435246
20
-466.231836
11
586.177466
21
-465.667392
0
LINE
8
Layer 1
10
586.177466
20
-465.667392
11
576.581916
21
-450.427392
0
LINE
8
Layer 1
10
576.581916
20
-450.427392
11
566.986366
21
-434.905192
0
LINE
8
Layer 1
10
566.986366
20
-434.905192
11
578.557466
21
-416.278492
0
LINE
8
Layer 1
10
578.557466
20
-416.278492
11
590.410766
21
-397.651792
0
LINE
8
Layer 1
10
590.410766
20
-397.651792
11
589.281876
21
-394.265132
0
LINE
8
Layer 1
10
589.281876
20
-394.265132
11
588.152986
21
-390.878472
0
LINE
8
Layer 1
10
588.152986
20
-390.878472
11
574.041886
21
-413.173972
0
LINE
8
Layer 1
10
574.041886
20
-413.173972
11
559.648586
21
-435.751772
0
LINE
8
Layer 1
10
559.648586
20
-435.751772
11
572.066386
21
-453.813972
0
LINE
8
Layer 1
10
572.066386
20
-453.813972
11
584.201886
21
-472.158372
0
LINE
8
Layer 1
10
584.201886
20
-472.158372
11
584.201886
21
-474.133922
0
LINE
8
Layer 1
10
584.201886
20
-474.133922
11
584.201886
21
-476.109472
0
LINE
8
Layer 1
10
584.201886
20
-476.109472
11
573.759686
21
-493.042772
0
LINE
8
Layer 1
10
573.759686
20
-493.042772
11
563.035286
21
-510.258272
0
LINE
8
Layer 1
10
563.035286
20
-510.258272
11
512.799786
21
-510.258272
0
LINE
8
Layer 1
10
512.799786
20
-510.258272
11
462.846486
21
-510.258272
0
LINE
8
Layer 1
10
462.846486
20
-510.258272
11
449.864286
21
-490.502772
0
LINE
8
Layer 1
10
449.864286
20
-490.502772
11
437.164286
21
-470.747272
0
LINE
8
Layer 1
10
437.164286
20
-470.747272
11
412.046486
21
-470.747272
0
LINE
8
Layer 1
10
412.046486
20
-470.747272
11
386.928686
21
-470.747272
0
LINE
8
Layer 1
10
386.928686
20
-470.747272
11
378.744246
21
-458.893972
0
LINE
8
Layer 1
10
378.744246
20
-458.893972
11
370.559806
21
-446.758472
0
LINE
8
Layer 1
10
370.559806
20
-446.758472
11
367.173146
21
-440.549592
0
LINE
8
Layer 1
10
367.173146
20
-440.549592
11
364.068706
21
-434.340712
0
LINE
8
Layer 1
10
364.068706
20
-434.340712
11
388.057606
21
-396.805212
0
LINE
8
Layer 1
10
388.057606
20
-396.805212
11
412.046506
21
-359.269712
0
LINE
8
Layer 1
10
412.046506
20
-359.269712
11
412.046506
21
-355.883052
0
LINE
8
Layer 1
10
412.046506
20
-355.883052
11
412.046506
21
-352.214162
0
LINE
8
Layer 1
10
412.046506
20
-352.214162
11
410.917616
21
-352.214162
0
LINE
8
Layer 1
10
410.917616
20
-352.214162
11
409.788726
21
-352.214162
0
LINE
8
Layer 1
10
409.788726
20
-352.214162
11
384.953226
21
-391.725262
0
LINE
8
Layer 1
10
384.953226
20
-391.725262
11
359.835426
21
-431.236362
0
LINE
8
Layer 1
10
359.835426
20
-431.236362
11
333.588826
21
-431.236362
0
LINE
8
Layer 1
10
333.588826
20
-431.236362
11
307.059926
21
-431.236362
0
LINE
8
Layer 1
10
307.059926
20
-431.236362
11
308.188816
21
-434.905252
0
LINE
8
Layer 1
10
308.188816
20
-434.905252
11
309.599926
21
-438.291912
0
LINE
8
Layer 1
10
309.599926
20
-438.291912
11
334.717726
21
-439.138578
0
LINE
8
Layer 1
10
334.717726
20
-439.138578
11
359.835526
21
-439.985244
0
LINE
8
Layer 1
10
359.835526
20
-439.985244
11
395.959926
21
-496.429644
0
LINE
8
Layer 1
10
395.959926
20
-496.429644
11
432.366526
21
-552.591844
0
LINE
8
Layer 1
10
432.366526
20
-552.591844
11
430.955416
21
-556.260734
0
LINE
8
Layer 1
10
430.955416
20
-556.260734
11
429.262086
21
-559.647394
0
LINE
8
Layer 1
10
429.262086
20
-559.647394
11
405.555486
21
-596.336294
0
LINE
8
Layer 1
10
405.555486
20
-596.336294
11
381.848886
21
-633.025194
0
LINE
8
Layer 1
10
381.848886
20
-633.025194
11
382.977776
21
-635.282974
0
LINE
8
Layer 1
10
382.977776
20
-635.282974
11
384.106666
21
-637.258524
0
LINE
8
Layer 1
10
384.106666
20
-637.258524
11
436.035466
21
-637.258524
0
LINE
8
Layer 1
10
436.035466
20
-637.258524
11
487.964266
21
-637.258524
0
LINE
8
Layer 1
10
487.964266
20
-637.258524
11
500.099766
21
-617.503024
0
LINE
8
Layer 1
10
500.099766
20
-617.503024
11
512.235266
21
-597.747524
0
LINE
8
Layer 1
10
512.235266
20
-597.747524
11
537.635266
21
-597.747524
0
LINE
8
Layer 1
10
537.635266
20
-597.747524
11
563.035266
21
-597.747524
0
LINE
8
Layer 1
10
563.035266
20
-597.747524
11
572.348596
21
-611.858624
0
LINE
8
Layer 1
10
572.348596
20
-611.858624
11
581.379696
21
-625.969724
0
LINE
8
Layer 1
10
581.379696
20
-625.969724
11
581.379696
21
-627.380834
0
LINE
8
Layer 1
10
581.379696
20
-627.380834
11
581.379696
21
-628.791944
0
LINE
8
Layer 1
10
581.379696
20
-628.791944
11
558.519696
21
-628.791944
0
LINE
8
Layer 1
10
558.519696
20
-628.791944
11
535.659696
21
-628.791944
0
LINE
8
Layer 1
10
535.659696
20
-628.791944
11
536.788586
21
-632.460834
0
LINE
8
Layer 1
10
536.788586
20
-632.460834
11
538.199696
21
-635.847494
0
LINE
8
Layer 1
10
538.199696
20
-635.847494
11
563.035196
21
-636.694160
0
LINE
8
Layer 1
10
563.035196
20
-636.694160
11
587.870696
21
-637.540826
0
LINE
8
Layer 1
10
587.870696
20
-637.540826
11
590.128476
21
-635.283046
0
LINE
8
Layer 1
10
590.128476
20
-635.283046
11
592.386256
21
-633.025266
0
LINE
8
Layer 1
10
592.386256
20
-633.025266
11
578.275156
21
-611.011966
0
LINE
8
Layer 1
10
578.275156
20
-611.011966
11
564.164056
21
-589.280866
0
LINE
8
Layer 1
10
564.164056
20
-589.280866
11
538.764056
21
-589.280866
0
LINE
8
Layer 1
10
538.764056
20
-589.280866
11
513.646256
21
-589.280866
0
LINE
8
Layer 1
10
513.646256
20
-589.280866
11
500.381856
21
-568.960866
0
LINE
8
Layer 1
10
500.381856
20
-568.960866
11
487.117456
21
-548.640866
0
LINE
8
Layer 1
10
487.117456
20
-548.640866
11
485.988566
21
-552.027526
0
LINE
8
Layer 1
10
485.988566
20
-552.027526
11
484.859676
21
-555.696416
0
LINE
8
Layer 1
10
484.859676
20
-555.696416
11
496.712976
21
-573.758616
0
LINE
8
Layer 1
10
496.712976
20
-573.758616
11
508.566276
21
-591.820816
0
LINE
8
Layer 1
10
508.566276
20
-591.820816
11
507.437386
21
-594.078596
0
LINE
8
Layer 1
10
507.437386
20
-594.078596
11
506.590720
21
-596.336376
0
LINE
8
Layer 1
10
506.590720
20
-596.336376
11
496.712950
21
-612.705276
0
LINE
8
Layer 1
10
496.712950
20
-612.705276
11
486.835180
21
-628.791976
0
LINE
8
Layer 1
10
486.835180
20
-628.791976
11
464.821880
21
-628.791976
0
LINE
8
Layer 1
10
464.821880
20
-628.791976
11
442.526380
21
-628.791976
0
LINE
8
Layer 1
10
442.526380
20
-628.791976
11
449.017490
21
-618.349776
0
LINE
8
Layer 1
10
449.017490
20
-618.349776
11
455.508600
21
-607.625376
0
LINE
8
Layer 1
10
455.508600
20
-607.625376
11
459.459710
21
-601.416496
0
LINE
8
Layer 1
10
459.459710
20
-601.416496
11
463.410820
21
-595.207616
0
LINE
8
Layer 1
10
463.410820
20
-595.207616
11
462.281930
21
-591.538726
0
LINE
8
Layer 1
10
462.281930
20
-591.538726
11
461.153040
21
-588.152066
0
LINE
8
Layer 1
10
461.153040
20
-588.152066
11
448.453040
21
-608.472066
0
LINE
8
Layer 1
10
448.453040
20
-608.472066
11
436.035240
21
-628.792066
0
LINE
8
Layer 1
10
436.035240
20
-628.792066
11
413.739740
21
-628.792066
0
LINE
8
Layer 1
10
413.739740
20
-628.792066
11
391.726440
21
-628.792066
0
LINE
8
Layer 1
10
391.726440
20
-628.792066
11
395.677550
21
-622.583186
0
LINE
8
Layer 1
10
395.677550
20
-622.583186
11
399.628660
21
-616.092076
0
LINE
8
Layer 1
10
399.628660
20
-616.092076
11
419.384160
21
-585.329876
0
LINE
8
Layer 1
10
419.384160
20
-585.329876
11
438.857460
21
-554.285476
0
LINE
8
Layer 1
10
438.857460
20
-554.285476
11
438.293016
21
-552.027696
0
LINE
8
Layer 1
10
438.293016
20
-552.027696
11
437.446350
21
-549.769916
0
LINE
8
Layer 1
10
437.446350
20
-549.769916
11
416.844150
21
-518.161016
0
LINE
8
Layer 1
10
416.844150
20
-518.161016
11
396.241950
21
-486.269916
0
LINE
8
Layer 1
10
396.241950
20
-486.269916
11
393.984170
21
-482.883256
0
LINE
8
Layer 1
10
393.984170
20
-482.883256
11
392.008620
21
-479.214366
0
LINE
8
Layer 1
10
392.008620
20
-479.214366
11
414.021920
21
-479.214366
0
LINE
8
Layer 1
10
414.021920
20
-479.214366
11
436.035220
21
-479.214366
0
LINE
8
Layer 1
10
436.035220
20
-479.214366
11
448.453020
21
-498.969866
0
LINE
8
Layer 1
10
448.453020
20
-498.969866
11
460.870820
21
-518.725366
0
LINE
8
Layer 1
10
460.870820
20
-518.725366
11
512.235220
21
-518.725366
0
LINE
8
Layer 1
10
512.235220
20
-518.725366
11
563.881820
21
-518.725366
0
LINE
8
Layer 1
10
563.881820
20
-518.725366
11
601.417320
21
-459.458766
0
LINE
8
Layer 1
10
601.417320
20
-459.458766
11
639.235020
21
-400.474366
0
LINE
8
Layer 1
10
639.235020
20
-400.474366
11
664.635020
21
-400.192144
0
LINE
8
Layer 1
10
664.635020
20
-400.192144
11
690.035020
21
-400.192144
0
LINE
8
Layer 1
10
690.035020
20
-400.192144
11
702.452820
21
-419.947644
0
LINE
8
Layer 1
10
702.452820
20
-419.947644
11
714.870620
21
-439.703144
0
LINE
8
Layer 1
10
714.870620
20
-439.703144
11
740.552820
21
-439.703144
0
LINE
8
Layer 1
10
740.552820
20
-439.703144
11
766.235020
21
-439.703144
0
LINE
8
Layer 1
10
766.235020
20
-439.703144
11
777.523920
21
-458.047544
0
LINE
8
Layer 1
10
777.523920
20
-458.047544
11
788.812820
21
-476.109744
0
LINE
8
Layer 1
10
788.812820
20
-476.109744
11
791.070600
21
-476.391966
0
LINE
8
Layer 1
10
791.070600
20
-476.391966
11
793.046150
21
-476.391966
0
LINE
8
Layer 1
10
793.046150
20
-476.391966
11
793.046150
21
-473.287526
0
LINE
8
Layer 1
10
793.046150
20
-473.287526
11
793.046150
21
-470.465306
0
LINE
8
Layer 1
10
793.046150
20
-470.465306
11
785.143930
21
-458.612006
0
LINE
8
Layer 1
10
785.143930
20
-458.612006
11
776.959490
21
-446.758706
0
LINE
8
Layer 1
10
776.959490
20
-446.758706
11
774.983940
21
-443.372046
0
LINE
8
Layer 1
10
774.983940
20
-443.372046
11
773.008390
21
-439.703156
0
LINE
8
Layer 1
10
773.008390
20
-439.703156
11
795.021690
21
-439.703156
0
LINE
8
Layer 1
10
795.021690
20
-439.703156
11
817.034990
21
-439.703156
0
LINE
8
Layer 1
10
817.034990
20
-439.703156
11
841.023890
21
-477.803156
0
LINE
8
Layer 1
10
841.023890
20
-477.803156
11
865.012790
21
-515.620856
0
LINE
8
Layer 1
10
865.012790
20
-515.620856
11
867.270570
21
-515.903078
0
LINE
8
Layer 1
10
867.270570
20
-515.903078
11
869.246120
21
-515.903078
0
LINE
8
Layer 1
10
869.246120
20
-515.903078
11
869.246120
21
-513.080858
0
LINE
8
Layer 1
10
869.246120
20
-513.080858
11
869.246120
21
-510.258638
0
LINE
8
Layer 1
10
869.246120
20
-510.258638
11
848.643920
21
-478.649738
0
LINE
8
Layer 1
10
848.643920
20
-478.649738
11
828.041720
21
-446.758638
0
LINE
8
Layer 1
10
828.041720
20
-446.758638
11
825.783940
21
-443.371978
0
LINE
8
Layer 1
10
825.783940
20
-443.371978
11
823.808390
21
-439.703088
0
LINE
8
Layer 1
10
823.808390
20
-439.703088
11
845.821690
21
-439.703088
0
LINE
8
Layer 1
10
845.821690
20
-439.703088
11
867.834990
21
-439.703088
0
LINE
8
Layer 1
10
867.834990
20
-439.703088
11
891.259390
21
-476.109688
0
LINE
8
Layer 1
10
891.259390
20
-476.109688
11
914.401590
21
-512.234088
0
LINE
8
Layer 1
10
914.401590
20
-512.234088
11
914.401590
21
-514.209638
0
LINE
8
Layer 1
10
914.401590
20
-514.209638
11
914.401590
21
-515.902968
0
LINE
8
Layer 1
10
914.401590
20
-515.902968
11
902.266090
21
-535.094068
0
LINE
8
Layer 1
10
902.266090
20
-535.094068
11
889.848290
21
-554.002968
0
LINE
8
Layer 1
10
889.848290
20
-554.002968
11
902.266090
21
-572.347368
0
LINE
8
Layer 1
10
902.266090
20
-572.347368
11
914.401590
21
-590.691768
0
LINE
8
Layer 1
10
914.401590
20
-590.691768
11
914.401590
21
-592.667318
0
LINE
8
Layer 1
10
914.401590
20
-592.667318
11
914.401590
21
-594.925098
0
LINE
8
Layer 1
10
914.401590
20
-594.925098
11
891.823790
21
-630.202898
0
LINE
8
Layer 1
10
891.823790
20
-630.202898
11
869.245990
21
-665.480598
0
LINE
8
Layer 1
10
869.245990
20
-665.480598
11
867.552660
21
-669.713928
0
LINE
8
Layer 1
10
867.552660
20
-669.713928
11
865.859330
21
-673.947258
0
LINE
8
Layer 1
10
865.859330
20
-673.947258
11
868.117110
21
-673.947258
0
LINE
8
Layer 1
10
868.117110
20
-673.947258
11
870.657110
21
-673.947258
0
LINE
8
Layer 1
10
870.657110
20
-673.947258
11
881.663810
21
-656.449458
0
LINE
8
Layer 1
10
881.663810
20
-656.449458
11
892.670510
21
-638.951658
0
LINE
8
Layer 1
10
892.670510
20
-638.951658
11
899.161620
21
-647.136098
0
LINE
8
Layer 1
10
899.161620
20
-647.136098
11
905.652730
21
-655.320538
0
LINE
8
Layer 1
10
905.652730
20
-655.320538
11
910.450500
21
-664.069418
0
LINE
8
Layer 1
10
910.450500
20
-664.069418
11
914.966050
21
-672.536078
0
LINE
8
Layer 1
10
914.966050
20
-672.536078
11
904.241650
21
-690.316078
0
LINE
8
Layer 1
10
904.241650
20
-690.316078
11
893.234950
21
-707.813878
0
LINE
8
Layer 1
10
893.234950
20
-707.813878
11
792.199950
21
-707.813878
0
LINE
8
Layer 1
10
792.199950
20
-707.813878
11
691.446950
21
-707.813878
0
LINE
8
Layer 1
10
691.446950
20
-707.813878
11
678.182550
21
-687.493878
0
LINE
8
Layer 1
10
678.182550
20
-687.493878
11
664.918150
21
-667.173878
0
LINE
8
Layer 1
10
664.918150
20
-667.173878
11
663.789260
21
-670.842768
0
LINE
8
Layer 1
10
663.789260
20
-670.842768
11
662.660370
21
-674.229428
0
LINE
8
Layer 1
10
662.660370
20
-674.229428
11
672.820370
21
-689.469428
0
LINE
8
Layer 1
10
672.820370
20
-689.469428
11
682.980370
21
-704.991628
0
LINE
8
Layer 1
10
682.980370
20
-704.991628
11
682.980370
21
-706.402738
0
LINE
8
Layer 1
10
682.980370
20
-706.402738
11
682.980370
21
-707.813848
0
LINE
8
Layer 1
10
682.980370
20
-707.813848
11
661.813670
21
-707.813848
0
LINE
8
Layer 1
10
661.813670
20
-707.813848
11
640.646970
21
-707.813848
0
LINE
8
Layer 1
10
640.646970
20
-707.813848
11
629.358070
21
-690.316048
0
LINE
8
Layer 1
10
629.358070
20
-690.316048
11
618.069170
21
-672.818248
0
LINE
8
Layer 1
10
618.069170
20
-672.818248
11
618.633614
21
-671.124918
0
LINE
8
Layer 1
10
618.633614
20
-671.124918
11
619.480280
21
-669.713808
0
LINE
8
Layer 1
10
619.480280
20
-669.713808
11
629.358050
21
-653.344908
0
LINE
8
Layer 1
10
629.358050
20
-653.344908
11
639.235820
21
-637.258208
0
LINE
8
Layer 1
10
639.235820
20
-637.258208
11
664.635820
21
-637.258208
0
LINE
8
Layer 1
10
664.635820
20
-637.258208
11
690.035820
21
-637.258208
0
LINE
8
Layer 1
10
690.035820
20
-637.258208
11
702.453620
21
-657.013708
0
LINE
8
Layer 1
10
702.453620
20
-657.013708
11
714.871420
21
-676.769208
0
LINE
8
Layer 1
10
714.871420
20
-676.769208
11
766.235820
21
-676.769208
0
LINE
8
Layer 1
10
766.235820
20
-676.769208
11
817.882420
21
-676.769208
0
LINE
8
Layer 1
10
817.882420
20
-676.769208
11
842.435720
21
-638.104808
0
LINE
8
Layer 1
10
842.435720
20
-638.104808
11
867.271220
21
-599.440408
0
LINE
8
Layer 1
10
867.271220
20
-599.440408
11
868.682330
21
-594.360408
0
LINE
8
Layer 1
10
868.682330
20
-594.360408
11
869.811220
21
-589.280408
0
LINE
8
Layer 1
10
869.811220
20
-589.280408
11
868.400110
21
-589.280408
0
LINE
8
Layer 1
10
868.400110
20
-589.280408
11
866.989000
21
-589.280408
0
LINE
8
Layer 1
10
866.989000
20
-589.280408
11
855.135700
21
-608.189308
0
LINE
8
Layer 1
10
855.135700
20
-608.189308
11
843.000200
21
-627.098208
0
LINE
8
Layer 1
10
843.000200
20
-627.098208
11
839.049090
21
-621.453768
0
LINE
8
Layer 1
10
839.049090
20
-621.453768
11
834.815760
21
-616.091548
0
LINE
8
Layer 1
10
834.815760
20
-616.091548
11
828.042430
21
-604.238248
0
LINE
8
Layer 1
10
828.042430
20
-604.238248
11
820.986880
21
-592.667148
0
LINE
8
Layer 1
10
820.986880
20
-592.667148
11
833.404680
21
-572.911648
0
LINE
8
Layer 1
10
833.404680
20
-572.911648
11
846.104680
21
-553.438348
0
LINE
8
Layer 1
10
846.104680
20
-553.438348
11
831.993580
21
-531.989448
0
LINE
8
Layer 1
10
831.993580
20
-531.989448
11
818.164680
21
-510.258348
0
LINE
8
Layer 1
10
818.164680
20
-510.258348
11
817.035790
21
-510.258348
0
LINE
8
Layer 1
10
817.035790
20
-510.258348
11
815.906900
21
-510.258348
0
LINE
8
Layer 1
10
815.906900
20
-510.258348
11
803.771400
21
-530.013848
0
LINE
8
Layer 1
10
803.771400
20
-530.013848
11
791.635900
21
-549.769348
0
LINE
8
Layer 1
10
791.635900
20
-549.769348
11
766.800400
21
-549.769348
0
LINE
8
Layer 1
10
766.800400
20
-549.769348
11
742.247100
21
-549.769348
0
LINE
8
Layer 1
10
742.247100
20
-549.769348
11
728.982700
21
-529.449348
0
LINE
8
Layer 1
10
728.982700
20
-529.449348
11
715.718300
21
-509.129348
0
LINE
8
Layer 1
10
715.718300
20
-509.129348
11
714.589410
21
-512.798238
0
LINE
8
Layer 1
10
714.589410
20
-512.798238
11
713.460520
21
-516.184898
0
LINE
8
Layer 1
10
713.460520
20
-516.184898
11
723.620520
21
-531.424898
0
LINE
8
Layer 1
10
723.620520
20
-531.424898
11
733.780520
21
-546.947098
0
LINE
8
Layer 1
10
733.780520
20
-546.947098
11
733.780520
21
-548.358208
0
LINE
8
Layer 1
10
733.780520
20
-548.358208
11
733.780520
21
-549.769318
0
LINE
8
Layer 1
10
733.780520
20
-549.769318
11
712.613820
21
-549.769318
0
LINE
8
Layer 1
10
712.613820
20
-549.769318
11
691.447220
21
-549.769318
0
LINE
8
Layer 1
10
691.447220
20
-549.769318
11
670.562820
21
-517.596018
0
LINE
8
Layer 1
10
670.562820
20
-517.596018
11
649.396120
21
-485.140518
0
LINE
8
Layer 1
10
649.396120
20
-485.140518
11
646.573900
21
-479.496078
0
LINE
8
Layer 1
10
646.573900
20
-479.496078
11
643.469460
21
-473.851638
0
LINE
8
Layer 1
10
643.469460
20
-473.851638
11
653.347230
21
-458.047238
0
LINE
8
Layer 1
10
653.347230
20
-458.047238
11
663.507230
21
-442.242838
0
LINE
8
Layer 1
10
663.507230
20
-442.242838
11
666.047230
21
-443.936168
0
LINE
8
Layer 1
10
666.047230
20
-443.936168
11
668.587230
21
-445.629498
0
LINE
8
Layer 1
10
668.587230
20
-445.629498
11
679.029430
21
-462.280598
0
LINE
8
Layer 1
10
679.029430
20
-462.280598
11
689.471630
21
-479.213898
0
LINE
8
Layer 1
10
689.471630
20
-479.213898
11
715.153830
21
-479.213898
0
LINE
8
Layer 1
10
715.153830
20
-479.213898
11
740.836030
21
-479.213898
0
LINE
8
Layer 1
10
740.836030
20
-479.213898
11
752.124930
21
-497.558298
0
LINE
8
Layer 1
10
752.124930
20
-497.558298
11
763.413830
21
-515.620498
0
LINE
8
Layer 1
10
763.413830
20
-515.620498
11
765.671610
21
-515.902720
0
LINE
8
Layer 1
10
765.671610
20
-515.902720
11
767.647160
21
-515.902720
0
LINE
8
Layer 1
10
767.647160
20
-515.902720
11
767.647160
21
-513.080500
0
LINE
8
Layer 1
10
767.647160
20
-513.080500
11
767.647160
21
-510.540500
0
LINE
8
Layer 1
10
767.647160
20
-510.540500
11
754.947160
21
-490.502700
0
LINE
8
Layer 1
10
754.947160
20
-490.502700
11
741.964960
21
-470.747200
0
LINE
8
Layer 1
10
741.964960
20
-470.747200
11
716.564960
21
-470.747200
0
LINE
8
Layer 1
10
716.564960
20
-470.747200
11
691.447160
21
-470.747200
0
LINE
8
Layer 1
10
691.447160
20
-470.747200
11
678.464960
21
-450.709400
0
LINE
8
Layer 1
10
678.464960
20
-450.709400
11
665.482760
21
-430.953900
0
LINE
8
Layer 1
10
665.482760
20
-430.953900
11
663.789430
21
-432.647230
0
LINE
8
Layer 1
10
663.789430
20
-432.647230
11
661.813880
21
-434.622780
0
LINE
8
Layer 1
10
661.813880
20
-434.622780
11
648.831680
21
-454.660580
0
LINE
8
Layer 1
10
648.831680
20
-454.660580
11
636.131680
21
-474.980580
0
LINE
8
Layer 1
10
636.131680
20
-474.980580
11
659.838280
21
-511.387180
0
LINE
8
Layer 1
10
659.838280
20
-511.387180
11
683.544880
21
-548.076080
0
LINE
8
Layer 1
10
683.544880
20
-548.076080
11
684.955990
21
-551.462740
0
LINE
8
Layer 1
10
684.955990
20
-551.462740
11
686.084880
21
-554.849400
0
LINE
8
Layer 1
10
686.084880
20
-554.849400
11
675.924880
21
-570.653800
0
LINE
8
Layer 1
10
675.924880
20
-570.653800
11
665.764880
21
-586.458200
0
LINE
8
Layer 1
10
665.764880
20
-586.458200
11
664.918214
21
-586.458200
0
LINE
8
Layer 1
10
664.918214
20
-586.458200
11
663.789324
21
-586.458200
0
LINE
8
Layer 1
10
663.789324
20
-586.458200
11
651.653824
21
-567.549300
0
LINE
8
Layer 1
10
651.653824
20
-567.549300
11
639.800524
21
-548.358200
0
LINE
8
Layer 1
10
639.800524
20
-548.358200
11
638.389414
21
-552.027090
0
LINE
8
Layer 1
10
638.389414
20
-552.027090
11
637.260524
21
-555.413750
0
LINE
8
Layer 1
10
637.260524
20
-555.413750
11
649.678324
21
-575.169250
0
LINE
8
Layer 1
10
649.678324
20
-575.169250
11
661.813824
21
-594.642550
0
LINE
8
Layer 1
10
661.813824
20
-594.642550
11
664.636044
21
-594.924772
0
LINE
8
Layer 1
10
664.636044
20
-594.924772
11
667.740484
21
-594.924772
0
LINE
8
Layer 1
10
667.740484
20
-594.924772
11
678.747184
21
-576.580372
0
LINE
8
Layer 1
10
678.747184
20
-576.580372
11
690.036084
21
-558.235972
0
LINE
8
Layer 1
10
690.036084
20
-558.235972
11
715.436084
21
-558.235972
0
LINE
8
Layer 1
10
715.436084
20
-558.235972
11
740.836084
21
-558.235972
0
LINE
8
Layer 1
10
740.836084
20
-558.235972
11
751.560484
21
-574.604872
0
LINE
8
Layer 1
10
751.560484
20
-574.604872
11
762.002684
21
-591.255972
0
LINE
8
Layer 1
10
762.002684
20
-591.255972
11
762.002684
21
-592.949302
0
LINE
8
Layer 1
10
762.002684
20
-592.949302
11
762.002684
21
-594.924852
0
LINE
8
Layer 1
10
762.002684
20
-594.924852
11
749.302684
21
-614.680352
0
LINE
8
Layer 1
10
749.302684
20
-614.680352
11
736.602684
21
-634.718152
0
LINE
8
Layer 1
10
736.602684
20
-634.718152
11
740.271574
21
-636.129262
0
LINE
8
Layer 1
10
740.271574
20
-636.129262
11
744.222684
21
-637.540372
0
LINE
8
Layer 1
10
744.222684
20
-637.540372
11
767.647084
21
-636.693706
0
LINE
8
Layer 1
10
767.647084
20
-636.693706
11
791.071484
21
-635.847040
0
LINE
8
Layer 1
10
791.071484
20
-635.847040
11
792.200374
21
-632.460380
0
LINE
8
Layer 1
10
792.200374
20
-632.460380
11
793.329264
21
-629.073720
0
LINE
8
Layer 1
10
793.329264
20
-629.073720
11
770.751464
21
-628.227054
0
LINE
8
Layer 1
10
770.751464
20
-628.227054
11
747.891464
21
-627.380388
0
LINE
8
Layer 1
10
747.891464
20
-627.380388
11
758.898164
21
-610.164888
0
LINE
8
Layer 1
10
758.898164
20
-610.164888
11
769.904864
21
-592.667088
0
LINE
8
Layer 1
10
769.904864
20
-592.667088
11
758.898164
21
-576.298188
0
LINE
8
Layer 1
10
758.898164
20
-576.298188
11
747.891464
21
-559.647088
0
LINE
8
Layer 1
10
747.891464
20
-559.647088
11
770.186964
21
-558.800422
0
LINE
8
Layer 1
10
770.186964
20
-558.800422
11
792.764764
21
-557.953756
0
LINE
8
Layer 1
10
792.764764
20
-557.953756
11
804.618064
21
-539.327056
0
LINE
8
Layer 1
10
804.618064
20
-539.327056
11
816.471364
21
-520.418156
0
LINE
8
Layer 1
10
816.471364
20
-520.418156
11
822.962474
21
-528.602596
0
LINE
8
Layer 1
10
822.962474
20
-528.602596
11
829.453584
21
-536.787036
0
LINE
8
Layer 1
10
829.453584
20
-536.787036
11
834.251354
21
-545.535916
0
LINE
8
Layer 1
10
834.251354
20
-545.535916
11
838.766904
21
-554.284796
0
LINE
8
Layer 1
10
838.766904
20
-554.284796
11
826.349104
21
-574.040296
0
LINE
8
Layer 1
10
826.349104
20
-574.040296
11
813.649104
21
-593.513596
0
LINE
8
Layer 1
10
813.649104
20
-593.513596
11
826.066904
21
-611.857996
0
LINE
8
Layer 1
10
826.066904
20
-611.857996
11
838.202404
21
-630.202396
0
LINE
8
Layer 1
10
838.202404
20
-630.202396
11
838.202404
21
-632.177946
0
LINE
8
Layer 1
10
838.202404
20
-632.177946
11
838.202404
21
-634.153496
0
LINE
8
Layer 1
10
838.202404
20
-634.153496
11
827.760204
21
-651.086796
0
LINE
8
Layer 1
10
827.760204
20
-651.086796
11
817.035804
21
-668.302296
0
LINE
8
Layer 1
10
817.035804
20
-668.302296
11
767.082504
21
-668.302296
0
LINE
8
Layer 1
10
767.082504
20
-668.302296
11
717.129204
21
-668.302296
0
LINE
8
Layer 1
10
717.129204
20
-668.302296
11
708.944764
21
-656.448996
0
LINE
8
Layer 1
10
708.944764
20
-656.448996
11
700.760324
21
-644.313496
0
LINE
8
Layer 1
10
700.760324
20
-644.313496
11
697.373664
21
-638.104616
0
LINE
8
Layer 1
10
697.373664
20
-638.104616
11
694.269224
21
-631.895736
0
LINE
8
Layer 1
10
694.269224
20
-631.895736
11
705.840324
21
-613.551336
0
LINE
8
Layer 1
10
705.840324
20
-613.551336
11
717.411424
21
-595.206936
0
LINE
8
Layer 1
10
717.411424
20
-595.206936
11
716.282534
21
-591.538046
0
LINE
8
Layer 1
10
716.282534
20
-591.538046
11
715.153644
21
-588.151386
0
LINE
8
Layer 1
10
715.153644
20
-588.151386
11
702.453644
21
-608.471386
0
LINE
8
Layer 1
10
702.453644
20
-608.471386
11
690.035844
21
-628.791386
0
LINE
8
Layer 1
10
690.035844
20
-628.791386
11
665.200344
21
-628.791386
0
LINE
8
Layer 1
10
665.200344
20
-628.791386
11
640.647044
21
-628.791386
0
LINE
8
Layer 1
10
640.647044
20
-628.791386
11
619.762644
21
-596.618086
0
LINE
8
Layer 1
10
619.762644
20
-596.618086
11
598.595944
21
-564.162586
0
LINE
8
Layer 1
10
598.595944
20
-564.162586
11
595.773724
21
-558.518146
0
LINE
8
Layer 1
10
595.773724
20
-558.518146
11
592.669284
21
-552.873706
0
LINE
8
Layer 1
10
592.669284
20
-552.873706
11
604.240384
21
-534.529306
0
LINE
8
Layer 1
10
604.240384
20
-534.529306
11
615.811484
21
-516.184906
0
LINE
8
Layer 1
10
615.811484
20
-516.184906
11
614.682594
21
-512.516016
0
LINE
8
Layer 1
10
614.682594
20
-512.516016
11
613.553704
21
-509.129356
0
LINE
8
Layer 1
10
613.553704
20
-509.129356
11
600.853704
21
-529.449356
0
LINE
8
Layer 1
10
600.853704
20
-529.449356
11
588.435904
21
-549.769356
0
LINE
8
Layer 1
10
588.435904
20
-549.769356
11
562.189304
21
-549.769356
0
LINE
8
Layer 1
10
562.189304
20
-549.769356
11
535.660404
21
-549.769356
0
LINE
8
Layer 1
10
535.660404
20
-549.769356
11
536.789294
21
-553.438246
0
LINE
8
Layer 1
10
536.789294
20
-553.438246
11
538.200404
21
-556.824906
0
LINE
8
Layer 1
10
538.200404
20
-556.824906
11
563.318204
21
-557.671572
0
LINE
8
Layer 1
10
563.318204
20
-557.671572
11
588.436004
21
-558.518238
0
LINE
8
Layer 1
10
588.436004
20
-558.518238
11
611.860404
21
-594.924838
0
LINE
8
Layer 1
10
611.860404
20
-594.924838
11
635.567004
21
-631.613738
0
LINE
8
Layer 1
10
635.567004
20
-631.613738
11
634.438114
21
-633.871518
0
LINE
8
Layer 1
10
634.438114
20
-633.871518
11
633.591448
21
-635.847068
0
LINE
8
Layer 1
10
633.591448
20
-635.847068
11
623.713678
21
-652.215968
0
LINE
8
Layer 1
10
623.713678
20
-652.215968
11
613.835908
21
-668.302668
0
LINE
8
Layer 1
10
613.835908
20
-668.302668
11
587.589308
21
-668.302668
0
LINE
8
Layer 1
10
587.589308
20
-668.302668
11
561.060408
21
-668.302668
0
LINE
8
Layer 1
10
561.060408
20
-668.302668
11
562.189298
21
-671.971558
0
LINE
8
Layer 1
10
562.189298
20
-671.971558
11
563.600408
21
-675.358218
0
LINE
8
Layer 1
10
563.600408
20
-675.358218
11
588.718208
21
-676.204884
0
LINE
8
Layer 1
10
588.718208
20
-676.204884
11
613.836008
21
-677.051550
0
LINE
8
Layer 1
10
613.836008
20
-677.051550
11
623.149338
21
-690.880450
0
LINE
8
Layer 1
10
623.149338
20
-690.880450
11
632.180438
21
-704.991550
0
LINE
8
Layer 1
10
632.180438
20
-704.991550
11
632.180438
21
-706.402660
0
LINE
8
Layer 1
10
632.180438
20
-706.402660
11
632.180438
21
-707.813770
0
LINE
8
Layer 1
10
632.180438
20
-707.813770
11
558.520538
21
-707.813770
0
LINE
8
Layer 1
10
558.520538
20
-707.813770
11
484.860638
21
-707.813770
0
LINE
8
Layer 1
10
484.860638
20
-707.813770
11
486.553968
21
-712.047100
0
LINE
8
Layer 1
10
486.553968
20
-712.047100
11
487.965078
21
-716.280430
0
LINE
8
Layer 1
10
487.965078
20
-716.280430
11
462.565078
21
-716.280430
0
LINE
8
Layer 1
10
462.565078
20
-716.280430
11
436.882878
21
-716.280430
0
LINE
8
Layer 1
10
436.882878
20
-716.280430
11
442.809538
21
-707.249330
0
LINE
8
Layer 1
10
442.809538
20
-707.249330
11
442.806000
21
-707.248000
0
LINE
8
Layer 1
10
896.337000
20
-712.893000
11
898.594780
21
-709.224110
0
LINE
8
Layer 1
10
898.594780
20
-709.224110
11
909.319180
21
-692.290810
0
LINE
8
Layer 1
10
909.319180
20
-692.290810
11
920.043580
21
-675.357510
0
LINE
8
Layer 1
10
920.043580
20
-675.357510
11
920.043580
21
-695.959710
0
LINE
8
Layer 1
10
920.043580
20
-695.959710
11
920.043580
21
-716.279710
0
LINE
8
Layer 1
10
920.043580
20
-716.279710
11
907.061380
21
-716.279710
0
LINE
8
Layer 1
10
907.061380
20
-716.279710
11
894.361380
21
-716.279710
0
LINE
8
Layer 1
10
894.361380
20
-716.279710
11
896.336930
21
-712.893050
0
LINE
8
Layer 1
10
896.336930
20
-712.893050
11
896.337000
21
-712.893000
0
LINE
8
Layer 1
10
0.000000
20
-633.024000
11
0.000000
21
-594.924000
0
LINE
8
Layer 1
10
0.000000
20
-594.924000
11
1.128890
21
-594.924000
0
LINE
8
Layer 1
10
1.128890
20
-594.924000
11
2.257780
21
-594.924000
0
LINE
8
Layer 1
10
2.257780
20
-594.924000
11
13.828880
21
-612.704000
0
LINE
8
Layer 1
10
13.828880
20
-612.704000
11
25.399980
21
-630.484000
0
LINE
8
Layer 1
10
25.399980
20
-630.484000
11
25.399980
21
-632.459550
0
LINE
8
Layer 1
10
25.399980
20
-632.459550
11
25.399980
21
-634.152880
0
LINE
8
Layer 1
10
25.399980
20
-634.152880
11
13.828880
21
-652.497280
0
LINE
8
Layer 1
10
13.828880
20
-652.497280
11
2.257780
21
-671.123980
0
LINE
8
Layer 1
10
2.257780
20
-671.123980
11
1.128890
21
-671.123980
0
LINE
8
Layer 1
10
1.128890
20
-671.123980
11
0.000000
21
-671.123980
0
LINE
8
Layer 1
10
0.000000
20
-671.123980
11
0.000000
21
-633.023980
0
LINE
8
Layer 1
10
0.000000
20
-633.023980
11
0.000000
21
-633.024000
0
LINE
8
Layer 1
10
911.013000
20
-655.037000
11
903.957450
21
-644.312600
0
LINE
8
Layer 1
10
903.957450
20
-644.312600
11
900.853010
21
-638.103720
0
LINE
8
Layer 1
10
900.853010
20
-638.103720
11
897.466350
21
-631.894840
0
LINE
8
Layer 1
10
897.466350
20
-631.894840
11
908.755250
21
-614.114840
0
LINE
8
Layer 1
10
908.755250
20
-614.114840
11
920.044150
21
-596.334840
0
LINE
8
Layer 1
10
920.044150
20
-596.334840
11
920.044150
21
-631.048140
0
LINE
8
Layer 1
10
920.044150
20
-631.048140
11
920.044150
21
-665.479240
0
LINE
8
Layer 1
10
920.044150
20
-665.479240
11
918.915260
21
-665.479240
0
LINE
8
Layer 1
10
918.915260
20
-665.479240
11
918.068594
21
-665.479240
0
LINE
8
Layer 1
10
918.068594
20
-665.479240
11
911.013044
21
-655.037040
0
LINE
8
Layer 1
10
911.013044
20
-655.037040
11
911.013000
21
-655.037000
0
LINE
8
Layer 1
10
0.000000
20
-554.002000
11
0.000000
21
-515.902000
0
LINE
8
Layer 1
10
0.000000
20
-515.902000
11
1.128890
21
-515.902000
0
LINE
8
Layer 1
10
1.128890
20
-515.902000
11
2.257780
21
-515.902000
0
LINE
8
Layer 1
10
2.257780
20
-515.902000
11
13.828880
21
-533.682000
0
LINE
8
Layer 1
10
13.828880
20
-533.682000
11
25.399980
21
-551.462000
0
LINE
8
Layer 1
10
25.399980
20
-551.462000
11
25.399980
21
-553.437550
0
LINE
8
Layer 1
10
25.399980
20
-553.437550
11
25.399980
21
-555.130880
0
LINE
8
Layer 1
10
25.399980
20
-555.130880
11
13.828880
21
-573.475280
0
LINE
8
Layer 1
10
13.828880
20
-573.475280
11
2.257780
21
-592.101980
0
LINE
8
Layer 1
10
2.257780
20
-592.101980
11
1.128890
21
-592.101980
0
LINE
8
Layer 1
10
1.128890
20
-592.101980
11
0.000000
21
-592.101980
0
LINE
8
Layer 1
10
0.000000
20
-592.101980
11
0.000000
21
-554.001980
0
LINE
8
Layer 1
10
0.000000
20
-554.001980
11
0.000000
21
-554.002000
0
LINE
8
Layer 1
10
911.013000
20
-576.015000
11
903.957450
21
-565.290600
0
LINE
8
Layer 1
10
903.957450
20
-565.290600
11
900.853010
21
-559.081720
0
LINE
8
Layer 1
10
900.853010
20
-559.081720
11
897.466350
21
-552.872840
0
LINE
8
Layer 1
10
897.466350
20
-552.872840
11
908.755250
21
-535.092840
0
LINE
8
Layer 1
10
908.755250
20
-535.092840
11
920.044150
21
-517.312840
0
LINE
8
Layer 1
10
920.044150
20
-517.312840
11
920.044150
21
-552.026140
0
LINE
8
Layer 1
10
920.044150
20
-552.026140
11
920.044150
21
-586.457240
0
LINE
8
Layer 1
10
920.044150
20
-586.457240
11
918.915260
21
-586.457240
0
LINE
8
Layer 1
10
918.915260
20
-586.457240
11
918.068594
21
-586.457240
0
LINE
8
Layer 1
10
918.068594
20
-586.457240
11
911.013044
21
-576.015040
0
LINE
8
Layer 1
10
911.013044
20
-576.015040
11
911.013000
21
-576.015000
0
LINE
8
Layer 1
10
0.000000
20
-474.980000
11
0.000000
21
-436.880000
0
LINE
8
Layer 1
10
0.000000
20
-436.880000
11
1.128890
21
-436.880000
0
LINE
8
Layer 1
10
1.128890
20
-436.880000
11
2.257780
21
-436.880000
0
LINE
8
Layer 1
10
2.257780
20
-436.880000
11
13.828880
21
-454.660000
0
LINE
8
Layer 1
10
13.828880
20
-454.660000
11
25.399980
21
-472.440000
0
LINE
8
Layer 1
10
25.399980
20
-472.440000
11
25.399980
21
-474.415550
0
LINE
8
Layer 1
10
25.399980
20
-474.415550
11
25.399980
21
-476.108880
0
LINE
8
Layer 1
10
25.399980
20
-476.108880
11
13.828880
21
-494.453280
0
LINE
8
Layer 1
10
13.828880
20
-494.453280
11
2.257780
21
-513.079980
0
LINE
8
Layer 1
10
2.257780
20
-513.079980
11
1.128890
21
-513.079980
0
LINE
8
Layer 1
10
1.128890
20
-513.079980
11
0.000000
21
-513.079980
0
LINE
8
Layer 1
10
0.000000
20
-513.079980
11
0.000000
21
-474.979980
0
LINE
8
Layer 1
10
0.000000
20
-474.979980
11
0.000000
21
-474.980000
0
LINE
8
Layer 1
10
911.013000
20
-496.993000
11
903.957450
21
-486.268600
0
LINE
8
Layer 1
10
903.957450
20
-486.268600
11
900.853010
21
-480.059720
0
LINE
8
Layer 1
10
900.853010
20
-480.059720
11
897.466350
21
-473.850840
0
LINE
8
Layer 1
10
897.466350
20
-473.850840
11
908.755250
21
-456.070840
0
LINE
8
Layer 1
10
908.755250
20
-456.070840
11
920.044150
21
-438.290840
0
LINE
8
Layer 1
10
920.044150
20
-438.290840
11
920.044150
21
-473.004140
0
LINE
8
Layer 1
10
920.044150
20
-473.004140
11
920.044150
21
-507.435240
0
LINE
8
Layer 1
10
920.044150
20
-507.435240
11
918.915260
21
-507.435240
0
LINE
8
Layer 1
10
918.915260
20
-507.435240
11
918.068594
21
-507.435240
0
LINE
8
Layer 1
10
918.068594
20
-507.435240
11
911.013044
21
-496.993040
0
LINE
8
Layer 1
10
911.013044
20
-496.993040
11
911.013000
21
-496.993000
0
LINE
8
Layer 1
10
0.000000
20
-395.957000
11
0.000000
21
-357.857000
0
LINE
8
Layer 1
10
0.000000
20
-357.857000
11
1.128890
21
-357.857000
0
LINE
8
Layer 1
10
1.128890
20
-357.857000
11
2.257780
21
-357.857000
0
LINE
8
Layer 1
10
2.257780
20
-357.857000
11
13.828880
21
-375.637000
0
LINE
8
Layer 1
10
13.828880
20
-375.637000
11
25.399980
21
-393.417000
0
LINE
8
Layer 1
10
25.399980
20
-393.417000
11
25.399980
21
-395.392550
0
LINE
8
Layer 1
10
25.399980
20
-395.392550
11
25.399980
21
-397.085880
0
LINE
8
Layer 1
10
25.399980
20
-397.085880
11
13.828880
21
-415.430280
0
LINE
8
Layer 1
10
13.828880
20
-415.430280
11
2.257780
21
-434.056980
0
LINE
8
Layer 1
10
2.257780
20
-434.056980
11
1.128890
21
-434.056980
0
LINE
8
Layer 1
10
1.128890
20
-434.056980
11
0.000000
21
-434.056980
0
LINE
8
Layer 1
10
0.000000
20
-434.056980
11
0.000000
21
-395.956980
0
LINE
8
Layer 1
10
0.000000
20
-395.956980
11
0.000000
21
-395.957000
0
LINE
8
Layer 1
10
911.013000
20
-417.971000
11
903.957450
21
-407.246600
0
LINE
8
Layer 1
10
903.957450
20
-407.246600
11
900.853010
21
-401.037720
0
LINE
8
Layer 1
10
900.853010
20
-401.037720
11
897.466350
21
-394.828840
0
LINE
8
Layer 1
10
897.466350
20
-394.828840
11
908.755250
21
-377.048840
0
LINE
8
Layer 1
10
908.755250
20
-377.048840
11
920.044150
21
-359.268840
0
LINE
8
Layer 1
10
920.044150
20
-359.268840
11
920.044150
21
-393.982140
0
LINE
8
Layer 1
10
920.044150
20
-393.982140
11
920.044150
21
-428.413240
0
LINE
8
Layer 1
10
920.044150
20
-428.413240
11
918.915260
21
-428.413240
0
LINE
8
Layer 1
10
918.915260
20
-428.413240
11
918.068594
21
-428.413240
0
LINE
8
Layer 1
10
918.068594
20
-428.413240
11
911.013044
21
-417.971040
0
LINE
8
Layer 1
10
911.013044
20
-417.971040
11
911.013000
21
-417.971000
0
LINE
8
Layer 1
10
0.000000
20
-316.935000
11
0.000000
21
-278.835000
0
LINE
8
Layer 1
10
0.000000
20
-278.835000
11
1.128890
21
-278.835000
0
LINE
8
Layer 1
10
1.128890
20
-278.835000
11
2.257780
21
-278.835000
0
LINE
8
Layer 1
10
2.257780
20
-278.835000
11
13.828880
21
-296.615000
0
LINE
8
Layer 1
10
13.828880
20
-296.615000
11
25.399980
21
-314.395000
0
LINE
8
Layer 1
10
25.399980
20
-314.395000
11
25.399980
21
-316.370550
0
LINE
8
Layer 1
10
25.399980
20
-316.370550
11
25.399980
21
-318.063880
0
LINE
8
Layer 1
10
25.399980
20
-318.063880
11
13.828880
21
-336.408280
0
LINE
8
Layer 1
10
13.828880
20
-336.408280
11
2.257780
21
-355.034980
0
LINE
8
Layer 1
10
2.257780
20
-355.034980
11
1.128890
21
-355.034980
0
LINE
8
Layer 1
10
1.128890
20
-355.034980
11
0.000000
21
-355.034980
0
LINE
8
Layer 1
10
0.000000
20
-355.034980
11
0.000000
21
-316.934980
0
LINE
8
Layer 1
10
0.000000
20
-316.934980
11
0.000000
21
-316.935000
0
LINE
8
Layer 1
10
911.013000
20
-338.949000
11
903.957450
21
-328.224600
0
LINE
8
Layer 1
10
903.957450
20
-328.224600
11
900.853010
21
-322.015720
0
LINE
8
Layer 1
10
900.853010
20
-322.015720
11
897.466350
21
-315.806840
0
LINE
8
Layer 1
10
897.466350
20
-315.806840
11
908.755250
21
-298.026840
0
LINE
8
Layer 1
10
908.755250
20
-298.026840
11
920.044150
21
-280.246840
0
LINE
8
Layer 1
10
920.044150
20
-280.246840
11
920.044150
21
-314.960140
0
LINE
8
Layer 1
10
920.044150
20
-314.960140
11
920.044150
21
-349.391240
0
LINE
8
Layer 1
10
920.044150
20
-349.391240
11
918.915260
21
-349.391240
0
LINE
8
Layer 1
10
918.915260
20
-349.391240
11
918.068594
21
-349.391240
0
LINE
8
Layer 1
10
918.068594
20
-349.391240
11
911.013044
21
-338.949040
0
LINE
8
Layer 1
10
911.013044
20
-338.949040
11
911.013000
21
-338.949000
0
LINE
8
Layer 1
10
0.000000
20
-237.913000
11
0.000000
21
-199.813000
0
LINE
8
Layer 1
10
0.000000
20
-199.813000
11
1.128890
21
-199.813000
0
LINE
8
Layer 1
10
1.128890
20
-199.813000
11
2.257780
21
-199.813000
0
LINE
8
Layer 1
10
2.257780
20
-199.813000
11
13.828880
21
-217.593000
0
LINE
8
Layer 1
10
13.828880
20
-217.593000
11
25.399980
21
-235.373000
0
LINE
8
Layer 1
10
25.399980
20
-235.373000
11
25.399980
21
-237.348550
0
LINE
8
Layer 1
10
25.399980
20
-237.348550
11
25.399980
21
-239.041880
0
LINE
8
Layer 1
10
25.399980
20
-239.041880
11
13.828880
21
-257.386280
0
LINE
8
Layer 1
10
13.828880
20
-257.386280
11
2.257780
21
-276.012980
0
LINE
8
Layer 1
10
2.257780
20
-276.012980
11
1.128890
21
-276.012980
0
LINE
8
Layer 1
10
1.128890
20
-276.012980
11
0.000000
21
-276.012980
0
LINE
8
Layer 1
10
0.000000
20
-276.012980
11
0.000000
21
-237.912980
0
LINE
8
Layer 1
10
0.000000
20
-237.912980
11
0.000000
21
-237.913000
0
LINE
8
Layer 1
10
911.013000
20
-259.926000
11
903.957450
21
-249.201600
0
LINE
8
Layer 1
10
903.957450
20
-249.201600
11
900.853010
21
-242.992720
0
LINE
8
Layer 1
10
900.853010
20
-242.992720
11
897.466350
21
-236.783840
0
LINE
8
Layer 1
10
897.466350
20
-236.783840
11
908.755250
21
-219.003840
0
LINE
8
Layer 1
10
908.755250
20
-219.003840
11
920.044150
21
-201.223840
0
LINE
8
Layer 1
10
920.044150
20
-201.223840
11
920.044150
21
-235.937140
0
LINE
8
Layer 1
10
920.044150
20
-235.937140
11
920.044150
21
-270.368240
0
LINE
8
Layer 1
10
920.044150
20
-270.368240
11
918.915260
21
-270.368240
0
LINE
8
Layer 1
10
918.915260
20
-270.368240
11
918.068594
21
-270.368240
0
LINE
8
Layer 1
10
918.068594
20
-270.368240
11
911.013044
21
-259.926040
0
LINE
8
Layer 1
10
911.013044
20
-259.926040
11
911.013000
21
-259.926000
0
LINE
8
Layer 1
10
0.000000
20
-158.891000
11
0.000000
21
-120.791000
0
LINE
8
Layer 1
10
0.000000
20
-120.791000
11
1.128890
21
-120.791000
0
LINE
8
Layer 1
10
1.128890
20
-120.791000
11
2.257780
21
-120.791000
0
LINE
8
Layer 1
10
2.257780
20
-120.791000
11
13.828880
21
-138.571000
0
LINE
8
Layer 1
10
13.828880
20
-138.571000
11
25.399980
21
-156.351000
0
LINE
8
Layer 1
10
25.399980
20
-156.351000
11
25.399980
21
-158.326550
0
LINE
8
Layer 1
10
25.399980
20
-158.326550
11
25.399980
21
-160.019880
0
LINE
8
Layer 1
10
25.399980
20
-160.019880
11
13.828880
21
-178.364280
0
LINE
8
Layer 1
10
13.828880
20
-178.364280
11
2.257780
21
-196.990980
0
LINE
8
Layer 1
10
2.257780
20
-196.990980
11
1.128890
21
-196.990980
0
LINE
8
Layer 1
10
1.128890
20
-196.990980
11
0.000000
21
-196.990980
0
LINE
8
Layer 1
10
0.000000
20
-196.990980
11
0.000000
21
-158.890980
0
LINE
8
Layer 1
10
0.000000
20
-158.890980
11
0.000000
21
-158.891000
0
LINE
8
Layer 1
10
911.013000
20
-180.904000
11
903.957450
21
-170.179600
0
LINE
8
Layer 1
10
903.957450
20
-170.179600
11
900.853010
21
-163.970720
0
LINE
8
Layer 1
10
900.853010
20
-163.970720
11
897.466350
21
-157.761840
0
LINE
8
Layer 1
10
897.466350
20
-157.761840
11
908.755250
21
-139.981840
0
LINE
8
Layer 1
10
908.755250
20
-139.981840
11
920.044150
21
-122.201840
0
LINE
8
Layer 1
10
920.044150
20
-122.201840
11
920.044150
21
-156.915140
0
LINE
8
Layer 1
10
920.044150
20
-156.915140
11
920.044150
21
-191.346240
0
LINE
8
Layer 1
10
920.044150
20
-191.346240
11
918.915260
21
-191.346240
0
LINE
8
Layer 1
10
918.915260
20
-191.346240
11
918.068594
21
-191.346240
0
LINE
8
Layer 1
10
918.068594
20
-191.346240
11
911.013044
21
-180.904040
0
LINE
8
Layer 1
10
911.013044
20
-180.904040
11
911.013000
21
-180.904000
0
LINE
8
Layer 1
10
0.000000
20
-79.868700
11
0.000000
21
-41.768700
0
LINE
8
Layer 1
10
0.000000
20
-41.768700
11
1.128890
21
-41.768700
0
LINE
8
Layer 1
10
1.128890
20
-41.768700
11
2.257780
21
-41.768700
0
LINE
8
Layer 1
10
2.257780
20
-41.768700
11
13.828880
21
-59.548700
0
LINE
8
Layer 1
10
13.828880
20
-59.548700
11
25.399980
21
-77.328700
0
LINE
8
Layer 1
10
25.399980
20
-77.328700
11
25.399980
21
-79.304250
0
LINE
8
Layer 1
10
25.399980
20
-79.304250
11
25.399980
21
-80.997580
0
LINE
8
Layer 1
10
25.399980
20
-80.997580
11
13.828880
21
-99.341980
0
LINE
8
Layer 1
10
13.828880
20
-99.341980
11
2.257780
21
-117.968680
0
LINE
8
Layer 1
10
2.257780
20
-117.968680
11
1.128890
21
-117.968680
0
LINE
8
Layer 1
10
1.128890
20
-117.968680
11
0.000000
21
-117.968680
0
LINE
8
Layer 1
10
0.000000
20
-117.968680
11
0.000000
21
-79.868680
0
LINE
8
Layer 1
10
0.000000
20
-79.868680
11
0.000000
21
-79.868700
0
LINE
8
Layer 1
10
911.013000
20
-101.882000
11
903.957450
21
-91.157600
0
LINE
8
Layer 1
10
903.957450
20
-91.157600
11
900.853010
21
-84.948720
0
LINE
8
Layer 1
10
900.853010
20
-84.948720
11
897.466350
21
-78.739840
0
LINE
8
Layer 1
10
897.466350
20
-78.739840
11
908.755250
21
-60.959840
0
LINE
8
Layer 1
10
908.755250
20
-60.959840
11
920.044150
21
-43.179840
0
LINE
8
Layer 1
10
920.044150
20
-43.179840
11
920.044150
21
-77.893140
0
LINE
8
Layer 1
10
920.044150
20
-77.893140
11
920.044150
21
-112.324240
0
LINE
8
Layer 1
10
920.044150
20
-112.324240
11
918.915260
21
-112.324240
0
LINE
8
Layer 1
10
918.915260
20
-112.324240
11
918.068594
21
-112.324240
0
LINE
8
Layer 1
10
918.068594
20
-112.324240
11
911.013044
21
-101.882040
0
LINE
8
Layer 1
10
911.013044
20
-101.882040
11
911.013000
21
-101.882000
0
LINE
8
Layer 1
10
0.000000
20
-0.846570
11
0.000000
21
37.253430
0
LINE
8
Layer 1
10
0.000000
20
37.253430
11
1.128890
21
37.253430
0
LINE
8
Layer 1
10
1.128890
20
37.253430
11
2.257780
21
37.253430
0
LINE
8
Layer 1
10
2.257780
20
37.253430
11
13.828880
21
19.473430
0
LINE
8
Layer 1
10
13.828880
20
19.473430
11
25.399980
21
1.693430
0
LINE
8
Layer 1
10
25.399980
20
1.693430
11
25.399980
21
-0.282120
0
LINE
8
Layer 1
10
25.399980
20
-0.282120
11
25.399980
21
-1.975450
0
LINE
8
Layer 1
10
25.399980
20
-1.975450
11
13.828880
21
-20.319850
0
LINE
8
Layer 1
10
13.828880
20
-20.319850
11
2.257780
21
-38.946550
0
LINE
8
Layer 1
10
2.257780
20
-38.946550
11
1.128890
21
-38.946550
0
LINE
8
Layer 1
10
1.128890
20
-38.946550
11
0.000000
21
-38.946550
0
LINE
8
Layer 1
10
0.000000
20
-38.946550
11
0.000000
21
-0.846550
0
LINE
8
Layer 1
10
0.000000
20
-0.846550
11
0.000000
21
-0.846570
0
LINE
8
Layer 1
10
911.013000
20
-22.859900
11
903.957450
21
-12.135500
0
LINE
8
Layer 1
10
903.957450
20
-12.135500
11
900.853010
21
-5.926620
0
LINE
8
Layer 1
10
900.853010
20
-5.926620
11
897.466350
21
0.282260
0
LINE
8
Layer 1
10
897.466350
20
0.282260
11
908.755250
21
18.062260
0
LINE
8
Layer 1
10
908.755250
20
18.062260
11
920.044150
21
35.842260
0
LINE
8
Layer 1
10
920.044150
20
35.842260
11
920.044150
21
1.128960
0
LINE
8
Layer 1
10
920.044150
20
1.128960
11
920.044150
21
-33.302140
0
LINE
8
Layer 1
10
920.044150
20
-33.302140
11
918.915260
21
-33.302140
0
LINE
8
Layer 1
10
918.915260
20
-33.302140
11
918.068594
21
-33.302140
0
LINE
8
Layer 1
10
918.068594
20
-33.302140
11
911.013044
21
-22.859940
0
LINE
8
Layer 1
10
911.013044
20
-22.859940
11
911.013000
21
-22.859900
0
LINE
8
Layer 1
10
0.000000
20
59.831200
11
0.000000
21
79.586700
0
LINE
8
Layer 1
10
0.000000
20
79.586700
11
12.700000
21
79.586700
0
LINE
8
Layer 1
10
12.700000
20
79.586700
11
25.400000
21
79.586700
0
LINE
8
Layer 1
10
25.400000
20
79.586700
11
25.400000
21
78.457810
0
LINE
8
Layer 1
10
25.400000
20
78.457810
11
25.400000
21
77.046700
0
LINE
8
Layer 1
10
25.400000
20
77.046700
11
13.828900
21
58.702300
0
LINE
8
Layer 1
10
13.828900
20
58.702300
11
2.257800
21
40.075600
0
LINE
8
Layer 1
10
2.257800
20
40.075600
11
1.128910
21
40.075600
0
LINE
8
Layer 1
10
1.128910
20
40.075600
11
0.000020
21
40.075600
0
LINE
8
Layer 1
10
0.000020
20
40.075600
11
0.000020
21
59.831100
0
LINE
8
Layer 1
10
0.000020
20
59.831100
11
0.000000
21
59.831200
0
LINE
8
Layer 1
10
907.908000
20
61.242300
11
897.183600
21
78.175600
0
LINE
8
Layer 1
10
897.183600
20
78.175600
11
907.625800
21
79.022266
0
LINE
8
Layer 1
10
907.625800
20
79.022266
11
917.785800
21
79.868932
0
LINE
8
Layer 1
10
917.785800
20
79.868932
11
919.196910
21
78.740042
0
LINE
8
Layer 1
10
919.196910
20
78.740042
11
920.325800
21
77.328932
0
LINE
8
Layer 1
10
920.325800
20
77.328932
11
919.479134
21
60.960032
0
LINE
8
Layer 1
10
919.479134
20
60.960032
11
918.632468
21
44.308932
0
LINE
8
Layer 1
10
918.632468
20
44.308932
11
907.908068
21
61.242232
0
LINE
8
Layer 1
10
907.908068
20
61.242232
11
907.908000
21
61.242300
 0 
ENDSEC
 0 
EOF