<?xml version="1.0" standalone="no"?>
<!DOCTYPE svg PUBLIC "-//W3C//DTD SVG 20010904//EN"
 "http://www.w3.org/TR/2001/REC-SVG-20010904/DTD/svg10.dtd">
<svg version="1.0" xmlns="http://www.w3.org/2000/svg"
 width="326.000000pt" height="282.000000pt" viewBox="0 0 326.000000 282.000000"
 preserveAspectRatio="xMidYMid meet">
<metadata>
Created by potrace 1.16, written by Peter Selinger 2001-2019
</metadata>
<g transform="translate(0.000000,282.000000) scale(0.100000,-0.100000)"
fill="#000000" stroke="none">
<path d="M0 2745 l0 -75 4 0 3 0 35 53 35 52 12 23 12 22 -51 0 -50 0 0 -75z"/>
<path d="M1569 2788 l21 -33 22 -37 21 -37 90 -3 90 -3 5 -12 4 -13 -96 0 -95
0 -43 70 -43 70 -438 0 -438 0 23 -38 23 -38 55 -86 55 -87 89 -3 89 -3 5 -12
4 -13 -91 0 -91 0 -40 -62 -40 -62 2 -6 3 -5 35 -58 35 -57 181 0 182 0 42
-67 43 -67 23 29 23 29 17 31 17 31 -73 115 -73 114 -12 13 -12 14 -42 -66
-41 -66 -96 0 -96 0 4 13 5 12 89 3 89 3 38 59 39 59 -4 8 -3 8 -35 58 -35 57
-93 0 -94 0 5 13 4 12 268 0 268 0 4 -12 5 -13 -171 -2 -171 -3 96 -150 97
-150 32 -51 33 -51 -93 -144 -93 -144 -93 -5 -93 -5 -87 -135 -87 -135 -171
-5 -171 -5 39 -61 39 -62 -29 -43 -30 -44 -15 -27 -14 -27 35 -56 36 -56 9 6
9 6 37 59 37 60 92 0 93 0 50 -79 50 -78 -50 -77 -49 -76 -93 0 -93 0 -6 6 -5
6 46 73 47 74 8 0 7 1 0 -11 0 -10 -28 -42 -29 -42 -7 -13 -7 -12 78 0 78 0
38 60 39 59 -4 8 -3 8 -35 58 -35 57 -88 0 -87 0 -46 -70 -45 -70 -3 0 -4 0
-49 78 -50 78 44 64 43 65 0 7 0 7 -37 60 -38 61 -93 0 -94 0 4 13 5 12 269 3
269 2 89 140 90 140 90 0 91 0 38 60 39 59 -4 8 -3 8 -35 58 -35 57 -178 0
-177 0 -46 -70 -45 -70 -93 0 -93 0 -6 6 -5 6 46 73 47 74 8 0 7 1 0 -11 0
-10 -28 -42 -29 -42 -7 -12 -7 -13 78 0 78 0 38 60 39 59 -4 8 -3 8 -35 58
-35 57 -91 0 -91 0 -6 6 -6 6 40 59 39 59 6 13 5 14 -42 67 -42 67 7 6 6 6 4
-4 4 -4 45 -71 45 -72 -22 -33 -23 -34 -18 -27 -17 -28 78 0 79 0 38 60 39 59
-4 9 -3 9 -80 126 -80 127 -178 0 -177 0 -47 -72 -47 -72 -4 13 -4 12 36 54
36 55 0 5 0 5 -75 0 -75 0 -40 -62 -40 -62 2 -6 3 -5 35 -57 34 -57 90 -3 89
-3 5 -12 4 -13 -91 0 -91 0 -40 -62 -40 -62 2 -6 3 -5 35 -58 35 -57 92 0 92
0 5 -8 5 -8 -52 -79 -51 -79 -4 12 -4 13 36 54 36 55 0 5 0 5 -75 0 -74 0 -29
-42 -29 -43 -12 -22 -11 -22 44 -69 44 -69 -29 -44 -30 -44 -15 -27 -14 -27
35 -56 36 -56 9 6 9 6 37 59 37 60 271 0 271 0 33 50 32 50 0 5 0 5 -261 0
-261 0 4 13 5 12 76 5 77 5 -39 60 -38 61 44 64 43 65 0 7 0 7 -38 60 -37 61
-93 0 -94 0 4 13 5 12 89 3 89 3 38 58 37 58 0 6 0 6 -41 66 -42 66 7 6 6 6 4
-4 4 -4 45 -71 45 -71 -29 -44 -30 -44 -15 -27 -14 -27 44 -69 44 -69 -29 -44
-30 -44 -14 -27 -15 -27 38 -60 37 -61 180 0 180 0 45 70 44 71 90 -3 89 -3 4
-12 4 -12 -92 -3 -93 -3 -87 -135 -87 -135 -271 -3 -271 -2 -74 -114 -75 -115
-10 -20 -11 -20 44 -69 44 -69 -29 -44 -30 -44 -15 -27 -14 -27 36 -57 36 -56
13 13 13 14 111 173 111 173 0 5 0 4 -81 0 -81 0 4 13 5 12 88 3 88 3 8 -8 8
-8 -125 -194 -124 -193 -10 -18 -10 -19 41 -65 41 -65 -4 -12 -4 -12 -43 68
-44 69 -14 -20 -15 -19 -24 -42 -25 -41 45 -70 44 -69 -29 -44 -30 -44 -14
-27 -15 -27 38 -60 37 -61 180 0 180 0 40 65 40 64 8 1 7 0 0 -11 0 -10 -29
-42 -28 -42 -12 -22 -11 -22 85 -133 85 -133 0 -12 0 -13 -4 0 -5 0 -43 70
-43 70 -88 0 -87 0 -66 -102 -66 -102 -26 -41 -25 -40 -5 13 -4 13 81 125 81
125 0 5 0 4 -81 0 -81 0 4 13 5 12 166 5 165 5 -31 53 -32 52 -177 0 -177 0
-29 -42 -29 -43 -12 -22 -11 -22 44 -69 44 -69 -29 -44 -30 -44 -14 -27 -15
-27 38 -60 37 -61 90 0 90 0 85 135 85 134 8 1 7 0 0 -10 0 -10 -73 -112 -73
-113 -8 -12 -7 -13 78 0 78 0 44 70 44 70 91 0 91 0 39 60 38 60 -5 12 -6 13
-83 130 -84 130 50 78 50 77 180 -2 179 -3 5 -12 4 -13 -181 0 -180 0 -29 -42
-29 -43 -12 -22 -11 -22 45 -71 45 -70 44 -68 44 -69 -50 -76 -49 -77 -89 0
-89 0 -36 -52 -35 -53 254 -3 255 -2 260 2 259 3 -31 53 -32 52 -182 0 -181 0
-41 65 -41 65 -4 0 -4 0 -43 -67 -42 -68 -5 13 -4 13 41 63 41 62 0 7 0 7 -44
68 -43 68 38 54 38 55 1 8 0 7 -81 0 -81 0 4 13 5 12 179 3 179 3 38 58 37 58
0 6 0 6 -41 66 -42 66 7 6 6 6 4 -4 4 -4 37 -59 38 -60 23 29 23 29 17 31 16
30 -38 63 -39 62 -88 0 -87 0 -46 -70 -45 -70 -274 0 -273 0 -42 67 -43 67
-14 -20 -15 -19 -24 -41 -25 -42 42 -66 41 -65 -4 -12 -4 -12 -42 66 -42 67
-4 0 -4 0 -43 -67 -42 -68 -5 13 -4 13 86 133 86 133 0 6 0 7 -35 55 -36 55
-5 15 -6 15 8 0 9 0 85 -135 85 -135 270 0 270 0 44 70 44 70 91 0 91 0 38 58
37 59 0 6 0 7 -80 125 -80 125 -6 15 -6 15 8 0 9 0 91 -143 92 -142 -16 -25
-16 -25 -29 -46 -28 -47 44 -69 45 -70 -93 -144 -93 -144 -91 -3 -92 -3 -40
-61 -39 -62 2 -6 3 -7 80 -126 80 -127 181 0 182 0 51 -80 51 -80 76 0 76 0
-4 9 -3 8 -80 126 -80 127 -181 0 -182 0 -51 80 -51 81 13 5 14 5 83 -3 83 -3
4 -12 4 -12 -80 -3 -79 -3 31 -52 32 -53 90 0 90 0 38 58 37 59 -1 9 0 9 -43
65 -42 65 84 129 84 130 5 12 4 11 -42 67 -42 67 7 6 6 6 4 -4 4 -4 45 -71 45
-71 -44 -68 -44 -69 2 -6 3 -7 80 -126 80 -126 179 -3 179 -3 4 -12 5 -13
-171 -2 -170 -3 35 -58 36 -57 -4 -11 -4 -12 -131 204 -130 204 -9 -3 -9 -2
-33 -54 -33 -54 44 -69 45 -70 -39 -59 -39 -59 80 -3 79 -3 43 -69 43 -70 90
0 90 0 44 70 44 70 91 0 91 0 38 60 39 59 -4 8 -3 8 -35 58 -35 57 -181 0
-182 0 -49 78 -50 78 44 64 43 65 -2 11 -3 12 -215 336 -215 335 -87 1 -87 0
-29 -42 -29 -43 -12 -22 -11 -22 89 -138 88 -138 -4 -7 -4 -8 -90 0 -89 0 -46
-70 -45 -70 -183 0 -184 0 -86 135 -87 135 -5 15 -6 15 8 0 9 0 85 -135 85
-135 180 0 180 0 44 70 44 69 78 3 79 3 -123 192 -122 192 -93 1 -94 0 4 13 5
12 90 3 91 3 41 -66 41 -65 5 0 5 0 41 63 40 62 79 5 79 5 -32 53 -32 52 -93
0 -94 0 4 13 5 12 90 3 90 3 134 -210 134 -210 92 -1 92 0 46 -75 47 -75 -4
-12 -4 -12 -45 72 -44 72 -78 0 -78 0 23 -38 23 -38 55 -86 55 -87 89 -3 89
-3 4 -12 4 -12 -80 -3 -81 -3 80 -125 80 -125 0 -12 0 -13 -4 0 -4 0 -42 67
-43 67 -14 -20 -15 -19 -24 -41 -25 -42 38 -61 38 -61 90 0 90 0 89 140 89
139 78 3 77 3 -31 53 -32 52 -88 0 -87 0 -47 -72 -47 -72 -4 12 -4 12 48 75
47 75 93 0 92 0 50 -79 50 -79 -5 -6 -6 -6 -89 0 -88 0 -73 -113 -73 -112 -8
-12 -7 -13 78 0 78 0 44 70 44 70 93 0 92 0 42 -67 43 -67 23 29 23 29 17 31
16 31 -89 140 -90 139 4 8 4 7 92 0 92 0 45 70 44 71 90 -3 89 -3 5 -12 4 -13
-91 0 -90 0 -29 -42 -29 -43 -12 -22 -11 -22 41 -65 41 -65 -4 -13 -4 -12 -45
72 -44 72 -78 0 -79 0 23 -37 23 -38 62 -95 62 -95 -16 -25 -16 -25 -28 -46
-29 -46 38 -61 38 -61 179 -3 179 -3 5 -12 4 -13 -185 0 -185 0 -88 140 -89
140 -87 0 -87 0 -29 -42 -29 -43 -12 -22 -11 -22 44 -69 44 -69 -29 -44 -30
-44 -14 -27 -15 -27 38 -60 37 -60 89 -3 89 -3 5 -12 4 -13 -96 0 -95 0 -43
70 -43 70 -88 0 -87 0 -45 -70 -45 -69 -79 -3 -79 -3 31 -53 32 -52 168 0 169
0 -23 38 -23 37 -13 20 -13 19 0 8 0 8 8 0 8 0 39 -65 40 -65 180 0 180 0 38
60 39 59 -4 8 -3 8 -35 58 -35 57 -91 0 -91 0 -6 6 -6 6 40 59 39 59 6 13 5
14 -42 67 -42 67 7 6 6 6 4 -4 4 -4 45 -71 45 -71 -39 -59 -39 -59 167 -5 166
-5 4 -12 4 -12 -80 -3 -79 -3 31 -53 32 -52 90 0 90 0 44 70 44 70 91 0 91 0
38 60 39 59 -4 8 -3 8 -35 58 -35 57 -183 0 -184 0 4 13 5 12 89 3 89 3 38 58
37 58 0 6 0 7 -35 55 -36 55 -3 0 -4 0 -43 -67 -42 -68 -5 13 -4 13 41 63 41
62 0 7 0 6 -41 66 -42 66 7 6 6 6 4 -4 4 -4 44 -70 45 -70 46 -71 45 -72 -22
-33 -23 -34 -18 -28 -17 -27 79 0 78 0 40 65 40 64 8 1 7 0 0 -11 0 -10 -29
-42 -28 -42 -12 -22 -11 -22 44 -69 44 -69 -50 -76 -49 -77 -90 0 -89 0 -46
-70 -45 -70 -89 0 -89 0 -29 -42 -29 -43 -7 -12 -7 -13 348 0 348 0 38 58 37
59 0 6 0 7 -35 55 -36 55 -3 0 -4 0 -41 -65 -41 -65 -96 0 -96 0 4 13 5 12 89
3 89 3 83 128 82 128 0 7 0 6 -43 68 -44 67 44 65 43 65 0 7 0 8 -80 125 -80
125 -6 15 -6 15 8 0 9 0 39 -62 39 -62 23 29 23 29 17 31 16 30 -38 63 -39 62
-87 0 -87 0 -29 -42 -29 -43 -12 -22 -11 -22 41 -65 41 -65 -4 -12 -4 -12 -50
79 -51 80 44 64 43 65 0 7 0 7 -37 60 -38 61 -267 0 -267 0 -36 -52 -35 -53
77 -5 76 -5 5 -12 4 -13 -187 0 -187 0 4 13 5 12 89 3 89 3 38 58 37 58 0 6 0
7 -44 69 -45 69 6 6 6 6 91 0 91 0 89 140 90 140 92 0 93 0 46 -75 47 -75 -4
-12 -4 -12 -45 72 -44 72 -88 0 -87 0 -80 -122 -79 -123 76 -5 76 -5 4 -12 5
-13 -170 -2 -170 -3 31 -52 32 -53 180 0 180 0 38 58 37 59 0 6 0 7 -35 55
-36 55 -5 15 -6 15 9 0 9 0 39 -65 40 -65 90 0 90 0 38 58 37 59 0 6 0 6 -41
66 -42 66 7 6 6 6 4 -4 4 -4 45 -71 45 -71 -29 -44 -30 -44 -14 -27 -15 -27
41 -65 41 -65 -4 -13 -4 -12 -45 72 -44 72 -87 0 -87 0 -36 -52 -35 -53 79 -3
80 -3 43 -69 43 -70 90 0 90 0 37 58 38 59 0 6 0 7 -43 68 -44 67 44 65 43 65
0 7 0 8 -43 68 -44 67 44 65 43 65 0 7 0 8 -35 55 -36 55 -3 0 -4 0 -41 -65
-41 -65 -270 0 -270 0 -66 -102 -66 -102 -26 -41 -25 -40 -5 13 -4 13 36 54
36 55 0 5 0 5 -75 0 -75 0 -66 -102 -66 -102 -26 -41 -25 -40 -5 13 -4 13 36
54 36 55 0 5 0 5 -75 0 -75 0 -40 -62 -40 -62 2 -6 3 -5 35 -57 34 -57 90 -3
89 -3 5 -12 4 -13 -91 0 -91 0 -46 -70 -45 -70 -3 0 -4 0 -88 140 -89 140 -91
0 -91 0 -6 6 -6 6 40 59 39 59 6 14 5 14 -81 126 -80 126 -6 15 -6 15 8 0 9 0
36 -57 36 -58 56 -86 56 -87 -23 -33 -23 -34 -18 -27 -17 -28 79 0 78 0 40 65
40 64 8 1 7 0 0 -11 0 -10 -29 -42 -28 -42 -12 -22 -11 -23 71 -112 72 -113
13 -14 12 -13 36 53 36 54 0 7 0 8 -43 68 -44 67 44 65 43 65 0 7 0 7 -37 60
-38 61 -92 0 -91 0 -49 77 -49 78 50 77 50 78 92 0 93 0 5 -8 5 -8 -52 -79
-51 -79 -4 12 -4 13 36 54 36 55 0 5 0 5 -75 0 -75 0 -40 -62 -40 -62 2 -6 3
-5 35 -58 35 -57 92 0 92 0 43 -70 43 -70 90 0 90 0 39 60 38 60 -5 12 -6 13
-74 115 -74 115 -8 -1 -8 -2 -34 -54 -34 -55 41 -66 42 -66 -4 -12 -4 -12 -50
79 -51 80 44 64 43 65 0 7 0 7 -37 60 -38 61 -178 0 -177 0 -46 -70 -45 -70
-89 0 -89 0 -29 -42 -29 -43 -12 -22 -11 -22 85 -133 85 -133 0 -12 0 -13 -4
0 -4 0 -88 140 -89 140 -93 0 -94 0 4 13 5 12 89 3 89 3 128 200 129 199 -5
13 -6 12 -84 130 -84 130 4 8 4 7 184 0 184 0 43 -70 43 -70 90 0 90 0 33 50
32 50 0 5 0 5 -81 0 -81 0 4 13 5 12 88 3 88 3 8 -8 8 -8 -50 -78 -50 -77 -90
0 -89 0 -47 -72 -47 -72 -4 12 -4 13 42 64 42 64 -4 8 -3 8 -35 58 -35 57 -78
0 -79 0 23 -37 23 -38 14 -22 14 -22 -4 -13 -4 -12 -45 72 -44 72 -79 0 -78 0
14 -22 14 -23 70 -109 69 -110 -2 -8 -3 -8 -73 -112 -73 -113 -8 -12 -7 -13
78 0 78 0 44 70 44 70 182 0 183 0 133 -210 134 -209 90 -1 90 0 44 70 44 70
91 0 91 0 40 65 40 64 8 1 7 0 0 -11 0 -10 -28 -42 -29 -42 -7 -12 -7 -13 78
0 78 0 85 135 85 134 8 1 7 0 0 -10 0 -10 -73 -112 -73 -113 -8 -12 -7 -13 78
0 78 0 83 129 82 128 0 7 0 6 -43 68 -44 67 44 65 43 65 0 7 0 8 -80 125 -80
125 -6 15 -6 15 8 0 9 0 39 -62 39 -62 23 29 23 29 17 31 16 30 -38 63 -39 62
-358 0 -357 0 -47 -72 -47 -72 -4 13 -4 12 36 54 36 55 0 5 0 5 -75 0 -75 0
-40 -62 -40 -62 2 -6 3 -5 35 -58 35 -57 90 0 90 0 44 70 44 70 182 0 183 0
87 -137 88 -137 5 -18 4 -18 -5 0 -5 0 -42 67 -43 67 -14 -20 -15 -19 -24 -42
-25 -41 44 -70 45 -69 -50 -76 -49 -77 -4 0 -4 0 -43 70 -43 70 -88 0 -87 0
-47 -72 -47 -72 -4 13 -4 12 36 54 36 55 0 5 0 5 -75 0 -75 0 -74 -114 -75
-115 -10 -20 -11 -20 35 -56 36 -56 9 6 9 6 37 59 37 60 91 0 91 0 40 65 40
64 8 1 7 0 0 -10 0 -9 -45 -71 -46 -70 -90 0 -89 0 -46 -71 -46 -70 -6 6 -7 7
-46 71 -45 72 84 129 84 130 5 12 4 12 -36 56 -36 56 -3 0 -4 0 -43 -67 -42
-68 -5 13 -4 12 44 70 43 69 10 1 11 0 39 -65 40 -65 90 0 90 0 38 58 37 59 0
6 0 7 -45 70 -45 71 13 5 14 5 83 -3 83 -3 4 -12 4 -12 -80 -3 -81 -3 39 -61
39 -62 -39 -58 -39 -59 79 -3 80 -3 42 -66 42 -67 23 29 23 29 17 31 16 31
-44 70 -45 69 44 65 43 65 0 7 0 7 -37 60 -38 61 -177 0 -177 0 -29 -42 -29
-43 -12 -22 -11 -22 41 -65 41 -65 -4 -13 -4 -12 -45 72 -44 72 -88 0 -87 0
-74 -114 -75 -115 -10 -20 -11 -20 41 -65 41 -65 -4 -13 -4 -12 -45 72 -44 72
-93 0 -94 0 4 13 5 12 89 3 89 3 83 129 84 130 -4 8 -3 7 -35 58 -35 57 -93 0
-94 0 4 13 5 12 89 3 89 3 33 49 32 50 0 5 0 5 -261 0 -261 0 6 15 5 15 -90 0
-91 0 21 -32z"/>
<path d="M3176 2808 l8 -13 38 -60 38 -60 0 73 0 72 -46 0 -45 0 7 -12z"/>
<path d="M0 2525 l0 -135 4 0 4 0 41 63 41 63 0 7 0 6 -41 65 -41 66 -4 0 -4
0 0 -135z"/>
<path d="M3228 2603 l-25 -38 -11 -22 -12 -22 40 -63 40 -63 0 123 0 122 -4 0
-3 0 -25 -37z"/>
<path d="M0 2245 l0 -135 4 0 4 0 41 63 41 63 0 7 0 6 -41 65 -41 66 -4 0 -4
0 0 -135z"/>
<path d="M3228 2323 l-25 -38 -11 -22 -12 -22 40 -63 40 -63 0 123 0 122 -4 0
-3 0 -25 -37z"/>
<path d="M0 1965 l0 -135 4 0 4 0 41 63 41 63 0 7 0 6 -41 65 -41 66 -4 0 -4
0 0 -135z"/>
<path d="M3228 2043 l-25 -38 -11 -22 -12 -22 40 -63 40 -63 0 123 0 122 -4 0
-3 0 -25 -37z"/>
<path d="M0 1685 l0 -135 4 0 4 0 41 63 41 63 0 7 0 6 -41 65 -41 66 -4 0 -4
0 0 -135z"/>
<path d="M3228 1763 l-25 -38 -11 -22 -12 -22 40 -63 40 -63 0 123 0 122 -4 0
-3 0 -25 -37z"/>
<path d="M0 1405 l0 -135 4 0 4 0 41 63 41 63 0 7 0 6 -41 65 -41 66 -4 0 -4
0 0 -135z"/>
<path d="M3228 1483 l-25 -38 -11 -22 -12 -22 40 -63 40 -63 0 123 0 122 -4 0
-3 0 -25 -37z"/>
<path d="M0 1125 l0 -135 4 0 4 0 41 63 41 63 0 7 0 6 -41 65 -41 66 -4 0 -4
0 0 -135z"/>
<path d="M3228 1203 l-25 -38 -11 -22 -12 -22 40 -63 40 -63 0 123 0 122 -4 0
-3 0 -25 -37z"/>
<path d="M0 845 l0 -135 4 0 4 0 41 63 41 63 0 7 0 6 -41 65 -41 66 -4 0 -4 0
0 -135z"/>
<path d="M3228 923 l-25 -38 -11 -22 -12 -22 40 -63 40 -63 0 123 0 122 -4 0
-3 0 -25 -37z"/>
<path d="M0 565 l0 -135 4 0 4 0 41 63 41 63 0 7 0 6 -41 65 -41 66 -4 0 -4 0
0 -135z"/>
<path d="M3228 643 l-25 -38 -11 -22 -12 -22 40 -63 40 -63 0 123 0 122 -4 0
-3 0 -25 -37z"/>
<path d="M0 285 l0 -135 4 0 4 0 41 63 41 63 0 7 0 6 -41 65 -41 66 -4 0 -4 0
0 -135z"/>
<path d="M3228 363 l-25 -38 -11 -22 -12 -22 40 -63 40 -63 0 123 0 122 -4 0
-3 0 -25 -37z"/>
<path d="M0 70 l0 -70 45 0 45 0 0 4 0 5 -41 65 -41 66 -4 0 -4 0 0 -70z"/>
<path d="M3217 65 l-38 -60 37 -3 36 -3 5 4 4 5 -3 58 -3 59 -38 -60z"/>
</g>
</svg>
